G04 EAGLE Gerber X2 export*
%TF.Part,Single*%
%TF.FileFunction,Profile,NP*%
%TF.FilePolarity,Positive*%
%TF.GenerationSoftware,Autodesk,EAGLE,9.6.2*%
%TF.CreationDate,2024-11-13T18:57:59Z*%
G75*
%MOMM*%
%FSLAX44Y44*%
%LPD*%
%INoutline*%
%AMOC8*
5,1,8,0,0,1.08239X$1,22.5*%
G01*
%ADD10C,0.000000*%


D10*
X327980Y304800D02*
X-304612Y304800D01*
X-304919Y304796D01*
X-305226Y304785D01*
X-305532Y304767D01*
X-305838Y304741D01*
X-306143Y304707D01*
X-306447Y304667D01*
X-306750Y304619D01*
X-307052Y304563D01*
X-307352Y304501D01*
X-307651Y304431D01*
X-307948Y304354D01*
X-308244Y304270D01*
X-308537Y304178D01*
X-308827Y304080D01*
X-309115Y303975D01*
X-309401Y303862D01*
X-309684Y303743D01*
X-309964Y303617D01*
X-310241Y303485D01*
X-310514Y303345D01*
X-310784Y303199D01*
X-311050Y303047D01*
X-311313Y302888D01*
X-311572Y302723D01*
X-311826Y302552D01*
X-312077Y302375D01*
X-312323Y302191D01*
X-312565Y302002D01*
X-312801Y301807D01*
X-313034Y301606D01*
X-313261Y301400D01*
X-313483Y301188D01*
X-313700Y300971D01*
X-313912Y300749D01*
X-314118Y300522D01*
X-314319Y300289D01*
X-314514Y300053D01*
X-314703Y299811D01*
X-314887Y299565D01*
X-315064Y299314D01*
X-315235Y299060D01*
X-315400Y298801D01*
X-315559Y298538D01*
X-315711Y298272D01*
X-315857Y298002D01*
X-315997Y297729D01*
X-316129Y297452D01*
X-316255Y297172D01*
X-316374Y296889D01*
X-316487Y296603D01*
X-316592Y296315D01*
X-316690Y296025D01*
X-316782Y295732D01*
X-316866Y295436D01*
X-316943Y295139D01*
X-317013Y294840D01*
X-317075Y294540D01*
X-317131Y294238D01*
X-317179Y293935D01*
X-317219Y293631D01*
X-317253Y293326D01*
X-317279Y293020D01*
X-317297Y292714D01*
X-317308Y292407D01*
X-317312Y292100D01*
X-317312Y282448D01*
X-317314Y282297D01*
X-317320Y282146D01*
X-317330Y281995D01*
X-317344Y281844D01*
X-317361Y281694D01*
X-317383Y281544D01*
X-317409Y281395D01*
X-317438Y281247D01*
X-317472Y281100D01*
X-317509Y280953D01*
X-317550Y280808D01*
X-317595Y280663D01*
X-317643Y280520D01*
X-317696Y280378D01*
X-317752Y280238D01*
X-317811Y280099D01*
X-317875Y279961D01*
X-317942Y279826D01*
X-318012Y279692D01*
X-318086Y279560D01*
X-318163Y279430D01*
X-318244Y279302D01*
X-318328Y279176D01*
X-318415Y279053D01*
X-318506Y278932D01*
X-318599Y278813D01*
X-318696Y278697D01*
X-318796Y278583D01*
X-318898Y278472D01*
X-319004Y278364D01*
X-319112Y278258D01*
X-319223Y278156D01*
X-319337Y278056D01*
X-319453Y277959D01*
X-319572Y277866D01*
X-319693Y277775D01*
X-319816Y277688D01*
X-319942Y277604D01*
X-320070Y277523D01*
X-320200Y277446D01*
X-320332Y277372D01*
X-320466Y277302D01*
X-320601Y277235D01*
X-320739Y277171D01*
X-320878Y277112D01*
X-321018Y277056D01*
X-321160Y277003D01*
X-321303Y276955D01*
X-321448Y276910D01*
X-321593Y276869D01*
X-321740Y276832D01*
X-321887Y276798D01*
X-322035Y276769D01*
X-322184Y276743D01*
X-322334Y276721D01*
X-322484Y276704D01*
X-322635Y276690D01*
X-322786Y276680D01*
X-322937Y276674D01*
X-323088Y276672D01*
X-333060Y276672D01*
X-333244Y276670D01*
X-333428Y276663D01*
X-333612Y276652D01*
X-333795Y276636D01*
X-333978Y276616D01*
X-334161Y276592D01*
X-334343Y276563D01*
X-334524Y276530D01*
X-334704Y276492D01*
X-334884Y276451D01*
X-335062Y276404D01*
X-335239Y276354D01*
X-335415Y276299D01*
X-335589Y276240D01*
X-335762Y276177D01*
X-335933Y276109D01*
X-336103Y276038D01*
X-336271Y275962D01*
X-336437Y275883D01*
X-336601Y275799D01*
X-336763Y275712D01*
X-336923Y275620D01*
X-337081Y275525D01*
X-337236Y275426D01*
X-337389Y275323D01*
X-337539Y275217D01*
X-337687Y275107D01*
X-337832Y274993D01*
X-337974Y274876D01*
X-338113Y274756D01*
X-338249Y274632D01*
X-338383Y274505D01*
X-338513Y274375D01*
X-338640Y274241D01*
X-338764Y274105D01*
X-338884Y273966D01*
X-339001Y273824D01*
X-339115Y273679D01*
X-339225Y273531D01*
X-339331Y273381D01*
X-339434Y273228D01*
X-339533Y273073D01*
X-339628Y272915D01*
X-339720Y272755D01*
X-339807Y272593D01*
X-339891Y272429D01*
X-339970Y272263D01*
X-340046Y272095D01*
X-340117Y271925D01*
X-340185Y271754D01*
X-340248Y271581D01*
X-340307Y271407D01*
X-340362Y271231D01*
X-340412Y271054D01*
X-340459Y270876D01*
X-340500Y270696D01*
X-340538Y270516D01*
X-340571Y270335D01*
X-340600Y270153D01*
X-340624Y269970D01*
X-340644Y269787D01*
X-340660Y269604D01*
X-340671Y269420D01*
X-340678Y269236D01*
X-340680Y269052D01*
X-340680Y187960D01*
X-340676Y187653D01*
X-340665Y187346D01*
X-340647Y187040D01*
X-340621Y186734D01*
X-340587Y186429D01*
X-340547Y186125D01*
X-340499Y185822D01*
X-340443Y185520D01*
X-340381Y185220D01*
X-340311Y184921D01*
X-340234Y184624D01*
X-340150Y184328D01*
X-340058Y184035D01*
X-339960Y183745D01*
X-339855Y183457D01*
X-339742Y183171D01*
X-339623Y182888D01*
X-339497Y182608D01*
X-339365Y182331D01*
X-339225Y182058D01*
X-339079Y181788D01*
X-338927Y181522D01*
X-338768Y181259D01*
X-338603Y181000D01*
X-338432Y180746D01*
X-338255Y180495D01*
X-338071Y180249D01*
X-337882Y180007D01*
X-337687Y179771D01*
X-337486Y179538D01*
X-337280Y179311D01*
X-337068Y179089D01*
X-336851Y178872D01*
X-336629Y178660D01*
X-336402Y178454D01*
X-336169Y178253D01*
X-335933Y178058D01*
X-335691Y177869D01*
X-335445Y177685D01*
X-335194Y177508D01*
X-334940Y177337D01*
X-334681Y177172D01*
X-334418Y177013D01*
X-334152Y176861D01*
X-333882Y176715D01*
X-333609Y176575D01*
X-333332Y176443D01*
X-333052Y176317D01*
X-332769Y176198D01*
X-332483Y176085D01*
X-332195Y175980D01*
X-331905Y175882D01*
X-331612Y175790D01*
X-331316Y175706D01*
X-331019Y175629D01*
X-330720Y175559D01*
X-330420Y175497D01*
X-330118Y175441D01*
X-329815Y175393D01*
X-329511Y175353D01*
X-329206Y175319D01*
X-328900Y175293D01*
X-328594Y175275D01*
X-328287Y175264D01*
X-327980Y175260D01*
X-292420Y175260D01*
X-291626Y175250D01*
X-290832Y175222D01*
X-290040Y175174D01*
X-289249Y175107D01*
X-288459Y175020D01*
X-287672Y174915D01*
X-286888Y174791D01*
X-286107Y174648D01*
X-285329Y174486D01*
X-284556Y174305D01*
X-283787Y174106D01*
X-283024Y173888D01*
X-282266Y173652D01*
X-281514Y173397D01*
X-280768Y173125D01*
X-280029Y172834D01*
X-279297Y172526D01*
X-278573Y172200D01*
X-277857Y171857D01*
X-277149Y171496D01*
X-276451Y171119D01*
X-275761Y170724D01*
X-275082Y170314D01*
X-274412Y169886D01*
X-273753Y169443D01*
X-273105Y168984D01*
X-272469Y168510D01*
X-271844Y168020D01*
X-271230Y167515D01*
X-270630Y166996D01*
X-270042Y166462D01*
X-269467Y165915D01*
X-268905Y165353D01*
X-268358Y164778D01*
X-267824Y164190D01*
X-267305Y163590D01*
X-266800Y162976D01*
X-266310Y162351D01*
X-265836Y161715D01*
X-265377Y161067D01*
X-264934Y160408D01*
X-264506Y159738D01*
X-264096Y159059D01*
X-263701Y158369D01*
X-263324Y157671D01*
X-262963Y156963D01*
X-262620Y156247D01*
X-262294Y155523D01*
X-261986Y154791D01*
X-261695Y154052D01*
X-261423Y153306D01*
X-261168Y152554D01*
X-260932Y151796D01*
X-260714Y151033D01*
X-260515Y150264D01*
X-260334Y149491D01*
X-260172Y148713D01*
X-260029Y147932D01*
X-259905Y147148D01*
X-259800Y146361D01*
X-259713Y145571D01*
X-259646Y144780D01*
X-259598Y143988D01*
X-259570Y143194D01*
X-259560Y142400D01*
X-259560Y126840D01*
X-259569Y126077D01*
X-259597Y125314D01*
X-259643Y124552D01*
X-259707Y123791D01*
X-259790Y123032D01*
X-259891Y122276D01*
X-260011Y121522D01*
X-260149Y120771D01*
X-260304Y120023D01*
X-260478Y119280D01*
X-260670Y118541D01*
X-260879Y117807D01*
X-261106Y117078D01*
X-261351Y116355D01*
X-261613Y115638D01*
X-261892Y114928D01*
X-262189Y114224D01*
X-262502Y113528D01*
X-262832Y112840D01*
X-263178Y112159D01*
X-263541Y111488D01*
X-263920Y110825D01*
X-264315Y110172D01*
X-264726Y109528D01*
X-265152Y108895D01*
X-265593Y108272D01*
X-266049Y107660D01*
X-266520Y107059D01*
X-267005Y106469D01*
X-267505Y105892D01*
X-268018Y105327D01*
X-268544Y104774D01*
X-269084Y104234D01*
X-269637Y103708D01*
X-270202Y103195D01*
X-270779Y102695D01*
X-271369Y102210D01*
X-271970Y101739D01*
X-272582Y101283D01*
X-273205Y100842D01*
X-273838Y100416D01*
X-274482Y100005D01*
X-275135Y99610D01*
X-275798Y99231D01*
X-276469Y98868D01*
X-277150Y98522D01*
X-277838Y98192D01*
X-278534Y97879D01*
X-279238Y97582D01*
X-279948Y97303D01*
X-280665Y97041D01*
X-281388Y96796D01*
X-282117Y96569D01*
X-282851Y96360D01*
X-283590Y96168D01*
X-284333Y95994D01*
X-285081Y95839D01*
X-285832Y95701D01*
X-286586Y95581D01*
X-287342Y95480D01*
X-288101Y95397D01*
X-288862Y95333D01*
X-289624Y95287D01*
X-290387Y95259D01*
X-291150Y95250D01*
X-327980Y95250D01*
X-328287Y95246D01*
X-328594Y95235D01*
X-328900Y95217D01*
X-329206Y95191D01*
X-329511Y95157D01*
X-329815Y95117D01*
X-330118Y95069D01*
X-330420Y95013D01*
X-330720Y94951D01*
X-331019Y94881D01*
X-331316Y94804D01*
X-331612Y94720D01*
X-331905Y94628D01*
X-332195Y94530D01*
X-332483Y94425D01*
X-332769Y94312D01*
X-333052Y94193D01*
X-333332Y94067D01*
X-333609Y93935D01*
X-333882Y93795D01*
X-334152Y93649D01*
X-334418Y93497D01*
X-334681Y93338D01*
X-334940Y93173D01*
X-335194Y93002D01*
X-335445Y92825D01*
X-335691Y92641D01*
X-335933Y92452D01*
X-336169Y92257D01*
X-336402Y92056D01*
X-336629Y91850D01*
X-336851Y91638D01*
X-337068Y91421D01*
X-337280Y91199D01*
X-337486Y90972D01*
X-337687Y90739D01*
X-337882Y90503D01*
X-338071Y90261D01*
X-338255Y90015D01*
X-338432Y89764D01*
X-338603Y89510D01*
X-338768Y89251D01*
X-338927Y88988D01*
X-339079Y88722D01*
X-339225Y88452D01*
X-339365Y88179D01*
X-339497Y87902D01*
X-339623Y87622D01*
X-339742Y87339D01*
X-339855Y87053D01*
X-339960Y86765D01*
X-340058Y86475D01*
X-340150Y86182D01*
X-340234Y85886D01*
X-340311Y85589D01*
X-340381Y85290D01*
X-340443Y84990D01*
X-340499Y84688D01*
X-340547Y84385D01*
X-340587Y84081D01*
X-340621Y83776D01*
X-340647Y83470D01*
X-340665Y83164D01*
X-340676Y82857D01*
X-340680Y82550D01*
X-340680Y16510D01*
X-340676Y16203D01*
X-340665Y15896D01*
X-340647Y15590D01*
X-340621Y15284D01*
X-340587Y14979D01*
X-340547Y14675D01*
X-340499Y14372D01*
X-340443Y14070D01*
X-340381Y13770D01*
X-340311Y13471D01*
X-340234Y13174D01*
X-340150Y12878D01*
X-340058Y12585D01*
X-339960Y12295D01*
X-339855Y12007D01*
X-339742Y11721D01*
X-339623Y11438D01*
X-339497Y11158D01*
X-339365Y10881D01*
X-339225Y10608D01*
X-339079Y10338D01*
X-338927Y10072D01*
X-338768Y9809D01*
X-338603Y9550D01*
X-338432Y9296D01*
X-338255Y9045D01*
X-338071Y8799D01*
X-337882Y8557D01*
X-337687Y8321D01*
X-337486Y8088D01*
X-337280Y7861D01*
X-337068Y7639D01*
X-336851Y7422D01*
X-336629Y7210D01*
X-336402Y7004D01*
X-336169Y6803D01*
X-335933Y6608D01*
X-335691Y6419D01*
X-335445Y6235D01*
X-335194Y6058D01*
X-334940Y5887D01*
X-334681Y5722D01*
X-334418Y5563D01*
X-334152Y5411D01*
X-333882Y5265D01*
X-333609Y5125D01*
X-333332Y4993D01*
X-333052Y4867D01*
X-332769Y4748D01*
X-332483Y4635D01*
X-332195Y4530D01*
X-331905Y4432D01*
X-331612Y4340D01*
X-331316Y4256D01*
X-331019Y4179D01*
X-330720Y4109D01*
X-330420Y4047D01*
X-330118Y3991D01*
X-329815Y3943D01*
X-329511Y3903D01*
X-329206Y3869D01*
X-328900Y3843D01*
X-328594Y3825D01*
X-328287Y3814D01*
X-327980Y3810D01*
X-260350Y3810D01*
X-229616Y-49276D01*
X332232Y16256D02*
X332436Y16258D01*
X332640Y16266D01*
X332844Y16278D01*
X333047Y16295D01*
X333250Y16318D01*
X333453Y16345D01*
X333654Y16377D01*
X333855Y16413D01*
X334055Y16455D01*
X334254Y16501D01*
X334451Y16553D01*
X334648Y16609D01*
X334843Y16669D01*
X335036Y16735D01*
X335228Y16805D01*
X335418Y16880D01*
X335606Y16959D01*
X335792Y17043D01*
X335976Y17131D01*
X336158Y17224D01*
X336338Y17321D01*
X336515Y17422D01*
X336690Y17528D01*
X336862Y17638D01*
X337031Y17751D01*
X337198Y17869D01*
X337361Y17991D01*
X337522Y18117D01*
X337680Y18247D01*
X337834Y18381D01*
X337985Y18518D01*
X338133Y18659D01*
X338277Y18803D01*
X338418Y18951D01*
X338555Y19102D01*
X338689Y19256D01*
X338819Y19414D01*
X338945Y19575D01*
X339067Y19738D01*
X339185Y19905D01*
X339298Y20074D01*
X339408Y20246D01*
X339514Y20421D01*
X339615Y20598D01*
X339712Y20778D01*
X339805Y20960D01*
X339893Y21144D01*
X339977Y21330D01*
X340056Y21518D01*
X340131Y21708D01*
X340201Y21900D01*
X340267Y22093D01*
X340327Y22288D01*
X340383Y22485D01*
X340435Y22682D01*
X340481Y22881D01*
X340523Y23081D01*
X340559Y23282D01*
X340591Y23483D01*
X340618Y23686D01*
X340641Y23889D01*
X340658Y24092D01*
X340670Y24296D01*
X340678Y24500D01*
X340680Y24704D01*
X340680Y82550D01*
X340676Y82857D01*
X340665Y83164D01*
X340647Y83470D01*
X340621Y83776D01*
X340587Y84081D01*
X340547Y84385D01*
X340499Y84688D01*
X340443Y84990D01*
X340381Y85290D01*
X340311Y85589D01*
X340234Y85886D01*
X340150Y86182D01*
X340058Y86475D01*
X339960Y86765D01*
X339855Y87053D01*
X339742Y87339D01*
X339623Y87622D01*
X339497Y87902D01*
X339365Y88179D01*
X339225Y88452D01*
X339079Y88722D01*
X338927Y88988D01*
X338768Y89251D01*
X338603Y89510D01*
X338432Y89764D01*
X338255Y90015D01*
X338071Y90261D01*
X337882Y90503D01*
X337687Y90739D01*
X337486Y90972D01*
X337280Y91199D01*
X337068Y91421D01*
X336851Y91638D01*
X336629Y91850D01*
X336402Y92056D01*
X336169Y92257D01*
X335933Y92452D01*
X335691Y92641D01*
X335445Y92825D01*
X335194Y93002D01*
X334940Y93173D01*
X334681Y93338D01*
X334418Y93497D01*
X334152Y93649D01*
X333882Y93795D01*
X333609Y93935D01*
X333332Y94067D01*
X333052Y94193D01*
X332769Y94312D01*
X332483Y94425D01*
X332195Y94530D01*
X331905Y94628D01*
X331612Y94720D01*
X331316Y94804D01*
X331019Y94881D01*
X330720Y94951D01*
X330420Y95013D01*
X330118Y95069D01*
X329815Y95117D01*
X329511Y95157D01*
X329206Y95191D01*
X328900Y95217D01*
X328594Y95235D01*
X328287Y95246D01*
X327980Y95250D01*
X291150Y95250D01*
X290387Y95259D01*
X289624Y95287D01*
X288862Y95333D01*
X288101Y95397D01*
X287342Y95480D01*
X286586Y95581D01*
X285832Y95701D01*
X285081Y95839D01*
X284333Y95994D01*
X283590Y96168D01*
X282851Y96360D01*
X282117Y96569D01*
X281388Y96796D01*
X280665Y97041D01*
X279948Y97303D01*
X279238Y97582D01*
X278534Y97879D01*
X277838Y98192D01*
X277150Y98522D01*
X276469Y98868D01*
X275798Y99231D01*
X275135Y99610D01*
X274482Y100005D01*
X273838Y100416D01*
X273205Y100842D01*
X272582Y101283D01*
X271970Y101739D01*
X271369Y102210D01*
X270779Y102695D01*
X270202Y103195D01*
X269637Y103708D01*
X269084Y104234D01*
X268544Y104774D01*
X268018Y105327D01*
X267505Y105892D01*
X267005Y106469D01*
X266520Y107059D01*
X266049Y107660D01*
X265593Y108272D01*
X265152Y108895D01*
X264726Y109528D01*
X264315Y110172D01*
X263920Y110825D01*
X263541Y111488D01*
X263178Y112159D01*
X262832Y112840D01*
X262502Y113528D01*
X262189Y114224D01*
X261892Y114928D01*
X261613Y115638D01*
X261351Y116355D01*
X261106Y117078D01*
X260879Y117807D01*
X260670Y118541D01*
X260478Y119280D01*
X260304Y120023D01*
X260149Y120771D01*
X260011Y121522D01*
X259891Y122276D01*
X259790Y123032D01*
X259707Y123791D01*
X259643Y124552D01*
X259597Y125314D01*
X259569Y126077D01*
X259560Y126840D01*
X259560Y142400D01*
X259570Y143194D01*
X259598Y143988D01*
X259646Y144780D01*
X259713Y145571D01*
X259800Y146361D01*
X259905Y147148D01*
X260029Y147932D01*
X260172Y148713D01*
X260334Y149491D01*
X260515Y150264D01*
X260714Y151033D01*
X260932Y151796D01*
X261168Y152554D01*
X261423Y153306D01*
X261695Y154052D01*
X261986Y154791D01*
X262294Y155523D01*
X262620Y156247D01*
X262963Y156963D01*
X263324Y157671D01*
X263701Y158369D01*
X264096Y159059D01*
X264506Y159738D01*
X264934Y160408D01*
X265377Y161067D01*
X265836Y161715D01*
X266310Y162351D01*
X266800Y162976D01*
X267305Y163590D01*
X267824Y164190D01*
X268358Y164778D01*
X268905Y165353D01*
X269467Y165915D01*
X270042Y166462D01*
X270630Y166996D01*
X271230Y167515D01*
X271844Y168020D01*
X272469Y168510D01*
X273105Y168984D01*
X273753Y169443D01*
X274412Y169886D01*
X275082Y170314D01*
X275761Y170724D01*
X276451Y171119D01*
X277149Y171496D01*
X277857Y171857D01*
X278573Y172200D01*
X279297Y172526D01*
X280029Y172834D01*
X280768Y173125D01*
X281514Y173397D01*
X282266Y173652D01*
X283024Y173888D01*
X283787Y174106D01*
X284556Y174305D01*
X285329Y174486D01*
X286107Y174648D01*
X286888Y174791D01*
X287672Y174915D01*
X288459Y175020D01*
X289249Y175107D01*
X290040Y175174D01*
X290832Y175222D01*
X291626Y175250D01*
X292420Y175260D01*
X327980Y175260D01*
X328287Y175264D01*
X328594Y175275D01*
X328900Y175293D01*
X329206Y175319D01*
X329511Y175353D01*
X329815Y175393D01*
X330118Y175441D01*
X330420Y175497D01*
X330720Y175559D01*
X331019Y175629D01*
X331316Y175706D01*
X331612Y175790D01*
X331905Y175882D01*
X332195Y175980D01*
X332483Y176085D01*
X332769Y176198D01*
X333052Y176317D01*
X333332Y176443D01*
X333609Y176575D01*
X333882Y176715D01*
X334152Y176861D01*
X334418Y177013D01*
X334681Y177172D01*
X334940Y177337D01*
X335194Y177508D01*
X335445Y177685D01*
X335691Y177869D01*
X335933Y178058D01*
X336169Y178253D01*
X336402Y178454D01*
X336629Y178660D01*
X336851Y178872D01*
X337068Y179089D01*
X337280Y179311D01*
X337486Y179538D01*
X337687Y179771D01*
X337882Y180007D01*
X338071Y180249D01*
X338255Y180495D01*
X338432Y180746D01*
X338603Y181000D01*
X338768Y181259D01*
X338927Y181522D01*
X339079Y181788D01*
X339225Y182058D01*
X339365Y182331D01*
X339497Y182608D01*
X339623Y182888D01*
X339742Y183171D01*
X339855Y183457D01*
X339960Y183745D01*
X340058Y184035D01*
X340150Y184328D01*
X340234Y184624D01*
X340311Y184921D01*
X340381Y185220D01*
X340443Y185520D01*
X340499Y185822D01*
X340547Y186125D01*
X340587Y186429D01*
X340621Y186734D01*
X340647Y187040D01*
X340665Y187346D01*
X340676Y187653D01*
X340680Y187960D01*
X340680Y292100D01*
X340676Y292407D01*
X340665Y292714D01*
X340647Y293020D01*
X340621Y293326D01*
X340587Y293631D01*
X340547Y293935D01*
X340499Y294238D01*
X340443Y294540D01*
X340381Y294840D01*
X340311Y295139D01*
X340234Y295436D01*
X340150Y295732D01*
X340058Y296025D01*
X339960Y296315D01*
X339855Y296603D01*
X339742Y296889D01*
X339623Y297172D01*
X339497Y297452D01*
X339365Y297729D01*
X339225Y298002D01*
X339079Y298272D01*
X338927Y298538D01*
X338768Y298801D01*
X338603Y299060D01*
X338432Y299314D01*
X338255Y299565D01*
X338071Y299811D01*
X337882Y300053D01*
X337687Y300289D01*
X337486Y300522D01*
X337280Y300749D01*
X337068Y300971D01*
X336851Y301188D01*
X336629Y301400D01*
X336402Y301606D01*
X336169Y301807D01*
X335933Y302002D01*
X335691Y302191D01*
X335445Y302375D01*
X335194Y302552D01*
X334940Y302723D01*
X334681Y302888D01*
X334418Y303047D01*
X334152Y303199D01*
X333882Y303345D01*
X333609Y303485D01*
X333332Y303617D01*
X333052Y303743D01*
X332769Y303862D01*
X332483Y303975D01*
X332195Y304080D01*
X331905Y304178D01*
X331612Y304270D01*
X331316Y304354D01*
X331019Y304431D01*
X330720Y304501D01*
X330420Y304563D01*
X330118Y304619D01*
X329815Y304667D01*
X329511Y304707D01*
X329206Y304741D01*
X328900Y304767D01*
X328594Y304785D01*
X328287Y304796D01*
X327980Y304800D01*
X-19304Y-49276D02*
X-229616Y-49276D01*
X-19304Y-49276D02*
X-19120Y-49278D01*
X-18936Y-49285D01*
X-18752Y-49296D01*
X-18569Y-49312D01*
X-18386Y-49332D01*
X-18203Y-49356D01*
X-18021Y-49385D01*
X-17840Y-49418D01*
X-17660Y-49456D01*
X-17480Y-49497D01*
X-17302Y-49544D01*
X-17125Y-49594D01*
X-16949Y-49649D01*
X-16775Y-49708D01*
X-16602Y-49771D01*
X-16431Y-49839D01*
X-16261Y-49910D01*
X-16093Y-49986D01*
X-15927Y-50065D01*
X-15763Y-50149D01*
X-15601Y-50236D01*
X-15441Y-50328D01*
X-15283Y-50423D01*
X-15128Y-50522D01*
X-14975Y-50625D01*
X-14825Y-50731D01*
X-14677Y-50841D01*
X-14532Y-50955D01*
X-14390Y-51072D01*
X-14251Y-51192D01*
X-14115Y-51316D01*
X-13981Y-51443D01*
X-13851Y-51573D01*
X-13724Y-51707D01*
X-13600Y-51843D01*
X-13480Y-51982D01*
X-13363Y-52124D01*
X-13249Y-52269D01*
X-13139Y-52417D01*
X-13033Y-52567D01*
X-12930Y-52720D01*
X-12831Y-52875D01*
X-12736Y-53033D01*
X-12644Y-53193D01*
X-12557Y-53355D01*
X-12473Y-53519D01*
X-12394Y-53685D01*
X-12318Y-53853D01*
X-12247Y-54023D01*
X-12179Y-54194D01*
X-12116Y-54367D01*
X-12057Y-54541D01*
X-12002Y-54717D01*
X-11952Y-54894D01*
X-11905Y-55072D01*
X-11864Y-55252D01*
X-11826Y-55432D01*
X-11793Y-55613D01*
X-11764Y-55795D01*
X-11740Y-55978D01*
X-11720Y-56161D01*
X-11704Y-56344D01*
X-11693Y-56528D01*
X-11686Y-56712D01*
X-11684Y-56896D01*
X-11682Y-57080D01*
X-11675Y-57264D01*
X-11664Y-57448D01*
X-11648Y-57631D01*
X-11628Y-57814D01*
X-11604Y-57997D01*
X-11575Y-58179D01*
X-11542Y-58360D01*
X-11504Y-58540D01*
X-11463Y-58720D01*
X-11416Y-58898D01*
X-11366Y-59075D01*
X-11311Y-59251D01*
X-11252Y-59425D01*
X-11189Y-59598D01*
X-11121Y-59769D01*
X-11050Y-59939D01*
X-10974Y-60107D01*
X-10895Y-60273D01*
X-10811Y-60437D01*
X-10724Y-60599D01*
X-10632Y-60759D01*
X-10537Y-60917D01*
X-10438Y-61072D01*
X-10335Y-61225D01*
X-10229Y-61375D01*
X-10119Y-61523D01*
X-10005Y-61668D01*
X-9888Y-61810D01*
X-9768Y-61949D01*
X-9644Y-62085D01*
X-9517Y-62219D01*
X-9387Y-62349D01*
X-9253Y-62476D01*
X-9117Y-62600D01*
X-8978Y-62720D01*
X-8836Y-62837D01*
X-8691Y-62951D01*
X-8543Y-63061D01*
X-8393Y-63167D01*
X-8240Y-63270D01*
X-8085Y-63369D01*
X-7927Y-63464D01*
X-7767Y-63556D01*
X-7605Y-63643D01*
X-7441Y-63727D01*
X-7275Y-63806D01*
X-7107Y-63882D01*
X-6937Y-63953D01*
X-6766Y-64021D01*
X-6593Y-64084D01*
X-6419Y-64143D01*
X-6243Y-64198D01*
X-6066Y-64248D01*
X-5888Y-64295D01*
X-5708Y-64336D01*
X-5528Y-64374D01*
X-5347Y-64407D01*
X-5165Y-64436D01*
X-4982Y-64460D01*
X-4799Y-64480D01*
X-4616Y-64496D01*
X-4432Y-64507D01*
X-4248Y-64514D01*
X-4064Y-64516D01*
X219266Y-64516D01*
X-229000Y135000D02*
X-228997Y135221D01*
X-228989Y135442D01*
X-228976Y135662D01*
X-228957Y135882D01*
X-228932Y136102D01*
X-228903Y136321D01*
X-228867Y136539D01*
X-228827Y136756D01*
X-228781Y136972D01*
X-228730Y137187D01*
X-228674Y137400D01*
X-228612Y137613D01*
X-228546Y137823D01*
X-228474Y138032D01*
X-228397Y138239D01*
X-228315Y138444D01*
X-228228Y138647D01*
X-228136Y138848D01*
X-228039Y139047D01*
X-227937Y139243D01*
X-227831Y139436D01*
X-227720Y139627D01*
X-227604Y139815D01*
X-227483Y140000D01*
X-227358Y140182D01*
X-227229Y140361D01*
X-227095Y140537D01*
X-226957Y140710D01*
X-226815Y140879D01*
X-226669Y141044D01*
X-226518Y141206D01*
X-226364Y141364D01*
X-226206Y141518D01*
X-226044Y141669D01*
X-225879Y141815D01*
X-225710Y141957D01*
X-225537Y142095D01*
X-225361Y142229D01*
X-225182Y142358D01*
X-225000Y142483D01*
X-224815Y142604D01*
X-224627Y142720D01*
X-224436Y142831D01*
X-224243Y142937D01*
X-224047Y143039D01*
X-223848Y143136D01*
X-223647Y143228D01*
X-223444Y143315D01*
X-223239Y143397D01*
X-223032Y143474D01*
X-222823Y143546D01*
X-222613Y143612D01*
X-222400Y143674D01*
X-222187Y143730D01*
X-221972Y143781D01*
X-221756Y143827D01*
X-221539Y143867D01*
X-221321Y143903D01*
X-221102Y143932D01*
X-220882Y143957D01*
X-220662Y143976D01*
X-220442Y143989D01*
X-220221Y143997D01*
X-220000Y144000D01*
X-219779Y143997D01*
X-219558Y143989D01*
X-219338Y143976D01*
X-219118Y143957D01*
X-218898Y143932D01*
X-218679Y143903D01*
X-218461Y143867D01*
X-218244Y143827D01*
X-218028Y143781D01*
X-217813Y143730D01*
X-217600Y143674D01*
X-217387Y143612D01*
X-217177Y143546D01*
X-216968Y143474D01*
X-216761Y143397D01*
X-216556Y143315D01*
X-216353Y143228D01*
X-216152Y143136D01*
X-215953Y143039D01*
X-215757Y142937D01*
X-215564Y142831D01*
X-215373Y142720D01*
X-215185Y142604D01*
X-215000Y142483D01*
X-214818Y142358D01*
X-214639Y142229D01*
X-214463Y142095D01*
X-214290Y141957D01*
X-214121Y141815D01*
X-213956Y141669D01*
X-213794Y141518D01*
X-213636Y141364D01*
X-213482Y141206D01*
X-213331Y141044D01*
X-213185Y140879D01*
X-213043Y140710D01*
X-212905Y140537D01*
X-212771Y140361D01*
X-212642Y140182D01*
X-212517Y140000D01*
X-212396Y139815D01*
X-212280Y139627D01*
X-212169Y139436D01*
X-212063Y139243D01*
X-211961Y139047D01*
X-211864Y138848D01*
X-211772Y138647D01*
X-211685Y138444D01*
X-211603Y138239D01*
X-211526Y138032D01*
X-211454Y137823D01*
X-211388Y137613D01*
X-211326Y137400D01*
X-211270Y137187D01*
X-211219Y136972D01*
X-211173Y136756D01*
X-211133Y136539D01*
X-211097Y136321D01*
X-211068Y136102D01*
X-211043Y135882D01*
X-211024Y135662D01*
X-211011Y135442D01*
X-211003Y135221D01*
X-211000Y135000D01*
X-211003Y134779D01*
X-211011Y134558D01*
X-211024Y134338D01*
X-211043Y134118D01*
X-211068Y133898D01*
X-211097Y133679D01*
X-211133Y133461D01*
X-211173Y133244D01*
X-211219Y133028D01*
X-211270Y132813D01*
X-211326Y132600D01*
X-211388Y132387D01*
X-211454Y132177D01*
X-211526Y131968D01*
X-211603Y131761D01*
X-211685Y131556D01*
X-211772Y131353D01*
X-211864Y131152D01*
X-211961Y130953D01*
X-212063Y130757D01*
X-212169Y130564D01*
X-212280Y130373D01*
X-212396Y130185D01*
X-212517Y130000D01*
X-212642Y129818D01*
X-212771Y129639D01*
X-212905Y129463D01*
X-213043Y129290D01*
X-213185Y129121D01*
X-213331Y128956D01*
X-213482Y128794D01*
X-213636Y128636D01*
X-213794Y128482D01*
X-213956Y128331D01*
X-214121Y128185D01*
X-214290Y128043D01*
X-214463Y127905D01*
X-214639Y127771D01*
X-214818Y127642D01*
X-215000Y127517D01*
X-215185Y127396D01*
X-215373Y127280D01*
X-215564Y127169D01*
X-215757Y127063D01*
X-215953Y126961D01*
X-216152Y126864D01*
X-216353Y126772D01*
X-216556Y126685D01*
X-216761Y126603D01*
X-216968Y126526D01*
X-217177Y126454D01*
X-217387Y126388D01*
X-217600Y126326D01*
X-217813Y126270D01*
X-218028Y126219D01*
X-218244Y126173D01*
X-218461Y126133D01*
X-218679Y126097D01*
X-218898Y126068D01*
X-219118Y126043D01*
X-219338Y126024D01*
X-219558Y126011D01*
X-219779Y126003D01*
X-220000Y126000D01*
X-220221Y126003D01*
X-220442Y126011D01*
X-220662Y126024D01*
X-220882Y126043D01*
X-221102Y126068D01*
X-221321Y126097D01*
X-221539Y126133D01*
X-221756Y126173D01*
X-221972Y126219D01*
X-222187Y126270D01*
X-222400Y126326D01*
X-222613Y126388D01*
X-222823Y126454D01*
X-223032Y126526D01*
X-223239Y126603D01*
X-223444Y126685D01*
X-223647Y126772D01*
X-223848Y126864D01*
X-224047Y126961D01*
X-224243Y127063D01*
X-224436Y127169D01*
X-224627Y127280D01*
X-224815Y127396D01*
X-225000Y127517D01*
X-225182Y127642D01*
X-225361Y127771D01*
X-225537Y127905D01*
X-225710Y128043D01*
X-225879Y128185D01*
X-226044Y128331D01*
X-226206Y128482D01*
X-226364Y128636D01*
X-226518Y128794D01*
X-226669Y128956D01*
X-226815Y129121D01*
X-226957Y129290D01*
X-227095Y129463D01*
X-227229Y129639D01*
X-227358Y129818D01*
X-227483Y130000D01*
X-227604Y130185D01*
X-227720Y130373D01*
X-227831Y130564D01*
X-227937Y130757D01*
X-228039Y130953D01*
X-228136Y131152D01*
X-228228Y131353D01*
X-228315Y131556D01*
X-228397Y131761D01*
X-228474Y131968D01*
X-228546Y132177D01*
X-228612Y132387D01*
X-228674Y132600D01*
X-228730Y132813D01*
X-228781Y133028D01*
X-228827Y133244D01*
X-228867Y133461D01*
X-228903Y133679D01*
X-228932Y133898D01*
X-228957Y134118D01*
X-228976Y134338D01*
X-228989Y134558D01*
X-228997Y134779D01*
X-229000Y135000D01*
X211000Y135000D02*
X211003Y135221D01*
X211011Y135442D01*
X211024Y135662D01*
X211043Y135882D01*
X211068Y136102D01*
X211097Y136321D01*
X211133Y136539D01*
X211173Y136756D01*
X211219Y136972D01*
X211270Y137187D01*
X211326Y137400D01*
X211388Y137613D01*
X211454Y137823D01*
X211526Y138032D01*
X211603Y138239D01*
X211685Y138444D01*
X211772Y138647D01*
X211864Y138848D01*
X211961Y139047D01*
X212063Y139243D01*
X212169Y139436D01*
X212280Y139627D01*
X212396Y139815D01*
X212517Y140000D01*
X212642Y140182D01*
X212771Y140361D01*
X212905Y140537D01*
X213043Y140710D01*
X213185Y140879D01*
X213331Y141044D01*
X213482Y141206D01*
X213636Y141364D01*
X213794Y141518D01*
X213956Y141669D01*
X214121Y141815D01*
X214290Y141957D01*
X214463Y142095D01*
X214639Y142229D01*
X214818Y142358D01*
X215000Y142483D01*
X215185Y142604D01*
X215373Y142720D01*
X215564Y142831D01*
X215757Y142937D01*
X215953Y143039D01*
X216152Y143136D01*
X216353Y143228D01*
X216556Y143315D01*
X216761Y143397D01*
X216968Y143474D01*
X217177Y143546D01*
X217387Y143612D01*
X217600Y143674D01*
X217813Y143730D01*
X218028Y143781D01*
X218244Y143827D01*
X218461Y143867D01*
X218679Y143903D01*
X218898Y143932D01*
X219118Y143957D01*
X219338Y143976D01*
X219558Y143989D01*
X219779Y143997D01*
X220000Y144000D01*
X220221Y143997D01*
X220442Y143989D01*
X220662Y143976D01*
X220882Y143957D01*
X221102Y143932D01*
X221321Y143903D01*
X221539Y143867D01*
X221756Y143827D01*
X221972Y143781D01*
X222187Y143730D01*
X222400Y143674D01*
X222613Y143612D01*
X222823Y143546D01*
X223032Y143474D01*
X223239Y143397D01*
X223444Y143315D01*
X223647Y143228D01*
X223848Y143136D01*
X224047Y143039D01*
X224243Y142937D01*
X224436Y142831D01*
X224627Y142720D01*
X224815Y142604D01*
X225000Y142483D01*
X225182Y142358D01*
X225361Y142229D01*
X225537Y142095D01*
X225710Y141957D01*
X225879Y141815D01*
X226044Y141669D01*
X226206Y141518D01*
X226364Y141364D01*
X226518Y141206D01*
X226669Y141044D01*
X226815Y140879D01*
X226957Y140710D01*
X227095Y140537D01*
X227229Y140361D01*
X227358Y140182D01*
X227483Y140000D01*
X227604Y139815D01*
X227720Y139627D01*
X227831Y139436D01*
X227937Y139243D01*
X228039Y139047D01*
X228136Y138848D01*
X228228Y138647D01*
X228315Y138444D01*
X228397Y138239D01*
X228474Y138032D01*
X228546Y137823D01*
X228612Y137613D01*
X228674Y137400D01*
X228730Y137187D01*
X228781Y136972D01*
X228827Y136756D01*
X228867Y136539D01*
X228903Y136321D01*
X228932Y136102D01*
X228957Y135882D01*
X228976Y135662D01*
X228989Y135442D01*
X228997Y135221D01*
X229000Y135000D01*
X228997Y134779D01*
X228989Y134558D01*
X228976Y134338D01*
X228957Y134118D01*
X228932Y133898D01*
X228903Y133679D01*
X228867Y133461D01*
X228827Y133244D01*
X228781Y133028D01*
X228730Y132813D01*
X228674Y132600D01*
X228612Y132387D01*
X228546Y132177D01*
X228474Y131968D01*
X228397Y131761D01*
X228315Y131556D01*
X228228Y131353D01*
X228136Y131152D01*
X228039Y130953D01*
X227937Y130757D01*
X227831Y130564D01*
X227720Y130373D01*
X227604Y130185D01*
X227483Y130000D01*
X227358Y129818D01*
X227229Y129639D01*
X227095Y129463D01*
X226957Y129290D01*
X226815Y129121D01*
X226669Y128956D01*
X226518Y128794D01*
X226364Y128636D01*
X226206Y128482D01*
X226044Y128331D01*
X225879Y128185D01*
X225710Y128043D01*
X225537Y127905D01*
X225361Y127771D01*
X225182Y127642D01*
X225000Y127517D01*
X224815Y127396D01*
X224627Y127280D01*
X224436Y127169D01*
X224243Y127063D01*
X224047Y126961D01*
X223848Y126864D01*
X223647Y126772D01*
X223444Y126685D01*
X223239Y126603D01*
X223032Y126526D01*
X222823Y126454D01*
X222613Y126388D01*
X222400Y126326D01*
X222187Y126270D01*
X221972Y126219D01*
X221756Y126173D01*
X221539Y126133D01*
X221321Y126097D01*
X221102Y126068D01*
X220882Y126043D01*
X220662Y126024D01*
X220442Y126011D01*
X220221Y126003D01*
X220000Y126000D01*
X219779Y126003D01*
X219558Y126011D01*
X219338Y126024D01*
X219118Y126043D01*
X218898Y126068D01*
X218679Y126097D01*
X218461Y126133D01*
X218244Y126173D01*
X218028Y126219D01*
X217813Y126270D01*
X217600Y126326D01*
X217387Y126388D01*
X217177Y126454D01*
X216968Y126526D01*
X216761Y126603D01*
X216556Y126685D01*
X216353Y126772D01*
X216152Y126864D01*
X215953Y126961D01*
X215757Y127063D01*
X215564Y127169D01*
X215373Y127280D01*
X215185Y127396D01*
X215000Y127517D01*
X214818Y127642D01*
X214639Y127771D01*
X214463Y127905D01*
X214290Y128043D01*
X214121Y128185D01*
X213956Y128331D01*
X213794Y128482D01*
X213636Y128636D01*
X213482Y128794D01*
X213331Y128956D01*
X213185Y129121D01*
X213043Y129290D01*
X212905Y129463D01*
X212771Y129639D01*
X212642Y129818D01*
X212517Y130000D01*
X212396Y130185D01*
X212280Y130373D01*
X212169Y130564D01*
X212063Y130757D01*
X211961Y130953D01*
X211864Y131152D01*
X211772Y131353D01*
X211685Y131556D01*
X211603Y131761D01*
X211526Y131968D01*
X211454Y132177D01*
X211388Y132387D01*
X211326Y132600D01*
X211270Y132813D01*
X211219Y133028D01*
X211173Y133244D01*
X211133Y133461D01*
X211097Y133679D01*
X211068Y133898D01*
X211043Y134118D01*
X211024Y134338D01*
X211011Y134558D01*
X211003Y134779D01*
X211000Y135000D01*
X265938Y16256D02*
X332232Y16256D01*
X265938Y16256D02*
X219266Y-64516D01*
X-318190Y241314D02*
X-318188Y241448D01*
X-318182Y241582D01*
X-318172Y241715D01*
X-318158Y241849D01*
X-318140Y241982D01*
X-318118Y242114D01*
X-318093Y242245D01*
X-318063Y242376D01*
X-318029Y242506D01*
X-317992Y242634D01*
X-317951Y242762D01*
X-317906Y242888D01*
X-317857Y243013D01*
X-317805Y243136D01*
X-317749Y243258D01*
X-317689Y243378D01*
X-317626Y243496D01*
X-317559Y243612D01*
X-317489Y243726D01*
X-317415Y243838D01*
X-317338Y243948D01*
X-317258Y244056D01*
X-317175Y244161D01*
X-317089Y244263D01*
X-317000Y244363D01*
X-316907Y244460D01*
X-316812Y244555D01*
X-316714Y244646D01*
X-316614Y244735D01*
X-316511Y244820D01*
X-316405Y244903D01*
X-316297Y244982D01*
X-316187Y245058D01*
X-316074Y245131D01*
X-315959Y245200D01*
X-315843Y245266D01*
X-315724Y245328D01*
X-315604Y245387D01*
X-315481Y245442D01*
X-315358Y245494D01*
X-315233Y245541D01*
X-315106Y245585D01*
X-314978Y245626D01*
X-314849Y245662D01*
X-314719Y245695D01*
X-314588Y245723D01*
X-314457Y245748D01*
X-314324Y245769D01*
X-314191Y245786D01*
X-314058Y245799D01*
X-313924Y245808D01*
X-313790Y245813D01*
X-313656Y245814D01*
X-313523Y245811D01*
X-313389Y245804D01*
X-313255Y245793D01*
X-313122Y245778D01*
X-312989Y245759D01*
X-312857Y245736D01*
X-312726Y245710D01*
X-312596Y245679D01*
X-312466Y245644D01*
X-312338Y245606D01*
X-312211Y245564D01*
X-312085Y245518D01*
X-311960Y245468D01*
X-311837Y245415D01*
X-311716Y245358D01*
X-311596Y245297D01*
X-311479Y245233D01*
X-311363Y245166D01*
X-311249Y245095D01*
X-311138Y245020D01*
X-311029Y244943D01*
X-310922Y244862D01*
X-310817Y244778D01*
X-310716Y244691D01*
X-310616Y244601D01*
X-310520Y244508D01*
X-310426Y244412D01*
X-310335Y244313D01*
X-310248Y244212D01*
X-310163Y244108D01*
X-310081Y244002D01*
X-310003Y243894D01*
X-309928Y243783D01*
X-309856Y243670D01*
X-309787Y243554D01*
X-309722Y243437D01*
X-309661Y243318D01*
X-309603Y243197D01*
X-309549Y243075D01*
X-309498Y242951D01*
X-309451Y242825D01*
X-309408Y242698D01*
X-309369Y242570D01*
X-309333Y242441D01*
X-309302Y242311D01*
X-309274Y242180D01*
X-309250Y242048D01*
X-309230Y241915D01*
X-309214Y241782D01*
X-309202Y241649D01*
X-309194Y241515D01*
X-309190Y241381D01*
X-309190Y241247D01*
X-309194Y241113D01*
X-309202Y240979D01*
X-309214Y240846D01*
X-309230Y240713D01*
X-309250Y240580D01*
X-309274Y240448D01*
X-309302Y240317D01*
X-309333Y240187D01*
X-309369Y240058D01*
X-309408Y239930D01*
X-309451Y239803D01*
X-309498Y239677D01*
X-309549Y239553D01*
X-309603Y239431D01*
X-309661Y239310D01*
X-309722Y239191D01*
X-309787Y239074D01*
X-309856Y238958D01*
X-309928Y238845D01*
X-310003Y238734D01*
X-310081Y238626D01*
X-310163Y238520D01*
X-310248Y238416D01*
X-310335Y238315D01*
X-310426Y238216D01*
X-310520Y238120D01*
X-310616Y238027D01*
X-310716Y237937D01*
X-310817Y237850D01*
X-310922Y237766D01*
X-311029Y237685D01*
X-311138Y237608D01*
X-311249Y237533D01*
X-311363Y237462D01*
X-311479Y237395D01*
X-311596Y237331D01*
X-311716Y237270D01*
X-311837Y237213D01*
X-311960Y237160D01*
X-312085Y237110D01*
X-312211Y237064D01*
X-312338Y237022D01*
X-312466Y236984D01*
X-312596Y236949D01*
X-312726Y236918D01*
X-312857Y236892D01*
X-312989Y236869D01*
X-313122Y236850D01*
X-313255Y236835D01*
X-313389Y236824D01*
X-313523Y236817D01*
X-313656Y236814D01*
X-313790Y236815D01*
X-313924Y236820D01*
X-314058Y236829D01*
X-314191Y236842D01*
X-314324Y236859D01*
X-314457Y236880D01*
X-314588Y236905D01*
X-314719Y236933D01*
X-314849Y236966D01*
X-314978Y237002D01*
X-315106Y237043D01*
X-315233Y237087D01*
X-315358Y237134D01*
X-315481Y237186D01*
X-315604Y237241D01*
X-315724Y237300D01*
X-315843Y237362D01*
X-315959Y237428D01*
X-316074Y237497D01*
X-316187Y237570D01*
X-316297Y237646D01*
X-316405Y237725D01*
X-316511Y237808D01*
X-316614Y237893D01*
X-316714Y237982D01*
X-316812Y238073D01*
X-316907Y238168D01*
X-317000Y238265D01*
X-317089Y238365D01*
X-317175Y238467D01*
X-317258Y238572D01*
X-317338Y238680D01*
X-317415Y238790D01*
X-317489Y238902D01*
X-317559Y239016D01*
X-317626Y239132D01*
X-317689Y239250D01*
X-317749Y239370D01*
X-317805Y239492D01*
X-317857Y239615D01*
X-317906Y239740D01*
X-317951Y239866D01*
X-317992Y239994D01*
X-318029Y240122D01*
X-318063Y240252D01*
X-318093Y240383D01*
X-318118Y240514D01*
X-318140Y240646D01*
X-318158Y240779D01*
X-318172Y240913D01*
X-318182Y241046D01*
X-318188Y241180D01*
X-318190Y241314D01*
X-318190Y211314D02*
X-318188Y211448D01*
X-318182Y211582D01*
X-318172Y211715D01*
X-318158Y211849D01*
X-318140Y211982D01*
X-318118Y212114D01*
X-318093Y212245D01*
X-318063Y212376D01*
X-318029Y212506D01*
X-317992Y212634D01*
X-317951Y212762D01*
X-317906Y212888D01*
X-317857Y213013D01*
X-317805Y213136D01*
X-317749Y213258D01*
X-317689Y213378D01*
X-317626Y213496D01*
X-317559Y213612D01*
X-317489Y213726D01*
X-317415Y213838D01*
X-317338Y213948D01*
X-317258Y214056D01*
X-317175Y214161D01*
X-317089Y214263D01*
X-317000Y214363D01*
X-316907Y214460D01*
X-316812Y214555D01*
X-316714Y214646D01*
X-316614Y214735D01*
X-316511Y214820D01*
X-316405Y214903D01*
X-316297Y214982D01*
X-316187Y215058D01*
X-316074Y215131D01*
X-315959Y215200D01*
X-315843Y215266D01*
X-315724Y215328D01*
X-315604Y215387D01*
X-315481Y215442D01*
X-315358Y215494D01*
X-315233Y215541D01*
X-315106Y215585D01*
X-314978Y215626D01*
X-314849Y215662D01*
X-314719Y215695D01*
X-314588Y215723D01*
X-314457Y215748D01*
X-314324Y215769D01*
X-314191Y215786D01*
X-314058Y215799D01*
X-313924Y215808D01*
X-313790Y215813D01*
X-313656Y215814D01*
X-313523Y215811D01*
X-313389Y215804D01*
X-313255Y215793D01*
X-313122Y215778D01*
X-312989Y215759D01*
X-312857Y215736D01*
X-312726Y215710D01*
X-312596Y215679D01*
X-312466Y215644D01*
X-312338Y215606D01*
X-312211Y215564D01*
X-312085Y215518D01*
X-311960Y215468D01*
X-311837Y215415D01*
X-311716Y215358D01*
X-311596Y215297D01*
X-311479Y215233D01*
X-311363Y215166D01*
X-311249Y215095D01*
X-311138Y215020D01*
X-311029Y214943D01*
X-310922Y214862D01*
X-310817Y214778D01*
X-310716Y214691D01*
X-310616Y214601D01*
X-310520Y214508D01*
X-310426Y214412D01*
X-310335Y214313D01*
X-310248Y214212D01*
X-310163Y214108D01*
X-310081Y214002D01*
X-310003Y213894D01*
X-309928Y213783D01*
X-309856Y213670D01*
X-309787Y213554D01*
X-309722Y213437D01*
X-309661Y213318D01*
X-309603Y213197D01*
X-309549Y213075D01*
X-309498Y212951D01*
X-309451Y212825D01*
X-309408Y212698D01*
X-309369Y212570D01*
X-309333Y212441D01*
X-309302Y212311D01*
X-309274Y212180D01*
X-309250Y212048D01*
X-309230Y211915D01*
X-309214Y211782D01*
X-309202Y211649D01*
X-309194Y211515D01*
X-309190Y211381D01*
X-309190Y211247D01*
X-309194Y211113D01*
X-309202Y210979D01*
X-309214Y210846D01*
X-309230Y210713D01*
X-309250Y210580D01*
X-309274Y210448D01*
X-309302Y210317D01*
X-309333Y210187D01*
X-309369Y210058D01*
X-309408Y209930D01*
X-309451Y209803D01*
X-309498Y209677D01*
X-309549Y209553D01*
X-309603Y209431D01*
X-309661Y209310D01*
X-309722Y209191D01*
X-309787Y209074D01*
X-309856Y208958D01*
X-309928Y208845D01*
X-310003Y208734D01*
X-310081Y208626D01*
X-310163Y208520D01*
X-310248Y208416D01*
X-310335Y208315D01*
X-310426Y208216D01*
X-310520Y208120D01*
X-310616Y208027D01*
X-310716Y207937D01*
X-310817Y207850D01*
X-310922Y207766D01*
X-311029Y207685D01*
X-311138Y207608D01*
X-311249Y207533D01*
X-311363Y207462D01*
X-311479Y207395D01*
X-311596Y207331D01*
X-311716Y207270D01*
X-311837Y207213D01*
X-311960Y207160D01*
X-312085Y207110D01*
X-312211Y207064D01*
X-312338Y207022D01*
X-312466Y206984D01*
X-312596Y206949D01*
X-312726Y206918D01*
X-312857Y206892D01*
X-312989Y206869D01*
X-313122Y206850D01*
X-313255Y206835D01*
X-313389Y206824D01*
X-313523Y206817D01*
X-313656Y206814D01*
X-313790Y206815D01*
X-313924Y206820D01*
X-314058Y206829D01*
X-314191Y206842D01*
X-314324Y206859D01*
X-314457Y206880D01*
X-314588Y206905D01*
X-314719Y206933D01*
X-314849Y206966D01*
X-314978Y207002D01*
X-315106Y207043D01*
X-315233Y207087D01*
X-315358Y207134D01*
X-315481Y207186D01*
X-315604Y207241D01*
X-315724Y207300D01*
X-315843Y207362D01*
X-315959Y207428D01*
X-316074Y207497D01*
X-316187Y207570D01*
X-316297Y207646D01*
X-316405Y207725D01*
X-316511Y207808D01*
X-316614Y207893D01*
X-316714Y207982D01*
X-316812Y208073D01*
X-316907Y208168D01*
X-317000Y208265D01*
X-317089Y208365D01*
X-317175Y208467D01*
X-317258Y208572D01*
X-317338Y208680D01*
X-317415Y208790D01*
X-317489Y208902D01*
X-317559Y209016D01*
X-317626Y209132D01*
X-317689Y209250D01*
X-317749Y209370D01*
X-317805Y209492D01*
X-317857Y209615D01*
X-317906Y209740D01*
X-317951Y209866D01*
X-317992Y209994D01*
X-318029Y210122D01*
X-318063Y210252D01*
X-318093Y210383D01*
X-318118Y210514D01*
X-318140Y210646D01*
X-318158Y210779D01*
X-318172Y210913D01*
X-318182Y211046D01*
X-318188Y211180D01*
X-318190Y211314D01*
X-94126Y13208D02*
X-94124Y13321D01*
X-94118Y13435D01*
X-94108Y13548D01*
X-94094Y13660D01*
X-94077Y13772D01*
X-94055Y13884D01*
X-94029Y13994D01*
X-94000Y14104D01*
X-93967Y14212D01*
X-93930Y14320D01*
X-93889Y14425D01*
X-93845Y14530D01*
X-93797Y14633D01*
X-93746Y14734D01*
X-93691Y14833D01*
X-93632Y14930D01*
X-93570Y15025D01*
X-93505Y15118D01*
X-93437Y15209D01*
X-93366Y15297D01*
X-93291Y15383D01*
X-93214Y15466D01*
X-93134Y15546D01*
X-93051Y15623D01*
X-92965Y15698D01*
X-92877Y15769D01*
X-92786Y15837D01*
X-92693Y15902D01*
X-92598Y15964D01*
X-92501Y16023D01*
X-92402Y16078D01*
X-92301Y16129D01*
X-92198Y16177D01*
X-92093Y16221D01*
X-91988Y16262D01*
X-91880Y16299D01*
X-91772Y16332D01*
X-91662Y16361D01*
X-91552Y16387D01*
X-91440Y16409D01*
X-91328Y16426D01*
X-91216Y16440D01*
X-91103Y16450D01*
X-90989Y16456D01*
X-90876Y16458D01*
X-90763Y16456D01*
X-90649Y16450D01*
X-90536Y16440D01*
X-90424Y16426D01*
X-90312Y16409D01*
X-90200Y16387D01*
X-90090Y16361D01*
X-89980Y16332D01*
X-89872Y16299D01*
X-89764Y16262D01*
X-89659Y16221D01*
X-89554Y16177D01*
X-89451Y16129D01*
X-89350Y16078D01*
X-89251Y16023D01*
X-89154Y15964D01*
X-89059Y15902D01*
X-88966Y15837D01*
X-88875Y15769D01*
X-88787Y15698D01*
X-88701Y15623D01*
X-88618Y15546D01*
X-88538Y15466D01*
X-88461Y15383D01*
X-88386Y15297D01*
X-88315Y15209D01*
X-88247Y15118D01*
X-88182Y15025D01*
X-88120Y14930D01*
X-88061Y14833D01*
X-88006Y14734D01*
X-87955Y14633D01*
X-87907Y14530D01*
X-87863Y14425D01*
X-87822Y14320D01*
X-87785Y14212D01*
X-87752Y14104D01*
X-87723Y13994D01*
X-87697Y13884D01*
X-87675Y13772D01*
X-87658Y13660D01*
X-87644Y13548D01*
X-87634Y13435D01*
X-87628Y13321D01*
X-87626Y13208D01*
X-87628Y13095D01*
X-87634Y12981D01*
X-87644Y12868D01*
X-87658Y12756D01*
X-87675Y12644D01*
X-87697Y12532D01*
X-87723Y12422D01*
X-87752Y12312D01*
X-87785Y12204D01*
X-87822Y12096D01*
X-87863Y11991D01*
X-87907Y11886D01*
X-87955Y11783D01*
X-88006Y11682D01*
X-88061Y11583D01*
X-88120Y11486D01*
X-88182Y11391D01*
X-88247Y11298D01*
X-88315Y11207D01*
X-88386Y11119D01*
X-88461Y11033D01*
X-88538Y10950D01*
X-88618Y10870D01*
X-88701Y10793D01*
X-88787Y10718D01*
X-88875Y10647D01*
X-88966Y10579D01*
X-89059Y10514D01*
X-89154Y10452D01*
X-89251Y10393D01*
X-89350Y10338D01*
X-89451Y10287D01*
X-89554Y10239D01*
X-89659Y10195D01*
X-89764Y10154D01*
X-89872Y10117D01*
X-89980Y10084D01*
X-90090Y10055D01*
X-90200Y10029D01*
X-90312Y10007D01*
X-90424Y9990D01*
X-90536Y9976D01*
X-90649Y9966D01*
X-90763Y9960D01*
X-90876Y9958D01*
X-90989Y9960D01*
X-91103Y9966D01*
X-91216Y9976D01*
X-91328Y9990D01*
X-91440Y10007D01*
X-91552Y10029D01*
X-91662Y10055D01*
X-91772Y10084D01*
X-91880Y10117D01*
X-91988Y10154D01*
X-92093Y10195D01*
X-92198Y10239D01*
X-92301Y10287D01*
X-92402Y10338D01*
X-92501Y10393D01*
X-92598Y10452D01*
X-92693Y10514D01*
X-92786Y10579D01*
X-92877Y10647D01*
X-92965Y10718D01*
X-93051Y10793D01*
X-93134Y10870D01*
X-93214Y10950D01*
X-93291Y11033D01*
X-93366Y11119D01*
X-93437Y11207D01*
X-93505Y11298D01*
X-93570Y11391D01*
X-93632Y11486D01*
X-93691Y11583D01*
X-93746Y11682D01*
X-93797Y11783D01*
X-93845Y11886D01*
X-93889Y11991D01*
X-93930Y12096D01*
X-93967Y12204D01*
X-94000Y12312D01*
X-94029Y12422D01*
X-94055Y12532D01*
X-94077Y12644D01*
X-94094Y12756D01*
X-94108Y12868D01*
X-94118Y12981D01*
X-94124Y13095D01*
X-94126Y13208D01*
X-36326Y13208D02*
X-36324Y13321D01*
X-36318Y13435D01*
X-36308Y13548D01*
X-36294Y13660D01*
X-36277Y13772D01*
X-36255Y13884D01*
X-36229Y13994D01*
X-36200Y14104D01*
X-36167Y14212D01*
X-36130Y14320D01*
X-36089Y14425D01*
X-36045Y14530D01*
X-35997Y14633D01*
X-35946Y14734D01*
X-35891Y14833D01*
X-35832Y14930D01*
X-35770Y15025D01*
X-35705Y15118D01*
X-35637Y15209D01*
X-35566Y15297D01*
X-35491Y15383D01*
X-35414Y15466D01*
X-35334Y15546D01*
X-35251Y15623D01*
X-35165Y15698D01*
X-35077Y15769D01*
X-34986Y15837D01*
X-34893Y15902D01*
X-34798Y15964D01*
X-34701Y16023D01*
X-34602Y16078D01*
X-34501Y16129D01*
X-34398Y16177D01*
X-34293Y16221D01*
X-34188Y16262D01*
X-34080Y16299D01*
X-33972Y16332D01*
X-33862Y16361D01*
X-33752Y16387D01*
X-33640Y16409D01*
X-33528Y16426D01*
X-33416Y16440D01*
X-33303Y16450D01*
X-33189Y16456D01*
X-33076Y16458D01*
X-32963Y16456D01*
X-32849Y16450D01*
X-32736Y16440D01*
X-32624Y16426D01*
X-32512Y16409D01*
X-32400Y16387D01*
X-32290Y16361D01*
X-32180Y16332D01*
X-32072Y16299D01*
X-31964Y16262D01*
X-31859Y16221D01*
X-31754Y16177D01*
X-31651Y16129D01*
X-31550Y16078D01*
X-31451Y16023D01*
X-31354Y15964D01*
X-31259Y15902D01*
X-31166Y15837D01*
X-31075Y15769D01*
X-30987Y15698D01*
X-30901Y15623D01*
X-30818Y15546D01*
X-30738Y15466D01*
X-30661Y15383D01*
X-30586Y15297D01*
X-30515Y15209D01*
X-30447Y15118D01*
X-30382Y15025D01*
X-30320Y14930D01*
X-30261Y14833D01*
X-30206Y14734D01*
X-30155Y14633D01*
X-30107Y14530D01*
X-30063Y14425D01*
X-30022Y14320D01*
X-29985Y14212D01*
X-29952Y14104D01*
X-29923Y13994D01*
X-29897Y13884D01*
X-29875Y13772D01*
X-29858Y13660D01*
X-29844Y13548D01*
X-29834Y13435D01*
X-29828Y13321D01*
X-29826Y13208D01*
X-29828Y13095D01*
X-29834Y12981D01*
X-29844Y12868D01*
X-29858Y12756D01*
X-29875Y12644D01*
X-29897Y12532D01*
X-29923Y12422D01*
X-29952Y12312D01*
X-29985Y12204D01*
X-30022Y12096D01*
X-30063Y11991D01*
X-30107Y11886D01*
X-30155Y11783D01*
X-30206Y11682D01*
X-30261Y11583D01*
X-30320Y11486D01*
X-30382Y11391D01*
X-30447Y11298D01*
X-30515Y11207D01*
X-30586Y11119D01*
X-30661Y11033D01*
X-30738Y10950D01*
X-30818Y10870D01*
X-30901Y10793D01*
X-30987Y10718D01*
X-31075Y10647D01*
X-31166Y10579D01*
X-31259Y10514D01*
X-31354Y10452D01*
X-31451Y10393D01*
X-31550Y10338D01*
X-31651Y10287D01*
X-31754Y10239D01*
X-31859Y10195D01*
X-31964Y10154D01*
X-32072Y10117D01*
X-32180Y10084D01*
X-32290Y10055D01*
X-32400Y10029D01*
X-32512Y10007D01*
X-32624Y9990D01*
X-32736Y9976D01*
X-32849Y9966D01*
X-32963Y9960D01*
X-33076Y9958D01*
X-33189Y9960D01*
X-33303Y9966D01*
X-33416Y9976D01*
X-33528Y9990D01*
X-33640Y10007D01*
X-33752Y10029D01*
X-33862Y10055D01*
X-33972Y10084D01*
X-34080Y10117D01*
X-34188Y10154D01*
X-34293Y10195D01*
X-34398Y10239D01*
X-34501Y10287D01*
X-34602Y10338D01*
X-34701Y10393D01*
X-34798Y10452D01*
X-34893Y10514D01*
X-34986Y10579D01*
X-35077Y10647D01*
X-35165Y10718D01*
X-35251Y10793D01*
X-35334Y10870D01*
X-35414Y10950D01*
X-35491Y11033D01*
X-35566Y11119D01*
X-35637Y11207D01*
X-35705Y11298D01*
X-35770Y11391D01*
X-35832Y11486D01*
X-35891Y11583D01*
X-35946Y11682D01*
X-35997Y11783D01*
X-36045Y11886D01*
X-36089Y11991D01*
X-36130Y12096D01*
X-36167Y12204D01*
X-36200Y12312D01*
X-36229Y12422D01*
X-36255Y12532D01*
X-36277Y12644D01*
X-36294Y12756D01*
X-36308Y12868D01*
X-36318Y12981D01*
X-36324Y13095D01*
X-36326Y13208D01*
X163576Y114046D02*
X163578Y114188D01*
X163584Y114331D01*
X163594Y114473D01*
X163608Y114615D01*
X163626Y114756D01*
X163648Y114897D01*
X163674Y115037D01*
X163703Y115176D01*
X163737Y115315D01*
X163775Y115452D01*
X163816Y115589D01*
X163861Y115724D01*
X163910Y115858D01*
X163963Y115990D01*
X164019Y116121D01*
X164079Y116250D01*
X164143Y116378D01*
X164210Y116503D01*
X164281Y116627D01*
X164355Y116749D01*
X164432Y116868D01*
X164513Y116986D01*
X164597Y117101D01*
X164684Y117213D01*
X164775Y117323D01*
X164868Y117431D01*
X164965Y117536D01*
X165064Y117638D01*
X165166Y117737D01*
X165271Y117834D01*
X165379Y117927D01*
X165489Y118018D01*
X165601Y118105D01*
X165716Y118189D01*
X165834Y118270D01*
X165953Y118347D01*
X166075Y118421D01*
X166199Y118492D01*
X166324Y118559D01*
X166452Y118623D01*
X166581Y118683D01*
X166712Y118739D01*
X166844Y118792D01*
X166978Y118841D01*
X167113Y118886D01*
X167250Y118927D01*
X167387Y118965D01*
X167526Y118999D01*
X167665Y119028D01*
X167805Y119054D01*
X167946Y119076D01*
X168087Y119094D01*
X168229Y119108D01*
X168371Y119118D01*
X168514Y119124D01*
X168656Y119126D01*
X168798Y119124D01*
X168941Y119118D01*
X169083Y119108D01*
X169225Y119094D01*
X169366Y119076D01*
X169507Y119054D01*
X169647Y119028D01*
X169786Y118999D01*
X169925Y118965D01*
X170062Y118927D01*
X170199Y118886D01*
X170334Y118841D01*
X170468Y118792D01*
X170600Y118739D01*
X170731Y118683D01*
X170860Y118623D01*
X170988Y118559D01*
X171113Y118492D01*
X171237Y118421D01*
X171359Y118347D01*
X171478Y118270D01*
X171596Y118189D01*
X171711Y118105D01*
X171823Y118018D01*
X171933Y117927D01*
X172041Y117834D01*
X172146Y117737D01*
X172248Y117638D01*
X172347Y117536D01*
X172444Y117431D01*
X172537Y117323D01*
X172628Y117213D01*
X172715Y117101D01*
X172799Y116986D01*
X172880Y116868D01*
X172957Y116749D01*
X173031Y116627D01*
X173102Y116503D01*
X173169Y116378D01*
X173233Y116250D01*
X173293Y116121D01*
X173349Y115990D01*
X173402Y115858D01*
X173451Y115724D01*
X173496Y115589D01*
X173537Y115452D01*
X173575Y115315D01*
X173609Y115176D01*
X173638Y115037D01*
X173664Y114897D01*
X173686Y114756D01*
X173704Y114615D01*
X173718Y114473D01*
X173728Y114331D01*
X173734Y114188D01*
X173736Y114046D01*
X173734Y113904D01*
X173728Y113761D01*
X173718Y113619D01*
X173704Y113477D01*
X173686Y113336D01*
X173664Y113195D01*
X173638Y113055D01*
X173609Y112916D01*
X173575Y112777D01*
X173537Y112640D01*
X173496Y112503D01*
X173451Y112368D01*
X173402Y112234D01*
X173349Y112102D01*
X173293Y111971D01*
X173233Y111842D01*
X173169Y111714D01*
X173102Y111589D01*
X173031Y111465D01*
X172957Y111343D01*
X172880Y111224D01*
X172799Y111106D01*
X172715Y110991D01*
X172628Y110879D01*
X172537Y110769D01*
X172444Y110661D01*
X172347Y110556D01*
X172248Y110454D01*
X172146Y110355D01*
X172041Y110258D01*
X171933Y110165D01*
X171823Y110074D01*
X171711Y109987D01*
X171596Y109903D01*
X171478Y109822D01*
X171359Y109745D01*
X171237Y109671D01*
X171113Y109600D01*
X170988Y109533D01*
X170860Y109469D01*
X170731Y109409D01*
X170600Y109353D01*
X170468Y109300D01*
X170334Y109251D01*
X170199Y109206D01*
X170062Y109165D01*
X169925Y109127D01*
X169786Y109093D01*
X169647Y109064D01*
X169507Y109038D01*
X169366Y109016D01*
X169225Y108998D01*
X169083Y108984D01*
X168941Y108974D01*
X168798Y108968D01*
X168656Y108966D01*
X168514Y108968D01*
X168371Y108974D01*
X168229Y108984D01*
X168087Y108998D01*
X167946Y109016D01*
X167805Y109038D01*
X167665Y109064D01*
X167526Y109093D01*
X167387Y109127D01*
X167250Y109165D01*
X167113Y109206D01*
X166978Y109251D01*
X166844Y109300D01*
X166712Y109353D01*
X166581Y109409D01*
X166452Y109469D01*
X166324Y109533D01*
X166199Y109600D01*
X166075Y109671D01*
X165953Y109745D01*
X165834Y109822D01*
X165716Y109903D01*
X165601Y109987D01*
X165489Y110074D01*
X165379Y110165D01*
X165271Y110258D01*
X165166Y110355D01*
X165064Y110454D01*
X164965Y110556D01*
X164868Y110661D01*
X164775Y110769D01*
X164684Y110879D01*
X164597Y110991D01*
X164513Y111106D01*
X164432Y111224D01*
X164355Y111343D01*
X164281Y111465D01*
X164210Y111589D01*
X164143Y111714D01*
X164079Y111842D01*
X164019Y111971D01*
X163963Y112102D01*
X163910Y112234D01*
X163861Y112368D01*
X163816Y112503D01*
X163775Y112640D01*
X163737Y112777D01*
X163703Y112916D01*
X163674Y113055D01*
X163648Y113195D01*
X163626Y113336D01*
X163608Y113477D01*
X163594Y113619D01*
X163584Y113761D01*
X163578Y113904D01*
X163576Y114046D01*
X173736Y63246D02*
X173738Y63388D01*
X173744Y63531D01*
X173754Y63673D01*
X173768Y63815D01*
X173786Y63956D01*
X173808Y64097D01*
X173834Y64237D01*
X173863Y64376D01*
X173897Y64515D01*
X173935Y64652D01*
X173976Y64789D01*
X174021Y64924D01*
X174070Y65058D01*
X174123Y65190D01*
X174179Y65321D01*
X174239Y65450D01*
X174303Y65578D01*
X174370Y65703D01*
X174441Y65827D01*
X174515Y65949D01*
X174592Y66068D01*
X174673Y66186D01*
X174757Y66301D01*
X174844Y66413D01*
X174935Y66523D01*
X175028Y66631D01*
X175125Y66736D01*
X175224Y66838D01*
X175326Y66937D01*
X175431Y67034D01*
X175539Y67127D01*
X175649Y67218D01*
X175761Y67305D01*
X175876Y67389D01*
X175994Y67470D01*
X176113Y67547D01*
X176235Y67621D01*
X176359Y67692D01*
X176484Y67759D01*
X176612Y67823D01*
X176741Y67883D01*
X176872Y67939D01*
X177004Y67992D01*
X177138Y68041D01*
X177273Y68086D01*
X177410Y68127D01*
X177547Y68165D01*
X177686Y68199D01*
X177825Y68228D01*
X177965Y68254D01*
X178106Y68276D01*
X178247Y68294D01*
X178389Y68308D01*
X178531Y68318D01*
X178674Y68324D01*
X178816Y68326D01*
X178958Y68324D01*
X179101Y68318D01*
X179243Y68308D01*
X179385Y68294D01*
X179526Y68276D01*
X179667Y68254D01*
X179807Y68228D01*
X179946Y68199D01*
X180085Y68165D01*
X180222Y68127D01*
X180359Y68086D01*
X180494Y68041D01*
X180628Y67992D01*
X180760Y67939D01*
X180891Y67883D01*
X181020Y67823D01*
X181148Y67759D01*
X181273Y67692D01*
X181397Y67621D01*
X181519Y67547D01*
X181638Y67470D01*
X181756Y67389D01*
X181871Y67305D01*
X181983Y67218D01*
X182093Y67127D01*
X182201Y67034D01*
X182306Y66937D01*
X182408Y66838D01*
X182507Y66736D01*
X182604Y66631D01*
X182697Y66523D01*
X182788Y66413D01*
X182875Y66301D01*
X182959Y66186D01*
X183040Y66068D01*
X183117Y65949D01*
X183191Y65827D01*
X183262Y65703D01*
X183329Y65578D01*
X183393Y65450D01*
X183453Y65321D01*
X183509Y65190D01*
X183562Y65058D01*
X183611Y64924D01*
X183656Y64789D01*
X183697Y64652D01*
X183735Y64515D01*
X183769Y64376D01*
X183798Y64237D01*
X183824Y64097D01*
X183846Y63956D01*
X183864Y63815D01*
X183878Y63673D01*
X183888Y63531D01*
X183894Y63388D01*
X183896Y63246D01*
X183894Y63104D01*
X183888Y62961D01*
X183878Y62819D01*
X183864Y62677D01*
X183846Y62536D01*
X183824Y62395D01*
X183798Y62255D01*
X183769Y62116D01*
X183735Y61977D01*
X183697Y61840D01*
X183656Y61703D01*
X183611Y61568D01*
X183562Y61434D01*
X183509Y61302D01*
X183453Y61171D01*
X183393Y61042D01*
X183329Y60914D01*
X183262Y60789D01*
X183191Y60665D01*
X183117Y60543D01*
X183040Y60424D01*
X182959Y60306D01*
X182875Y60191D01*
X182788Y60079D01*
X182697Y59969D01*
X182604Y59861D01*
X182507Y59756D01*
X182408Y59654D01*
X182306Y59555D01*
X182201Y59458D01*
X182093Y59365D01*
X181983Y59274D01*
X181871Y59187D01*
X181756Y59103D01*
X181638Y59022D01*
X181519Y58945D01*
X181397Y58871D01*
X181273Y58800D01*
X181148Y58733D01*
X181020Y58669D01*
X180891Y58609D01*
X180760Y58553D01*
X180628Y58500D01*
X180494Y58451D01*
X180359Y58406D01*
X180222Y58365D01*
X180085Y58327D01*
X179946Y58293D01*
X179807Y58264D01*
X179667Y58238D01*
X179526Y58216D01*
X179385Y58198D01*
X179243Y58184D01*
X179101Y58174D01*
X178958Y58168D01*
X178816Y58166D01*
X178674Y58168D01*
X178531Y58174D01*
X178389Y58184D01*
X178247Y58198D01*
X178106Y58216D01*
X177965Y58238D01*
X177825Y58264D01*
X177686Y58293D01*
X177547Y58327D01*
X177410Y58365D01*
X177273Y58406D01*
X177138Y58451D01*
X177004Y58500D01*
X176872Y58553D01*
X176741Y58609D01*
X176612Y58669D01*
X176484Y58733D01*
X176359Y58800D01*
X176235Y58871D01*
X176113Y58945D01*
X175994Y59022D01*
X175876Y59103D01*
X175761Y59187D01*
X175649Y59274D01*
X175539Y59365D01*
X175431Y59458D01*
X175326Y59555D01*
X175224Y59654D01*
X175125Y59756D01*
X175028Y59861D01*
X174935Y59969D01*
X174844Y60079D01*
X174757Y60191D01*
X174673Y60306D01*
X174592Y60424D01*
X174515Y60543D01*
X174441Y60665D01*
X174370Y60789D01*
X174303Y60914D01*
X174239Y61042D01*
X174179Y61171D01*
X174123Y61302D01*
X174070Y61434D01*
X174021Y61568D01*
X173976Y61703D01*
X173935Y61840D01*
X173897Y61977D01*
X173863Y62116D01*
X173834Y62255D01*
X173808Y62395D01*
X173786Y62536D01*
X173768Y62677D01*
X173754Y62819D01*
X173744Y62961D01*
X173738Y63104D01*
X173736Y63246D01*
X153416Y63246D02*
X153418Y63388D01*
X153424Y63531D01*
X153434Y63673D01*
X153448Y63815D01*
X153466Y63956D01*
X153488Y64097D01*
X153514Y64237D01*
X153543Y64376D01*
X153577Y64515D01*
X153615Y64652D01*
X153656Y64789D01*
X153701Y64924D01*
X153750Y65058D01*
X153803Y65190D01*
X153859Y65321D01*
X153919Y65450D01*
X153983Y65578D01*
X154050Y65703D01*
X154121Y65827D01*
X154195Y65949D01*
X154272Y66068D01*
X154353Y66186D01*
X154437Y66301D01*
X154524Y66413D01*
X154615Y66523D01*
X154708Y66631D01*
X154805Y66736D01*
X154904Y66838D01*
X155006Y66937D01*
X155111Y67034D01*
X155219Y67127D01*
X155329Y67218D01*
X155441Y67305D01*
X155556Y67389D01*
X155674Y67470D01*
X155793Y67547D01*
X155915Y67621D01*
X156039Y67692D01*
X156164Y67759D01*
X156292Y67823D01*
X156421Y67883D01*
X156552Y67939D01*
X156684Y67992D01*
X156818Y68041D01*
X156953Y68086D01*
X157090Y68127D01*
X157227Y68165D01*
X157366Y68199D01*
X157505Y68228D01*
X157645Y68254D01*
X157786Y68276D01*
X157927Y68294D01*
X158069Y68308D01*
X158211Y68318D01*
X158354Y68324D01*
X158496Y68326D01*
X158638Y68324D01*
X158781Y68318D01*
X158923Y68308D01*
X159065Y68294D01*
X159206Y68276D01*
X159347Y68254D01*
X159487Y68228D01*
X159626Y68199D01*
X159765Y68165D01*
X159902Y68127D01*
X160039Y68086D01*
X160174Y68041D01*
X160308Y67992D01*
X160440Y67939D01*
X160571Y67883D01*
X160700Y67823D01*
X160828Y67759D01*
X160953Y67692D01*
X161077Y67621D01*
X161199Y67547D01*
X161318Y67470D01*
X161436Y67389D01*
X161551Y67305D01*
X161663Y67218D01*
X161773Y67127D01*
X161881Y67034D01*
X161986Y66937D01*
X162088Y66838D01*
X162187Y66736D01*
X162284Y66631D01*
X162377Y66523D01*
X162468Y66413D01*
X162555Y66301D01*
X162639Y66186D01*
X162720Y66068D01*
X162797Y65949D01*
X162871Y65827D01*
X162942Y65703D01*
X163009Y65578D01*
X163073Y65450D01*
X163133Y65321D01*
X163189Y65190D01*
X163242Y65058D01*
X163291Y64924D01*
X163336Y64789D01*
X163377Y64652D01*
X163415Y64515D01*
X163449Y64376D01*
X163478Y64237D01*
X163504Y64097D01*
X163526Y63956D01*
X163544Y63815D01*
X163558Y63673D01*
X163568Y63531D01*
X163574Y63388D01*
X163576Y63246D01*
X163574Y63104D01*
X163568Y62961D01*
X163558Y62819D01*
X163544Y62677D01*
X163526Y62536D01*
X163504Y62395D01*
X163478Y62255D01*
X163449Y62116D01*
X163415Y61977D01*
X163377Y61840D01*
X163336Y61703D01*
X163291Y61568D01*
X163242Y61434D01*
X163189Y61302D01*
X163133Y61171D01*
X163073Y61042D01*
X163009Y60914D01*
X162942Y60789D01*
X162871Y60665D01*
X162797Y60543D01*
X162720Y60424D01*
X162639Y60306D01*
X162555Y60191D01*
X162468Y60079D01*
X162377Y59969D01*
X162284Y59861D01*
X162187Y59756D01*
X162088Y59654D01*
X161986Y59555D01*
X161881Y59458D01*
X161773Y59365D01*
X161663Y59274D01*
X161551Y59187D01*
X161436Y59103D01*
X161318Y59022D01*
X161199Y58945D01*
X161077Y58871D01*
X160953Y58800D01*
X160828Y58733D01*
X160700Y58669D01*
X160571Y58609D01*
X160440Y58553D01*
X160308Y58500D01*
X160174Y58451D01*
X160039Y58406D01*
X159902Y58365D01*
X159765Y58327D01*
X159626Y58293D01*
X159487Y58264D01*
X159347Y58238D01*
X159206Y58216D01*
X159065Y58198D01*
X158923Y58184D01*
X158781Y58174D01*
X158638Y58168D01*
X158496Y58166D01*
X158354Y58168D01*
X158211Y58174D01*
X158069Y58184D01*
X157927Y58198D01*
X157786Y58216D01*
X157645Y58238D01*
X157505Y58264D01*
X157366Y58293D01*
X157227Y58327D01*
X157090Y58365D01*
X156953Y58406D01*
X156818Y58451D01*
X156684Y58500D01*
X156552Y58553D01*
X156421Y58609D01*
X156292Y58669D01*
X156164Y58733D01*
X156039Y58800D01*
X155915Y58871D01*
X155793Y58945D01*
X155674Y59022D01*
X155556Y59103D01*
X155441Y59187D01*
X155329Y59274D01*
X155219Y59365D01*
X155111Y59458D01*
X155006Y59555D01*
X154904Y59654D01*
X154805Y59756D01*
X154708Y59861D01*
X154615Y59969D01*
X154524Y60079D01*
X154437Y60191D01*
X154353Y60306D01*
X154272Y60424D01*
X154195Y60543D01*
X154121Y60665D01*
X154050Y60789D01*
X153983Y60914D01*
X153919Y61042D01*
X153859Y61171D01*
X153803Y61302D01*
X153750Y61434D01*
X153701Y61568D01*
X153656Y61703D01*
X153615Y61840D01*
X153577Y61977D01*
X153543Y62116D01*
X153514Y62255D01*
X153488Y62395D01*
X153466Y62536D01*
X153448Y62677D01*
X153434Y62819D01*
X153424Y62961D01*
X153418Y63104D01*
X153416Y63246D01*
X59690Y239268D02*
X59692Y239410D01*
X59698Y239553D01*
X59708Y239695D01*
X59722Y239837D01*
X59740Y239978D01*
X59762Y240119D01*
X59788Y240259D01*
X59817Y240398D01*
X59851Y240537D01*
X59889Y240674D01*
X59930Y240811D01*
X59975Y240946D01*
X60024Y241080D01*
X60077Y241212D01*
X60133Y241343D01*
X60193Y241472D01*
X60257Y241600D01*
X60324Y241725D01*
X60395Y241849D01*
X60469Y241971D01*
X60546Y242090D01*
X60627Y242208D01*
X60711Y242323D01*
X60798Y242435D01*
X60889Y242545D01*
X60982Y242653D01*
X61079Y242758D01*
X61178Y242860D01*
X61280Y242959D01*
X61385Y243056D01*
X61493Y243149D01*
X61603Y243240D01*
X61715Y243327D01*
X61830Y243411D01*
X61948Y243492D01*
X62067Y243569D01*
X62189Y243643D01*
X62313Y243714D01*
X62438Y243781D01*
X62566Y243845D01*
X62695Y243905D01*
X62826Y243961D01*
X62958Y244014D01*
X63092Y244063D01*
X63227Y244108D01*
X63364Y244149D01*
X63501Y244187D01*
X63640Y244221D01*
X63779Y244250D01*
X63919Y244276D01*
X64060Y244298D01*
X64201Y244316D01*
X64343Y244330D01*
X64485Y244340D01*
X64628Y244346D01*
X64770Y244348D01*
X64912Y244346D01*
X65055Y244340D01*
X65197Y244330D01*
X65339Y244316D01*
X65480Y244298D01*
X65621Y244276D01*
X65761Y244250D01*
X65900Y244221D01*
X66039Y244187D01*
X66176Y244149D01*
X66313Y244108D01*
X66448Y244063D01*
X66582Y244014D01*
X66714Y243961D01*
X66845Y243905D01*
X66974Y243845D01*
X67102Y243781D01*
X67227Y243714D01*
X67351Y243643D01*
X67473Y243569D01*
X67592Y243492D01*
X67710Y243411D01*
X67825Y243327D01*
X67937Y243240D01*
X68047Y243149D01*
X68155Y243056D01*
X68260Y242959D01*
X68362Y242860D01*
X68461Y242758D01*
X68558Y242653D01*
X68651Y242545D01*
X68742Y242435D01*
X68829Y242323D01*
X68913Y242208D01*
X68994Y242090D01*
X69071Y241971D01*
X69145Y241849D01*
X69216Y241725D01*
X69283Y241600D01*
X69347Y241472D01*
X69407Y241343D01*
X69463Y241212D01*
X69516Y241080D01*
X69565Y240946D01*
X69610Y240811D01*
X69651Y240674D01*
X69689Y240537D01*
X69723Y240398D01*
X69752Y240259D01*
X69778Y240119D01*
X69800Y239978D01*
X69818Y239837D01*
X69832Y239695D01*
X69842Y239553D01*
X69848Y239410D01*
X69850Y239268D01*
X69848Y239126D01*
X69842Y238983D01*
X69832Y238841D01*
X69818Y238699D01*
X69800Y238558D01*
X69778Y238417D01*
X69752Y238277D01*
X69723Y238138D01*
X69689Y237999D01*
X69651Y237862D01*
X69610Y237725D01*
X69565Y237590D01*
X69516Y237456D01*
X69463Y237324D01*
X69407Y237193D01*
X69347Y237064D01*
X69283Y236936D01*
X69216Y236811D01*
X69145Y236687D01*
X69071Y236565D01*
X68994Y236446D01*
X68913Y236328D01*
X68829Y236213D01*
X68742Y236101D01*
X68651Y235991D01*
X68558Y235883D01*
X68461Y235778D01*
X68362Y235676D01*
X68260Y235577D01*
X68155Y235480D01*
X68047Y235387D01*
X67937Y235296D01*
X67825Y235209D01*
X67710Y235125D01*
X67592Y235044D01*
X67473Y234967D01*
X67351Y234893D01*
X67227Y234822D01*
X67102Y234755D01*
X66974Y234691D01*
X66845Y234631D01*
X66714Y234575D01*
X66582Y234522D01*
X66448Y234473D01*
X66313Y234428D01*
X66176Y234387D01*
X66039Y234349D01*
X65900Y234315D01*
X65761Y234286D01*
X65621Y234260D01*
X65480Y234238D01*
X65339Y234220D01*
X65197Y234206D01*
X65055Y234196D01*
X64912Y234190D01*
X64770Y234188D01*
X64628Y234190D01*
X64485Y234196D01*
X64343Y234206D01*
X64201Y234220D01*
X64060Y234238D01*
X63919Y234260D01*
X63779Y234286D01*
X63640Y234315D01*
X63501Y234349D01*
X63364Y234387D01*
X63227Y234428D01*
X63092Y234473D01*
X62958Y234522D01*
X62826Y234575D01*
X62695Y234631D01*
X62566Y234691D01*
X62438Y234755D01*
X62313Y234822D01*
X62189Y234893D01*
X62067Y234967D01*
X61948Y235044D01*
X61830Y235125D01*
X61715Y235209D01*
X61603Y235296D01*
X61493Y235387D01*
X61385Y235480D01*
X61280Y235577D01*
X61178Y235676D01*
X61079Y235778D01*
X60982Y235883D01*
X60889Y235991D01*
X60798Y236101D01*
X60711Y236213D01*
X60627Y236328D01*
X60546Y236446D01*
X60469Y236565D01*
X60395Y236687D01*
X60324Y236811D01*
X60257Y236936D01*
X60193Y237064D01*
X60133Y237193D01*
X60077Y237324D01*
X60024Y237456D01*
X59975Y237590D01*
X59930Y237725D01*
X59889Y237862D01*
X59851Y237999D01*
X59817Y238138D01*
X59788Y238277D01*
X59762Y238417D01*
X59740Y238558D01*
X59722Y238699D01*
X59708Y238841D01*
X59698Y238983D01*
X59692Y239126D01*
X59690Y239268D01*
X49530Y290068D02*
X49532Y290210D01*
X49538Y290353D01*
X49548Y290495D01*
X49562Y290637D01*
X49580Y290778D01*
X49602Y290919D01*
X49628Y291059D01*
X49657Y291198D01*
X49691Y291337D01*
X49729Y291474D01*
X49770Y291611D01*
X49815Y291746D01*
X49864Y291880D01*
X49917Y292012D01*
X49973Y292143D01*
X50033Y292272D01*
X50097Y292400D01*
X50164Y292525D01*
X50235Y292649D01*
X50309Y292771D01*
X50386Y292890D01*
X50467Y293008D01*
X50551Y293123D01*
X50638Y293235D01*
X50729Y293345D01*
X50822Y293453D01*
X50919Y293558D01*
X51018Y293660D01*
X51120Y293759D01*
X51225Y293856D01*
X51333Y293949D01*
X51443Y294040D01*
X51555Y294127D01*
X51670Y294211D01*
X51788Y294292D01*
X51907Y294369D01*
X52029Y294443D01*
X52153Y294514D01*
X52278Y294581D01*
X52406Y294645D01*
X52535Y294705D01*
X52666Y294761D01*
X52798Y294814D01*
X52932Y294863D01*
X53067Y294908D01*
X53204Y294949D01*
X53341Y294987D01*
X53480Y295021D01*
X53619Y295050D01*
X53759Y295076D01*
X53900Y295098D01*
X54041Y295116D01*
X54183Y295130D01*
X54325Y295140D01*
X54468Y295146D01*
X54610Y295148D01*
X54752Y295146D01*
X54895Y295140D01*
X55037Y295130D01*
X55179Y295116D01*
X55320Y295098D01*
X55461Y295076D01*
X55601Y295050D01*
X55740Y295021D01*
X55879Y294987D01*
X56016Y294949D01*
X56153Y294908D01*
X56288Y294863D01*
X56422Y294814D01*
X56554Y294761D01*
X56685Y294705D01*
X56814Y294645D01*
X56942Y294581D01*
X57067Y294514D01*
X57191Y294443D01*
X57313Y294369D01*
X57432Y294292D01*
X57550Y294211D01*
X57665Y294127D01*
X57777Y294040D01*
X57887Y293949D01*
X57995Y293856D01*
X58100Y293759D01*
X58202Y293660D01*
X58301Y293558D01*
X58398Y293453D01*
X58491Y293345D01*
X58582Y293235D01*
X58669Y293123D01*
X58753Y293008D01*
X58834Y292890D01*
X58911Y292771D01*
X58985Y292649D01*
X59056Y292525D01*
X59123Y292400D01*
X59187Y292272D01*
X59247Y292143D01*
X59303Y292012D01*
X59356Y291880D01*
X59405Y291746D01*
X59450Y291611D01*
X59491Y291474D01*
X59529Y291337D01*
X59563Y291198D01*
X59592Y291059D01*
X59618Y290919D01*
X59640Y290778D01*
X59658Y290637D01*
X59672Y290495D01*
X59682Y290353D01*
X59688Y290210D01*
X59690Y290068D01*
X59688Y289926D01*
X59682Y289783D01*
X59672Y289641D01*
X59658Y289499D01*
X59640Y289358D01*
X59618Y289217D01*
X59592Y289077D01*
X59563Y288938D01*
X59529Y288799D01*
X59491Y288662D01*
X59450Y288525D01*
X59405Y288390D01*
X59356Y288256D01*
X59303Y288124D01*
X59247Y287993D01*
X59187Y287864D01*
X59123Y287736D01*
X59056Y287611D01*
X58985Y287487D01*
X58911Y287365D01*
X58834Y287246D01*
X58753Y287128D01*
X58669Y287013D01*
X58582Y286901D01*
X58491Y286791D01*
X58398Y286683D01*
X58301Y286578D01*
X58202Y286476D01*
X58100Y286377D01*
X57995Y286280D01*
X57887Y286187D01*
X57777Y286096D01*
X57665Y286009D01*
X57550Y285925D01*
X57432Y285844D01*
X57313Y285767D01*
X57191Y285693D01*
X57067Y285622D01*
X56942Y285555D01*
X56814Y285491D01*
X56685Y285431D01*
X56554Y285375D01*
X56422Y285322D01*
X56288Y285273D01*
X56153Y285228D01*
X56016Y285187D01*
X55879Y285149D01*
X55740Y285115D01*
X55601Y285086D01*
X55461Y285060D01*
X55320Y285038D01*
X55179Y285020D01*
X55037Y285006D01*
X54895Y284996D01*
X54752Y284990D01*
X54610Y284988D01*
X54468Y284990D01*
X54325Y284996D01*
X54183Y285006D01*
X54041Y285020D01*
X53900Y285038D01*
X53759Y285060D01*
X53619Y285086D01*
X53480Y285115D01*
X53341Y285149D01*
X53204Y285187D01*
X53067Y285228D01*
X52932Y285273D01*
X52798Y285322D01*
X52666Y285375D01*
X52535Y285431D01*
X52406Y285491D01*
X52278Y285555D01*
X52153Y285622D01*
X52029Y285693D01*
X51907Y285767D01*
X51788Y285844D01*
X51670Y285925D01*
X51555Y286009D01*
X51443Y286096D01*
X51333Y286187D01*
X51225Y286280D01*
X51120Y286377D01*
X51018Y286476D01*
X50919Y286578D01*
X50822Y286683D01*
X50729Y286791D01*
X50638Y286901D01*
X50551Y287013D01*
X50467Y287128D01*
X50386Y287246D01*
X50309Y287365D01*
X50235Y287487D01*
X50164Y287611D01*
X50097Y287736D01*
X50033Y287864D01*
X49973Y287993D01*
X49917Y288124D01*
X49864Y288256D01*
X49815Y288390D01*
X49770Y288525D01*
X49729Y288662D01*
X49691Y288799D01*
X49657Y288938D01*
X49628Y289077D01*
X49602Y289217D01*
X49580Y289358D01*
X49562Y289499D01*
X49548Y289641D01*
X49538Y289783D01*
X49532Y289926D01*
X49530Y290068D01*
X69850Y290068D02*
X69852Y290210D01*
X69858Y290353D01*
X69868Y290495D01*
X69882Y290637D01*
X69900Y290778D01*
X69922Y290919D01*
X69948Y291059D01*
X69977Y291198D01*
X70011Y291337D01*
X70049Y291474D01*
X70090Y291611D01*
X70135Y291746D01*
X70184Y291880D01*
X70237Y292012D01*
X70293Y292143D01*
X70353Y292272D01*
X70417Y292400D01*
X70484Y292525D01*
X70555Y292649D01*
X70629Y292771D01*
X70706Y292890D01*
X70787Y293008D01*
X70871Y293123D01*
X70958Y293235D01*
X71049Y293345D01*
X71142Y293453D01*
X71239Y293558D01*
X71338Y293660D01*
X71440Y293759D01*
X71545Y293856D01*
X71653Y293949D01*
X71763Y294040D01*
X71875Y294127D01*
X71990Y294211D01*
X72108Y294292D01*
X72227Y294369D01*
X72349Y294443D01*
X72473Y294514D01*
X72598Y294581D01*
X72726Y294645D01*
X72855Y294705D01*
X72986Y294761D01*
X73118Y294814D01*
X73252Y294863D01*
X73387Y294908D01*
X73524Y294949D01*
X73661Y294987D01*
X73800Y295021D01*
X73939Y295050D01*
X74079Y295076D01*
X74220Y295098D01*
X74361Y295116D01*
X74503Y295130D01*
X74645Y295140D01*
X74788Y295146D01*
X74930Y295148D01*
X75072Y295146D01*
X75215Y295140D01*
X75357Y295130D01*
X75499Y295116D01*
X75640Y295098D01*
X75781Y295076D01*
X75921Y295050D01*
X76060Y295021D01*
X76199Y294987D01*
X76336Y294949D01*
X76473Y294908D01*
X76608Y294863D01*
X76742Y294814D01*
X76874Y294761D01*
X77005Y294705D01*
X77134Y294645D01*
X77262Y294581D01*
X77387Y294514D01*
X77511Y294443D01*
X77633Y294369D01*
X77752Y294292D01*
X77870Y294211D01*
X77985Y294127D01*
X78097Y294040D01*
X78207Y293949D01*
X78315Y293856D01*
X78420Y293759D01*
X78522Y293660D01*
X78621Y293558D01*
X78718Y293453D01*
X78811Y293345D01*
X78902Y293235D01*
X78989Y293123D01*
X79073Y293008D01*
X79154Y292890D01*
X79231Y292771D01*
X79305Y292649D01*
X79376Y292525D01*
X79443Y292400D01*
X79507Y292272D01*
X79567Y292143D01*
X79623Y292012D01*
X79676Y291880D01*
X79725Y291746D01*
X79770Y291611D01*
X79811Y291474D01*
X79849Y291337D01*
X79883Y291198D01*
X79912Y291059D01*
X79938Y290919D01*
X79960Y290778D01*
X79978Y290637D01*
X79992Y290495D01*
X80002Y290353D01*
X80008Y290210D01*
X80010Y290068D01*
X80008Y289926D01*
X80002Y289783D01*
X79992Y289641D01*
X79978Y289499D01*
X79960Y289358D01*
X79938Y289217D01*
X79912Y289077D01*
X79883Y288938D01*
X79849Y288799D01*
X79811Y288662D01*
X79770Y288525D01*
X79725Y288390D01*
X79676Y288256D01*
X79623Y288124D01*
X79567Y287993D01*
X79507Y287864D01*
X79443Y287736D01*
X79376Y287611D01*
X79305Y287487D01*
X79231Y287365D01*
X79154Y287246D01*
X79073Y287128D01*
X78989Y287013D01*
X78902Y286901D01*
X78811Y286791D01*
X78718Y286683D01*
X78621Y286578D01*
X78522Y286476D01*
X78420Y286377D01*
X78315Y286280D01*
X78207Y286187D01*
X78097Y286096D01*
X77985Y286009D01*
X77870Y285925D01*
X77752Y285844D01*
X77633Y285767D01*
X77511Y285693D01*
X77387Y285622D01*
X77262Y285555D01*
X77134Y285491D01*
X77005Y285431D01*
X76874Y285375D01*
X76742Y285322D01*
X76608Y285273D01*
X76473Y285228D01*
X76336Y285187D01*
X76199Y285149D01*
X76060Y285115D01*
X75921Y285086D01*
X75781Y285060D01*
X75640Y285038D01*
X75499Y285020D01*
X75357Y285006D01*
X75215Y284996D01*
X75072Y284990D01*
X74930Y284988D01*
X74788Y284990D01*
X74645Y284996D01*
X74503Y285006D01*
X74361Y285020D01*
X74220Y285038D01*
X74079Y285060D01*
X73939Y285086D01*
X73800Y285115D01*
X73661Y285149D01*
X73524Y285187D01*
X73387Y285228D01*
X73252Y285273D01*
X73118Y285322D01*
X72986Y285375D01*
X72855Y285431D01*
X72726Y285491D01*
X72598Y285555D01*
X72473Y285622D01*
X72349Y285693D01*
X72227Y285767D01*
X72108Y285844D01*
X71990Y285925D01*
X71875Y286009D01*
X71763Y286096D01*
X71653Y286187D01*
X71545Y286280D01*
X71440Y286377D01*
X71338Y286476D01*
X71239Y286578D01*
X71142Y286683D01*
X71049Y286791D01*
X70958Y286901D01*
X70871Y287013D01*
X70787Y287128D01*
X70706Y287246D01*
X70629Y287365D01*
X70555Y287487D01*
X70484Y287611D01*
X70417Y287736D01*
X70353Y287864D01*
X70293Y287993D01*
X70237Y288124D01*
X70184Y288256D01*
X70135Y288390D01*
X70090Y288525D01*
X70049Y288662D01*
X70011Y288799D01*
X69977Y288938D01*
X69948Y289077D01*
X69922Y289217D01*
X69900Y289358D01*
X69882Y289499D01*
X69868Y289641D01*
X69858Y289783D01*
X69852Y289926D01*
X69850Y290068D01*
M02*
