G04 EAGLE Gerber X2 export*
%TF.Part,Single*%
%TF.FileFunction,Legend,Top*%
%TF.FilePolarity,Positive*%
%TF.GenerationSoftware,Autodesk,EAGLE,9.6.2*%
%TF.CreationDate,2024-11-13T18:58:02Z*%
G75*
%MOMM*%
%FSLAX44Y44*%
%LPD*%
%INsilkscreen-top*%
%AMOC8*
5,1,8,0,0,1.08239X$1,22.5*%
G01*
%ADD10C,0.152400*%
%ADD11C,0.127000*%
%ADD12C,0.101600*%
%ADD13C,0.177800*%
%ADD14R,4.064000X2.032000*%
%ADD15R,0.254000X0.254000*%
%ADD16C,0.254000*%
%ADD17C,0.500000*%
%ADD18C,0.120000*%
%ADD19C,0.200000*%
%ADD20R,0.762000X0.457200*%
%ADD21R,0.457200X0.762000*%
%ADD22C,0.304800*%
%ADD23C,0.050000*%
%ADD24R,0.300000X0.300000*%
%ADD25C,0.076200*%
%ADD26C,0.020000*%
%ADD27R,0.800000X1.250000*%
%ADD28C,0.030000*%
%ADD29R,0.110000X0.240000*%
%ADD30C,0.060000*%
%ADD31C,0.500000*%
%ADD32C,0.150000*%
%ADD33C,0.300000*%

G36*
X279624Y197448D02*
X279624Y197448D01*
X279688Y197447D01*
X279763Y197468D01*
X279839Y197479D01*
X279898Y197505D01*
X279960Y197522D01*
X280026Y197563D01*
X280096Y197595D01*
X280145Y197637D01*
X280200Y197670D01*
X280252Y197728D01*
X280310Y197778D01*
X280346Y197832D01*
X280389Y197880D01*
X280422Y197949D01*
X280465Y198014D01*
X280484Y198076D01*
X280512Y198133D01*
X280523Y198203D01*
X280547Y198284D01*
X280548Y198369D01*
X280559Y198438D01*
X280559Y206438D01*
X280550Y206501D01*
X280551Y206560D01*
X280551Y206566D01*
X280530Y206641D01*
X280519Y206717D01*
X280493Y206776D01*
X280476Y206838D01*
X280435Y206904D01*
X280403Y206974D01*
X280361Y207023D01*
X280328Y207078D01*
X280270Y207130D01*
X280220Y207188D01*
X280166Y207224D01*
X280118Y207267D01*
X280049Y207300D01*
X279984Y207343D01*
X279922Y207362D01*
X279865Y207390D01*
X279795Y207401D01*
X279714Y207425D01*
X279629Y207426D01*
X279560Y207437D01*
X271560Y207437D01*
X271496Y207428D01*
X271432Y207429D01*
X271357Y207408D01*
X271281Y207397D01*
X271222Y207371D01*
X271160Y207354D01*
X271094Y207313D01*
X271024Y207281D01*
X270975Y207239D01*
X270920Y207206D01*
X270868Y207148D01*
X270810Y207098D01*
X270774Y207044D01*
X270731Y206996D01*
X270698Y206927D01*
X270655Y206862D01*
X270636Y206800D01*
X270608Y206743D01*
X270597Y206673D01*
X270573Y206592D01*
X270572Y206507D01*
X270561Y206438D01*
X270561Y198438D01*
X270570Y198374D01*
X270569Y198310D01*
X270590Y198235D01*
X270601Y198159D01*
X270627Y198100D01*
X270644Y198038D01*
X270685Y197972D01*
X270717Y197902D01*
X270759Y197853D01*
X270792Y197798D01*
X270850Y197746D01*
X270900Y197688D01*
X270954Y197652D01*
X271002Y197609D01*
X271071Y197576D01*
X271136Y197533D01*
X271198Y197514D01*
X271255Y197486D01*
X271325Y197475D01*
X271406Y197451D01*
X271491Y197450D01*
X271560Y197439D01*
X279560Y197439D01*
X279624Y197448D01*
G37*
D10*
X-290404Y282448D02*
X-290404Y293634D01*
X-294132Y293634D02*
X-286675Y293634D01*
X-280574Y282448D02*
X-276845Y282448D01*
X-274981Y284312D01*
X-274981Y288041D01*
X-276845Y289905D01*
X-280574Y289905D01*
X-282438Y288041D01*
X-282438Y284312D01*
X-280574Y282448D01*
X-268880Y284312D02*
X-268880Y291769D01*
X-268880Y284312D02*
X-267016Y282448D01*
X-267016Y289905D02*
X-270744Y289905D01*
X-259220Y293634D02*
X-259220Y282448D01*
X-262948Y293634D02*
X-255491Y293634D01*
X-249390Y289905D02*
X-245661Y289905D01*
X-243797Y288041D01*
X-243797Y282448D01*
X-249390Y282448D01*
X-251254Y284312D01*
X-249390Y286177D01*
X-243797Y286177D01*
X-235832Y278720D02*
X-233967Y278720D01*
X-232103Y280584D01*
X-232103Y289905D01*
X-237696Y289905D01*
X-239560Y288041D01*
X-239560Y284312D01*
X-237696Y282448D01*
X-232103Y282448D01*
D11*
X-298391Y298528D02*
X-309821Y298528D01*
X-298391Y298528D02*
X-298391Y279986D01*
X-309821Y279986D01*
X-309821Y298528D01*
X-307065Y292743D02*
X-307065Y283845D01*
X-301133Y283845D02*
X-307065Y292743D01*
X-301133Y292743D02*
X-301133Y283845D01*
D12*
X-291130Y278322D02*
X-291130Y272983D01*
X-291130Y278322D02*
X-288461Y278322D01*
X-287571Y277432D01*
X-287571Y275652D01*
X-288461Y274763D01*
X-291130Y274763D01*
X-284393Y276542D02*
X-282614Y276542D01*
X-281724Y275652D01*
X-281724Y272983D01*
X-284393Y272983D01*
X-285283Y273873D01*
X-284393Y274763D01*
X-281724Y274763D01*
X-278546Y273873D02*
X-278546Y277432D01*
X-278546Y273873D02*
X-277657Y272983D01*
X-277657Y276542D02*
X-279436Y276542D01*
X-269691Y278322D02*
X-269691Y272983D01*
X-269691Y278322D02*
X-267022Y278322D01*
X-266132Y277432D01*
X-266132Y275652D01*
X-267022Y274763D01*
X-269691Y274763D01*
X-262954Y276542D02*
X-261175Y276542D01*
X-260285Y275652D01*
X-260285Y272983D01*
X-262954Y272983D01*
X-263844Y273873D01*
X-262954Y274763D01*
X-260285Y274763D01*
X-257997Y272983D02*
X-257997Y276542D01*
X-255328Y276542D01*
X-254438Y275652D01*
X-254438Y272983D01*
X-252150Y272983D02*
X-252150Y276542D01*
X-249481Y276542D01*
X-248591Y275652D01*
X-248591Y272983D01*
X-246303Y273873D02*
X-246303Y276542D01*
X-246303Y273873D02*
X-245414Y272983D01*
X-242744Y272983D01*
X-242744Y276542D01*
X-239567Y277432D02*
X-239567Y273873D01*
X-238677Y272983D01*
X-238677Y276542D02*
X-240456Y276542D01*
X-235669Y272983D02*
X-233889Y272983D01*
X-232999Y273873D01*
X-232999Y275652D01*
X-233889Y276542D01*
X-235669Y276542D01*
X-236558Y275652D01*
X-236558Y273873D01*
X-235669Y272983D01*
X-288768Y264856D02*
X-291480Y264856D01*
X-288768Y267568D01*
X-288768Y268246D01*
X-289446Y268923D01*
X-290802Y268923D01*
X-291480Y268246D01*
X-286802Y268246D02*
X-286802Y265534D01*
X-286802Y268246D02*
X-286125Y268923D01*
X-284769Y268923D01*
X-284091Y268246D01*
X-284091Y265534D01*
X-284769Y264856D01*
X-286125Y264856D01*
X-286802Y265534D01*
X-284091Y268246D01*
X-282125Y264856D02*
X-279413Y264856D01*
X-282125Y264856D02*
X-279413Y267568D01*
X-279413Y268246D01*
X-280091Y268923D01*
X-281447Y268923D01*
X-282125Y268246D01*
X-275414Y268923D02*
X-275414Y264856D01*
X-277447Y266890D02*
X-275414Y268923D01*
X-274736Y266890D02*
X-277447Y266890D01*
X-272770Y266890D02*
X-270058Y266890D01*
X-268092Y265534D02*
X-268092Y268246D01*
X-267414Y268923D01*
X-266058Y268923D01*
X-265380Y268246D01*
X-265380Y265534D01*
X-266058Y264856D01*
X-267414Y264856D01*
X-268092Y265534D01*
X-265380Y268246D01*
X-263414Y265534D02*
X-262737Y264856D01*
X-261381Y264856D01*
X-260703Y265534D01*
X-260703Y268246D01*
X-261381Y268923D01*
X-262737Y268923D01*
X-263414Y268246D01*
X-263414Y267568D01*
X-262737Y266890D01*
X-260703Y266890D01*
X-281984Y73539D02*
X-280628Y71191D01*
X-278776Y70695D01*
X-278279Y72547D01*
X-279635Y74895D01*
X-277933Y75878D02*
X-275899Y72355D01*
X-277933Y75878D02*
X-276171Y76895D01*
X-275245Y76647D01*
X-274906Y76060D01*
X-275155Y75134D01*
X-274228Y74885D01*
X-273890Y74298D01*
X-274138Y73372D01*
X-275899Y72355D01*
X-276916Y74117D02*
X-275155Y75134D01*
X-273204Y77043D02*
X-271848Y74694D01*
X-273204Y77043D02*
X-272708Y78895D01*
X-270855Y78398D01*
X-269500Y76050D01*
X-270516Y77811D02*
X-272865Y76455D01*
X-268657Y81233D02*
X-266623Y77711D01*
X-267482Y81911D02*
X-269831Y80556D01*
X-234509Y51341D02*
X-233583Y51093D01*
X-234509Y51341D02*
X-235683Y50664D01*
X-235931Y49737D01*
X-234575Y47389D01*
X-233649Y47141D01*
X-232475Y47819D01*
X-232227Y48745D01*
X-232905Y49919D01*
X-234079Y49241D01*
X-232219Y52663D02*
X-230185Y49141D01*
X-227837Y50497D02*
X-232219Y52663D01*
X-229871Y54019D02*
X-227837Y50497D01*
X-226135Y51480D02*
X-228168Y55002D01*
X-226135Y51480D02*
X-224373Y52496D01*
X-224125Y53422D01*
X-225481Y55771D01*
X-226407Y56019D01*
X-228168Y55002D01*
X-338842Y187522D02*
X-338842Y189895D01*
X-338842Y187522D02*
X-337656Y186336D01*
X-332910Y186336D01*
X-331724Y187522D01*
X-331724Y189895D01*
X-332910Y191081D01*
X-337656Y191081D01*
X-338842Y189895D01*
X-338842Y193820D02*
X-331724Y193820D01*
X-338842Y193820D02*
X-338842Y198565D01*
X-335283Y196192D02*
X-335283Y193820D01*
X-331724Y201304D02*
X-338842Y201304D01*
X-338842Y206049D01*
X-335283Y203677D02*
X-335283Y201304D01*
X-338842Y248582D02*
X-338842Y250955D01*
X-338842Y248582D02*
X-337656Y247396D01*
X-332910Y247396D01*
X-331724Y248582D01*
X-331724Y250955D01*
X-332910Y252141D01*
X-337656Y252141D01*
X-338842Y250955D01*
X-338842Y254880D02*
X-331724Y254880D01*
X-331724Y259626D02*
X-338842Y254880D01*
X-338842Y259626D02*
X-331724Y259626D01*
X-152211Y90066D02*
X-152211Y89107D01*
X-152211Y90066D02*
X-153170Y91025D01*
X-154129Y91025D01*
X-154608Y90545D01*
X-154608Y89587D01*
X-153649Y88628D01*
X-153649Y87669D01*
X-154129Y87190D01*
X-155088Y87190D01*
X-156046Y88149D01*
X-156046Y89107D01*
X-150821Y87717D02*
X-150342Y88196D01*
X-150821Y87717D02*
X-150821Y85800D01*
X-148904Y85800D01*
X-148424Y86279D01*
X-150821Y85800D02*
X-152259Y84362D01*
X-149910Y82013D02*
X-147034Y84889D01*
X-147993Y80095D01*
X-145117Y82972D01*
X-142289Y80143D02*
X-142289Y79185D01*
X-142289Y80143D02*
X-143247Y81102D01*
X-144206Y81102D01*
X-146124Y79185D01*
X-146124Y78226D01*
X-145165Y77267D01*
X-144206Y77267D01*
X-152211Y100283D02*
X-152211Y101242D01*
X-153170Y102201D01*
X-154129Y102201D01*
X-156046Y100283D01*
X-156046Y99325D01*
X-155088Y98366D01*
X-154129Y98366D01*
X-153170Y99325D01*
X-154129Y100283D01*
X-153218Y96496D02*
X-150342Y99372D01*
X-148904Y97934D01*
X-148904Y96976D01*
X-149863Y96017D01*
X-150821Y96017D01*
X-152259Y97455D01*
X-148472Y91751D02*
X-145596Y94627D01*
X-148472Y94627D01*
X-146555Y92709D01*
X-155567Y110021D02*
X-152691Y112897D01*
X-153649Y113856D02*
X-151732Y111939D01*
X-150342Y110548D02*
X-151301Y105755D01*
X-153218Y107672D02*
X-148424Y108631D01*
X-156526Y121140D02*
X-153649Y124016D01*
X-152211Y122578D01*
X-152211Y121619D01*
X-153170Y120661D01*
X-154129Y120661D01*
X-155567Y122099D01*
X-154608Y121140D02*
X-154608Y119222D01*
X-150342Y120708D02*
X-151301Y115915D01*
X-153218Y117832D02*
X-148424Y118791D01*
X-151987Y136622D02*
X-152466Y137452D01*
X-153776Y137803D01*
X-154606Y137324D01*
X-155308Y134705D01*
X-154828Y133874D01*
X-153519Y133523D01*
X-152688Y134003D01*
X-152338Y135312D01*
X-153647Y135663D01*
X-150965Y132839D02*
X-149912Y136768D01*
X-147948Y136242D01*
X-147468Y135411D01*
X-147819Y134102D01*
X-148650Y133622D01*
X-150614Y134149D01*
X-145394Y135557D02*
X-142775Y134855D01*
X-145394Y135557D02*
X-145920Y133593D01*
X-144435Y133897D01*
X-143780Y133721D01*
X-143301Y132891D01*
X-143652Y131581D01*
X-144482Y131102D01*
X-145792Y131453D01*
X-146271Y132283D01*
X-151981Y145870D02*
X-152229Y146796D01*
X-153403Y147474D01*
X-154329Y147226D01*
X-154668Y146639D01*
X-154420Y145713D01*
X-153246Y145035D01*
X-152998Y144109D01*
X-153337Y143521D01*
X-154263Y143273D01*
X-155437Y143951D01*
X-155685Y144877D01*
X-151973Y141951D02*
X-149939Y145474D01*
X-147591Y144118D01*
X-149782Y143035D02*
X-150956Y143713D01*
X-145888Y143135D02*
X-147922Y139613D01*
X-146161Y138596D01*
X-145235Y138844D01*
X-143879Y141192D01*
X-144127Y142118D01*
X-145888Y143135D01*
X-156526Y156700D02*
X-153649Y159576D01*
X-152211Y158138D01*
X-152211Y157179D01*
X-153170Y156221D01*
X-154129Y156221D01*
X-155567Y157659D01*
X-154608Y156700D02*
X-154608Y154782D01*
X-150342Y156268D02*
X-151301Y151475D01*
X-153218Y153392D02*
X-148424Y154351D01*
X-146555Y152482D02*
X-145596Y151523D01*
X-146555Y152482D02*
X-147514Y152482D01*
X-149431Y150564D01*
X-149431Y149605D01*
X-148472Y148647D01*
X-147514Y148647D01*
X-145596Y150564D01*
X-145596Y151523D01*
X-143727Y149653D02*
X-146603Y146777D01*
X-145644Y147736D02*
X-141809Y147736D01*
X-144685Y147736D02*
X-144685Y144860D01*
X-152211Y167339D02*
X-152211Y168298D01*
X-153170Y169257D01*
X-154129Y169257D01*
X-156046Y167339D01*
X-156046Y166381D01*
X-155088Y165422D01*
X-154129Y165422D01*
X-153170Y166381D01*
X-154129Y167339D01*
X-153218Y163552D02*
X-150342Y166428D01*
X-148904Y164990D01*
X-148904Y164032D01*
X-149863Y163073D01*
X-150821Y163073D01*
X-152259Y164511D01*
X-146555Y161683D02*
X-145117Y161204D01*
X-146555Y161683D02*
X-148472Y161683D01*
X-149431Y160724D01*
X-149431Y159765D01*
X-148472Y158807D01*
X-147514Y158807D01*
X-147034Y159286D01*
X-147034Y160245D01*
X-148472Y161683D01*
X-254919Y88685D02*
X-255845Y88933D01*
X-257019Y88256D01*
X-257267Y87329D01*
X-255911Y84981D01*
X-254985Y84733D01*
X-253811Y85411D01*
X-253563Y86337D01*
X-254241Y87511D01*
X-255415Y86833D01*
X-253555Y90255D02*
X-251521Y86733D01*
X-249173Y88089D02*
X-253555Y90255D01*
X-251207Y91611D02*
X-249173Y88089D01*
X-247471Y89072D02*
X-249504Y92594D01*
X-247471Y89072D02*
X-245709Y90088D01*
X-245461Y91014D01*
X-246817Y93363D01*
X-247743Y93611D01*
X-249504Y92594D01*
D13*
X251741Y251338D02*
X255935Y251338D01*
X251741Y251338D02*
X250343Y249940D01*
X250343Y247143D01*
X251741Y245745D01*
X255935Y245745D01*
X259698Y247143D02*
X259698Y252736D01*
X261096Y254134D01*
X263892Y254134D01*
X265291Y252736D01*
X265291Y247143D01*
X263892Y245745D01*
X261096Y245745D01*
X259698Y247143D01*
X265291Y252736D01*
X269053Y251338D02*
X270451Y251338D01*
X270451Y249940D01*
X269053Y249940D01*
X269053Y251338D01*
X269053Y247143D02*
X270451Y247143D01*
X270451Y245745D01*
X269053Y245745D01*
X269053Y247143D01*
X273731Y247143D02*
X275129Y245745D01*
X277925Y245745D01*
X279323Y247143D01*
X279323Y252736D01*
X277925Y254134D01*
X275129Y254134D01*
X273731Y252736D01*
X273731Y251338D01*
X275129Y249940D01*
X279323Y249940D01*
X283086Y252736D02*
X284484Y254134D01*
X287280Y254134D01*
X288679Y252736D01*
X288679Y251338D01*
X287280Y249940D01*
X288679Y248541D01*
X288679Y247143D01*
X287280Y245745D01*
X284484Y245745D01*
X283086Y247143D01*
X283086Y248541D01*
X284484Y249940D01*
X283086Y251338D01*
X283086Y252736D01*
X284484Y249940D02*
X287280Y249940D01*
X292441Y251338D02*
X293839Y251338D01*
X293839Y249940D01*
X292441Y249940D01*
X292441Y251338D01*
X292441Y247143D02*
X293839Y247143D01*
X293839Y245745D01*
X292441Y245745D01*
X292441Y247143D01*
X298517Y245745D02*
X301313Y245745D01*
X298517Y245745D02*
X297119Y247143D01*
X297119Y249940D01*
X298517Y251338D01*
X301313Y251338D01*
X302711Y249940D01*
X302711Y248541D01*
X297119Y248541D01*
X306474Y254134D02*
X312067Y254134D01*
X306474Y254134D02*
X306474Y249940D01*
X309270Y251338D01*
X310668Y251338D01*
X312067Y249940D01*
X312067Y247143D01*
X310668Y245745D01*
X307872Y245745D01*
X306474Y247143D01*
X315829Y251338D02*
X317227Y251338D01*
X317227Y249940D01*
X315829Y249940D01*
X315829Y251338D01*
X315829Y247143D02*
X317227Y247143D01*
X317227Y245745D01*
X315829Y245745D01*
X315829Y247143D01*
X324701Y245745D02*
X324701Y254134D01*
X320507Y249940D01*
X326099Y249940D01*
X329862Y245745D02*
X335455Y245745D01*
X329862Y245745D02*
X335455Y251338D01*
X335455Y252736D01*
X334056Y254134D01*
X331260Y254134D01*
X329862Y252736D01*
X293799Y235056D02*
X292401Y235056D01*
X293799Y235056D02*
X293799Y233658D01*
X292401Y233658D01*
X292401Y235056D01*
X292401Y230862D02*
X293799Y230862D01*
X293799Y229464D01*
X292401Y229464D01*
X292401Y230862D01*
X248079Y235056D02*
X246681Y235056D01*
X248079Y235056D02*
X248079Y233658D01*
X246681Y233658D01*
X246681Y235056D01*
X246681Y230862D02*
X248079Y230862D01*
X248079Y229464D01*
X246681Y229464D01*
X246681Y230862D01*
D14*
X315976Y232664D03*
X270256Y232664D03*
D12*
X-258276Y34615D02*
X-259632Y36963D01*
X-258276Y34615D02*
X-256424Y34119D01*
X-255927Y35971D01*
X-257283Y38319D01*
X-255581Y39302D02*
X-253547Y35779D01*
X-255581Y39302D02*
X-253819Y40319D01*
X-252893Y40071D01*
X-252554Y39484D01*
X-252803Y38558D01*
X-251876Y38309D01*
X-251538Y37722D01*
X-251786Y36796D01*
X-253547Y35779D01*
X-254564Y37541D02*
X-252803Y38558D01*
X-250852Y40467D02*
X-249496Y38118D01*
X-250852Y40467D02*
X-250356Y42319D01*
X-248503Y41822D01*
X-247148Y39474D01*
X-248164Y41235D02*
X-250513Y39879D01*
X-246305Y44657D02*
X-244271Y41135D01*
X-245130Y45335D02*
X-247479Y43980D01*
X214880Y204634D02*
X219964Y204634D01*
X214880Y204634D02*
X214880Y207176D01*
X215727Y208023D01*
X217422Y208023D01*
X218269Y207176D01*
X218269Y204634D01*
X216574Y211094D02*
X216574Y212789D01*
X217422Y213636D01*
X219964Y213636D01*
X219964Y211094D01*
X219117Y210247D01*
X218269Y211094D01*
X218269Y213636D01*
X219117Y216707D02*
X215727Y216707D01*
X219117Y216707D02*
X219964Y217555D01*
X216574Y217555D02*
X216574Y215860D01*
X214880Y225215D02*
X219964Y225215D01*
X214880Y225215D02*
X214880Y227757D01*
X215727Y228605D01*
X217422Y228605D01*
X218269Y227757D01*
X218269Y225215D01*
X216574Y231676D02*
X216574Y233370D01*
X217422Y234218D01*
X219964Y234218D01*
X219964Y231676D01*
X219117Y230828D01*
X218269Y231676D01*
X218269Y234218D01*
X219964Y236441D02*
X216574Y236441D01*
X216574Y238984D01*
X217422Y239831D01*
X219964Y239831D01*
X219964Y242054D02*
X216574Y242054D01*
X216574Y244597D01*
X217422Y245444D01*
X219964Y245444D01*
X219117Y247668D02*
X216574Y247668D01*
X219117Y247668D02*
X219964Y248515D01*
X219964Y251057D01*
X216574Y251057D01*
X215727Y254128D02*
X219117Y254128D01*
X219964Y254975D01*
X216574Y254975D02*
X216574Y253281D01*
X219964Y257870D02*
X219964Y259565D01*
X219117Y260412D01*
X217422Y260412D01*
X216574Y259565D01*
X216574Y257870D01*
X217422Y257023D01*
X219117Y257023D01*
X219964Y257870D01*
X211836Y234570D02*
X208446Y234570D01*
X206752Y236265D01*
X208446Y237960D01*
X211836Y237960D01*
X209294Y237960D02*
X209294Y234570D01*
X211836Y240184D02*
X206752Y240184D01*
X206752Y242726D01*
X207599Y243573D01*
X209294Y243573D01*
X210141Y242726D01*
X210141Y240184D01*
X211836Y248339D02*
X206752Y248339D01*
X209294Y245797D01*
X209294Y249186D01*
X211836Y251410D02*
X206752Y251410D01*
X206752Y253952D01*
X207599Y254799D01*
X208446Y254799D01*
X209294Y253952D01*
X210141Y254799D01*
X210989Y254799D01*
X211836Y253952D01*
X211836Y251410D01*
X209294Y251410D02*
X209294Y253952D01*
X211836Y257023D02*
X206752Y257023D01*
X206752Y259565D01*
X207599Y260412D01*
X209294Y260412D01*
X210141Y259565D01*
X210141Y257023D01*
X203708Y226734D02*
X203708Y223344D01*
X200318Y226734D01*
X199471Y226734D01*
X198624Y225886D01*
X198624Y224192D01*
X199471Y223344D01*
X199471Y228957D02*
X202861Y228957D01*
X199471Y228957D02*
X198624Y229805D01*
X198624Y231499D01*
X199471Y232347D01*
X202861Y232347D01*
X203708Y231499D01*
X203708Y229805D01*
X202861Y228957D01*
X199471Y232347D01*
X203708Y234570D02*
X203708Y237960D01*
X203708Y234570D02*
X200318Y237960D01*
X199471Y237960D01*
X198624Y237113D01*
X198624Y235418D01*
X199471Y234570D01*
X199471Y240183D02*
X198624Y241031D01*
X198624Y242726D01*
X199471Y243573D01*
X200318Y243573D01*
X201166Y242726D01*
X201166Y241878D01*
X201166Y242726D02*
X202013Y243573D01*
X202861Y243573D01*
X203708Y242726D01*
X203708Y241031D01*
X202861Y240183D01*
X201166Y245797D02*
X201166Y249186D01*
X202861Y251410D02*
X199471Y251410D01*
X198624Y252257D01*
X198624Y253952D01*
X199471Y254799D01*
X202861Y254799D01*
X203708Y253952D01*
X203708Y252257D01*
X202861Y251410D01*
X199471Y254799D01*
X202861Y257023D02*
X203708Y257870D01*
X203708Y259565D01*
X202861Y260412D01*
X199471Y260412D01*
X198624Y259565D01*
X198624Y257870D01*
X199471Y257023D01*
X200318Y257023D01*
X201166Y257870D01*
X201166Y260412D01*
D13*
X203320Y266362D02*
X211709Y266362D01*
X203320Y266362D02*
X203320Y270556D01*
X204718Y271955D01*
X206116Y271955D01*
X207514Y270556D01*
X208913Y271955D01*
X210311Y271955D01*
X211709Y270556D01*
X211709Y266362D01*
X207514Y266362D02*
X207514Y270556D01*
D11*
X214376Y274320D02*
X214376Y264160D01*
X200152Y264160D01*
X200152Y274320D01*
X214376Y274320D01*
D12*
X92371Y238845D02*
X88981Y238845D01*
X92371Y238845D02*
X93218Y239693D01*
X89828Y239693D02*
X89828Y237998D01*
X89828Y241740D02*
X93218Y241740D01*
X91523Y241740D02*
X89828Y243435D01*
X89828Y244282D01*
X89828Y247265D02*
X89828Y248960D01*
X90676Y249807D01*
X93218Y249807D01*
X93218Y247265D01*
X92371Y246418D01*
X91523Y247265D01*
X91523Y249807D01*
X89828Y252878D02*
X89828Y255420D01*
X89828Y252878D02*
X90676Y252031D01*
X92371Y252031D01*
X93218Y252878D01*
X93218Y255420D01*
X93218Y258491D02*
X93218Y260186D01*
X93218Y258491D02*
X92371Y257644D01*
X90676Y257644D01*
X89828Y258491D01*
X89828Y260186D01*
X90676Y261033D01*
X91523Y261033D01*
X91523Y257644D01*
X139781Y85610D02*
X138934Y84763D01*
X138934Y83068D01*
X139781Y82221D01*
X140628Y82221D01*
X141476Y83068D01*
X141476Y84763D01*
X142323Y85610D01*
X143171Y85610D01*
X144018Y84763D01*
X144018Y83068D01*
X143171Y82221D01*
X144018Y87834D02*
X138934Y87834D01*
X142323Y89529D02*
X144018Y87834D01*
X142323Y89529D02*
X144018Y91223D01*
X138934Y91223D01*
X138934Y93447D02*
X144018Y93447D01*
X144018Y95989D01*
X143171Y96836D01*
X139781Y96836D01*
X138934Y95989D01*
X138934Y93447D01*
D15*
X15240Y167640D03*
D12*
X19652Y161109D02*
X23719Y161109D01*
X19652Y161109D02*
X19652Y163143D01*
X20330Y163821D01*
X21686Y163821D01*
X22363Y163143D01*
X22363Y161109D01*
X22363Y162465D02*
X23719Y163821D01*
X20330Y165787D02*
X19652Y166465D01*
X19652Y167820D01*
X20330Y168498D01*
X21008Y168498D01*
X21686Y167820D01*
X21686Y167142D01*
X21686Y167820D02*
X22363Y168498D01*
X23041Y168498D01*
X23719Y167820D01*
X23719Y166465D01*
X23041Y165787D01*
X21008Y170464D02*
X19652Y171820D01*
X23719Y171820D01*
X23719Y170464D02*
X23719Y173176D01*
D15*
X15240Y147320D03*
D12*
X19647Y141046D02*
X23715Y141046D01*
X19647Y141046D02*
X19647Y143079D01*
X20325Y143757D01*
X21681Y143757D01*
X22359Y143079D01*
X22359Y141046D01*
X22359Y142401D02*
X23715Y143757D01*
X20325Y145723D02*
X19647Y146401D01*
X19647Y147757D01*
X20325Y148435D01*
X21003Y148435D01*
X21681Y147757D01*
X21681Y147079D01*
X21681Y147757D02*
X22359Y148435D01*
X23037Y148435D01*
X23715Y147757D01*
X23715Y146401D01*
X23037Y145723D01*
X23037Y150401D02*
X20325Y150401D01*
X19647Y151079D01*
X19647Y152435D01*
X20325Y153112D01*
X23037Y153112D01*
X23715Y152435D01*
X23715Y151079D01*
X23037Y150401D01*
X20325Y153112D01*
D15*
X-157480Y182880D03*
D12*
X-161036Y176372D02*
X-165103Y176372D01*
X-165103Y178405D01*
X-164426Y179083D01*
X-163070Y179083D01*
X-162392Y178405D01*
X-162392Y176372D01*
X-162392Y177727D02*
X-161036Y179083D01*
X-161036Y181049D02*
X-161036Y183761D01*
X-161036Y181049D02*
X-163748Y183761D01*
X-164426Y183761D01*
X-165103Y183083D01*
X-165103Y181727D01*
X-164426Y181049D01*
X-165103Y187761D02*
X-161036Y187761D01*
X-163070Y185727D02*
X-165103Y187761D01*
X-163070Y188438D02*
X-163070Y185727D01*
D16*
X127000Y-17272D03*
D12*
X123203Y-9564D02*
X122525Y-8887D01*
X121170Y-8887D01*
X120492Y-9564D01*
X120492Y-12276D01*
X121170Y-12954D01*
X122525Y-12954D01*
X123203Y-12276D01*
X125169Y-10242D02*
X126525Y-8887D01*
X126525Y-12954D01*
X125169Y-12954D02*
X127881Y-12954D01*
X129847Y-8887D02*
X132558Y-8887D01*
X132558Y-9564D01*
X129847Y-12276D01*
X129847Y-12954D01*
D16*
X127000Y-5080D03*
D12*
X123203Y2628D02*
X122525Y3305D01*
X121170Y3305D01*
X120492Y2628D01*
X120492Y-84D01*
X121170Y-762D01*
X122525Y-762D01*
X123203Y-84D01*
X125169Y1950D02*
X126525Y3305D01*
X126525Y-762D01*
X125169Y-762D02*
X127881Y-762D01*
X129847Y2628D02*
X130525Y3305D01*
X131881Y3305D01*
X132558Y2628D01*
X132558Y1950D01*
X131881Y1272D01*
X132558Y594D01*
X132558Y-84D01*
X131881Y-762D01*
X130525Y-762D01*
X129847Y-84D01*
X129847Y594D01*
X130525Y1272D01*
X129847Y1950D01*
X129847Y2628D01*
X130525Y1272D02*
X131881Y1272D01*
D16*
X127000Y7112D03*
D12*
X123203Y14820D02*
X122525Y15497D01*
X121170Y15497D01*
X120492Y14820D01*
X120492Y12108D01*
X121170Y11430D01*
X122525Y11430D01*
X123203Y12108D01*
X125169Y14142D02*
X126525Y15497D01*
X126525Y11430D01*
X125169Y11430D02*
X127881Y11430D01*
X129847Y12108D02*
X130525Y11430D01*
X131881Y11430D01*
X132558Y12108D01*
X132558Y14820D01*
X131881Y15497D01*
X130525Y15497D01*
X129847Y14820D01*
X129847Y14142D01*
X130525Y13464D01*
X132558Y13464D01*
D16*
X88138Y-13208D03*
D12*
X92453Y-15344D02*
X93130Y-14666D01*
X92453Y-15344D02*
X92453Y-16700D01*
X93130Y-17378D01*
X95842Y-17378D01*
X96520Y-16700D01*
X96520Y-15344D01*
X95842Y-14666D01*
X95842Y-12700D02*
X96520Y-12022D01*
X96520Y-10666D01*
X95842Y-9988D01*
X93130Y-9988D01*
X92453Y-10666D01*
X92453Y-12022D01*
X93130Y-12700D01*
X93808Y-12700D01*
X94486Y-12022D01*
X94486Y-9988D01*
D16*
X100330Y-13208D03*
D12*
X104645Y-17683D02*
X105322Y-17005D01*
X104645Y-17683D02*
X104645Y-19039D01*
X105322Y-19716D01*
X108034Y-19716D01*
X108712Y-19039D01*
X108712Y-17683D01*
X108034Y-17005D01*
X106000Y-15039D02*
X104645Y-13683D01*
X108712Y-13683D01*
X108712Y-15039D02*
X108712Y-12327D01*
X108034Y-10361D02*
X105322Y-10361D01*
X104645Y-9683D01*
X104645Y-8328D01*
X105322Y-7650D01*
X108034Y-7650D01*
X108712Y-8328D01*
X108712Y-9683D01*
X108034Y-10361D01*
X105322Y-7650D01*
D11*
X144018Y-20828D02*
X144325Y-20832D01*
X144632Y-20843D01*
X144938Y-20861D01*
X145244Y-20887D01*
X145549Y-20921D01*
X145853Y-20961D01*
X146156Y-21009D01*
X146458Y-21065D01*
X146758Y-21127D01*
X147057Y-21197D01*
X147354Y-21274D01*
X147650Y-21358D01*
X147943Y-21450D01*
X148233Y-21548D01*
X148521Y-21653D01*
X148807Y-21766D01*
X149090Y-21885D01*
X149370Y-22011D01*
X149647Y-22143D01*
X149920Y-22283D01*
X150190Y-22429D01*
X150456Y-22581D01*
X150719Y-22740D01*
X150978Y-22905D01*
X151232Y-23076D01*
X151483Y-23253D01*
X151729Y-23437D01*
X151971Y-23626D01*
X152207Y-23821D01*
X152440Y-24022D01*
X152667Y-24228D01*
X152889Y-24440D01*
X153106Y-24657D01*
X153318Y-24879D01*
X153524Y-25106D01*
X153725Y-25339D01*
X153920Y-25575D01*
X154109Y-25817D01*
X154293Y-26063D01*
X154470Y-26314D01*
X154641Y-26568D01*
X154806Y-26827D01*
X154965Y-27090D01*
X155117Y-27356D01*
X155263Y-27626D01*
X155403Y-27899D01*
X155535Y-28176D01*
X155661Y-28456D01*
X155780Y-28739D01*
X155893Y-29025D01*
X155998Y-29313D01*
X156096Y-29603D01*
X156188Y-29896D01*
X156272Y-30192D01*
X156349Y-30489D01*
X156419Y-30788D01*
X156481Y-31088D01*
X156537Y-31390D01*
X156585Y-31693D01*
X156625Y-31997D01*
X156659Y-32302D01*
X156685Y-32608D01*
X156703Y-32914D01*
X156714Y-33221D01*
X156718Y-33528D01*
X156714Y-33835D01*
X156703Y-34142D01*
X156685Y-34448D01*
X156659Y-34754D01*
X156625Y-35059D01*
X156585Y-35363D01*
X156537Y-35666D01*
X156481Y-35968D01*
X156419Y-36268D01*
X156349Y-36567D01*
X156272Y-36864D01*
X156188Y-37160D01*
X156096Y-37453D01*
X155998Y-37743D01*
X155893Y-38031D01*
X155780Y-38317D01*
X155661Y-38600D01*
X155535Y-38880D01*
X155403Y-39157D01*
X155263Y-39430D01*
X155117Y-39700D01*
X154965Y-39966D01*
X154806Y-40229D01*
X154641Y-40488D01*
X154470Y-40742D01*
X154293Y-40993D01*
X154109Y-41239D01*
X153920Y-41481D01*
X153725Y-41717D01*
X153524Y-41950D01*
X153318Y-42177D01*
X153106Y-42399D01*
X152889Y-42616D01*
X152667Y-42828D01*
X152440Y-43034D01*
X152207Y-43235D01*
X151971Y-43430D01*
X151729Y-43619D01*
X151483Y-43803D01*
X151232Y-43980D01*
X150978Y-44151D01*
X150719Y-44316D01*
X150456Y-44475D01*
X150190Y-44627D01*
X149920Y-44773D01*
X149647Y-44913D01*
X149370Y-45045D01*
X149090Y-45171D01*
X148807Y-45290D01*
X148521Y-45403D01*
X148233Y-45508D01*
X147943Y-45606D01*
X147650Y-45698D01*
X147354Y-45782D01*
X147057Y-45859D01*
X146758Y-45929D01*
X146458Y-45991D01*
X146156Y-46047D01*
X145853Y-46095D01*
X145549Y-46135D01*
X145244Y-46169D01*
X144938Y-46195D01*
X144632Y-46213D01*
X144325Y-46224D01*
X144018Y-46228D01*
X126238Y-46228D01*
X125931Y-46224D01*
X125624Y-46213D01*
X125318Y-46195D01*
X125012Y-46169D01*
X124707Y-46135D01*
X124403Y-46095D01*
X124100Y-46047D01*
X123798Y-45991D01*
X123498Y-45929D01*
X123199Y-45859D01*
X122902Y-45782D01*
X122606Y-45698D01*
X122313Y-45606D01*
X122023Y-45508D01*
X121735Y-45403D01*
X121449Y-45290D01*
X121166Y-45171D01*
X120886Y-45045D01*
X120609Y-44913D01*
X120336Y-44773D01*
X120066Y-44627D01*
X119800Y-44475D01*
X119537Y-44316D01*
X119278Y-44151D01*
X119024Y-43980D01*
X118773Y-43803D01*
X118527Y-43619D01*
X118285Y-43430D01*
X118049Y-43235D01*
X117816Y-43034D01*
X117589Y-42828D01*
X117367Y-42616D01*
X117150Y-42399D01*
X116938Y-42177D01*
X116732Y-41950D01*
X116531Y-41717D01*
X116336Y-41481D01*
X116147Y-41239D01*
X115963Y-40993D01*
X115786Y-40742D01*
X115615Y-40488D01*
X115450Y-40229D01*
X115291Y-39966D01*
X115139Y-39700D01*
X114993Y-39430D01*
X114853Y-39157D01*
X114721Y-38880D01*
X114595Y-38600D01*
X114476Y-38317D01*
X114363Y-38031D01*
X114258Y-37743D01*
X114160Y-37453D01*
X114068Y-37160D01*
X113984Y-36864D01*
X113907Y-36567D01*
X113837Y-36268D01*
X113775Y-35968D01*
X113719Y-35666D01*
X113671Y-35363D01*
X113631Y-35059D01*
X113597Y-34754D01*
X113571Y-34448D01*
X113553Y-34142D01*
X113542Y-33835D01*
X113538Y-33528D01*
X113542Y-33221D01*
X113553Y-32914D01*
X113571Y-32608D01*
X113597Y-32302D01*
X113631Y-31997D01*
X113671Y-31693D01*
X113719Y-31390D01*
X113775Y-31088D01*
X113837Y-30788D01*
X113907Y-30489D01*
X113984Y-30192D01*
X114068Y-29896D01*
X114160Y-29603D01*
X114258Y-29313D01*
X114363Y-29025D01*
X114476Y-28739D01*
X114595Y-28456D01*
X114721Y-28176D01*
X114853Y-27899D01*
X114993Y-27626D01*
X115139Y-27356D01*
X115291Y-27090D01*
X115450Y-26827D01*
X115615Y-26568D01*
X115786Y-26314D01*
X115963Y-26063D01*
X116147Y-25817D01*
X116336Y-25575D01*
X116531Y-25339D01*
X116732Y-25106D01*
X116938Y-24879D01*
X117150Y-24657D01*
X117367Y-24440D01*
X117589Y-24228D01*
X117816Y-24022D01*
X118049Y-23821D01*
X118285Y-23626D01*
X118527Y-23437D01*
X118773Y-23253D01*
X119024Y-23076D01*
X119278Y-22905D01*
X119537Y-22740D01*
X119800Y-22581D01*
X120066Y-22429D01*
X120336Y-22283D01*
X120609Y-22143D01*
X120886Y-22011D01*
X121166Y-21885D01*
X121449Y-21766D01*
X121735Y-21653D01*
X122023Y-21548D01*
X122313Y-21450D01*
X122606Y-21358D01*
X122902Y-21274D01*
X123199Y-21197D01*
X123498Y-21127D01*
X123798Y-21065D01*
X124100Y-21009D01*
X124403Y-20961D01*
X124707Y-20921D01*
X125012Y-20887D01*
X125318Y-20861D01*
X125624Y-20843D01*
X125931Y-20832D01*
X126238Y-20828D01*
X144018Y-20828D01*
D12*
X136280Y-18542D02*
X136280Y-11424D01*
X136280Y-18542D02*
X141025Y-18542D01*
X147323Y-18542D02*
X147323Y-11424D01*
X143764Y-14983D01*
X148509Y-14983D01*
D15*
X-146304Y-9144D03*
D12*
X-141989Y-17991D02*
X-137922Y-15280D01*
X-137922Y-17991D02*
X-141989Y-15280D01*
X-141989Y-13314D02*
X-137922Y-13314D01*
X-141989Y-13314D02*
X-141989Y-11280D01*
X-141312Y-10602D01*
X-139956Y-10602D01*
X-139278Y-11280D01*
X-139278Y-13314D01*
X-139278Y-11958D02*
X-137922Y-10602D01*
X-140634Y-8636D02*
X-141989Y-7280D01*
X-137922Y-7280D01*
X-137922Y-8636D02*
X-137922Y-5924D01*
X-141312Y-2603D02*
X-141989Y-1247D01*
X-141312Y-2603D02*
X-139956Y-3958D01*
X-138600Y-3958D01*
X-137922Y-3281D01*
X-137922Y-1925D01*
X-138600Y-1247D01*
X-139278Y-1247D01*
X-139956Y-1925D01*
X-139956Y-3958D01*
D15*
X-146304Y-29464D03*
D12*
X-141989Y-38311D02*
X-137922Y-35600D01*
X-137922Y-38311D02*
X-141989Y-35600D01*
X-141989Y-33634D02*
X-137922Y-33634D01*
X-141989Y-33634D02*
X-141989Y-31600D01*
X-141312Y-30922D01*
X-139956Y-30922D01*
X-139278Y-31600D01*
X-139278Y-33634D01*
X-139278Y-32278D02*
X-137922Y-30922D01*
X-140634Y-28956D02*
X-141989Y-27600D01*
X-137922Y-27600D01*
X-137922Y-28956D02*
X-137922Y-26244D01*
X-141989Y-24278D02*
X-141989Y-21567D01*
X-141312Y-21567D01*
X-138600Y-24278D01*
X-137922Y-24278D01*
D17*
X-189692Y91016D03*
D18*
X-194732Y92916D02*
X-215732Y92916D01*
X-215732Y117396D02*
X-194732Y117396D01*
D12*
X-216514Y90805D02*
X-216514Y87416D01*
X-215836Y86738D01*
X-214480Y86738D01*
X-213802Y87416D01*
X-213802Y90805D01*
X-211836Y90128D02*
X-211158Y90805D01*
X-209802Y90805D01*
X-209124Y90128D01*
X-209124Y89450D01*
X-209802Y88772D01*
X-210480Y88772D01*
X-209802Y88772D02*
X-209124Y88094D01*
X-209124Y87416D01*
X-209802Y86738D01*
X-211158Y86738D01*
X-211836Y87416D01*
D15*
X-182880Y78232D03*
D12*
X-189388Y74679D02*
X-189388Y70612D01*
X-189388Y74679D02*
X-187355Y74679D01*
X-186677Y74002D01*
X-186677Y72646D01*
X-187355Y71968D01*
X-189388Y71968D01*
X-188033Y71968D02*
X-186677Y70612D01*
X-184711Y73324D02*
X-183355Y74679D01*
X-183355Y70612D01*
X-184711Y70612D02*
X-181999Y70612D01*
X-180033Y74679D02*
X-177322Y74679D01*
X-180033Y74679D02*
X-180033Y72646D01*
X-178677Y73324D01*
X-178000Y73324D01*
X-177322Y72646D01*
X-177322Y71290D01*
X-178000Y70612D01*
X-179355Y70612D01*
X-180033Y71290D01*
D15*
X-227584Y115316D03*
D12*
X-231140Y109180D02*
X-235207Y106469D01*
X-235207Y109180D02*
X-231140Y106469D01*
X-231140Y111146D02*
X-235207Y111146D01*
X-235207Y113180D01*
X-234530Y113858D01*
X-233174Y113858D01*
X-232496Y113180D01*
X-232496Y111146D01*
X-232496Y112502D02*
X-231140Y113858D01*
X-233852Y115824D02*
X-235207Y117180D01*
X-231140Y117180D01*
X-231140Y115824D02*
X-231140Y118536D01*
X-231818Y120502D02*
X-231140Y121180D01*
X-231140Y122535D01*
X-231818Y123213D01*
X-234530Y123213D01*
X-235207Y122535D01*
X-235207Y121180D01*
X-234530Y120502D01*
X-233852Y120502D01*
X-233174Y121180D01*
X-233174Y123213D01*
D15*
X-181864Y136144D03*
D12*
X-178311Y129636D02*
X-174244Y129636D01*
X-178311Y129636D02*
X-178311Y131669D01*
X-177634Y132347D01*
X-176278Y132347D01*
X-175600Y131669D01*
X-175600Y129636D01*
X-175600Y130991D02*
X-174244Y132347D01*
X-178311Y134313D02*
X-174244Y137025D01*
X-174244Y134313D02*
X-178311Y137025D01*
X-178311Y138991D02*
X-178311Y141702D01*
X-177634Y141702D01*
X-174922Y138991D01*
X-174244Y138991D01*
D19*
X-106676Y-34692D02*
X-106676Y-49592D01*
X-17276Y-49592D01*
X-17276Y-34692D01*
X-106676Y-7492D02*
X-106676Y4608D01*
X-17276Y4608D02*
X-17276Y-7492D01*
D12*
X-65773Y39116D02*
X-68484Y43183D01*
X-65773Y43183D02*
X-68484Y39116D01*
X-63807Y39794D02*
X-63129Y39116D01*
X-62451Y39116D01*
X-61773Y39794D01*
X-61773Y43183D01*
X-62451Y43183D02*
X-61095Y43183D01*
X-59129Y41828D02*
X-57773Y43183D01*
X-57773Y39116D01*
X-56418Y39116D02*
X-59129Y39116D01*
D11*
X74316Y5308D02*
X74316Y-29692D01*
X29316Y-29692D01*
X29316Y5308D01*
X74316Y5308D01*
X75420Y9398D02*
X75422Y9482D01*
X75428Y9566D01*
X75438Y9650D01*
X75451Y9733D01*
X75469Y9815D01*
X75491Y9897D01*
X75516Y9977D01*
X75545Y10056D01*
X75578Y10134D01*
X75614Y10210D01*
X75654Y10284D01*
X75697Y10356D01*
X75743Y10426D01*
X75793Y10494D01*
X75846Y10560D01*
X75902Y10623D01*
X75961Y10683D01*
X76023Y10740D01*
X76087Y10795D01*
X76154Y10846D01*
X76223Y10894D01*
X76294Y10939D01*
X76367Y10981D01*
X76442Y11019D01*
X76519Y11053D01*
X76597Y11084D01*
X76677Y11111D01*
X76758Y11135D01*
X76840Y11154D01*
X76923Y11170D01*
X77006Y11182D01*
X77090Y11190D01*
X77174Y11194D01*
X77258Y11194D01*
X77342Y11190D01*
X77426Y11182D01*
X77509Y11170D01*
X77592Y11154D01*
X77674Y11135D01*
X77755Y11111D01*
X77835Y11084D01*
X77913Y11053D01*
X77990Y11019D01*
X78065Y10981D01*
X78138Y10939D01*
X78209Y10894D01*
X78278Y10846D01*
X78345Y10795D01*
X78409Y10740D01*
X78471Y10683D01*
X78530Y10623D01*
X78586Y10560D01*
X78639Y10494D01*
X78689Y10426D01*
X78735Y10356D01*
X78778Y10284D01*
X78818Y10210D01*
X78854Y10134D01*
X78887Y10056D01*
X78916Y9977D01*
X78941Y9897D01*
X78963Y9815D01*
X78981Y9733D01*
X78994Y9650D01*
X79004Y9566D01*
X79010Y9482D01*
X79012Y9398D01*
X79010Y9314D01*
X79004Y9230D01*
X78994Y9146D01*
X78981Y9063D01*
X78963Y8981D01*
X78941Y8899D01*
X78916Y8819D01*
X78887Y8740D01*
X78854Y8662D01*
X78818Y8586D01*
X78778Y8512D01*
X78735Y8440D01*
X78689Y8370D01*
X78639Y8302D01*
X78586Y8236D01*
X78530Y8173D01*
X78471Y8113D01*
X78409Y8056D01*
X78345Y8001D01*
X78278Y7950D01*
X78209Y7902D01*
X78138Y7857D01*
X78065Y7815D01*
X77990Y7777D01*
X77913Y7743D01*
X77835Y7712D01*
X77755Y7685D01*
X77674Y7661D01*
X77592Y7642D01*
X77509Y7626D01*
X77426Y7614D01*
X77342Y7606D01*
X77258Y7602D01*
X77174Y7602D01*
X77090Y7606D01*
X77006Y7614D01*
X76923Y7626D01*
X76840Y7642D01*
X76758Y7661D01*
X76677Y7685D01*
X76597Y7712D01*
X76519Y7743D01*
X76442Y7777D01*
X76367Y7815D01*
X76294Y7857D01*
X76223Y7902D01*
X76154Y7950D01*
X76087Y8001D01*
X76023Y8056D01*
X75961Y8113D01*
X75902Y8173D01*
X75846Y8236D01*
X75793Y8302D01*
X75743Y8370D01*
X75697Y8440D01*
X75654Y8512D01*
X75614Y8586D01*
X75578Y8662D01*
X75545Y8740D01*
X75516Y8819D01*
X75491Y8899D01*
X75469Y8981D01*
X75451Y9063D01*
X75438Y9146D01*
X75428Y9230D01*
X75422Y9314D01*
X75420Y9398D01*
D12*
X78991Y-16362D02*
X82380Y-16362D01*
X83058Y-15684D01*
X83058Y-14328D01*
X82380Y-13650D01*
X78991Y-13650D01*
X78991Y-9650D02*
X83058Y-9650D01*
X81024Y-11684D02*
X78991Y-9650D01*
X81024Y-8972D02*
X81024Y-11684D01*
D16*
X37846Y19050D03*
D12*
X30138Y15253D02*
X29461Y14575D01*
X29461Y13220D01*
X30138Y12542D01*
X32850Y12542D01*
X33528Y13220D01*
X33528Y14575D01*
X32850Y15253D01*
X33528Y19253D02*
X29461Y19253D01*
X31494Y17219D01*
X31494Y19931D01*
X32850Y21897D02*
X30138Y21897D01*
X29461Y22575D01*
X29461Y23931D01*
X30138Y24608D01*
X32850Y24608D01*
X33528Y23931D01*
X33528Y22575D01*
X32850Y21897D01*
X30138Y24608D01*
D16*
X86106Y6096D03*
D12*
X90167Y1621D02*
X90844Y2299D01*
X90167Y1621D02*
X90167Y266D01*
X90844Y-412D01*
X93556Y-412D01*
X94234Y266D01*
X94234Y1621D01*
X93556Y2299D01*
X91522Y4265D02*
X90167Y5621D01*
X94234Y5621D01*
X94234Y4265D02*
X94234Y6977D01*
X90167Y8943D02*
X90167Y11654D01*
X90167Y8943D02*
X92200Y8943D01*
X91522Y10299D01*
X91522Y10977D01*
X92200Y11654D01*
X93556Y11654D01*
X94234Y10977D01*
X94234Y9621D01*
X93556Y8943D01*
D16*
X85344Y-31496D03*
D12*
X77636Y-35293D02*
X76959Y-35971D01*
X76959Y-37326D01*
X77636Y-38004D01*
X80348Y-38004D01*
X81026Y-37326D01*
X81026Y-35971D01*
X80348Y-35293D01*
X78314Y-33327D02*
X76959Y-31971D01*
X81026Y-31971D01*
X81026Y-33327D02*
X81026Y-30615D01*
X77636Y-27293D02*
X76959Y-25938D01*
X77636Y-27293D02*
X78992Y-28649D01*
X80348Y-28649D01*
X81026Y-27971D01*
X81026Y-26615D01*
X80348Y-25938D01*
X79670Y-25938D01*
X78992Y-26615D01*
X78992Y-28649D01*
X19184Y10280D02*
X19184Y25280D01*
X19184Y10280D02*
X4184Y10280D01*
X4184Y25280D01*
X19184Y25280D01*
X19578Y26690D02*
X19580Y26753D01*
X19586Y26816D01*
X19596Y26879D01*
X19609Y26940D01*
X19627Y27001D01*
X19648Y27060D01*
X19673Y27119D01*
X19701Y27175D01*
X19733Y27230D01*
X19768Y27282D01*
X19807Y27332D01*
X19848Y27380D01*
X19893Y27425D01*
X19940Y27467D01*
X19989Y27506D01*
X20041Y27542D01*
X20095Y27575D01*
X20151Y27604D01*
X20209Y27630D01*
X20268Y27652D01*
X20328Y27671D01*
X20390Y27685D01*
X20452Y27696D01*
X20515Y27703D01*
X20578Y27706D01*
X20641Y27705D01*
X20704Y27700D01*
X20767Y27691D01*
X20829Y27678D01*
X20890Y27662D01*
X20950Y27642D01*
X21008Y27618D01*
X21065Y27590D01*
X21120Y27559D01*
X21173Y27525D01*
X21224Y27487D01*
X21272Y27446D01*
X21318Y27403D01*
X21361Y27356D01*
X21401Y27307D01*
X21438Y27256D01*
X21471Y27203D01*
X21501Y27147D01*
X21528Y27090D01*
X21551Y27031D01*
X21570Y26971D01*
X21586Y26909D01*
X21598Y26847D01*
X21606Y26785D01*
X21610Y26722D01*
X21610Y26658D01*
X21606Y26595D01*
X21598Y26533D01*
X21586Y26471D01*
X21570Y26409D01*
X21551Y26349D01*
X21528Y26290D01*
X21501Y26233D01*
X21471Y26177D01*
X21438Y26124D01*
X21401Y26073D01*
X21361Y26024D01*
X21318Y25977D01*
X21272Y25934D01*
X21224Y25893D01*
X21173Y25855D01*
X21120Y25821D01*
X21065Y25790D01*
X21008Y25762D01*
X20950Y25738D01*
X20890Y25718D01*
X20829Y25702D01*
X20767Y25689D01*
X20704Y25680D01*
X20641Y25675D01*
X20578Y25674D01*
X20515Y25677D01*
X20452Y25684D01*
X20390Y25695D01*
X20328Y25709D01*
X20268Y25728D01*
X20209Y25750D01*
X20151Y25776D01*
X20095Y25805D01*
X20041Y25838D01*
X19989Y25874D01*
X19940Y25913D01*
X19893Y25955D01*
X19848Y26000D01*
X19807Y26048D01*
X19768Y26098D01*
X19733Y26150D01*
X19701Y26205D01*
X19673Y26261D01*
X19648Y26320D01*
X19627Y26379D01*
X19609Y26440D01*
X19596Y26501D01*
X19586Y26564D01*
X19580Y26627D01*
X19578Y26690D01*
X7514Y28618D02*
X7514Y31330D01*
X8192Y32007D01*
X9548Y32007D01*
X10226Y31330D01*
X10226Y28618D01*
X9548Y27940D01*
X8192Y27940D01*
X7514Y28618D01*
X8870Y29296D02*
X10226Y27940D01*
X12192Y30652D02*
X13548Y32007D01*
X13548Y27940D01*
X12192Y27940D02*
X14904Y27940D01*
D16*
X98298Y6096D03*
D12*
X102359Y1621D02*
X103036Y2299D01*
X102359Y1621D02*
X102359Y266D01*
X103036Y-412D01*
X105748Y-412D01*
X106426Y266D01*
X106426Y1621D01*
X105748Y2299D01*
X103036Y4265D02*
X102359Y4943D01*
X102359Y6299D01*
X103036Y6977D01*
X103714Y6977D01*
X104392Y6299D01*
X104392Y5621D01*
X104392Y6299D02*
X105070Y6977D01*
X105748Y6977D01*
X106426Y6299D01*
X106426Y4943D01*
X105748Y4265D01*
X103036Y8943D02*
X102359Y9621D01*
X102359Y10977D01*
X103036Y11654D01*
X103714Y11654D01*
X104392Y10977D01*
X105070Y11654D01*
X105748Y11654D01*
X106426Y10977D01*
X106426Y9621D01*
X105748Y8943D01*
X105070Y8943D01*
X104392Y9621D01*
X103714Y8943D01*
X103036Y8943D01*
X104392Y9621D02*
X104392Y10977D01*
D16*
X110490Y6096D03*
D12*
X114551Y1621D02*
X115228Y2299D01*
X114551Y1621D02*
X114551Y266D01*
X115228Y-412D01*
X117940Y-412D01*
X118618Y266D01*
X118618Y1621D01*
X117940Y2299D01*
X118618Y4265D02*
X118618Y6977D01*
X118618Y4265D02*
X115906Y6977D01*
X115228Y6977D01*
X114551Y6299D01*
X114551Y4943D01*
X115228Y4265D01*
X115228Y8943D02*
X117940Y8943D01*
X115228Y8943D02*
X114551Y9621D01*
X114551Y10977D01*
X115228Y11654D01*
X117940Y11654D01*
X118618Y10977D01*
X118618Y9621D01*
X117940Y8943D01*
X115228Y11654D01*
D16*
X97536Y-31496D03*
D12*
X89828Y-35293D02*
X89151Y-35971D01*
X89151Y-37326D01*
X89828Y-38004D01*
X92540Y-38004D01*
X93218Y-37326D01*
X93218Y-35971D01*
X92540Y-35293D01*
X89828Y-33327D02*
X89151Y-32649D01*
X89151Y-31293D01*
X89828Y-30615D01*
X90506Y-30615D01*
X91184Y-31293D01*
X91184Y-31971D01*
X91184Y-31293D02*
X91862Y-30615D01*
X92540Y-30615D01*
X93218Y-31293D01*
X93218Y-32649D01*
X92540Y-33327D01*
X92540Y-28649D02*
X93218Y-27971D01*
X93218Y-26615D01*
X92540Y-25938D01*
X89828Y-25938D01*
X89151Y-26615D01*
X89151Y-27971D01*
X89828Y-28649D01*
X90506Y-28649D01*
X91184Y-27971D01*
X91184Y-25938D01*
D16*
X109728Y-31496D03*
D12*
X102020Y-35293D02*
X101343Y-35971D01*
X101343Y-37326D01*
X102020Y-38004D01*
X104732Y-38004D01*
X105410Y-37326D01*
X105410Y-35971D01*
X104732Y-35293D01*
X105410Y-33327D02*
X105410Y-30615D01*
X105410Y-33327D02*
X102698Y-30615D01*
X102020Y-30615D01*
X101343Y-31293D01*
X101343Y-32649D01*
X102020Y-33327D01*
X102698Y-28649D02*
X101343Y-27293D01*
X105410Y-27293D01*
X105410Y-25938D02*
X105410Y-28649D01*
D15*
X84328Y-54356D03*
D12*
X80518Y-60610D02*
X76451Y-60610D01*
X76451Y-58577D01*
X77128Y-57899D01*
X78484Y-57899D01*
X79162Y-58577D01*
X79162Y-60610D01*
X79162Y-59255D02*
X80518Y-57899D01*
X77806Y-55933D02*
X76451Y-54577D01*
X80518Y-54577D01*
X80518Y-55933D02*
X80518Y-53221D01*
X77128Y-51255D02*
X76451Y-50577D01*
X76451Y-49221D01*
X77128Y-48544D01*
X77806Y-48544D01*
X78484Y-49221D01*
X79162Y-48544D01*
X79840Y-48544D01*
X80518Y-49221D01*
X80518Y-50577D01*
X79840Y-51255D01*
X79162Y-51255D01*
X78484Y-50577D01*
X77806Y-51255D01*
X77128Y-51255D01*
X78484Y-50577D02*
X78484Y-49221D01*
D15*
X96520Y-54356D03*
D12*
X92202Y-60864D02*
X88135Y-60864D01*
X88135Y-58831D01*
X88812Y-58153D01*
X90168Y-58153D01*
X90846Y-58831D01*
X90846Y-60864D01*
X90846Y-59509D02*
X92202Y-58153D01*
X92202Y-56187D02*
X92202Y-53475D01*
X92202Y-56187D02*
X89490Y-53475D01*
X88812Y-53475D01*
X88135Y-54153D01*
X88135Y-55509D01*
X88812Y-56187D01*
X88812Y-51509D02*
X88135Y-50831D01*
X88135Y-49475D01*
X88812Y-48798D01*
X89490Y-48798D01*
X90168Y-49475D01*
X90168Y-50153D01*
X90168Y-49475D02*
X90846Y-48798D01*
X91524Y-48798D01*
X92202Y-49475D01*
X92202Y-50831D01*
X91524Y-51509D01*
D15*
X153416Y-54356D03*
D12*
X149606Y-58526D02*
X145539Y-58526D01*
X145539Y-56492D01*
X146216Y-55814D01*
X147572Y-55814D01*
X148250Y-56492D01*
X148250Y-58526D01*
X148250Y-57170D02*
X149606Y-55814D01*
X146216Y-52492D02*
X145539Y-51136D01*
X146216Y-52492D02*
X147572Y-53848D01*
X148928Y-53848D01*
X149606Y-53170D01*
X149606Y-51814D01*
X148928Y-51136D01*
X148250Y-51136D01*
X147572Y-51814D01*
X147572Y-53848D01*
D15*
X141224Y-54356D03*
D12*
X137414Y-58526D02*
X133347Y-58526D01*
X133347Y-56492D01*
X134024Y-55814D01*
X135380Y-55814D01*
X136058Y-56492D01*
X136058Y-58526D01*
X136058Y-57170D02*
X137414Y-55814D01*
X133347Y-53848D02*
X133347Y-51136D01*
X134024Y-51136D01*
X136736Y-53848D01*
X137414Y-53848D01*
D15*
X116840Y-54356D03*
D12*
X112776Y-58526D02*
X108709Y-58526D01*
X108709Y-56492D01*
X109386Y-55814D01*
X110742Y-55814D01*
X111420Y-56492D01*
X111420Y-58526D01*
X111420Y-57170D02*
X112776Y-55814D01*
X109386Y-53848D02*
X108709Y-53170D01*
X108709Y-51814D01*
X109386Y-51136D01*
X110064Y-51136D01*
X110742Y-51814D01*
X111420Y-51136D01*
X112098Y-51136D01*
X112776Y-51814D01*
X112776Y-53170D01*
X112098Y-53848D01*
X111420Y-53848D01*
X110742Y-53170D01*
X110064Y-53848D01*
X109386Y-53848D01*
X110742Y-53170D02*
X110742Y-51814D01*
D15*
X129032Y-54356D03*
D12*
X124714Y-58526D02*
X120647Y-58526D01*
X120647Y-56492D01*
X121324Y-55814D01*
X122680Y-55814D01*
X123358Y-56492D01*
X123358Y-58526D01*
X123358Y-57170D02*
X124714Y-55814D01*
X124036Y-53848D02*
X124714Y-53170D01*
X124714Y-51814D01*
X124036Y-51136D01*
X121324Y-51136D01*
X120647Y-51814D01*
X120647Y-53170D01*
X121324Y-53848D01*
X122002Y-53848D01*
X122680Y-53170D01*
X122680Y-51136D01*
D20*
X26162Y-50800D03*
D12*
X31747Y-55275D02*
X32424Y-54597D01*
X31747Y-55275D02*
X31747Y-56631D01*
X32424Y-57308D01*
X35136Y-57308D01*
X35814Y-56631D01*
X35814Y-55275D01*
X35136Y-54597D01*
X31747Y-52631D02*
X31747Y-49919D01*
X31747Y-52631D02*
X33780Y-52631D01*
X33102Y-51275D01*
X33102Y-50597D01*
X33780Y-49919D01*
X35136Y-49919D01*
X35814Y-50597D01*
X35814Y-51953D01*
X35136Y-52631D01*
X32424Y-46597D02*
X31747Y-45242D01*
X32424Y-46597D02*
X33780Y-47953D01*
X35136Y-47953D01*
X35814Y-47275D01*
X35814Y-45920D01*
X35136Y-45242D01*
X34458Y-45242D01*
X33780Y-45920D01*
X33780Y-47953D01*
D20*
X10668Y-50800D03*
D12*
X16380Y-55275D02*
X17057Y-54597D01*
X16380Y-55275D02*
X16380Y-56631D01*
X17057Y-57308D01*
X19769Y-57308D01*
X20447Y-56631D01*
X20447Y-55275D01*
X19769Y-54597D01*
X16380Y-52631D02*
X16380Y-49919D01*
X16380Y-52631D02*
X18413Y-52631D01*
X17735Y-51275D01*
X17735Y-50597D01*
X18413Y-49919D01*
X19769Y-49919D01*
X20447Y-50597D01*
X20447Y-51953D01*
X19769Y-52631D01*
X16380Y-47953D02*
X16380Y-45242D01*
X17057Y-45242D01*
X19769Y-47953D01*
X20447Y-47953D01*
D16*
X39624Y-53848D03*
D12*
X43854Y-57645D02*
X43177Y-58323D01*
X43177Y-59679D01*
X43854Y-60356D01*
X46566Y-60356D01*
X47244Y-59679D01*
X47244Y-58323D01*
X46566Y-57645D01*
X47244Y-55679D02*
X47244Y-52967D01*
X47244Y-55679D02*
X44532Y-52967D01*
X43854Y-52967D01*
X43177Y-53645D01*
X43177Y-55001D01*
X43854Y-55679D01*
X43854Y-51001D02*
X43177Y-50323D01*
X43177Y-48968D01*
X43854Y-48290D01*
X44532Y-48290D01*
X45210Y-48968D01*
X45888Y-48290D01*
X46566Y-48290D01*
X47244Y-48968D01*
X47244Y-50323D01*
X46566Y-51001D01*
X45888Y-51001D01*
X45210Y-50323D01*
X44532Y-51001D01*
X43854Y-51001D01*
X45210Y-50323D02*
X45210Y-48968D01*
D21*
X133858Y23368D03*
D12*
X130061Y32600D02*
X129383Y33277D01*
X128028Y33277D01*
X127350Y32600D01*
X127350Y29888D01*
X128028Y29210D01*
X129383Y29210D01*
X130061Y29888D01*
X132027Y33277D02*
X134739Y33277D01*
X132027Y33277D02*
X132027Y31244D01*
X133383Y31922D01*
X134061Y31922D01*
X134739Y31244D01*
X134739Y29888D01*
X134061Y29210D01*
X132705Y29210D01*
X132027Y29888D01*
X136705Y32600D02*
X137383Y33277D01*
X138739Y33277D01*
X139416Y32600D01*
X139416Y31922D01*
X138739Y31244D01*
X138061Y31244D01*
X138739Y31244D02*
X139416Y30566D01*
X139416Y29888D01*
X138739Y29210D01*
X137383Y29210D01*
X136705Y29888D01*
D16*
X105258Y25540D03*
D12*
X101461Y21309D02*
X100783Y21987D01*
X99427Y21987D01*
X98749Y21309D01*
X98749Y18598D01*
X99427Y17920D01*
X100783Y17920D01*
X101461Y18598D01*
X103427Y17920D02*
X106138Y17920D01*
X103427Y17920D02*
X106138Y20631D01*
X106138Y21309D01*
X105461Y21987D01*
X104105Y21987D01*
X103427Y21309D01*
X108104Y18598D02*
X108782Y17920D01*
X110138Y17920D01*
X110816Y18598D01*
X110816Y21309D01*
X110138Y21987D01*
X108782Y21987D01*
X108104Y21309D01*
X108104Y20631D01*
X108782Y19953D01*
X110816Y19953D01*
D15*
X10101Y-21395D03*
D12*
X3593Y-24693D02*
X3593Y-28761D01*
X3593Y-24693D02*
X5627Y-24693D01*
X6304Y-25371D01*
X6304Y-26727D01*
X5627Y-27405D01*
X3593Y-27405D01*
X4949Y-27405D02*
X6304Y-28761D01*
X9626Y-28761D02*
X9626Y-24693D01*
X8270Y-24693D02*
X10982Y-24693D01*
X12948Y-26049D02*
X14304Y-24693D01*
X14304Y-28761D01*
X12948Y-28761D02*
X15660Y-28761D01*
D16*
X10160Y-32512D03*
D12*
X6363Y-36742D02*
X5685Y-36065D01*
X4330Y-36065D01*
X3652Y-36742D01*
X3652Y-39454D01*
X4330Y-40132D01*
X5685Y-40132D01*
X6363Y-39454D01*
X8329Y-36742D02*
X9007Y-36065D01*
X10363Y-36065D01*
X11041Y-36742D01*
X11041Y-37420D01*
X10363Y-38098D01*
X9685Y-38098D01*
X10363Y-38098D02*
X11041Y-38776D01*
X11041Y-39454D01*
X10363Y-40132D01*
X9007Y-40132D01*
X8329Y-39454D01*
X13007Y-39454D02*
X13007Y-36742D01*
X13685Y-36065D01*
X15041Y-36065D01*
X15718Y-36742D01*
X15718Y-39454D01*
X15041Y-40132D01*
X13685Y-40132D01*
X13007Y-39454D01*
X15718Y-36742D01*
D15*
X10101Y-10101D03*
D12*
X3593Y-13400D02*
X3593Y-17467D01*
X3593Y-13400D02*
X5627Y-13400D01*
X6304Y-14078D01*
X6304Y-15433D01*
X5627Y-16111D01*
X3593Y-16111D01*
X4949Y-16111D02*
X6304Y-17467D01*
X8270Y-14756D02*
X9626Y-13400D01*
X9626Y-17467D01*
X8270Y-17467D02*
X10982Y-17467D01*
X12948Y-14078D02*
X13626Y-13400D01*
X14982Y-13400D01*
X15660Y-14078D01*
X15660Y-14756D01*
X14982Y-15433D01*
X14304Y-15433D01*
X14982Y-15433D02*
X15660Y-16111D01*
X15660Y-16789D01*
X14982Y-17467D01*
X13626Y-17467D01*
X12948Y-16789D01*
D15*
X10160Y1105D03*
D12*
X1313Y-2194D02*
X1313Y-6261D01*
X1313Y-2194D02*
X3347Y-2194D01*
X4024Y-2872D01*
X4024Y-4227D01*
X3347Y-4905D01*
X1313Y-4905D01*
X2669Y-4905D02*
X4024Y-6261D01*
X5990Y-2194D02*
X8702Y-6261D01*
X5990Y-6261D02*
X8702Y-2194D01*
X10668Y-3550D02*
X12024Y-2194D01*
X12024Y-6261D01*
X10668Y-6261D02*
X13380Y-6261D01*
X17379Y-6261D02*
X17379Y-2194D01*
X15346Y-4227D01*
X18057Y-4227D01*
D11*
X314960Y268224D02*
X317500Y270256D01*
X314960Y268224D02*
X312420Y270256D01*
X312166Y268224D02*
X317500Y268224D01*
D12*
X310196Y265164D02*
X306129Y265164D01*
X310196Y265164D02*
X310196Y267198D01*
X309518Y267876D01*
X306806Y267876D01*
X306129Y267198D01*
X306129Y265164D01*
X306129Y271876D02*
X310196Y271876D01*
X308162Y269842D02*
X306129Y271876D01*
X308162Y272554D02*
X308162Y269842D01*
D16*
X-179324Y94488D03*
D12*
X-185323Y86363D02*
X-184645Y85686D01*
X-185323Y86363D02*
X-186679Y86363D01*
X-187356Y85686D01*
X-187356Y82974D01*
X-186679Y82296D01*
X-185323Y82296D01*
X-184645Y82974D01*
X-180645Y82296D02*
X-180645Y86363D01*
X-182679Y84330D01*
X-179967Y84330D01*
X-178001Y85008D02*
X-176645Y86363D01*
X-176645Y82296D01*
X-175290Y82296D02*
X-178001Y82296D01*
D16*
X-214376Y82296D03*
D12*
X-218851Y78235D02*
X-218173Y77558D01*
X-218851Y78235D02*
X-220207Y78235D01*
X-220884Y77558D01*
X-220884Y74846D01*
X-220207Y74168D01*
X-218851Y74168D01*
X-218173Y74846D01*
X-214173Y74168D02*
X-214173Y78235D01*
X-216207Y76202D01*
X-213495Y76202D01*
X-211529Y74168D02*
X-208818Y74168D01*
X-211529Y74168D02*
X-208818Y76880D01*
X-208818Y77558D01*
X-209496Y78235D01*
X-210851Y78235D01*
X-211529Y77558D01*
D19*
X254560Y212438D02*
X324560Y212438D01*
X254560Y212438D02*
X254560Y192438D01*
X324560Y192438D01*
X324560Y212438D01*
D12*
X282584Y185847D02*
X282584Y181102D01*
X282584Y185847D02*
X284957Y188220D01*
X287329Y185847D01*
X287329Y181102D01*
X287329Y184661D02*
X282584Y184661D01*
X293627Y181102D02*
X293627Y188220D01*
X290068Y184661D01*
X294813Y184661D01*
D15*
X255555Y39116D03*
D12*
X249047Y42418D02*
X249047Y46485D01*
X251080Y46485D01*
X251758Y45808D01*
X251758Y44452D01*
X251080Y43774D01*
X249047Y43774D01*
X250402Y43774D02*
X251758Y42418D01*
X253724Y42418D02*
X256436Y42418D01*
X253724Y42418D02*
X256436Y45130D01*
X256436Y45808D01*
X255758Y46485D01*
X254402Y46485D01*
X253724Y45808D01*
X258402Y45808D02*
X258402Y43096D01*
X258402Y45808D02*
X259080Y46485D01*
X260436Y46485D01*
X261113Y45808D01*
X261113Y43096D01*
X260436Y42418D01*
X259080Y42418D01*
X258402Y43096D01*
X261113Y45808D01*
D10*
X-5936Y52992D02*
X-5936Y72992D01*
X14064Y72992D01*
X14064Y52992D01*
X-5936Y52992D01*
X-7350Y47992D02*
X-7348Y48067D01*
X-7342Y48141D01*
X-7332Y48215D01*
X-7319Y48288D01*
X-7301Y48361D01*
X-7280Y48432D01*
X-7255Y48503D01*
X-7226Y48572D01*
X-7193Y48639D01*
X-7157Y48704D01*
X-7118Y48768D01*
X-7076Y48829D01*
X-7030Y48888D01*
X-6981Y48945D01*
X-6929Y48998D01*
X-6875Y49049D01*
X-6818Y49098D01*
X-6758Y49142D01*
X-6696Y49184D01*
X-6632Y49223D01*
X-6566Y49258D01*
X-6499Y49289D01*
X-6429Y49317D01*
X-6359Y49341D01*
X-6287Y49362D01*
X-6214Y49378D01*
X-6141Y49391D01*
X-6066Y49400D01*
X-5992Y49405D01*
X-5917Y49406D01*
X-5843Y49403D01*
X-5768Y49396D01*
X-5695Y49385D01*
X-5621Y49371D01*
X-5549Y49352D01*
X-5478Y49330D01*
X-5408Y49304D01*
X-5339Y49274D01*
X-5273Y49241D01*
X-5208Y49204D01*
X-5145Y49164D01*
X-5084Y49120D01*
X-5026Y49074D01*
X-4970Y49024D01*
X-4917Y48972D01*
X-4866Y48917D01*
X-4819Y48859D01*
X-4775Y48799D01*
X-4734Y48736D01*
X-4696Y48672D01*
X-4662Y48606D01*
X-4631Y48537D01*
X-4604Y48468D01*
X-4581Y48397D01*
X-4562Y48325D01*
X-4546Y48252D01*
X-4534Y48178D01*
X-4526Y48104D01*
X-4522Y48029D01*
X-4522Y47955D01*
X-4526Y47880D01*
X-4534Y47806D01*
X-4546Y47732D01*
X-4562Y47659D01*
X-4581Y47587D01*
X-4604Y47516D01*
X-4631Y47447D01*
X-4662Y47378D01*
X-4696Y47312D01*
X-4734Y47248D01*
X-4775Y47185D01*
X-4819Y47125D01*
X-4866Y47067D01*
X-4917Y47012D01*
X-4970Y46960D01*
X-5026Y46910D01*
X-5084Y46864D01*
X-5145Y46820D01*
X-5208Y46780D01*
X-5273Y46743D01*
X-5339Y46710D01*
X-5408Y46680D01*
X-5478Y46654D01*
X-5549Y46632D01*
X-5621Y46613D01*
X-5695Y46599D01*
X-5768Y46588D01*
X-5843Y46581D01*
X-5917Y46578D01*
X-5992Y46579D01*
X-6066Y46584D01*
X-6141Y46593D01*
X-6214Y46606D01*
X-6287Y46622D01*
X-6359Y46643D01*
X-6429Y46667D01*
X-6499Y46695D01*
X-6566Y46726D01*
X-6632Y46761D01*
X-6696Y46800D01*
X-6758Y46842D01*
X-6818Y46886D01*
X-6875Y46935D01*
X-6929Y46986D01*
X-6981Y47039D01*
X-7030Y47096D01*
X-7076Y47155D01*
X-7118Y47216D01*
X-7157Y47280D01*
X-7193Y47345D01*
X-7226Y47412D01*
X-7255Y47481D01*
X-7280Y47552D01*
X-7301Y47623D01*
X-7319Y47696D01*
X-7332Y47769D01*
X-7342Y47843D01*
X-7348Y47917D01*
X-7350Y47992D01*
D12*
X-18291Y60856D02*
X-17614Y61534D01*
X-18291Y60856D02*
X-18291Y59500D01*
X-17614Y58822D01*
X-16936Y58822D01*
X-16258Y59500D01*
X-16258Y60856D01*
X-15580Y61534D01*
X-14902Y61534D01*
X-14224Y60856D01*
X-14224Y59500D01*
X-14902Y58822D01*
X-14224Y63500D02*
X-14224Y66212D01*
X-14224Y63500D02*
X-16936Y66212D01*
X-17614Y66212D01*
X-18291Y65534D01*
X-18291Y64178D01*
X-17614Y63500D01*
D22*
X-150468Y126664D02*
X-150466Y126763D01*
X-150460Y126863D01*
X-150450Y126962D01*
X-150436Y127060D01*
X-150419Y127158D01*
X-150397Y127255D01*
X-150372Y127351D01*
X-150343Y127446D01*
X-150310Y127540D01*
X-150273Y127632D01*
X-150233Y127723D01*
X-150189Y127812D01*
X-150141Y127900D01*
X-150090Y127985D01*
X-150036Y128068D01*
X-149979Y128150D01*
X-149918Y128228D01*
X-149854Y128305D01*
X-149788Y128378D01*
X-149718Y128449D01*
X-149646Y128517D01*
X-149571Y128583D01*
X-149493Y128645D01*
X-149413Y128704D01*
X-149331Y128760D01*
X-149247Y128812D01*
X-149160Y128861D01*
X-149072Y128907D01*
X-148982Y128949D01*
X-148890Y128988D01*
X-148797Y129023D01*
X-148703Y129054D01*
X-148607Y129081D01*
X-148510Y129104D01*
X-148413Y129124D01*
X-148315Y129140D01*
X-148216Y129152D01*
X-148117Y129160D01*
X-148018Y129164D01*
X-147918Y129164D01*
X-147819Y129160D01*
X-147720Y129152D01*
X-147621Y129140D01*
X-147523Y129124D01*
X-147426Y129104D01*
X-147329Y129081D01*
X-147233Y129054D01*
X-147139Y129023D01*
X-147046Y128988D01*
X-146954Y128949D01*
X-146864Y128907D01*
X-146776Y128861D01*
X-146689Y128812D01*
X-146605Y128760D01*
X-146523Y128704D01*
X-146443Y128645D01*
X-146365Y128583D01*
X-146290Y128517D01*
X-146218Y128449D01*
X-146148Y128378D01*
X-146082Y128305D01*
X-146018Y128228D01*
X-145957Y128150D01*
X-145900Y128068D01*
X-145846Y127985D01*
X-145795Y127900D01*
X-145747Y127812D01*
X-145703Y127723D01*
X-145663Y127632D01*
X-145626Y127540D01*
X-145593Y127446D01*
X-145564Y127351D01*
X-145539Y127255D01*
X-145517Y127158D01*
X-145500Y127060D01*
X-145486Y126962D01*
X-145476Y126863D01*
X-145470Y126763D01*
X-145468Y126664D01*
X-145470Y126565D01*
X-145476Y126465D01*
X-145486Y126366D01*
X-145500Y126268D01*
X-145517Y126170D01*
X-145539Y126073D01*
X-145564Y125977D01*
X-145593Y125882D01*
X-145626Y125788D01*
X-145663Y125696D01*
X-145703Y125605D01*
X-145747Y125516D01*
X-145795Y125428D01*
X-145846Y125343D01*
X-145900Y125260D01*
X-145957Y125178D01*
X-146018Y125100D01*
X-146082Y125023D01*
X-146148Y124950D01*
X-146218Y124879D01*
X-146290Y124811D01*
X-146365Y124745D01*
X-146443Y124683D01*
X-146523Y124624D01*
X-146605Y124568D01*
X-146689Y124516D01*
X-146776Y124467D01*
X-146864Y124421D01*
X-146954Y124379D01*
X-147046Y124340D01*
X-147139Y124305D01*
X-147233Y124274D01*
X-147329Y124247D01*
X-147426Y124224D01*
X-147523Y124204D01*
X-147621Y124188D01*
X-147720Y124176D01*
X-147819Y124168D01*
X-147918Y124164D01*
X-148018Y124164D01*
X-148117Y124168D01*
X-148216Y124176D01*
X-148315Y124188D01*
X-148413Y124204D01*
X-148510Y124224D01*
X-148607Y124247D01*
X-148703Y124274D01*
X-148797Y124305D01*
X-148890Y124340D01*
X-148982Y124379D01*
X-149072Y124421D01*
X-149160Y124467D01*
X-149247Y124516D01*
X-149331Y124568D01*
X-149413Y124624D01*
X-149493Y124683D01*
X-149571Y124745D01*
X-149646Y124811D01*
X-149718Y124879D01*
X-149788Y124950D01*
X-149854Y125023D01*
X-149918Y125100D01*
X-149979Y125178D01*
X-150036Y125260D01*
X-150090Y125343D01*
X-150141Y125428D01*
X-150189Y125516D01*
X-150233Y125605D01*
X-150273Y125696D01*
X-150310Y125788D01*
X-150343Y125882D01*
X-150372Y125977D01*
X-150397Y126073D01*
X-150419Y126170D01*
X-150436Y126268D01*
X-150450Y126366D01*
X-150460Y126465D01*
X-150466Y126565D01*
X-150468Y126664D01*
D12*
X-114914Y84375D02*
X-114914Y80986D01*
X-114236Y80308D01*
X-112880Y80308D01*
X-112202Y80986D01*
X-112202Y84375D01*
X-110236Y80308D02*
X-107524Y80308D01*
X-110236Y80308D02*
X-107524Y83020D01*
X-107524Y83698D01*
X-108202Y84375D01*
X-109558Y84375D01*
X-110236Y83698D01*
D23*
X-117672Y79248D02*
X-120172Y79248D01*
D12*
X-124802Y77790D02*
X-125479Y77112D01*
X-125479Y75756D01*
X-124802Y75078D01*
X-122090Y75078D01*
X-121412Y75756D01*
X-121412Y77112D01*
X-122090Y77790D01*
X-121412Y79756D02*
X-121412Y82468D01*
X-121412Y79756D02*
X-124124Y82468D01*
X-124802Y82468D01*
X-125479Y81790D01*
X-125479Y80434D01*
X-124802Y79756D01*
D24*
X-131064Y79248D03*
D12*
X-134874Y75078D02*
X-138941Y75078D01*
X-138941Y77112D01*
X-138264Y77790D01*
X-136908Y77790D01*
X-136230Y77112D01*
X-136230Y75078D01*
X-136230Y76434D02*
X-134874Y77790D01*
X-137586Y79756D02*
X-138941Y81112D01*
X-134874Y81112D01*
X-134874Y79756D02*
X-134874Y82468D01*
D23*
X-69850Y110306D02*
X-69850Y112806D01*
D12*
X-75862Y114222D02*
X-75862Y118289D01*
X-73151Y118289D01*
X-74507Y116256D02*
X-75862Y116256D01*
X-71185Y118289D02*
X-71185Y114222D01*
X-71185Y118289D02*
X-69151Y118289D01*
X-68473Y117612D01*
X-68473Y116934D01*
X-69151Y116256D01*
X-68473Y115578D01*
X-68473Y114900D01*
X-69151Y114222D01*
X-71185Y114222D01*
X-71185Y116256D02*
X-69151Y116256D01*
X-66507Y116934D02*
X-65151Y118289D01*
X-65151Y114222D01*
X-63796Y114222D02*
X-66507Y114222D01*
D10*
X-108624Y240720D02*
X-128624Y240720D01*
X-108624Y240720D02*
X-108624Y221105D01*
X-128624Y221105D01*
X-128624Y240720D01*
X-136019Y245960D02*
X-136017Y246053D01*
X-136011Y246145D01*
X-136001Y246237D01*
X-135987Y246329D01*
X-135969Y246420D01*
X-135948Y246510D01*
X-135922Y246599D01*
X-135893Y246687D01*
X-135859Y246774D01*
X-135823Y246859D01*
X-135782Y246942D01*
X-135738Y247024D01*
X-135690Y247104D01*
X-135640Y247181D01*
X-135585Y247256D01*
X-135528Y247329D01*
X-135468Y247400D01*
X-135404Y247467D01*
X-135338Y247532D01*
X-135269Y247594D01*
X-135197Y247653D01*
X-135123Y247709D01*
X-135047Y247761D01*
X-134968Y247811D01*
X-134888Y247856D01*
X-134805Y247899D01*
X-134721Y247937D01*
X-134635Y247972D01*
X-134548Y248004D01*
X-134459Y248031D01*
X-134369Y248055D01*
X-134279Y248075D01*
X-134187Y248091D01*
X-134095Y248103D01*
X-134003Y248111D01*
X-133910Y248115D01*
X-133818Y248115D01*
X-133725Y248111D01*
X-133633Y248103D01*
X-133541Y248091D01*
X-133449Y248075D01*
X-133359Y248055D01*
X-133269Y248031D01*
X-133180Y248004D01*
X-133093Y247972D01*
X-133007Y247937D01*
X-132923Y247899D01*
X-132840Y247856D01*
X-132760Y247811D01*
X-132681Y247761D01*
X-132605Y247709D01*
X-132531Y247653D01*
X-132459Y247594D01*
X-132390Y247532D01*
X-132324Y247467D01*
X-132260Y247400D01*
X-132200Y247329D01*
X-132143Y247256D01*
X-132088Y247181D01*
X-132038Y247104D01*
X-131990Y247024D01*
X-131946Y246942D01*
X-131905Y246859D01*
X-131869Y246774D01*
X-131835Y246687D01*
X-131806Y246599D01*
X-131780Y246510D01*
X-131759Y246420D01*
X-131741Y246329D01*
X-131727Y246237D01*
X-131717Y246145D01*
X-131711Y246053D01*
X-131709Y245960D01*
X-131711Y245867D01*
X-131717Y245775D01*
X-131727Y245683D01*
X-131741Y245591D01*
X-131759Y245500D01*
X-131780Y245410D01*
X-131806Y245321D01*
X-131835Y245233D01*
X-131869Y245146D01*
X-131905Y245061D01*
X-131946Y244978D01*
X-131990Y244896D01*
X-132038Y244816D01*
X-132088Y244739D01*
X-132143Y244664D01*
X-132200Y244591D01*
X-132260Y244520D01*
X-132324Y244453D01*
X-132390Y244388D01*
X-132459Y244326D01*
X-132531Y244267D01*
X-132605Y244211D01*
X-132681Y244159D01*
X-132760Y244109D01*
X-132840Y244064D01*
X-132923Y244021D01*
X-133007Y243983D01*
X-133093Y243948D01*
X-133180Y243916D01*
X-133269Y243889D01*
X-133359Y243865D01*
X-133449Y243845D01*
X-133541Y243829D01*
X-133633Y243817D01*
X-133725Y243809D01*
X-133818Y243805D01*
X-133910Y243805D01*
X-134003Y243809D01*
X-134095Y243817D01*
X-134187Y243829D01*
X-134279Y243845D01*
X-134369Y243865D01*
X-134459Y243889D01*
X-134548Y243916D01*
X-134635Y243948D01*
X-134721Y243983D01*
X-134805Y244021D01*
X-134888Y244064D01*
X-134968Y244109D01*
X-135047Y244159D01*
X-135123Y244211D01*
X-135197Y244267D01*
X-135269Y244326D01*
X-135338Y244388D01*
X-135404Y244453D01*
X-135468Y244520D01*
X-135528Y244591D01*
X-135585Y244664D01*
X-135640Y244739D01*
X-135690Y244816D01*
X-135738Y244896D01*
X-135782Y244978D01*
X-135823Y245061D01*
X-135859Y245146D01*
X-135893Y245233D01*
X-135922Y245321D01*
X-135948Y245410D01*
X-135969Y245500D01*
X-135987Y245591D01*
X-136001Y245683D01*
X-136011Y245775D01*
X-136017Y245867D01*
X-136019Y245960D01*
D12*
X-113394Y246979D02*
X-112716Y246302D01*
X-113394Y246979D02*
X-114750Y246979D01*
X-115428Y246302D01*
X-115428Y245624D01*
X-114750Y244946D01*
X-113394Y244946D01*
X-112716Y244268D01*
X-112716Y243590D01*
X-113394Y242912D01*
X-114750Y242912D01*
X-115428Y243590D01*
X-110750Y246302D02*
X-110072Y246979D01*
X-108716Y246979D01*
X-108038Y246302D01*
X-108038Y245624D01*
X-108716Y244946D01*
X-109394Y244946D01*
X-108716Y244946D02*
X-108038Y244268D01*
X-108038Y243590D01*
X-108716Y242912D01*
X-110072Y242912D01*
X-110750Y243590D01*
D11*
X-8460Y282540D02*
X7540Y282540D01*
X7540Y250540D01*
X-8460Y250540D01*
X-8460Y282540D01*
X-16696Y250540D02*
X-16694Y250634D01*
X-16688Y250728D01*
X-16678Y250822D01*
X-16664Y250915D01*
X-16646Y251008D01*
X-16625Y251100D01*
X-16599Y251190D01*
X-16570Y251280D01*
X-16537Y251368D01*
X-16500Y251455D01*
X-16460Y251540D01*
X-16416Y251624D01*
X-16368Y251705D01*
X-16318Y251785D01*
X-16263Y251862D01*
X-16206Y251937D01*
X-16146Y252009D01*
X-16082Y252079D01*
X-16016Y252146D01*
X-15947Y252210D01*
X-15875Y252271D01*
X-15801Y252329D01*
X-15724Y252384D01*
X-15645Y252436D01*
X-15564Y252484D01*
X-15481Y252529D01*
X-15397Y252570D01*
X-15310Y252608D01*
X-15222Y252642D01*
X-15133Y252672D01*
X-15043Y252699D01*
X-14951Y252721D01*
X-14859Y252740D01*
X-14765Y252755D01*
X-14672Y252766D01*
X-14578Y252773D01*
X-14484Y252776D01*
X-14389Y252775D01*
X-14295Y252770D01*
X-14201Y252761D01*
X-14108Y252748D01*
X-14015Y252731D01*
X-13923Y252711D01*
X-13832Y252686D01*
X-13742Y252658D01*
X-13654Y252626D01*
X-13566Y252590D01*
X-13481Y252550D01*
X-13397Y252507D01*
X-13315Y252461D01*
X-13235Y252411D01*
X-13157Y252357D01*
X-13082Y252301D01*
X-13009Y252241D01*
X-12938Y252178D01*
X-12871Y252113D01*
X-12806Y252044D01*
X-12744Y251973D01*
X-12685Y251900D01*
X-12629Y251824D01*
X-12577Y251745D01*
X-12528Y251665D01*
X-12482Y251582D01*
X-12440Y251498D01*
X-12401Y251412D01*
X-12366Y251324D01*
X-12335Y251235D01*
X-12307Y251145D01*
X-12284Y251054D01*
X-12264Y250962D01*
X-12248Y250869D01*
X-12236Y250775D01*
X-12228Y250681D01*
X-12224Y250587D01*
X-12224Y250493D01*
X-12228Y250399D01*
X-12236Y250305D01*
X-12248Y250211D01*
X-12264Y250118D01*
X-12284Y250026D01*
X-12307Y249935D01*
X-12335Y249845D01*
X-12366Y249756D01*
X-12401Y249668D01*
X-12440Y249582D01*
X-12482Y249498D01*
X-12528Y249415D01*
X-12577Y249335D01*
X-12629Y249256D01*
X-12685Y249180D01*
X-12744Y249107D01*
X-12806Y249036D01*
X-12871Y248967D01*
X-12938Y248902D01*
X-13009Y248839D01*
X-13082Y248779D01*
X-13157Y248723D01*
X-13235Y248669D01*
X-13315Y248619D01*
X-13397Y248573D01*
X-13481Y248530D01*
X-13566Y248490D01*
X-13654Y248454D01*
X-13742Y248422D01*
X-13832Y248394D01*
X-13923Y248369D01*
X-14015Y248349D01*
X-14108Y248332D01*
X-14201Y248319D01*
X-14295Y248310D01*
X-14389Y248305D01*
X-14484Y248304D01*
X-14578Y248307D01*
X-14672Y248314D01*
X-14765Y248325D01*
X-14859Y248340D01*
X-14951Y248359D01*
X-15043Y248381D01*
X-15133Y248408D01*
X-15222Y248438D01*
X-15310Y248472D01*
X-15397Y248510D01*
X-15481Y248551D01*
X-15564Y248596D01*
X-15645Y248644D01*
X-15724Y248696D01*
X-15801Y248751D01*
X-15875Y248809D01*
X-15947Y248870D01*
X-16016Y248934D01*
X-16082Y249001D01*
X-16146Y249071D01*
X-16206Y249143D01*
X-16263Y249218D01*
X-16318Y249295D01*
X-16368Y249375D01*
X-16416Y249456D01*
X-16460Y249540D01*
X-16500Y249625D01*
X-16537Y249712D01*
X-16570Y249800D01*
X-16599Y249890D01*
X-16625Y249980D01*
X-16646Y250072D01*
X-16664Y250165D01*
X-16678Y250258D01*
X-16688Y250352D01*
X-16694Y250446D01*
X-16696Y250540D01*
X237462Y8789D02*
X229462Y-5067D01*
X201749Y10933D01*
X209749Y24789D01*
X237462Y8789D01*
X210513Y29985D02*
X210515Y30079D01*
X210521Y30173D01*
X210531Y30267D01*
X210545Y30360D01*
X210563Y30453D01*
X210584Y30545D01*
X210610Y30635D01*
X210639Y30725D01*
X210672Y30813D01*
X210709Y30900D01*
X210749Y30985D01*
X210793Y31069D01*
X210841Y31150D01*
X210891Y31230D01*
X210946Y31307D01*
X211003Y31382D01*
X211063Y31454D01*
X211127Y31524D01*
X211193Y31591D01*
X211262Y31655D01*
X211334Y31716D01*
X211408Y31774D01*
X211485Y31829D01*
X211564Y31881D01*
X211645Y31929D01*
X211728Y31974D01*
X211812Y32015D01*
X211899Y32053D01*
X211987Y32087D01*
X212076Y32117D01*
X212166Y32144D01*
X212258Y32166D01*
X212350Y32185D01*
X212444Y32200D01*
X212537Y32211D01*
X212631Y32218D01*
X212725Y32221D01*
X212820Y32220D01*
X212914Y32215D01*
X213008Y32206D01*
X213101Y32193D01*
X213194Y32176D01*
X213286Y32156D01*
X213377Y32131D01*
X213467Y32103D01*
X213555Y32071D01*
X213643Y32035D01*
X213728Y31995D01*
X213812Y31952D01*
X213894Y31906D01*
X213974Y31856D01*
X214052Y31802D01*
X214127Y31746D01*
X214200Y31686D01*
X214271Y31623D01*
X214338Y31558D01*
X214403Y31489D01*
X214465Y31418D01*
X214524Y31345D01*
X214580Y31269D01*
X214632Y31190D01*
X214681Y31110D01*
X214727Y31027D01*
X214769Y30943D01*
X214808Y30857D01*
X214843Y30769D01*
X214874Y30680D01*
X214902Y30590D01*
X214925Y30499D01*
X214945Y30407D01*
X214961Y30314D01*
X214973Y30220D01*
X214981Y30126D01*
X214985Y30032D01*
X214985Y29938D01*
X214981Y29844D01*
X214973Y29750D01*
X214961Y29656D01*
X214945Y29563D01*
X214925Y29471D01*
X214902Y29380D01*
X214874Y29290D01*
X214843Y29201D01*
X214808Y29113D01*
X214769Y29027D01*
X214727Y28943D01*
X214681Y28860D01*
X214632Y28780D01*
X214580Y28701D01*
X214524Y28625D01*
X214465Y28552D01*
X214403Y28481D01*
X214338Y28412D01*
X214271Y28347D01*
X214200Y28284D01*
X214127Y28224D01*
X214052Y28168D01*
X213974Y28114D01*
X213894Y28064D01*
X213812Y28018D01*
X213728Y27975D01*
X213643Y27935D01*
X213555Y27899D01*
X213467Y27867D01*
X213377Y27839D01*
X213286Y27814D01*
X213194Y27794D01*
X213101Y27777D01*
X213008Y27764D01*
X212914Y27755D01*
X212820Y27750D01*
X212725Y27749D01*
X212631Y27752D01*
X212537Y27759D01*
X212444Y27770D01*
X212350Y27785D01*
X212258Y27804D01*
X212166Y27826D01*
X212076Y27853D01*
X211987Y27883D01*
X211899Y27917D01*
X211812Y27955D01*
X211728Y27996D01*
X211645Y28041D01*
X211564Y28089D01*
X211485Y28141D01*
X211408Y28196D01*
X211334Y28254D01*
X211262Y28315D01*
X211193Y28379D01*
X211127Y28446D01*
X211063Y28516D01*
X211003Y28588D01*
X210946Y28663D01*
X210891Y28740D01*
X210841Y28820D01*
X210793Y28901D01*
X210749Y28985D01*
X210709Y29070D01*
X210672Y29157D01*
X210639Y29245D01*
X210610Y29335D01*
X210584Y29425D01*
X210563Y29517D01*
X210545Y29610D01*
X210531Y29703D01*
X210521Y29797D01*
X210515Y29891D01*
X210513Y29985D01*
X-230082Y-3869D02*
X-238082Y9987D01*
X-210369Y25987D01*
X-202369Y12131D01*
X-230082Y-3869D01*
X-201605Y6935D02*
X-201603Y7029D01*
X-201597Y7123D01*
X-201587Y7217D01*
X-201573Y7310D01*
X-201555Y7403D01*
X-201534Y7495D01*
X-201508Y7585D01*
X-201479Y7675D01*
X-201446Y7763D01*
X-201409Y7850D01*
X-201369Y7935D01*
X-201325Y8019D01*
X-201277Y8100D01*
X-201227Y8180D01*
X-201172Y8257D01*
X-201115Y8332D01*
X-201055Y8404D01*
X-200991Y8474D01*
X-200925Y8541D01*
X-200856Y8605D01*
X-200784Y8666D01*
X-200710Y8724D01*
X-200633Y8779D01*
X-200554Y8831D01*
X-200473Y8879D01*
X-200390Y8924D01*
X-200306Y8965D01*
X-200219Y9003D01*
X-200131Y9037D01*
X-200042Y9067D01*
X-199952Y9094D01*
X-199860Y9116D01*
X-199768Y9135D01*
X-199674Y9150D01*
X-199581Y9161D01*
X-199487Y9168D01*
X-199393Y9171D01*
X-199298Y9170D01*
X-199204Y9165D01*
X-199110Y9156D01*
X-199017Y9143D01*
X-198924Y9126D01*
X-198832Y9106D01*
X-198741Y9081D01*
X-198651Y9053D01*
X-198563Y9021D01*
X-198475Y8985D01*
X-198390Y8945D01*
X-198306Y8902D01*
X-198224Y8856D01*
X-198144Y8806D01*
X-198066Y8752D01*
X-197991Y8696D01*
X-197918Y8636D01*
X-197847Y8573D01*
X-197780Y8508D01*
X-197715Y8439D01*
X-197653Y8368D01*
X-197594Y8295D01*
X-197538Y8219D01*
X-197486Y8140D01*
X-197437Y8060D01*
X-197391Y7977D01*
X-197349Y7893D01*
X-197310Y7807D01*
X-197275Y7719D01*
X-197244Y7630D01*
X-197216Y7540D01*
X-197193Y7449D01*
X-197173Y7357D01*
X-197157Y7264D01*
X-197145Y7170D01*
X-197137Y7076D01*
X-197133Y6982D01*
X-197133Y6888D01*
X-197137Y6794D01*
X-197145Y6700D01*
X-197157Y6606D01*
X-197173Y6513D01*
X-197193Y6421D01*
X-197216Y6330D01*
X-197244Y6240D01*
X-197275Y6151D01*
X-197310Y6063D01*
X-197349Y5977D01*
X-197391Y5893D01*
X-197437Y5810D01*
X-197486Y5730D01*
X-197538Y5651D01*
X-197594Y5575D01*
X-197653Y5502D01*
X-197715Y5431D01*
X-197780Y5362D01*
X-197847Y5297D01*
X-197918Y5234D01*
X-197991Y5174D01*
X-198066Y5118D01*
X-198144Y5064D01*
X-198224Y5014D01*
X-198306Y4968D01*
X-198390Y4925D01*
X-198475Y4885D01*
X-198563Y4849D01*
X-198651Y4817D01*
X-198741Y4789D01*
X-198832Y4764D01*
X-198924Y4744D01*
X-199017Y4727D01*
X-199110Y4714D01*
X-199204Y4705D01*
X-199298Y4700D01*
X-199393Y4699D01*
X-199487Y4702D01*
X-199581Y4709D01*
X-199674Y4720D01*
X-199768Y4735D01*
X-199860Y4754D01*
X-199952Y4776D01*
X-200042Y4803D01*
X-200131Y4833D01*
X-200219Y4867D01*
X-200306Y4905D01*
X-200390Y4946D01*
X-200473Y4991D01*
X-200554Y5039D01*
X-200633Y5091D01*
X-200710Y5146D01*
X-200784Y5204D01*
X-200856Y5265D01*
X-200925Y5329D01*
X-200991Y5396D01*
X-201055Y5466D01*
X-201115Y5538D01*
X-201172Y5613D01*
X-201227Y5690D01*
X-201277Y5770D01*
X-201325Y5851D01*
X-201369Y5935D01*
X-201409Y6020D01*
X-201446Y6107D01*
X-201479Y6195D01*
X-201508Y6285D01*
X-201534Y6375D01*
X-201555Y6467D01*
X-201573Y6560D01*
X-201587Y6653D01*
X-201597Y6747D01*
X-201603Y6841D01*
X-201605Y6935D01*
D17*
X-189172Y257894D03*
D18*
X-191072Y252854D02*
X-191072Y222354D01*
X-222088Y222354D02*
X-222088Y252854D01*
D12*
X-187787Y221952D02*
X-185076Y221952D01*
X-183720Y223307D01*
X-185076Y224663D01*
X-187787Y224663D01*
X-187787Y226629D02*
X-183720Y226629D01*
X-187787Y226629D02*
X-187787Y228663D01*
X-187110Y229341D01*
X-185754Y229341D01*
X-185076Y228663D01*
X-185076Y226629D01*
X-185076Y227985D02*
X-183720Y229341D01*
X-186432Y231307D02*
X-187787Y232663D01*
X-183720Y232663D01*
X-183720Y234018D02*
X-183720Y231307D01*
D24*
X-187452Y209296D03*
D12*
X-190754Y202788D02*
X-194821Y202788D01*
X-194821Y204821D01*
X-194144Y205499D01*
X-192788Y205499D01*
X-192110Y204821D01*
X-192110Y202788D01*
X-192110Y204143D02*
X-190754Y205499D01*
X-190754Y207465D02*
X-190754Y210177D01*
X-190754Y207465D02*
X-193466Y210177D01*
X-194144Y210177D01*
X-194821Y209499D01*
X-194821Y208143D01*
X-194144Y207465D01*
X-194144Y212143D02*
X-194821Y212821D01*
X-194821Y214177D01*
X-194144Y214854D01*
X-193466Y214854D01*
X-192788Y214177D01*
X-192110Y214854D01*
X-191432Y214854D01*
X-190754Y214177D01*
X-190754Y212821D01*
X-191432Y212143D01*
X-192110Y212143D01*
X-192788Y212821D01*
X-193466Y212143D01*
X-194144Y212143D01*
X-192788Y212821D02*
X-192788Y214177D01*
D24*
X-226568Y263652D03*
D12*
X-233076Y260353D02*
X-233076Y256286D01*
X-233076Y260353D02*
X-231043Y260353D01*
X-230365Y259676D01*
X-230365Y258320D01*
X-231043Y257642D01*
X-233076Y257642D01*
X-231721Y257642D02*
X-230365Y256286D01*
X-228399Y256286D02*
X-225687Y256286D01*
X-228399Y256286D02*
X-225687Y258998D01*
X-225687Y259676D01*
X-226365Y260353D01*
X-227721Y260353D01*
X-228399Y259676D01*
X-223721Y256964D02*
X-223043Y256286D01*
X-221688Y256286D01*
X-221010Y256964D01*
X-221010Y259676D01*
X-221688Y260353D01*
X-223043Y260353D01*
X-223721Y259676D01*
X-223721Y258998D01*
X-223043Y258320D01*
X-221010Y258320D01*
D24*
X-198628Y209296D03*
D12*
X-201930Y202788D02*
X-205997Y202788D01*
X-205997Y204821D01*
X-205320Y205499D01*
X-203964Y205499D01*
X-203286Y204821D01*
X-203286Y202788D01*
X-203286Y204143D02*
X-201930Y205499D01*
X-201930Y207465D02*
X-201930Y210177D01*
X-201930Y207465D02*
X-204642Y210177D01*
X-205320Y210177D01*
X-205997Y209499D01*
X-205997Y208143D01*
X-205320Y207465D01*
X-205320Y213499D02*
X-205997Y214854D01*
X-205320Y213499D02*
X-203964Y212143D01*
X-202608Y212143D01*
X-201930Y212821D01*
X-201930Y214177D01*
X-202608Y214854D01*
X-203286Y214854D01*
X-203964Y214177D01*
X-203964Y212143D01*
D24*
X-214884Y273304D03*
D12*
X-211585Y266796D02*
X-207518Y266796D01*
X-211585Y266796D02*
X-211585Y268829D01*
X-210908Y269507D01*
X-209552Y269507D01*
X-208874Y268829D01*
X-208874Y266796D01*
X-208874Y268151D02*
X-207518Y269507D01*
X-207518Y271473D02*
X-207518Y274185D01*
X-207518Y271473D02*
X-210230Y274185D01*
X-210908Y274185D01*
X-211585Y273507D01*
X-211585Y272151D01*
X-210908Y271473D01*
X-211585Y276151D02*
X-211585Y278862D01*
X-210908Y278862D01*
X-208196Y276151D01*
X-207518Y276151D01*
D10*
X-201452Y292400D02*
X-201452Y294400D01*
X-201452Y292400D02*
X-202452Y291400D01*
X-202452Y267400D01*
X-201452Y266400D01*
X-201452Y264400D01*
X-173452Y264400D01*
X-173452Y266400D01*
X-172452Y267400D01*
X-172452Y291400D01*
X-173452Y292400D01*
X-173452Y294400D01*
X-201452Y294400D01*
D12*
X-191622Y297688D02*
X-191622Y301755D01*
X-191622Y297688D02*
X-188910Y297688D01*
X-186944Y300400D02*
X-185588Y301755D01*
X-185588Y297688D01*
X-186944Y297688D02*
X-184232Y297688D01*
D10*
X-240060Y209056D02*
X-240060Y207056D01*
X-241060Y206056D01*
X-241060Y182056D01*
X-240060Y181056D01*
X-240060Y179056D01*
X-212060Y179056D01*
X-212060Y181056D01*
X-211060Y182056D01*
X-211060Y206056D01*
X-212060Y207056D01*
X-212060Y209056D01*
X-240060Y209056D01*
D12*
X-230230Y212344D02*
X-230230Y216411D01*
X-230230Y212344D02*
X-227518Y212344D01*
X-225552Y212344D02*
X-222840Y212344D01*
X-225552Y212344D02*
X-222840Y215056D01*
X-222840Y215734D01*
X-223518Y216411D01*
X-224874Y216411D01*
X-225552Y215734D01*
D23*
X-179000Y209296D02*
X-176500Y209296D01*
D12*
X-183730Y207838D02*
X-184407Y207160D01*
X-184407Y205804D01*
X-183730Y205126D01*
X-181018Y205126D01*
X-180340Y205804D01*
X-180340Y207160D01*
X-181018Y207838D01*
X-184407Y209804D02*
X-184407Y212516D01*
X-183730Y212516D01*
X-181018Y209804D01*
X-180340Y209804D01*
D23*
X-226568Y272104D02*
X-226568Y274604D01*
D12*
X-228704Y270767D02*
X-228026Y270090D01*
X-228704Y270767D02*
X-230060Y270767D01*
X-230738Y270090D01*
X-230738Y267378D01*
X-230060Y266700D01*
X-228704Y266700D01*
X-228026Y267378D01*
X-226060Y270090D02*
X-225382Y270767D01*
X-224026Y270767D01*
X-223348Y270090D01*
X-223348Y269412D01*
X-224026Y268734D01*
X-223348Y268056D01*
X-223348Y267378D01*
X-224026Y266700D01*
X-225382Y266700D01*
X-226060Y267378D01*
X-226060Y268056D01*
X-225382Y268734D01*
X-226060Y269412D01*
X-226060Y270090D01*
X-225382Y268734D02*
X-224026Y268734D01*
D11*
X321136Y67944D02*
X321136Y51944D01*
X321136Y67944D02*
X331136Y67944D01*
X331136Y51944D01*
X321136Y51944D01*
X324865Y47244D02*
X324867Y47315D01*
X324873Y47385D01*
X324883Y47455D01*
X324896Y47524D01*
X324914Y47593D01*
X324935Y47660D01*
X324960Y47726D01*
X324989Y47791D01*
X325021Y47854D01*
X325056Y47915D01*
X325095Y47974D01*
X325138Y48031D01*
X325183Y48085D01*
X325231Y48136D01*
X325282Y48185D01*
X325336Y48231D01*
X325392Y48274D01*
X325450Y48314D01*
X325511Y48351D01*
X325573Y48384D01*
X325637Y48413D01*
X325703Y48439D01*
X325770Y48461D01*
X325838Y48480D01*
X325908Y48494D01*
X325977Y48505D01*
X326048Y48512D01*
X326118Y48515D01*
X326189Y48514D01*
X326259Y48509D01*
X326330Y48500D01*
X326399Y48487D01*
X326468Y48471D01*
X326535Y48451D01*
X326602Y48427D01*
X326667Y48399D01*
X326730Y48368D01*
X326792Y48333D01*
X326851Y48295D01*
X326909Y48253D01*
X326963Y48209D01*
X327016Y48161D01*
X327065Y48111D01*
X327112Y48058D01*
X327156Y48002D01*
X327196Y47945D01*
X327234Y47885D01*
X327268Y47823D01*
X327298Y47759D01*
X327325Y47693D01*
X327348Y47627D01*
X327367Y47559D01*
X327383Y47490D01*
X327395Y47420D01*
X327403Y47350D01*
X327407Y47279D01*
X327407Y47209D01*
X327403Y47138D01*
X327395Y47068D01*
X327383Y46998D01*
X327367Y46929D01*
X327348Y46861D01*
X327325Y46795D01*
X327298Y46729D01*
X327268Y46665D01*
X327234Y46603D01*
X327196Y46543D01*
X327156Y46486D01*
X327112Y46430D01*
X327065Y46377D01*
X327016Y46327D01*
X326963Y46279D01*
X326909Y46235D01*
X326851Y46193D01*
X326792Y46155D01*
X326730Y46120D01*
X326667Y46089D01*
X326602Y46061D01*
X326535Y46037D01*
X326468Y46017D01*
X326399Y46001D01*
X326330Y45988D01*
X326259Y45979D01*
X326189Y45974D01*
X326118Y45973D01*
X326048Y45976D01*
X325977Y45983D01*
X325908Y45994D01*
X325838Y46008D01*
X325770Y46027D01*
X325703Y46049D01*
X325637Y46075D01*
X325573Y46104D01*
X325511Y46137D01*
X325450Y46174D01*
X325392Y46214D01*
X325336Y46257D01*
X325282Y46303D01*
X325231Y46352D01*
X325183Y46403D01*
X325138Y46457D01*
X325095Y46514D01*
X325056Y46573D01*
X325021Y46634D01*
X324989Y46697D01*
X324960Y46762D01*
X324935Y46828D01*
X324914Y46895D01*
X324896Y46964D01*
X324883Y47033D01*
X324873Y47103D01*
X324867Y47173D01*
X324865Y47244D01*
D12*
X319532Y58486D02*
X315465Y55774D01*
X315465Y58486D02*
X319532Y55774D01*
X319532Y60452D02*
X319532Y63164D01*
X319532Y60452D02*
X316820Y63164D01*
X316142Y63164D01*
X315465Y62486D01*
X315465Y61130D01*
X316142Y60452D01*
D23*
X326136Y75916D02*
X326136Y78416D01*
D12*
X324678Y83146D02*
X324000Y83823D01*
X322644Y83823D01*
X321966Y83146D01*
X321966Y80434D01*
X322644Y79756D01*
X324000Y79756D01*
X324678Y80434D01*
X326644Y83823D02*
X329356Y83823D01*
X326644Y83823D02*
X326644Y81790D01*
X328000Y82468D01*
X328678Y82468D01*
X329356Y81790D01*
X329356Y80434D01*
X328678Y79756D01*
X327322Y79756D01*
X326644Y80434D01*
D23*
X326136Y43972D02*
X326136Y41472D01*
D12*
X316904Y44262D02*
X316227Y43584D01*
X316227Y42228D01*
X316904Y41550D01*
X319616Y41550D01*
X320294Y42228D01*
X320294Y43584D01*
X319616Y44262D01*
X316904Y47584D02*
X316227Y48940D01*
X316904Y47584D02*
X318260Y46228D01*
X319616Y46228D01*
X320294Y46906D01*
X320294Y48262D01*
X319616Y48940D01*
X318938Y48940D01*
X318260Y48262D01*
X318260Y46228D01*
D11*
X320636Y288308D02*
X331636Y288308D01*
X331636Y296908D02*
X320636Y296908D01*
D25*
X318003Y288311D02*
X315122Y288311D01*
X314401Y289032D01*
X314401Y290472D01*
X315122Y291193D01*
X318003Y291193D01*
X318723Y290472D01*
X318723Y289032D01*
X318003Y288311D01*
X317282Y289752D02*
X318723Y291193D01*
X318723Y292989D02*
X318723Y295870D01*
X318723Y292989D02*
X315842Y295870D01*
X315122Y295870D01*
X314401Y295150D01*
X314401Y293709D01*
X315122Y292989D01*
D15*
X236728Y276352D03*
D12*
X230220Y280670D02*
X230220Y284737D01*
X232253Y284737D01*
X232931Y284060D01*
X232931Y282704D01*
X232253Y282026D01*
X230220Y282026D01*
X231575Y282026D02*
X232931Y280670D01*
X234897Y280670D02*
X237609Y280670D01*
X234897Y280670D02*
X237609Y283382D01*
X237609Y284060D01*
X236931Y284737D01*
X235575Y284737D01*
X234897Y284060D01*
X239575Y284737D02*
X242286Y284737D01*
X239575Y284737D02*
X239575Y282704D01*
X240931Y283382D01*
X241609Y283382D01*
X242286Y282704D01*
X242286Y281348D01*
X241609Y280670D01*
X240253Y280670D01*
X239575Y281348D01*
D16*
X-138176Y135128D03*
D12*
X-140465Y145893D02*
X-139788Y146571D01*
X-140465Y145893D02*
X-140465Y144538D01*
X-139788Y143860D01*
X-137076Y143860D01*
X-136398Y144538D01*
X-136398Y145893D01*
X-137076Y146571D01*
X-136398Y148537D02*
X-136398Y151249D01*
X-136398Y148537D02*
X-139110Y151249D01*
X-139788Y151249D01*
X-140465Y150571D01*
X-140465Y149215D01*
X-139788Y148537D01*
X-139788Y153215D02*
X-140465Y153893D01*
X-140465Y155249D01*
X-139788Y155926D01*
X-139110Y155926D01*
X-138432Y155249D01*
X-138432Y154571D01*
X-138432Y155249D02*
X-137754Y155926D01*
X-137076Y155926D01*
X-136398Y155249D01*
X-136398Y153893D01*
X-137076Y153215D01*
D16*
X17272Y91440D03*
D12*
X21502Y87643D02*
X20825Y86965D01*
X20825Y85610D01*
X21502Y84932D01*
X24214Y84932D01*
X24892Y85610D01*
X24892Y86965D01*
X24214Y87643D01*
X21502Y89609D02*
X20825Y90287D01*
X20825Y91643D01*
X21502Y92321D01*
X22180Y92321D01*
X22858Y91643D01*
X22858Y90965D01*
X22858Y91643D02*
X23536Y92321D01*
X24214Y92321D01*
X24892Y91643D01*
X24892Y90287D01*
X24214Y89609D01*
X24892Y96321D02*
X20825Y96321D01*
X22858Y94287D01*
X22858Y96998D01*
D16*
X-83312Y237744D03*
D12*
X-87787Y233429D02*
X-87109Y232752D01*
X-87787Y233429D02*
X-89143Y233429D01*
X-89820Y232752D01*
X-89820Y230040D01*
X-89143Y229362D01*
X-87787Y229362D01*
X-87109Y230040D01*
X-85143Y232752D02*
X-84465Y233429D01*
X-83109Y233429D01*
X-82431Y232752D01*
X-82431Y232074D01*
X-83109Y231396D01*
X-83787Y231396D01*
X-83109Y231396D02*
X-82431Y230718D01*
X-82431Y230040D01*
X-83109Y229362D01*
X-84465Y229362D01*
X-85143Y230040D01*
X-80465Y232752D02*
X-79787Y233429D01*
X-78432Y233429D01*
X-77754Y232752D01*
X-77754Y232074D01*
X-78432Y231396D01*
X-79109Y231396D01*
X-78432Y231396D02*
X-77754Y230718D01*
X-77754Y230040D01*
X-78432Y229362D01*
X-79787Y229362D01*
X-80465Y230040D01*
D16*
X-94488Y217424D03*
D12*
X-90173Y212949D02*
X-89496Y213627D01*
X-90173Y212949D02*
X-90173Y211594D01*
X-89496Y210916D01*
X-86784Y210916D01*
X-86106Y211594D01*
X-86106Y212949D01*
X-86784Y213627D01*
X-86106Y215593D02*
X-86106Y218305D01*
X-86106Y215593D02*
X-88818Y218305D01*
X-89496Y218305D01*
X-90173Y217627D01*
X-90173Y216271D01*
X-89496Y215593D01*
X-90173Y220271D02*
X-90173Y222982D01*
X-90173Y220271D02*
X-88140Y220271D01*
X-88818Y221627D01*
X-88818Y222305D01*
X-88140Y222982D01*
X-86784Y222982D01*
X-86106Y222305D01*
X-86106Y220949D01*
X-86784Y220271D01*
D10*
X-263817Y73864D02*
X-274816Y67514D01*
X-263817Y73864D02*
X-255143Y71539D01*
X-248793Y60541D01*
X-251117Y51866D01*
X-270790Y47841D02*
X-277140Y58839D01*
X-274816Y67514D01*
X-270790Y47841D02*
X-262116Y45516D01*
X-251117Y51866D01*
X-255143Y71539D02*
X-252819Y80214D01*
X-241820Y86564D01*
X-233146Y84239D01*
X-226796Y73241D01*
X-229120Y64566D01*
X-240119Y58216D01*
X-248793Y60541D01*
D16*
X305816Y84328D03*
D12*
X302019Y91274D02*
X301341Y91951D01*
X299986Y91951D01*
X299308Y91274D01*
X299308Y88562D01*
X299986Y87884D01*
X301341Y87884D01*
X302019Y88562D01*
X303985Y91274D02*
X304663Y91951D01*
X306019Y91951D01*
X306697Y91274D01*
X306697Y90596D01*
X306019Y89918D01*
X305341Y89918D01*
X306019Y89918D02*
X306697Y89240D01*
X306697Y88562D01*
X306019Y87884D01*
X304663Y87884D01*
X303985Y88562D01*
X308663Y90596D02*
X310019Y91951D01*
X310019Y87884D01*
X311374Y87884D02*
X308663Y87884D01*
D16*
X284480Y84328D03*
D12*
X280683Y91528D02*
X280005Y92205D01*
X278650Y92205D01*
X277972Y91528D01*
X277972Y88816D01*
X278650Y88138D01*
X280005Y88138D01*
X280683Y88816D01*
X282649Y91528D02*
X283327Y92205D01*
X284683Y92205D01*
X285361Y91528D01*
X285361Y90850D01*
X284683Y90172D01*
X284005Y90172D01*
X284683Y90172D02*
X285361Y89494D01*
X285361Y88816D01*
X284683Y88138D01*
X283327Y88138D01*
X282649Y88816D01*
X287327Y88138D02*
X290038Y88138D01*
X287327Y88138D02*
X290038Y90850D01*
X290038Y91528D01*
X289361Y92205D01*
X288005Y92205D01*
X287327Y91528D01*
D16*
X125672Y111420D03*
D12*
X121197Y107105D02*
X121875Y106428D01*
X121197Y107105D02*
X119841Y107105D01*
X119163Y106428D01*
X119163Y103716D01*
X119841Y103038D01*
X121197Y103038D01*
X121875Y103716D01*
X123841Y106428D02*
X124519Y107105D01*
X125875Y107105D01*
X126552Y106428D01*
X126552Y105750D01*
X125875Y105072D01*
X125197Y105072D01*
X125875Y105072D02*
X126552Y104394D01*
X126552Y103716D01*
X125875Y103038D01*
X124519Y103038D01*
X123841Y103716D01*
X128518Y107105D02*
X131230Y107105D01*
X128518Y107105D02*
X128518Y105072D01*
X129874Y105750D01*
X130552Y105750D01*
X131230Y105072D01*
X131230Y103716D01*
X130552Y103038D01*
X129196Y103038D01*
X128518Y103716D01*
D15*
X-166116Y220472D03*
D12*
X-170434Y213964D02*
X-174501Y213964D01*
X-174501Y215997D01*
X-173824Y216675D01*
X-172468Y216675D01*
X-171790Y215997D01*
X-171790Y213964D01*
X-171790Y215319D02*
X-170434Y216675D01*
X-173824Y218641D02*
X-174501Y219319D01*
X-174501Y220675D01*
X-173824Y221353D01*
X-173146Y221353D01*
X-172468Y220675D01*
X-172468Y219997D01*
X-172468Y220675D02*
X-171790Y221353D01*
X-171112Y221353D01*
X-170434Y220675D01*
X-170434Y219319D01*
X-171112Y218641D01*
X-173824Y223319D02*
X-174501Y223997D01*
X-174501Y225353D01*
X-173824Y226030D01*
X-173146Y226030D01*
X-172468Y225353D01*
X-172468Y224675D01*
X-172468Y225353D02*
X-171790Y226030D01*
X-171112Y226030D01*
X-170434Y225353D01*
X-170434Y223997D01*
X-171112Y223319D01*
D15*
X-220472Y289560D03*
D12*
X-226060Y294386D02*
X-226060Y298453D01*
X-224026Y298453D01*
X-223348Y297776D01*
X-223348Y296420D01*
X-224026Y295742D01*
X-226060Y295742D01*
X-224704Y295742D02*
X-223348Y294386D01*
X-221382Y297776D02*
X-220705Y298453D01*
X-219349Y298453D01*
X-218671Y297776D01*
X-218671Y297098D01*
X-219349Y296420D01*
X-220027Y296420D01*
X-219349Y296420D02*
X-218671Y295742D01*
X-218671Y295064D01*
X-219349Y294386D01*
X-220705Y294386D01*
X-221382Y295064D01*
X-214671Y294386D02*
X-214671Y298453D01*
X-216705Y296420D01*
X-213993Y296420D01*
D16*
X15240Y121920D03*
D12*
X19809Y117445D02*
X20486Y118123D01*
X19809Y117445D02*
X19809Y116090D01*
X20486Y115412D01*
X23198Y115412D01*
X23876Y116090D01*
X23876Y117445D01*
X23198Y118123D01*
X23876Y120089D02*
X23876Y122801D01*
X23876Y120089D02*
X21164Y122801D01*
X20486Y122801D01*
X19809Y122123D01*
X19809Y120767D01*
X20486Y120089D01*
X19809Y124767D02*
X19809Y127478D01*
X20486Y127478D01*
X23198Y124767D01*
X23876Y124767D01*
D15*
X261112Y276352D03*
D12*
X245004Y277879D02*
X245004Y273812D01*
X245004Y277879D02*
X247038Y277879D01*
X247716Y277202D01*
X247716Y275846D01*
X247038Y275168D01*
X245004Y275168D01*
X246360Y275168D02*
X247716Y273812D01*
X249682Y277879D02*
X252394Y277879D01*
X249682Y277879D02*
X249682Y275846D01*
X251038Y276524D01*
X251716Y276524D01*
X252394Y275846D01*
X252394Y274490D01*
X251716Y273812D01*
X250360Y273812D01*
X249682Y274490D01*
D15*
X261112Y265176D03*
D12*
X245766Y264163D02*
X245766Y260096D01*
X245766Y264163D02*
X247800Y264163D01*
X248478Y263486D01*
X248478Y262130D01*
X247800Y261452D01*
X245766Y261452D01*
X247122Y261452D02*
X248478Y260096D01*
X250444Y260096D02*
X253156Y260096D01*
X250444Y260096D02*
X253156Y262808D01*
X253156Y263486D01*
X252478Y264163D01*
X251122Y264163D01*
X250444Y263486D01*
D15*
X261112Y298704D03*
D12*
X244750Y300231D02*
X244750Y296164D01*
X244750Y300231D02*
X246784Y300231D01*
X247462Y299554D01*
X247462Y298198D01*
X246784Y297520D01*
X244750Y297520D01*
X246106Y297520D02*
X247462Y296164D01*
X251462Y296164D02*
X251462Y300231D01*
X249428Y298198D01*
X252140Y298198D01*
D15*
X261112Y287528D03*
D12*
X244750Y289055D02*
X244750Y284988D01*
X244750Y289055D02*
X246784Y289055D01*
X247462Y288378D01*
X247462Y287022D01*
X246784Y286344D01*
X244750Y286344D01*
X246106Y286344D02*
X247462Y284988D01*
X249428Y288378D02*
X250106Y289055D01*
X251462Y289055D01*
X252140Y288378D01*
X252140Y287700D01*
X251462Y287022D01*
X250784Y287022D01*
X251462Y287022D02*
X252140Y286344D01*
X252140Y285666D01*
X251462Y284988D01*
X250106Y284988D01*
X249428Y285666D01*
D11*
X285624Y277240D02*
X301624Y277240D01*
X301624Y261240D02*
X285624Y261240D01*
X285624Y267240D02*
X285624Y271240D01*
X301624Y271240D02*
X301624Y267240D01*
D26*
X297624Y274240D02*
X294624Y274240D01*
X294624Y275240D01*
X292624Y274240D01*
X294624Y273240D01*
X294624Y274240D01*
X292624Y274240D02*
X292624Y275240D01*
X292624Y274240D02*
X292624Y273240D01*
X292624Y274240D02*
X289624Y274240D01*
X294624Y264240D02*
X297624Y264240D01*
X294624Y264240D02*
X294624Y265240D01*
X292624Y264240D01*
X294624Y263240D01*
X294624Y264240D01*
X292624Y264240D02*
X292624Y265240D01*
X292624Y264240D02*
X292624Y263240D01*
X292624Y264240D02*
X289624Y264240D01*
D12*
X280924Y264135D02*
X275840Y264135D01*
X280924Y264135D02*
X280924Y266677D01*
X280077Y267524D01*
X276687Y267524D01*
X275840Y266677D01*
X275840Y264135D01*
X277534Y269748D02*
X275840Y271443D01*
X280924Y271443D01*
X280924Y269748D02*
X280924Y273138D01*
D11*
X285624Y301624D02*
X301624Y301624D01*
X301624Y285624D02*
X285624Y285624D01*
X285624Y291624D02*
X285624Y295624D01*
X301624Y295624D02*
X301624Y291624D01*
D26*
X297624Y298624D02*
X294624Y298624D01*
X294624Y299624D01*
X292624Y298624D01*
X294624Y297624D01*
X294624Y298624D01*
X292624Y298624D02*
X292624Y299624D01*
X292624Y298624D02*
X292624Y297624D01*
X292624Y298624D02*
X289624Y298624D01*
X294624Y288624D02*
X297624Y288624D01*
X294624Y288624D02*
X294624Y289624D01*
X292624Y288624D01*
X294624Y287624D01*
X294624Y288624D01*
X292624Y288624D02*
X292624Y289624D01*
X292624Y288624D02*
X292624Y287624D01*
X292624Y288624D02*
X289624Y288624D01*
D12*
X280924Y288519D02*
X275840Y288519D01*
X280924Y288519D02*
X280924Y291061D01*
X280077Y291908D01*
X276687Y291908D01*
X275840Y291061D01*
X275840Y288519D01*
X280924Y294132D02*
X280924Y297522D01*
X280924Y294132D02*
X277534Y297522D01*
X276687Y297522D01*
X275840Y296674D01*
X275840Y294979D01*
X276687Y294132D01*
D10*
X-121666Y272796D02*
X-134366Y272796D01*
X-140716Y279146D01*
X-140716Y291846D01*
X-134366Y298196D01*
X-115316Y291846D02*
X-115316Y279146D01*
X-121666Y272796D01*
X-115316Y291846D02*
X-121666Y298196D01*
X-134366Y298196D01*
D12*
X-132186Y266870D02*
X-131508Y266192D01*
X-130830Y266192D01*
X-130152Y266870D01*
X-130152Y270259D01*
X-130830Y270259D02*
X-129474Y270259D01*
X-127508Y270259D02*
X-124796Y270259D01*
X-127508Y270259D02*
X-127508Y268226D01*
X-126152Y268904D01*
X-125474Y268904D01*
X-124796Y268226D01*
X-124796Y266870D01*
X-125474Y266192D01*
X-126830Y266192D01*
X-127508Y266870D01*
D10*
X-239522Y175260D02*
X-252222Y175260D01*
X-239522Y175260D02*
X-233172Y168910D01*
X-233172Y156210D01*
X-239522Y149860D01*
X-258572Y156210D02*
X-258572Y168910D01*
X-252222Y175260D01*
X-258572Y156210D02*
X-252222Y149860D01*
X-239522Y149860D01*
D12*
X-245321Y144442D02*
X-244643Y143764D01*
X-243965Y143764D01*
X-243287Y144442D01*
X-243287Y147831D01*
X-242610Y147831D02*
X-243965Y147831D01*
X-239288Y147154D02*
X-237932Y147831D01*
X-239288Y147154D02*
X-240644Y145798D01*
X-240644Y144442D01*
X-239966Y143764D01*
X-238610Y143764D01*
X-237932Y144442D01*
X-237932Y145120D01*
X-238610Y145798D01*
X-240644Y145798D01*
D10*
X-137131Y30426D02*
X-137129Y30511D01*
X-137123Y30595D01*
X-137113Y30679D01*
X-137099Y30762D01*
X-137082Y30845D01*
X-137060Y30927D01*
X-137035Y31007D01*
X-137006Y31087D01*
X-136973Y31164D01*
X-136936Y31241D01*
X-136896Y31315D01*
X-136853Y31388D01*
X-136806Y31458D01*
X-136756Y31526D01*
X-136703Y31592D01*
X-136647Y31655D01*
X-136588Y31716D01*
X-136526Y31773D01*
X-136462Y31828D01*
X-136395Y31880D01*
X-136325Y31928D01*
X-136254Y31973D01*
X-136180Y32015D01*
X-136105Y32053D01*
X-136028Y32088D01*
X-135949Y32119D01*
X-135869Y32146D01*
X-135788Y32169D01*
X-135706Y32189D01*
X-135623Y32205D01*
X-135539Y32217D01*
X-135455Y32225D01*
X-135370Y32229D01*
X-135286Y32229D01*
X-135201Y32225D01*
X-135117Y32217D01*
X-135033Y32205D01*
X-134950Y32189D01*
X-134868Y32169D01*
X-134787Y32146D01*
X-134707Y32119D01*
X-134628Y32088D01*
X-134551Y32053D01*
X-134476Y32015D01*
X-134402Y31973D01*
X-134331Y31928D01*
X-134261Y31880D01*
X-134194Y31828D01*
X-134130Y31773D01*
X-134068Y31716D01*
X-134009Y31655D01*
X-133953Y31592D01*
X-133900Y31526D01*
X-133850Y31458D01*
X-133803Y31388D01*
X-133760Y31315D01*
X-133720Y31241D01*
X-133683Y31164D01*
X-133650Y31087D01*
X-133621Y31007D01*
X-133596Y30927D01*
X-133574Y30845D01*
X-133557Y30762D01*
X-133543Y30679D01*
X-133533Y30595D01*
X-133527Y30511D01*
X-133525Y30426D01*
X-133527Y30341D01*
X-133533Y30257D01*
X-133543Y30173D01*
X-133557Y30090D01*
X-133574Y30007D01*
X-133596Y29925D01*
X-133621Y29845D01*
X-133650Y29765D01*
X-133683Y29688D01*
X-133720Y29611D01*
X-133760Y29537D01*
X-133803Y29464D01*
X-133850Y29394D01*
X-133900Y29326D01*
X-133953Y29260D01*
X-134009Y29197D01*
X-134068Y29136D01*
X-134130Y29079D01*
X-134194Y29024D01*
X-134261Y28972D01*
X-134331Y28924D01*
X-134402Y28879D01*
X-134476Y28837D01*
X-134551Y28799D01*
X-134628Y28764D01*
X-134707Y28733D01*
X-134787Y28706D01*
X-134868Y28683D01*
X-134950Y28663D01*
X-135033Y28647D01*
X-135117Y28635D01*
X-135201Y28627D01*
X-135286Y28623D01*
X-135370Y28623D01*
X-135455Y28627D01*
X-135539Y28635D01*
X-135623Y28647D01*
X-135706Y28663D01*
X-135788Y28683D01*
X-135869Y28706D01*
X-135949Y28733D01*
X-136028Y28764D01*
X-136105Y28799D01*
X-136180Y28837D01*
X-136254Y28879D01*
X-136325Y28924D01*
X-136395Y28972D01*
X-136462Y29024D01*
X-136526Y29079D01*
X-136588Y29136D01*
X-136647Y29197D01*
X-136703Y29260D01*
X-136756Y29326D01*
X-136806Y29394D01*
X-136853Y29464D01*
X-136896Y29537D01*
X-136936Y29611D01*
X-136973Y29688D01*
X-137006Y29765D01*
X-137035Y29845D01*
X-137060Y29925D01*
X-137082Y30007D01*
X-137099Y30090D01*
X-137113Y30173D01*
X-137123Y30257D01*
X-137129Y30341D01*
X-137131Y30426D01*
D12*
X-149544Y28875D02*
X-150391Y29722D01*
X-152086Y29722D01*
X-152933Y28875D01*
X-152933Y28028D01*
X-152086Y27180D01*
X-150391Y27180D01*
X-149544Y26333D01*
X-149544Y25485D01*
X-150391Y24638D01*
X-152086Y24638D01*
X-152933Y25485D01*
X-144778Y24638D02*
X-144778Y29722D01*
X-147320Y27180D01*
X-143930Y27180D01*
D20*
X-65024Y224536D03*
D12*
X-58931Y218028D02*
X-54864Y218028D01*
X-58931Y218028D02*
X-58931Y220061D01*
X-58254Y220739D01*
X-56898Y220739D01*
X-56220Y220061D01*
X-56220Y218028D01*
X-56220Y219383D02*
X-54864Y220739D01*
X-58931Y222705D02*
X-58931Y225417D01*
X-58254Y225417D01*
X-55542Y222705D01*
X-54864Y222705D01*
X-54864Y225417D01*
X-57576Y227383D02*
X-58931Y228739D01*
X-54864Y228739D01*
X-54864Y230094D02*
X-54864Y227383D01*
D21*
X-74168Y203200D03*
D12*
X-80676Y197107D02*
X-80676Y193040D01*
X-80676Y197107D02*
X-78643Y197107D01*
X-77965Y196430D01*
X-77965Y195074D01*
X-78643Y194396D01*
X-80676Y194396D01*
X-79321Y194396D02*
X-77965Y193040D01*
X-75999Y197107D02*
X-73287Y197107D01*
X-73287Y196430D01*
X-75999Y193718D01*
X-75999Y193040D01*
X-73287Y193040D01*
X-71321Y193040D02*
X-68610Y193040D01*
X-71321Y193040D02*
X-68610Y195752D01*
X-68610Y196430D01*
X-69288Y197107D01*
X-70643Y197107D01*
X-71321Y196430D01*
D16*
X255016Y69088D03*
D12*
X259331Y64613D02*
X260008Y65291D01*
X259331Y64613D02*
X259331Y63258D01*
X260008Y62580D01*
X262720Y62580D01*
X263398Y63258D01*
X263398Y64613D01*
X262720Y65291D01*
X260008Y67257D02*
X259331Y67935D01*
X259331Y69291D01*
X260008Y69969D01*
X260686Y69969D01*
X261364Y69291D01*
X261364Y68613D01*
X261364Y69291D02*
X262042Y69969D01*
X262720Y69969D01*
X263398Y69291D01*
X263398Y67935D01*
X262720Y67257D01*
X260008Y73291D02*
X259331Y74646D01*
X260008Y73291D02*
X261364Y71935D01*
X262720Y71935D01*
X263398Y72613D01*
X263398Y73969D01*
X262720Y74646D01*
X262042Y74646D01*
X261364Y73969D01*
X261364Y71935D01*
D16*
X329184Y269240D03*
D12*
X321476Y265443D02*
X320799Y264765D01*
X320799Y263410D01*
X321476Y262732D01*
X324188Y262732D01*
X324866Y263410D01*
X324866Y264765D01*
X324188Y265443D01*
X324866Y269443D02*
X320799Y269443D01*
X322832Y267409D01*
X322832Y270121D01*
X320799Y274121D02*
X324866Y274121D01*
X322832Y272087D02*
X320799Y274121D01*
X322832Y274798D02*
X322832Y272087D01*
D21*
X-123952Y254000D03*
D12*
X-138518Y252235D02*
X-139195Y251557D01*
X-139195Y250202D01*
X-138518Y249524D01*
X-135806Y249524D01*
X-135128Y250202D01*
X-135128Y251557D01*
X-135806Y252235D01*
X-135128Y256235D02*
X-139195Y256235D01*
X-137162Y254201D01*
X-137162Y256913D01*
X-135806Y258879D02*
X-135128Y259557D01*
X-135128Y260913D01*
X-135806Y261590D01*
X-138518Y261590D01*
X-139195Y260913D01*
X-139195Y259557D01*
X-138518Y258879D01*
X-137840Y258879D01*
X-137162Y259557D01*
X-137162Y261590D01*
D20*
X-140208Y215392D03*
X-258064Y193040D03*
D12*
X-269582Y189243D02*
X-270259Y188565D01*
X-270259Y187210D01*
X-269582Y186532D01*
X-266870Y186532D01*
X-266192Y187210D01*
X-266192Y188565D01*
X-266870Y189243D01*
X-266192Y193243D02*
X-270259Y193243D01*
X-268226Y191209D01*
X-268226Y193921D01*
X-269582Y197243D02*
X-270259Y198598D01*
X-269582Y197243D02*
X-268226Y195887D01*
X-266870Y195887D01*
X-266192Y196565D01*
X-266192Y197921D01*
X-266870Y198598D01*
X-267548Y198598D01*
X-268226Y197921D01*
X-268226Y195887D01*
D21*
X-158496Y255016D03*
D12*
X-147323Y250541D02*
X-146646Y251219D01*
X-147323Y250541D02*
X-147323Y249186D01*
X-146646Y248508D01*
X-143934Y248508D01*
X-143256Y249186D01*
X-143256Y250541D01*
X-143934Y251219D01*
X-143256Y255219D02*
X-147323Y255219D01*
X-145290Y253185D01*
X-145290Y255897D01*
X-147323Y257863D02*
X-147323Y260574D01*
X-147323Y257863D02*
X-145290Y257863D01*
X-145968Y259219D01*
X-145968Y259897D01*
X-145290Y260574D01*
X-143934Y260574D01*
X-143256Y259897D01*
X-143256Y258541D01*
X-143934Y257863D01*
D20*
X-153416Y282448D03*
D12*
X-164934Y278651D02*
X-165611Y277973D01*
X-165611Y276618D01*
X-164934Y275940D01*
X-162222Y275940D01*
X-161544Y276618D01*
X-161544Y277973D01*
X-162222Y278651D01*
X-161544Y282651D02*
X-165611Y282651D01*
X-163578Y280617D01*
X-163578Y283329D01*
X-165611Y285295D02*
X-165611Y288006D01*
X-164934Y288006D01*
X-162222Y285295D01*
X-161544Y285295D01*
D21*
X-241808Y227584D03*
D12*
X-246283Y219459D02*
X-245605Y218782D01*
X-246283Y219459D02*
X-247639Y219459D01*
X-248316Y218782D01*
X-248316Y216070D01*
X-247639Y215392D01*
X-246283Y215392D01*
X-245605Y216070D01*
X-241605Y215392D02*
X-241605Y219459D01*
X-243639Y217426D01*
X-240927Y217426D01*
X-238961Y218782D02*
X-238283Y219459D01*
X-236928Y219459D01*
X-236250Y218782D01*
X-236250Y218104D01*
X-236928Y217426D01*
X-236250Y216748D01*
X-236250Y216070D01*
X-236928Y215392D01*
X-238283Y215392D01*
X-238961Y216070D01*
X-238961Y216748D01*
X-238283Y217426D01*
X-238961Y218104D01*
X-238961Y218782D01*
X-238283Y217426D02*
X-236928Y217426D01*
D23*
X212344Y184080D02*
X212344Y181580D01*
D12*
X210917Y180343D02*
X211595Y179666D01*
X210917Y180343D02*
X209562Y180343D01*
X208884Y179666D01*
X208884Y176954D01*
X209562Y176276D01*
X210917Y176276D01*
X211595Y176954D01*
X214917Y179666D02*
X216273Y180343D01*
X214917Y179666D02*
X213561Y178310D01*
X213561Y176954D01*
X214239Y176276D01*
X215595Y176276D01*
X216273Y176954D01*
X216273Y177632D01*
X215595Y178310D01*
X213561Y178310D01*
X218239Y176276D02*
X220950Y176276D01*
X218239Y176276D02*
X220950Y178988D01*
X220950Y179666D01*
X220273Y180343D01*
X218917Y180343D01*
X218239Y179666D01*
D23*
X144556Y235712D02*
X142056Y235712D01*
D12*
X141221Y243334D02*
X141898Y244012D01*
X141221Y243334D02*
X141221Y241978D01*
X141898Y241300D01*
X144610Y241300D01*
X145288Y241978D01*
X145288Y243334D01*
X144610Y244012D01*
X141898Y247333D02*
X141221Y248689D01*
X141898Y247333D02*
X143254Y245978D01*
X144610Y245978D01*
X145288Y246656D01*
X145288Y248011D01*
X144610Y248689D01*
X143932Y248689D01*
X143254Y248011D01*
X143254Y245978D01*
X141898Y250655D02*
X141221Y251333D01*
X141221Y252689D01*
X141898Y253367D01*
X142576Y253367D01*
X143254Y252689D01*
X143254Y252011D01*
X143254Y252689D02*
X143932Y253367D01*
X144610Y253367D01*
X145288Y252689D01*
X145288Y251333D01*
X144610Y250655D01*
D23*
X150184Y235712D02*
X152684Y235712D01*
D12*
X149349Y243334D02*
X150026Y244012D01*
X149349Y243334D02*
X149349Y241978D01*
X150026Y241300D01*
X152738Y241300D01*
X153416Y241978D01*
X153416Y243334D01*
X152738Y244012D01*
X150026Y247333D02*
X149349Y248689D01*
X150026Y247333D02*
X151382Y245978D01*
X152738Y245978D01*
X153416Y246656D01*
X153416Y248011D01*
X152738Y248689D01*
X152060Y248689D01*
X151382Y248011D01*
X151382Y245978D01*
X153416Y252689D02*
X149349Y252689D01*
X151382Y250655D01*
X151382Y253367D01*
D23*
X182880Y163860D02*
X182880Y161360D01*
D12*
X178321Y159092D02*
X177643Y159769D01*
X176288Y159769D01*
X175610Y159092D01*
X175610Y156380D01*
X176288Y155702D01*
X177643Y155702D01*
X178321Y156380D01*
X181643Y159092D02*
X182999Y159769D01*
X181643Y159092D02*
X180287Y157736D01*
X180287Y156380D01*
X180965Y155702D01*
X182321Y155702D01*
X182999Y156380D01*
X182999Y157058D01*
X182321Y157736D01*
X180287Y157736D01*
X184965Y159769D02*
X187676Y159769D01*
X184965Y159769D02*
X184965Y157736D01*
X186321Y158414D01*
X186999Y158414D01*
X187676Y157736D01*
X187676Y156380D01*
X186999Y155702D01*
X185643Y155702D01*
X184965Y156380D01*
D23*
X205232Y219172D02*
X205232Y221672D01*
D12*
X201435Y217258D02*
X200757Y217935D01*
X199402Y217935D01*
X198724Y217258D01*
X198724Y214546D01*
X199402Y213868D01*
X200757Y213868D01*
X201435Y214546D01*
X203401Y214546D02*
X204079Y213868D01*
X205435Y213868D01*
X206113Y214546D01*
X206113Y217258D01*
X205435Y217935D01*
X204079Y217935D01*
X203401Y217258D01*
X203401Y216580D01*
X204079Y215902D01*
X206113Y215902D01*
X208079Y217258D02*
X208757Y217935D01*
X210113Y217935D01*
X210790Y217258D01*
X210790Y216580D01*
X210113Y215902D01*
X209435Y215902D01*
X210113Y215902D02*
X210790Y215224D01*
X210790Y214546D01*
X210113Y213868D01*
X208757Y213868D01*
X208079Y214546D01*
D23*
X145288Y152584D02*
X145288Y150084D01*
D12*
X145460Y157314D02*
X144782Y157991D01*
X143426Y157991D01*
X142748Y157314D01*
X142748Y154602D01*
X143426Y153924D01*
X144782Y153924D01*
X145460Y154602D01*
X147426Y157991D02*
X150137Y157991D01*
X150137Y157314D01*
X147426Y154602D01*
X147426Y153924D01*
X152103Y156636D02*
X153459Y157991D01*
X153459Y153924D01*
X152103Y153924D02*
X154815Y153924D01*
D23*
X162884Y238760D02*
X165384Y238760D01*
D12*
X158154Y234963D02*
X157477Y234285D01*
X157477Y232930D01*
X158154Y232252D01*
X160866Y232252D01*
X161544Y232930D01*
X161544Y234285D01*
X160866Y234963D01*
X157477Y236929D02*
X157477Y239641D01*
X158154Y239641D01*
X160866Y236929D01*
X161544Y236929D01*
X158154Y241607D02*
X157477Y242285D01*
X157477Y243641D01*
X158154Y244318D01*
X158832Y244318D01*
X159510Y243641D01*
X159510Y242963D01*
X159510Y243641D02*
X160188Y244318D01*
X160866Y244318D01*
X161544Y243641D01*
X161544Y242285D01*
X160866Y241607D01*
D23*
X170504Y238760D02*
X173004Y238760D01*
D12*
X166637Y246976D02*
X165959Y247653D01*
X164604Y247653D01*
X163926Y246976D01*
X163926Y244264D01*
X164604Y243586D01*
X165959Y243586D01*
X166637Y244264D01*
X168603Y247653D02*
X171315Y247653D01*
X171315Y246976D01*
X168603Y244264D01*
X168603Y243586D01*
X175315Y243586D02*
X175315Y247653D01*
X173281Y245620D01*
X175992Y245620D01*
D23*
X127184Y199136D02*
X124684Y199136D01*
D12*
X128521Y194661D02*
X129198Y195339D01*
X128521Y194661D02*
X128521Y193306D01*
X129198Y192628D01*
X131910Y192628D01*
X132588Y193306D01*
X132588Y194661D01*
X131910Y195339D01*
X128521Y197305D02*
X128521Y200017D01*
X129198Y200017D01*
X131910Y197305D01*
X132588Y197305D01*
X131910Y201983D02*
X129198Y201983D01*
X128521Y202661D01*
X128521Y204017D01*
X129198Y204694D01*
X131910Y204694D01*
X132588Y204017D01*
X132588Y202661D01*
X131910Y201983D01*
X129198Y204694D01*
D23*
X143256Y161828D02*
X143256Y159328D01*
D12*
X139364Y166458D02*
X138686Y167135D01*
X137330Y167135D01*
X136652Y166458D01*
X136652Y163746D01*
X137330Y163068D01*
X138686Y163068D01*
X139364Y163746D01*
X141330Y167135D02*
X144041Y167135D01*
X144041Y166458D01*
X141330Y163746D01*
X141330Y163068D01*
X146007Y163068D02*
X148719Y163068D01*
X146007Y163068D02*
X148719Y165780D01*
X148719Y166458D01*
X148041Y167135D01*
X146685Y167135D01*
X146007Y166458D01*
D23*
X205232Y200884D02*
X205232Y203384D01*
D12*
X201435Y198970D02*
X200757Y199647D01*
X199402Y199647D01*
X198724Y198970D01*
X198724Y196258D01*
X199402Y195580D01*
X200757Y195580D01*
X201435Y196258D01*
X203401Y199647D02*
X206113Y199647D01*
X203401Y199647D02*
X203401Y197614D01*
X204757Y198292D01*
X205435Y198292D01*
X206113Y197614D01*
X206113Y196258D01*
X205435Y195580D01*
X204079Y195580D01*
X203401Y196258D01*
X208079Y198970D02*
X208757Y199647D01*
X210113Y199647D01*
X210790Y198970D01*
X210790Y198292D01*
X210113Y197614D01*
X210790Y196936D01*
X210790Y196258D01*
X210113Y195580D01*
X208757Y195580D01*
X208079Y196258D01*
X208079Y196936D01*
X208757Y197614D01*
X208079Y198292D01*
X208079Y198970D01*
X208757Y197614D02*
X210113Y197614D01*
D23*
X182880Y171988D02*
X182880Y169488D01*
D12*
X181020Y176618D02*
X180342Y177295D01*
X178986Y177295D01*
X178308Y176618D01*
X178308Y173906D01*
X178986Y173228D01*
X180342Y173228D01*
X181020Y173906D01*
X182986Y177295D02*
X185697Y177295D01*
X182986Y177295D02*
X182986Y175262D01*
X184341Y175940D01*
X185019Y175940D01*
X185697Y175262D01*
X185697Y173906D01*
X185019Y173228D01*
X183664Y173228D01*
X182986Y173906D01*
X187663Y173906D02*
X188341Y173228D01*
X189697Y173228D01*
X190375Y173906D01*
X190375Y176618D01*
X189697Y177295D01*
X188341Y177295D01*
X187663Y176618D01*
X187663Y175940D01*
X188341Y175262D01*
X190375Y175262D01*
D23*
X205232Y174936D02*
X205232Y172436D01*
D12*
X200515Y170522D02*
X199837Y171199D01*
X198481Y171199D01*
X197803Y170522D01*
X197803Y167810D01*
X198481Y167132D01*
X199837Y167132D01*
X200515Y167810D01*
X203837Y170522D02*
X205192Y171199D01*
X203837Y170522D02*
X202481Y169166D01*
X202481Y167810D01*
X203159Y167132D01*
X204515Y167132D01*
X205192Y167810D01*
X205192Y168488D01*
X204515Y169166D01*
X202481Y169166D01*
X207158Y167810D02*
X207158Y170522D01*
X207836Y171199D01*
X209192Y171199D01*
X209870Y170522D01*
X209870Y167810D01*
X209192Y167132D01*
X207836Y167132D01*
X207158Y167810D01*
X209870Y170522D01*
D23*
X212344Y190724D02*
X212344Y193224D01*
D12*
X210409Y189487D02*
X211087Y188810D01*
X210409Y189487D02*
X209054Y189487D01*
X208376Y188810D01*
X208376Y186098D01*
X209054Y185420D01*
X210409Y185420D01*
X211087Y186098D01*
X214409Y188810D02*
X215765Y189487D01*
X214409Y188810D02*
X213053Y187454D01*
X213053Y186098D01*
X213731Y185420D01*
X215087Y185420D01*
X215765Y186098D01*
X215765Y186776D01*
X215087Y187454D01*
X213053Y187454D01*
X217731Y188132D02*
X219087Y189487D01*
X219087Y185420D01*
X220442Y185420D02*
X217731Y185420D01*
D23*
X205232Y210028D02*
X205232Y212528D01*
D12*
X201435Y208114D02*
X200757Y208791D01*
X199402Y208791D01*
X198724Y208114D01*
X198724Y205402D01*
X199402Y204724D01*
X200757Y204724D01*
X201435Y205402D01*
X204757Y208114D02*
X206113Y208791D01*
X204757Y208114D02*
X203401Y206758D01*
X203401Y205402D01*
X204079Y204724D01*
X205435Y204724D01*
X206113Y205402D01*
X206113Y206080D01*
X205435Y206758D01*
X203401Y206758D01*
X209435Y208114D02*
X210790Y208791D01*
X209435Y208114D02*
X208079Y206758D01*
X208079Y205402D01*
X208757Y204724D01*
X210113Y204724D01*
X210790Y205402D01*
X210790Y206080D01*
X210113Y206758D01*
X208079Y206758D01*
D23*
X137444Y199136D02*
X134944Y199136D01*
D12*
X139358Y195339D02*
X138681Y194661D01*
X138681Y193306D01*
X139358Y192628D01*
X142070Y192628D01*
X142748Y193306D01*
X142748Y194661D01*
X142070Y195339D01*
X139358Y198661D02*
X138681Y200017D01*
X139358Y198661D02*
X140714Y197305D01*
X142070Y197305D01*
X142748Y197983D01*
X142748Y199339D01*
X142070Y200017D01*
X141392Y200017D01*
X140714Y199339D01*
X140714Y197305D01*
X138681Y201983D02*
X138681Y204694D01*
X139358Y204694D01*
X142070Y201983D01*
X142748Y201983D01*
D23*
X199360Y185420D02*
X201860Y185420D01*
D12*
X203874Y183655D02*
X203197Y182977D01*
X203197Y181622D01*
X203874Y180944D01*
X206586Y180944D01*
X207264Y181622D01*
X207264Y182977D01*
X206586Y183655D01*
X203197Y185621D02*
X203197Y188333D01*
X203874Y188333D01*
X206586Y185621D01*
X207264Y185621D01*
X203197Y190299D02*
X203197Y193010D01*
X203197Y190299D02*
X205230Y190299D01*
X204552Y191655D01*
X204552Y192333D01*
X205230Y193010D01*
X206586Y193010D01*
X207264Y192333D01*
X207264Y190977D01*
X206586Y190299D01*
D16*
X117856Y226568D03*
D12*
X121409Y223014D02*
X122086Y223692D01*
X121409Y223014D02*
X121409Y221658D01*
X122086Y220980D01*
X124798Y220980D01*
X125476Y221658D01*
X125476Y223014D01*
X124798Y223692D01*
X122086Y227013D02*
X121409Y228369D01*
X122086Y227013D02*
X123442Y225658D01*
X124798Y225658D01*
X125476Y226336D01*
X125476Y227691D01*
X124798Y228369D01*
X124120Y228369D01*
X123442Y227691D01*
X123442Y225658D01*
X124798Y230335D02*
X125476Y231013D01*
X125476Y232369D01*
X124798Y233047D01*
X122086Y233047D01*
X121409Y232369D01*
X121409Y231013D01*
X122086Y230335D01*
X122764Y230335D01*
X123442Y231013D01*
X123442Y233047D01*
D18*
X128076Y149930D02*
X128076Y129644D01*
X128076Y149930D02*
X117796Y149930D01*
X117796Y129644D01*
D12*
X116586Y142134D02*
X112519Y142134D01*
X116586Y142134D02*
X116586Y144168D01*
X115908Y144846D01*
X113196Y144846D01*
X112519Y144168D01*
X112519Y142134D01*
X113196Y146812D02*
X112519Y147490D01*
X112519Y148846D01*
X113196Y149524D01*
X113874Y149524D01*
X114552Y148846D01*
X114552Y148168D01*
X114552Y148846D02*
X115230Y149524D01*
X115908Y149524D01*
X116586Y148846D01*
X116586Y147490D01*
X115908Y146812D01*
D11*
X155956Y101346D02*
X155958Y101505D01*
X155964Y101664D01*
X155974Y101822D01*
X155988Y101981D01*
X156006Y102139D01*
X156027Y102296D01*
X156053Y102453D01*
X156083Y102609D01*
X156116Y102765D01*
X156154Y102919D01*
X156195Y103073D01*
X156240Y103225D01*
X156289Y103376D01*
X156342Y103526D01*
X156398Y103675D01*
X156459Y103822D01*
X156522Y103967D01*
X156590Y104111D01*
X156661Y104254D01*
X156735Y104394D01*
X156813Y104532D01*
X156895Y104669D01*
X156980Y104803D01*
X157068Y104936D01*
X157159Y105066D01*
X157254Y105193D01*
X157352Y105318D01*
X157453Y105441D01*
X157557Y105561D01*
X157664Y105679D01*
X157774Y105794D01*
X157887Y105906D01*
X158002Y106015D01*
X158120Y106121D01*
X158241Y106225D01*
X158365Y106325D01*
X158490Y106422D01*
X158619Y106516D01*
X158749Y106606D01*
X158882Y106694D01*
X159017Y106778D01*
X159154Y106858D01*
X159293Y106936D01*
X159434Y107009D01*
X159576Y107079D01*
X159721Y107146D01*
X159867Y107209D01*
X160014Y107268D01*
X160163Y107324D01*
X160314Y107375D01*
X160465Y107423D01*
X160618Y107467D01*
X160772Y107508D01*
X160926Y107544D01*
X161082Y107577D01*
X161238Y107606D01*
X161395Y107630D01*
X161553Y107651D01*
X161711Y107668D01*
X161869Y107681D01*
X162028Y107690D01*
X162187Y107695D01*
X162346Y107696D01*
X162505Y107693D01*
X162663Y107686D01*
X162822Y107675D01*
X162980Y107660D01*
X163138Y107641D01*
X163295Y107618D01*
X163452Y107592D01*
X163608Y107561D01*
X163763Y107527D01*
X163917Y107488D01*
X164071Y107446D01*
X164223Y107400D01*
X164374Y107350D01*
X164523Y107296D01*
X164672Y107239D01*
X164818Y107178D01*
X164964Y107113D01*
X165107Y107045D01*
X165249Y106973D01*
X165389Y106897D01*
X165527Y106819D01*
X165663Y106736D01*
X165797Y106651D01*
X165928Y106562D01*
X166058Y106469D01*
X166185Y106374D01*
X166309Y106275D01*
X166432Y106173D01*
X166551Y106069D01*
X166668Y105961D01*
X166782Y105850D01*
X166893Y105737D01*
X167002Y105621D01*
X167107Y105502D01*
X167210Y105380D01*
X167309Y105256D01*
X167406Y105130D01*
X167499Y105001D01*
X167589Y104870D01*
X167675Y104736D01*
X167758Y104601D01*
X167838Y104463D01*
X167914Y104324D01*
X167987Y104183D01*
X168056Y104040D01*
X168122Y103895D01*
X168184Y103748D01*
X168242Y103601D01*
X168297Y103451D01*
X168348Y103301D01*
X168395Y103149D01*
X168438Y102996D01*
X168477Y102842D01*
X168513Y102687D01*
X168544Y102531D01*
X168572Y102375D01*
X168596Y102218D01*
X168616Y102060D01*
X168632Y101902D01*
X168644Y101743D01*
X168652Y101584D01*
X168656Y101425D01*
X168656Y101267D01*
X168652Y101108D01*
X168644Y100949D01*
X168632Y100790D01*
X168616Y100632D01*
X168596Y100474D01*
X168572Y100317D01*
X168544Y100161D01*
X168513Y100005D01*
X168477Y99850D01*
X168438Y99696D01*
X168395Y99543D01*
X168348Y99391D01*
X168297Y99241D01*
X168242Y99091D01*
X168184Y98944D01*
X168122Y98797D01*
X168056Y98652D01*
X167987Y98509D01*
X167914Y98368D01*
X167838Y98229D01*
X167758Y98091D01*
X167675Y97956D01*
X167589Y97822D01*
X167499Y97691D01*
X167406Y97562D01*
X167309Y97436D01*
X167210Y97312D01*
X167107Y97190D01*
X167002Y97071D01*
X166893Y96955D01*
X166782Y96842D01*
X166668Y96731D01*
X166551Y96623D01*
X166432Y96519D01*
X166309Y96417D01*
X166185Y96318D01*
X166058Y96223D01*
X165928Y96130D01*
X165797Y96041D01*
X165663Y95956D01*
X165527Y95873D01*
X165389Y95795D01*
X165249Y95719D01*
X165107Y95647D01*
X164964Y95579D01*
X164818Y95514D01*
X164672Y95453D01*
X164523Y95396D01*
X164374Y95342D01*
X164223Y95292D01*
X164071Y95246D01*
X163917Y95204D01*
X163763Y95165D01*
X163608Y95131D01*
X163452Y95100D01*
X163295Y95074D01*
X163138Y95051D01*
X162980Y95032D01*
X162822Y95017D01*
X162663Y95006D01*
X162505Y94999D01*
X162346Y94996D01*
X162187Y94997D01*
X162028Y95002D01*
X161869Y95011D01*
X161711Y95024D01*
X161553Y95041D01*
X161395Y95062D01*
X161238Y95086D01*
X161082Y95115D01*
X160926Y95148D01*
X160772Y95184D01*
X160618Y95225D01*
X160465Y95269D01*
X160314Y95317D01*
X160163Y95368D01*
X160014Y95424D01*
X159867Y95483D01*
X159721Y95546D01*
X159576Y95613D01*
X159434Y95683D01*
X159293Y95756D01*
X159154Y95834D01*
X159017Y95914D01*
X158882Y95998D01*
X158749Y96086D01*
X158619Y96176D01*
X158490Y96270D01*
X158365Y96367D01*
X158241Y96467D01*
X158120Y96571D01*
X158002Y96677D01*
X157887Y96786D01*
X157774Y96898D01*
X157664Y97013D01*
X157557Y97131D01*
X157453Y97251D01*
X157352Y97374D01*
X157254Y97499D01*
X157159Y97626D01*
X157068Y97756D01*
X156980Y97889D01*
X156895Y98023D01*
X156813Y98160D01*
X156735Y98298D01*
X156661Y98438D01*
X156590Y98581D01*
X156522Y98725D01*
X156459Y98870D01*
X156398Y99017D01*
X156342Y99166D01*
X156289Y99316D01*
X156240Y99467D01*
X156195Y99619D01*
X156154Y99773D01*
X156116Y99927D01*
X156083Y100083D01*
X156053Y100239D01*
X156027Y100396D01*
X156006Y100553D01*
X155988Y100711D01*
X155974Y100870D01*
X155964Y101028D01*
X155958Y101187D01*
X155956Y101346D01*
X148209Y98438D02*
X148209Y65786D01*
X148209Y98438D02*
X148213Y98739D01*
X148223Y99040D01*
X148241Y99340D01*
X148266Y99640D01*
X148298Y99939D01*
X148337Y100238D01*
X148383Y100535D01*
X148437Y100831D01*
X148497Y101126D01*
X148564Y101419D01*
X148638Y101711D01*
X148719Y102001D01*
X148807Y102289D01*
X148901Y102574D01*
X149003Y102858D01*
X149111Y103139D01*
X149226Y103417D01*
X149347Y103692D01*
X149475Y103965D01*
X149475Y103964D02*
X157524Y120619D01*
X157525Y120619D02*
X157595Y120761D01*
X157669Y120900D01*
X157747Y121038D01*
X157828Y121174D01*
X157912Y121308D01*
X158000Y121440D01*
X158091Y121569D01*
X158185Y121696D01*
X158282Y121821D01*
X158382Y121943D01*
X158485Y122063D01*
X158592Y122180D01*
X158701Y122294D01*
X158813Y122406D01*
X158927Y122515D01*
X159045Y122621D01*
X159165Y122724D01*
X159287Y122824D01*
X159412Y122921D01*
X159539Y123015D01*
X159669Y123105D01*
X159801Y123193D01*
X159935Y123277D01*
X160071Y123357D01*
X160209Y123435D01*
X160348Y123508D01*
X160490Y123579D01*
X160633Y123645D01*
X160778Y123709D01*
X160925Y123768D01*
X161073Y123824D01*
X161222Y123876D01*
X161373Y123925D01*
X161524Y123969D01*
X161677Y124010D01*
X161831Y124047D01*
X161985Y124080D01*
X162141Y124110D01*
X162297Y124135D01*
X162453Y124157D01*
X162611Y124175D01*
X162768Y124188D01*
X162926Y124198D01*
X163084Y124204D01*
X163242Y124206D01*
X174070Y124206D01*
X174228Y124204D01*
X174386Y124198D01*
X174544Y124188D01*
X174701Y124175D01*
X174859Y124157D01*
X175015Y124135D01*
X175171Y124110D01*
X175327Y124080D01*
X175481Y124047D01*
X175635Y124010D01*
X175788Y123969D01*
X175939Y123925D01*
X176090Y123876D01*
X176239Y123824D01*
X176387Y123768D01*
X176534Y123709D01*
X176679Y123645D01*
X176822Y123579D01*
X176964Y123508D01*
X177103Y123435D01*
X177241Y123357D01*
X177377Y123277D01*
X177511Y123193D01*
X177643Y123105D01*
X177773Y123015D01*
X177900Y122921D01*
X178025Y122824D01*
X178147Y122724D01*
X178267Y122621D01*
X178385Y122515D01*
X178499Y122406D01*
X178611Y122294D01*
X178720Y122180D01*
X178827Y122063D01*
X178930Y121943D01*
X179030Y121821D01*
X179127Y121696D01*
X179221Y121569D01*
X179312Y121440D01*
X179400Y121308D01*
X179484Y121174D01*
X179565Y121038D01*
X179643Y120901D01*
X179717Y120761D01*
X179787Y120619D01*
X179788Y120619D02*
X187837Y103964D01*
X187837Y103965D02*
X187965Y103692D01*
X188086Y103417D01*
X188201Y103138D01*
X188309Y102858D01*
X188411Y102574D01*
X188505Y102289D01*
X188593Y102001D01*
X188674Y101711D01*
X188748Y101419D01*
X188815Y101126D01*
X188875Y100831D01*
X188929Y100535D01*
X188975Y100238D01*
X189014Y99939D01*
X189046Y99640D01*
X189071Y99340D01*
X189089Y99040D01*
X189099Y98739D01*
X189103Y98438D01*
X189103Y65786D01*
X189099Y65479D01*
X189088Y65172D01*
X189070Y64866D01*
X189044Y64560D01*
X189010Y64255D01*
X188970Y63951D01*
X188922Y63648D01*
X188866Y63346D01*
X188804Y63046D01*
X188734Y62747D01*
X188657Y62450D01*
X188573Y62154D01*
X188481Y61861D01*
X188383Y61571D01*
X188278Y61283D01*
X188165Y60997D01*
X188046Y60714D01*
X187920Y60434D01*
X187788Y60157D01*
X187648Y59884D01*
X187502Y59614D01*
X187350Y59348D01*
X187191Y59085D01*
X187026Y58826D01*
X186855Y58572D01*
X186678Y58321D01*
X186494Y58075D01*
X186305Y57833D01*
X186110Y57597D01*
X185909Y57364D01*
X185703Y57137D01*
X185491Y56915D01*
X185274Y56698D01*
X185052Y56486D01*
X184825Y56280D01*
X184592Y56079D01*
X184356Y55884D01*
X184114Y55695D01*
X183868Y55511D01*
X183617Y55334D01*
X183363Y55163D01*
X183104Y54998D01*
X182841Y54839D01*
X182575Y54687D01*
X182305Y54541D01*
X182032Y54401D01*
X181755Y54269D01*
X181475Y54143D01*
X181192Y54024D01*
X180906Y53911D01*
X180618Y53806D01*
X180328Y53708D01*
X180035Y53616D01*
X179739Y53532D01*
X179442Y53455D01*
X179143Y53385D01*
X178843Y53323D01*
X178541Y53267D01*
X178238Y53219D01*
X177934Y53179D01*
X177629Y53145D01*
X177323Y53119D01*
X177017Y53101D01*
X176710Y53090D01*
X176403Y53086D01*
X160909Y53086D01*
X160602Y53090D01*
X160295Y53101D01*
X159989Y53119D01*
X159683Y53145D01*
X159378Y53179D01*
X159074Y53219D01*
X158771Y53267D01*
X158469Y53323D01*
X158169Y53385D01*
X157870Y53455D01*
X157573Y53532D01*
X157277Y53616D01*
X156984Y53708D01*
X156694Y53806D01*
X156406Y53911D01*
X156120Y54024D01*
X155837Y54143D01*
X155557Y54269D01*
X155280Y54401D01*
X155007Y54541D01*
X154737Y54687D01*
X154471Y54839D01*
X154208Y54998D01*
X153949Y55163D01*
X153695Y55334D01*
X153444Y55511D01*
X153198Y55695D01*
X152956Y55884D01*
X152720Y56079D01*
X152487Y56280D01*
X152260Y56486D01*
X152038Y56698D01*
X151821Y56915D01*
X151609Y57137D01*
X151403Y57364D01*
X151202Y57597D01*
X151007Y57833D01*
X150818Y58075D01*
X150634Y58321D01*
X150457Y58572D01*
X150286Y58826D01*
X150121Y59085D01*
X149962Y59348D01*
X149810Y59614D01*
X149664Y59884D01*
X149524Y60157D01*
X149392Y60434D01*
X149266Y60714D01*
X149147Y60997D01*
X149034Y61283D01*
X148929Y61571D01*
X148831Y61861D01*
X148739Y62154D01*
X148655Y62450D01*
X148578Y62747D01*
X148508Y63046D01*
X148446Y63346D01*
X148390Y63648D01*
X148342Y63951D01*
X148302Y64255D01*
X148268Y64560D01*
X148242Y64866D01*
X148224Y65172D01*
X148213Y65479D01*
X148209Y65786D01*
D12*
X189314Y113432D02*
X189992Y114110D01*
X189992Y114788D01*
X189314Y115466D01*
X185925Y115466D01*
X185925Y114788D02*
X185925Y116144D01*
X187280Y118110D02*
X185925Y119466D01*
X189992Y119466D01*
X189992Y118110D02*
X189992Y120822D01*
D11*
X64770Y251968D02*
X64772Y252127D01*
X64778Y252286D01*
X64788Y252444D01*
X64802Y252603D01*
X64820Y252761D01*
X64841Y252918D01*
X64867Y253075D01*
X64897Y253231D01*
X64930Y253387D01*
X64968Y253541D01*
X65009Y253695D01*
X65054Y253847D01*
X65103Y253998D01*
X65156Y254148D01*
X65212Y254297D01*
X65273Y254444D01*
X65336Y254589D01*
X65404Y254733D01*
X65475Y254876D01*
X65549Y255016D01*
X65627Y255154D01*
X65709Y255291D01*
X65794Y255425D01*
X65882Y255558D01*
X65973Y255688D01*
X66068Y255815D01*
X66166Y255940D01*
X66267Y256063D01*
X66371Y256183D01*
X66478Y256301D01*
X66588Y256416D01*
X66701Y256528D01*
X66816Y256637D01*
X66934Y256743D01*
X67055Y256847D01*
X67179Y256947D01*
X67304Y257044D01*
X67433Y257138D01*
X67563Y257228D01*
X67696Y257316D01*
X67831Y257400D01*
X67968Y257480D01*
X68107Y257558D01*
X68248Y257631D01*
X68390Y257701D01*
X68535Y257768D01*
X68681Y257831D01*
X68828Y257890D01*
X68977Y257946D01*
X69128Y257997D01*
X69279Y258045D01*
X69432Y258089D01*
X69586Y258130D01*
X69740Y258166D01*
X69896Y258199D01*
X70052Y258228D01*
X70209Y258252D01*
X70367Y258273D01*
X70525Y258290D01*
X70683Y258303D01*
X70842Y258312D01*
X71001Y258317D01*
X71160Y258318D01*
X71319Y258315D01*
X71477Y258308D01*
X71636Y258297D01*
X71794Y258282D01*
X71952Y258263D01*
X72109Y258240D01*
X72266Y258214D01*
X72422Y258183D01*
X72577Y258149D01*
X72731Y258110D01*
X72885Y258068D01*
X73037Y258022D01*
X73188Y257972D01*
X73337Y257918D01*
X73486Y257861D01*
X73632Y257800D01*
X73778Y257735D01*
X73921Y257667D01*
X74063Y257595D01*
X74203Y257519D01*
X74341Y257441D01*
X74477Y257358D01*
X74611Y257273D01*
X74742Y257184D01*
X74872Y257091D01*
X74999Y256996D01*
X75123Y256897D01*
X75246Y256795D01*
X75365Y256691D01*
X75482Y256583D01*
X75596Y256472D01*
X75707Y256359D01*
X75816Y256243D01*
X75921Y256124D01*
X76024Y256002D01*
X76123Y255878D01*
X76220Y255752D01*
X76313Y255623D01*
X76403Y255492D01*
X76489Y255358D01*
X76572Y255223D01*
X76652Y255085D01*
X76728Y254946D01*
X76801Y254805D01*
X76870Y254662D01*
X76936Y254517D01*
X76998Y254370D01*
X77056Y254223D01*
X77111Y254073D01*
X77162Y253923D01*
X77209Y253771D01*
X77252Y253618D01*
X77291Y253464D01*
X77327Y253309D01*
X77358Y253153D01*
X77386Y252997D01*
X77410Y252840D01*
X77430Y252682D01*
X77446Y252524D01*
X77458Y252365D01*
X77466Y252206D01*
X77470Y252047D01*
X77470Y251889D01*
X77466Y251730D01*
X77458Y251571D01*
X77446Y251412D01*
X77430Y251254D01*
X77410Y251096D01*
X77386Y250939D01*
X77358Y250783D01*
X77327Y250627D01*
X77291Y250472D01*
X77252Y250318D01*
X77209Y250165D01*
X77162Y250013D01*
X77111Y249863D01*
X77056Y249713D01*
X76998Y249566D01*
X76936Y249419D01*
X76870Y249274D01*
X76801Y249131D01*
X76728Y248990D01*
X76652Y248851D01*
X76572Y248713D01*
X76489Y248578D01*
X76403Y248444D01*
X76313Y248313D01*
X76220Y248184D01*
X76123Y248058D01*
X76024Y247934D01*
X75921Y247812D01*
X75816Y247693D01*
X75707Y247577D01*
X75596Y247464D01*
X75482Y247353D01*
X75365Y247245D01*
X75246Y247141D01*
X75123Y247039D01*
X74999Y246940D01*
X74872Y246845D01*
X74742Y246752D01*
X74611Y246663D01*
X74477Y246578D01*
X74341Y246495D01*
X74203Y246417D01*
X74063Y246341D01*
X73921Y246269D01*
X73778Y246201D01*
X73632Y246136D01*
X73486Y246075D01*
X73337Y246018D01*
X73188Y245964D01*
X73037Y245914D01*
X72885Y245868D01*
X72731Y245826D01*
X72577Y245787D01*
X72422Y245753D01*
X72266Y245722D01*
X72109Y245696D01*
X71952Y245673D01*
X71794Y245654D01*
X71636Y245639D01*
X71477Y245628D01*
X71319Y245621D01*
X71160Y245618D01*
X71001Y245619D01*
X70842Y245624D01*
X70683Y245633D01*
X70525Y245646D01*
X70367Y245663D01*
X70209Y245684D01*
X70052Y245708D01*
X69896Y245737D01*
X69740Y245770D01*
X69586Y245806D01*
X69432Y245847D01*
X69279Y245891D01*
X69128Y245939D01*
X68977Y245990D01*
X68828Y246046D01*
X68681Y246105D01*
X68535Y246168D01*
X68390Y246235D01*
X68248Y246305D01*
X68107Y246378D01*
X67968Y246456D01*
X67831Y246536D01*
X67696Y246620D01*
X67563Y246708D01*
X67433Y246798D01*
X67304Y246892D01*
X67179Y246989D01*
X67055Y247089D01*
X66934Y247193D01*
X66816Y247299D01*
X66701Y247408D01*
X66588Y247520D01*
X66478Y247635D01*
X66371Y247753D01*
X66267Y247873D01*
X66166Y247996D01*
X66068Y248121D01*
X65973Y248248D01*
X65882Y248378D01*
X65794Y248511D01*
X65709Y248645D01*
X65627Y248782D01*
X65549Y248920D01*
X65475Y249060D01*
X65404Y249203D01*
X65336Y249347D01*
X65273Y249492D01*
X65212Y249639D01*
X65156Y249788D01*
X65103Y249938D01*
X65054Y250089D01*
X65009Y250241D01*
X64968Y250395D01*
X64930Y250549D01*
X64897Y250705D01*
X64867Y250861D01*
X64841Y251018D01*
X64820Y251175D01*
X64802Y251333D01*
X64788Y251492D01*
X64778Y251650D01*
X64772Y251809D01*
X64770Y251968D01*
X85217Y254876D02*
X85217Y287528D01*
X85217Y254876D02*
X85213Y254575D01*
X85203Y254274D01*
X85185Y253974D01*
X85160Y253674D01*
X85128Y253375D01*
X85089Y253076D01*
X85043Y252779D01*
X84989Y252483D01*
X84929Y252188D01*
X84862Y251895D01*
X84788Y251603D01*
X84707Y251313D01*
X84619Y251025D01*
X84525Y250740D01*
X84423Y250456D01*
X84315Y250175D01*
X84200Y249897D01*
X84079Y249622D01*
X83951Y249349D01*
X83951Y249350D02*
X75902Y232695D01*
X75901Y232695D02*
X75831Y232553D01*
X75757Y232414D01*
X75679Y232276D01*
X75598Y232140D01*
X75514Y232006D01*
X75426Y231874D01*
X75335Y231745D01*
X75241Y231618D01*
X75144Y231493D01*
X75044Y231371D01*
X74941Y231251D01*
X74834Y231134D01*
X74725Y231020D01*
X74613Y230908D01*
X74499Y230799D01*
X74381Y230693D01*
X74261Y230590D01*
X74139Y230490D01*
X74014Y230393D01*
X73887Y230299D01*
X73757Y230209D01*
X73625Y230121D01*
X73491Y230037D01*
X73355Y229957D01*
X73217Y229879D01*
X73078Y229806D01*
X72936Y229735D01*
X72793Y229669D01*
X72648Y229605D01*
X72501Y229546D01*
X72353Y229490D01*
X72204Y229438D01*
X72053Y229389D01*
X71902Y229345D01*
X71749Y229304D01*
X71595Y229267D01*
X71441Y229234D01*
X71285Y229204D01*
X71129Y229179D01*
X70973Y229157D01*
X70815Y229139D01*
X70658Y229126D01*
X70500Y229116D01*
X70342Y229110D01*
X70184Y229108D01*
X59356Y229108D01*
X59198Y229110D01*
X59040Y229116D01*
X58882Y229126D01*
X58725Y229139D01*
X58567Y229157D01*
X58411Y229179D01*
X58255Y229204D01*
X58099Y229234D01*
X57945Y229267D01*
X57791Y229304D01*
X57638Y229345D01*
X57487Y229389D01*
X57336Y229438D01*
X57187Y229490D01*
X57039Y229546D01*
X56892Y229605D01*
X56747Y229669D01*
X56604Y229735D01*
X56462Y229806D01*
X56323Y229879D01*
X56185Y229957D01*
X56049Y230037D01*
X55915Y230121D01*
X55783Y230209D01*
X55653Y230299D01*
X55526Y230393D01*
X55401Y230490D01*
X55279Y230590D01*
X55159Y230693D01*
X55041Y230799D01*
X54927Y230908D01*
X54815Y231020D01*
X54706Y231134D01*
X54599Y231251D01*
X54496Y231371D01*
X54396Y231493D01*
X54299Y231618D01*
X54205Y231745D01*
X54114Y231874D01*
X54026Y232006D01*
X53942Y232140D01*
X53861Y232276D01*
X53783Y232413D01*
X53709Y232553D01*
X53639Y232695D01*
X53638Y232695D02*
X45589Y249350D01*
X45589Y249349D02*
X45461Y249622D01*
X45340Y249897D01*
X45225Y250176D01*
X45117Y250456D01*
X45015Y250740D01*
X44921Y251025D01*
X44833Y251313D01*
X44752Y251603D01*
X44678Y251895D01*
X44611Y252188D01*
X44551Y252483D01*
X44497Y252779D01*
X44451Y253076D01*
X44412Y253375D01*
X44380Y253674D01*
X44355Y253974D01*
X44337Y254274D01*
X44327Y254575D01*
X44323Y254876D01*
X44323Y287528D01*
X44327Y287835D01*
X44338Y288142D01*
X44356Y288448D01*
X44382Y288754D01*
X44416Y289059D01*
X44456Y289363D01*
X44504Y289666D01*
X44560Y289968D01*
X44622Y290268D01*
X44692Y290567D01*
X44769Y290864D01*
X44853Y291160D01*
X44945Y291453D01*
X45043Y291743D01*
X45148Y292031D01*
X45261Y292317D01*
X45380Y292600D01*
X45506Y292880D01*
X45638Y293157D01*
X45778Y293430D01*
X45924Y293700D01*
X46076Y293966D01*
X46235Y294229D01*
X46400Y294488D01*
X46571Y294742D01*
X46748Y294993D01*
X46932Y295239D01*
X47121Y295481D01*
X47316Y295717D01*
X47517Y295950D01*
X47723Y296177D01*
X47935Y296399D01*
X48152Y296616D01*
X48374Y296828D01*
X48601Y297034D01*
X48834Y297235D01*
X49070Y297430D01*
X49312Y297619D01*
X49558Y297803D01*
X49809Y297980D01*
X50063Y298151D01*
X50322Y298316D01*
X50585Y298475D01*
X50851Y298627D01*
X51121Y298773D01*
X51394Y298913D01*
X51671Y299045D01*
X51951Y299171D01*
X52234Y299290D01*
X52520Y299403D01*
X52808Y299508D01*
X53098Y299606D01*
X53391Y299698D01*
X53687Y299782D01*
X53984Y299859D01*
X54283Y299929D01*
X54583Y299991D01*
X54885Y300047D01*
X55188Y300095D01*
X55492Y300135D01*
X55797Y300169D01*
X56103Y300195D01*
X56409Y300213D01*
X56716Y300224D01*
X57023Y300228D01*
X72517Y300228D01*
X72824Y300224D01*
X73131Y300213D01*
X73437Y300195D01*
X73743Y300169D01*
X74048Y300135D01*
X74352Y300095D01*
X74655Y300047D01*
X74957Y299991D01*
X75257Y299929D01*
X75556Y299859D01*
X75853Y299782D01*
X76149Y299698D01*
X76442Y299606D01*
X76732Y299508D01*
X77020Y299403D01*
X77306Y299290D01*
X77589Y299171D01*
X77869Y299045D01*
X78146Y298913D01*
X78419Y298773D01*
X78689Y298627D01*
X78955Y298475D01*
X79218Y298316D01*
X79477Y298151D01*
X79731Y297980D01*
X79982Y297803D01*
X80228Y297619D01*
X80470Y297430D01*
X80706Y297235D01*
X80939Y297034D01*
X81166Y296828D01*
X81388Y296616D01*
X81605Y296399D01*
X81817Y296177D01*
X82023Y295950D01*
X82224Y295717D01*
X82419Y295481D01*
X82608Y295239D01*
X82792Y294993D01*
X82969Y294742D01*
X83140Y294488D01*
X83305Y294229D01*
X83464Y293966D01*
X83616Y293700D01*
X83762Y293430D01*
X83902Y293157D01*
X84034Y292880D01*
X84160Y292600D01*
X84279Y292317D01*
X84392Y292031D01*
X84497Y291743D01*
X84595Y291453D01*
X84687Y291160D01*
X84771Y290864D01*
X84848Y290567D01*
X84918Y290268D01*
X84980Y289968D01*
X85036Y289666D01*
X85084Y289363D01*
X85124Y289059D01*
X85158Y288754D01*
X85184Y288448D01*
X85202Y288142D01*
X85213Y287835D01*
X85217Y287528D01*
D12*
X77618Y227500D02*
X78296Y226822D01*
X78974Y226822D01*
X79652Y227500D01*
X79652Y230889D01*
X78974Y230889D02*
X80330Y230889D01*
X82296Y226822D02*
X85008Y226822D01*
X82296Y226822D02*
X85008Y229534D01*
X85008Y230212D01*
X84330Y230889D01*
X82974Y230889D01*
X82296Y230212D01*
D11*
X196248Y165762D02*
X216248Y165762D01*
X216248Y153262D01*
X196248Y153262D01*
X196248Y165762D01*
D27*
X206248Y159512D03*
D12*
X202078Y150879D02*
X202078Y146812D01*
X204790Y146812D01*
X206756Y150879D02*
X209468Y150879D01*
X206756Y150879D02*
X206756Y148846D01*
X208112Y149524D01*
X208790Y149524D01*
X209468Y148846D01*
X209468Y147490D01*
X208790Y146812D01*
X207434Y146812D01*
X206756Y147490D01*
D20*
X131572Y218948D03*
D12*
X137665Y214778D02*
X141732Y214778D01*
X141732Y217490D01*
X138342Y220812D02*
X137665Y222168D01*
X138342Y220812D02*
X139698Y219456D01*
X141054Y219456D01*
X141732Y220134D01*
X141732Y221490D01*
X141054Y222168D01*
X140376Y222168D01*
X139698Y221490D01*
X139698Y219456D01*
D17*
X197196Y182934D03*
D18*
X192156Y178684D02*
X180406Y178684D01*
X192156Y178684D02*
X192156Y190434D01*
X156906Y178684D02*
X145156Y178684D01*
X145156Y190434D01*
X180406Y225684D02*
X192156Y225684D01*
X192156Y213934D01*
X156906Y225684D02*
X145156Y225684D01*
X145156Y213934D01*
D12*
X136038Y227124D02*
X136038Y230513D01*
X136038Y227124D02*
X136716Y226446D01*
X138072Y226446D01*
X138750Y227124D01*
X138750Y230513D01*
X140716Y229158D02*
X142072Y230513D01*
X142072Y226446D01*
X140716Y226446D02*
X143428Y226446D01*
D28*
X115744Y170768D02*
X105744Y170768D01*
X105744Y180768D01*
X115744Y180768D01*
X115744Y170768D01*
D23*
X117638Y168148D02*
X117640Y168202D01*
X117646Y168255D01*
X117656Y168308D01*
X117670Y168360D01*
X117687Y168410D01*
X117708Y168460D01*
X117733Y168507D01*
X117761Y168553D01*
X117793Y168596D01*
X117827Y168637D01*
X117865Y168675D01*
X117905Y168711D01*
X117948Y168743D01*
X117993Y168772D01*
X118040Y168798D01*
X118089Y168820D01*
X118140Y168838D01*
X118191Y168853D01*
X118244Y168864D01*
X118297Y168871D01*
X118351Y168874D01*
X118404Y168873D01*
X118458Y168868D01*
X118511Y168859D01*
X118563Y168846D01*
X118614Y168830D01*
X118663Y168809D01*
X118711Y168785D01*
X118758Y168758D01*
X118802Y168727D01*
X118843Y168693D01*
X118882Y168657D01*
X118918Y168617D01*
X118951Y168575D01*
X118981Y168530D01*
X119008Y168484D01*
X119031Y168435D01*
X119050Y168385D01*
X119066Y168334D01*
X119078Y168281D01*
X119086Y168228D01*
X119090Y168175D01*
X119090Y168121D01*
X119086Y168068D01*
X119078Y168015D01*
X119066Y167962D01*
X119050Y167911D01*
X119031Y167861D01*
X119008Y167812D01*
X118981Y167766D01*
X118951Y167721D01*
X118918Y167679D01*
X118882Y167639D01*
X118843Y167603D01*
X118802Y167569D01*
X118758Y167538D01*
X118711Y167511D01*
X118663Y167487D01*
X118614Y167466D01*
X118563Y167450D01*
X118511Y167437D01*
X118458Y167428D01*
X118404Y167423D01*
X118351Y167422D01*
X118297Y167425D01*
X118244Y167432D01*
X118191Y167443D01*
X118140Y167458D01*
X118089Y167476D01*
X118040Y167498D01*
X117993Y167524D01*
X117948Y167553D01*
X117905Y167585D01*
X117865Y167621D01*
X117827Y167659D01*
X117793Y167700D01*
X117761Y167743D01*
X117733Y167789D01*
X117708Y167836D01*
X117687Y167886D01*
X117670Y167936D01*
X117656Y167988D01*
X117646Y168041D01*
X117640Y168094D01*
X117638Y168148D01*
D12*
X101260Y169260D02*
X98549Y169260D01*
X101260Y169260D02*
X102616Y170615D01*
X101260Y171971D01*
X98549Y171971D01*
X98549Y173937D02*
X102616Y173937D01*
X98549Y173937D02*
X98549Y175971D01*
X99226Y176649D01*
X100582Y176649D01*
X101260Y175971D01*
X101260Y173937D01*
X101260Y175293D02*
X102616Y176649D01*
X102616Y178615D02*
X102616Y181326D01*
X102616Y178615D02*
X99904Y181326D01*
X99226Y181326D01*
X98549Y180649D01*
X98549Y179293D01*
X99226Y178615D01*
D11*
X156592Y171116D02*
X172592Y171116D01*
X172592Y161116D01*
X156592Y161116D01*
X156592Y171116D01*
X150621Y166116D02*
X150623Y166187D01*
X150629Y166257D01*
X150639Y166327D01*
X150652Y166396D01*
X150670Y166465D01*
X150691Y166532D01*
X150716Y166598D01*
X150745Y166663D01*
X150777Y166726D01*
X150812Y166787D01*
X150851Y166846D01*
X150894Y166903D01*
X150939Y166957D01*
X150987Y167008D01*
X151038Y167057D01*
X151092Y167103D01*
X151148Y167146D01*
X151206Y167186D01*
X151267Y167223D01*
X151329Y167256D01*
X151393Y167285D01*
X151459Y167311D01*
X151526Y167333D01*
X151594Y167352D01*
X151664Y167366D01*
X151733Y167377D01*
X151804Y167384D01*
X151874Y167387D01*
X151945Y167386D01*
X152015Y167381D01*
X152086Y167372D01*
X152155Y167359D01*
X152224Y167343D01*
X152291Y167323D01*
X152358Y167299D01*
X152423Y167271D01*
X152486Y167240D01*
X152548Y167205D01*
X152607Y167167D01*
X152665Y167125D01*
X152719Y167081D01*
X152772Y167033D01*
X152821Y166983D01*
X152868Y166930D01*
X152912Y166874D01*
X152952Y166817D01*
X152990Y166757D01*
X153024Y166695D01*
X153054Y166631D01*
X153081Y166565D01*
X153104Y166499D01*
X153123Y166431D01*
X153139Y166362D01*
X153151Y166292D01*
X153159Y166222D01*
X153163Y166151D01*
X153163Y166081D01*
X153159Y166010D01*
X153151Y165940D01*
X153139Y165870D01*
X153123Y165801D01*
X153104Y165733D01*
X153081Y165667D01*
X153054Y165601D01*
X153024Y165537D01*
X152990Y165475D01*
X152952Y165415D01*
X152912Y165358D01*
X152868Y165302D01*
X152821Y165249D01*
X152772Y165199D01*
X152719Y165151D01*
X152665Y165107D01*
X152607Y165065D01*
X152548Y165027D01*
X152486Y164992D01*
X152423Y164961D01*
X152358Y164933D01*
X152291Y164909D01*
X152224Y164889D01*
X152155Y164873D01*
X152086Y164860D01*
X152015Y164851D01*
X151945Y164846D01*
X151874Y164845D01*
X151804Y164848D01*
X151733Y164855D01*
X151664Y164866D01*
X151594Y164880D01*
X151526Y164899D01*
X151459Y164921D01*
X151393Y164947D01*
X151329Y164976D01*
X151267Y165009D01*
X151206Y165046D01*
X151148Y165086D01*
X151092Y165129D01*
X151038Y165175D01*
X150987Y165224D01*
X150939Y165275D01*
X150894Y165329D01*
X150851Y165386D01*
X150812Y165445D01*
X150777Y165506D01*
X150745Y165569D01*
X150716Y165634D01*
X150691Y165700D01*
X150670Y165767D01*
X150652Y165836D01*
X150639Y165905D01*
X150629Y165975D01*
X150623Y166045D01*
X150621Y166116D01*
D12*
X163134Y172720D02*
X160422Y176787D01*
X163134Y176787D02*
X160422Y172720D01*
X165100Y176110D02*
X165778Y176787D01*
X167134Y176787D01*
X167812Y176110D01*
X167812Y175432D01*
X167134Y174754D01*
X166456Y174754D01*
X167134Y174754D02*
X167812Y174076D01*
X167812Y173398D01*
X167134Y172720D01*
X165778Y172720D01*
X165100Y173398D01*
D25*
X135890Y188976D02*
X123190Y188976D01*
X121920Y187706D02*
X121920Y169926D01*
X123190Y168656D02*
X135890Y168656D01*
X137160Y169926D02*
X137160Y187706D01*
X123190Y188976D02*
X123188Y188907D01*
X123183Y188839D01*
X123173Y188771D01*
X123160Y188703D01*
X123144Y188636D01*
X123124Y188570D01*
X123100Y188506D01*
X123073Y188443D01*
X123042Y188381D01*
X123008Y188321D01*
X122971Y188263D01*
X122931Y188207D01*
X122888Y188154D01*
X122842Y188103D01*
X122793Y188054D01*
X122742Y188008D01*
X122689Y187965D01*
X122633Y187925D01*
X122575Y187888D01*
X122515Y187854D01*
X122453Y187823D01*
X122390Y187796D01*
X122326Y187772D01*
X122260Y187752D01*
X122193Y187736D01*
X122125Y187723D01*
X122057Y187713D01*
X121989Y187708D01*
X121920Y187706D01*
X135890Y188976D02*
X135892Y188907D01*
X135897Y188839D01*
X135907Y188771D01*
X135920Y188703D01*
X135936Y188636D01*
X135956Y188570D01*
X135980Y188506D01*
X136007Y188443D01*
X136038Y188381D01*
X136072Y188321D01*
X136109Y188263D01*
X136149Y188207D01*
X136192Y188154D01*
X136238Y188103D01*
X136287Y188054D01*
X136338Y188008D01*
X136391Y187965D01*
X136447Y187925D01*
X136505Y187888D01*
X136565Y187854D01*
X136627Y187823D01*
X136690Y187796D01*
X136754Y187772D01*
X136820Y187752D01*
X136887Y187736D01*
X136955Y187723D01*
X137023Y187713D01*
X137091Y187708D01*
X137160Y187706D01*
X137160Y169926D02*
X137091Y169924D01*
X137023Y169919D01*
X136955Y169909D01*
X136887Y169896D01*
X136820Y169880D01*
X136754Y169860D01*
X136690Y169836D01*
X136627Y169809D01*
X136565Y169778D01*
X136505Y169744D01*
X136447Y169707D01*
X136391Y169667D01*
X136338Y169624D01*
X136287Y169578D01*
X136238Y169529D01*
X136192Y169478D01*
X136149Y169425D01*
X136109Y169369D01*
X136072Y169311D01*
X136038Y169251D01*
X136007Y169189D01*
X135980Y169126D01*
X135956Y169062D01*
X135936Y168996D01*
X135920Y168929D01*
X135907Y168861D01*
X135897Y168793D01*
X135892Y168725D01*
X135890Y168656D01*
X123190Y168656D02*
X123188Y168725D01*
X123183Y168793D01*
X123173Y168861D01*
X123160Y168929D01*
X123144Y168996D01*
X123124Y169062D01*
X123100Y169126D01*
X123073Y169189D01*
X123042Y169251D01*
X123008Y169311D01*
X122971Y169369D01*
X122931Y169425D01*
X122888Y169478D01*
X122842Y169529D01*
X122793Y169578D01*
X122742Y169624D01*
X122689Y169667D01*
X122633Y169707D01*
X122575Y169744D01*
X122515Y169778D01*
X122453Y169809D01*
X122390Y169836D01*
X122326Y169860D01*
X122260Y169880D01*
X122193Y169896D01*
X122125Y169909D01*
X122057Y169919D01*
X121989Y169924D01*
X121920Y169926D01*
X119847Y190246D02*
X119849Y190302D01*
X119855Y190358D01*
X119865Y190413D01*
X119878Y190467D01*
X119895Y190521D01*
X119916Y190573D01*
X119941Y190623D01*
X119969Y190672D01*
X120000Y190718D01*
X120035Y190762D01*
X120072Y190804D01*
X120113Y190843D01*
X120156Y190879D01*
X120201Y190912D01*
X120248Y190941D01*
X120298Y190968D01*
X120349Y190991D01*
X120402Y191010D01*
X120456Y191025D01*
X120511Y191037D01*
X120566Y191045D01*
X120622Y191049D01*
X120678Y191049D01*
X120734Y191045D01*
X120789Y191037D01*
X120844Y191025D01*
X120898Y191010D01*
X120951Y190991D01*
X121002Y190968D01*
X121051Y190941D01*
X121099Y190912D01*
X121144Y190879D01*
X121187Y190843D01*
X121228Y190804D01*
X121265Y190762D01*
X121300Y190718D01*
X121331Y190672D01*
X121359Y190623D01*
X121384Y190573D01*
X121405Y190521D01*
X121422Y190467D01*
X121435Y190413D01*
X121445Y190358D01*
X121451Y190302D01*
X121453Y190246D01*
X121451Y190190D01*
X121445Y190134D01*
X121435Y190079D01*
X121422Y190025D01*
X121405Y189971D01*
X121384Y189919D01*
X121359Y189869D01*
X121331Y189820D01*
X121300Y189774D01*
X121265Y189730D01*
X121228Y189688D01*
X121187Y189649D01*
X121144Y189613D01*
X121099Y189580D01*
X121052Y189551D01*
X121002Y189524D01*
X120951Y189501D01*
X120898Y189482D01*
X120844Y189467D01*
X120789Y189455D01*
X120734Y189447D01*
X120678Y189443D01*
X120622Y189443D01*
X120566Y189447D01*
X120511Y189455D01*
X120456Y189467D01*
X120402Y189482D01*
X120349Y189501D01*
X120298Y189524D01*
X120248Y189551D01*
X120201Y189580D01*
X120156Y189613D01*
X120113Y189649D01*
X120072Y189688D01*
X120035Y189730D01*
X120000Y189774D01*
X119969Y189820D01*
X119941Y189869D01*
X119916Y189919D01*
X119895Y189971D01*
X119878Y190025D01*
X119865Y190079D01*
X119855Y190134D01*
X119849Y190190D01*
X119847Y190246D01*
D12*
X138681Y176678D02*
X142748Y179390D01*
X142748Y176678D02*
X138681Y179390D01*
X140036Y181356D02*
X138681Y182712D01*
X142748Y182712D01*
X142748Y181356D02*
X142748Y184068D01*
D11*
X143434Y141592D02*
X143434Y130592D01*
X130862Y130592D02*
X130862Y141592D01*
D12*
X133363Y148170D02*
X132685Y148847D01*
X131330Y148847D01*
X130652Y148170D01*
X130652Y145458D01*
X131330Y144780D01*
X132685Y144780D01*
X133363Y145458D01*
X135329Y148847D02*
X138041Y148847D01*
X138041Y148170D01*
X135329Y145458D01*
X135329Y144780D01*
X141363Y148170D02*
X142718Y148847D01*
X141363Y148170D02*
X140007Y146814D01*
X140007Y145458D01*
X140685Y144780D01*
X142041Y144780D01*
X142718Y145458D01*
X142718Y146136D01*
X142041Y146814D01*
X140007Y146814D01*
D18*
X181174Y246722D02*
X181174Y257722D01*
X194746Y257722D02*
X194746Y246722D01*
D12*
X179142Y250592D02*
X175075Y250592D01*
X179142Y250592D02*
X179142Y253304D01*
X175075Y255270D02*
X175075Y257982D01*
X175752Y257982D01*
X178464Y255270D01*
X179142Y255270D01*
D18*
X176364Y288726D02*
X187364Y288726D01*
X187364Y275154D02*
X176364Y275154D01*
D12*
X190497Y277770D02*
X194564Y277770D01*
X194564Y280482D01*
X191174Y282448D02*
X190497Y283126D01*
X190497Y284482D01*
X191174Y285160D01*
X191852Y285160D01*
X192530Y284482D01*
X193208Y285160D01*
X193886Y285160D01*
X194564Y284482D01*
X194564Y283126D01*
X193886Y282448D01*
X193208Y282448D01*
X192530Y283126D01*
X191852Y282448D01*
X191174Y282448D01*
X192530Y283126D02*
X192530Y284482D01*
D23*
X105848Y160528D02*
X103348Y160528D01*
D12*
X107862Y153271D02*
X107185Y152593D01*
X107185Y151237D01*
X107862Y150559D01*
X110574Y150559D01*
X111252Y151237D01*
X111252Y152593D01*
X110574Y153271D01*
X107185Y155237D02*
X107185Y157948D01*
X107862Y157948D01*
X110574Y155237D01*
X111252Y155237D01*
X107185Y159914D02*
X107185Y162626D01*
X107862Y162626D01*
X110574Y159914D01*
X111252Y159914D01*
D23*
X112492Y160528D02*
X114992Y160528D01*
D12*
X116329Y160022D02*
X117006Y160700D01*
X116329Y160022D02*
X116329Y158666D01*
X117006Y157988D01*
X119718Y157988D01*
X120396Y158666D01*
X120396Y160022D01*
X119718Y160700D01*
X116329Y162666D02*
X116329Y165377D01*
X117006Y165377D01*
X119718Y162666D01*
X120396Y162666D01*
X117006Y167343D02*
X116329Y168021D01*
X116329Y169377D01*
X117006Y170055D01*
X117684Y170055D01*
X118362Y169377D01*
X119040Y170055D01*
X119718Y170055D01*
X120396Y169377D01*
X120396Y168021D01*
X119718Y167343D01*
X119040Y167343D01*
X118362Y168021D01*
X117684Y167343D01*
X117006Y167343D01*
X118362Y168021D02*
X118362Y169377D01*
D23*
X145288Y168372D02*
X145288Y170872D01*
D12*
X146984Y175602D02*
X146306Y176279D01*
X144950Y176279D01*
X144272Y175602D01*
X144272Y172890D01*
X144950Y172212D01*
X146306Y172212D01*
X146984Y172890D01*
X148950Y176279D02*
X151661Y176279D01*
X151661Y175602D01*
X148950Y172890D01*
X148950Y172212D01*
X153627Y172890D02*
X154305Y172212D01*
X155661Y172212D01*
X156339Y172890D01*
X156339Y175602D01*
X155661Y176279D01*
X154305Y176279D01*
X153627Y175602D01*
X153627Y174924D01*
X154305Y174246D01*
X156339Y174246D01*
D11*
X115228Y193866D02*
X104228Y193866D01*
X104228Y206438D02*
X115228Y206438D01*
D12*
X90691Y201764D02*
X90013Y202441D01*
X88658Y202441D01*
X87980Y201764D01*
X87980Y199052D01*
X88658Y198374D01*
X90013Y198374D01*
X90691Y199052D01*
X92657Y202441D02*
X95369Y198374D01*
X92657Y198374D02*
X95369Y202441D01*
X97335Y201764D02*
X98013Y202441D01*
X99369Y202441D01*
X100046Y201764D01*
X100046Y201086D01*
X99369Y200408D01*
X98691Y200408D01*
X99369Y200408D02*
X100046Y199730D01*
X100046Y199052D01*
X99369Y198374D01*
X98013Y198374D01*
X97335Y199052D01*
D11*
X123024Y152210D02*
X134024Y152210D01*
X134024Y164782D02*
X123024Y164782D01*
D12*
X137093Y150973D02*
X137770Y151651D01*
X137093Y150973D02*
X137093Y149618D01*
X137770Y148940D01*
X140482Y148940D01*
X141160Y149618D01*
X141160Y150973D01*
X140482Y151651D01*
X137093Y153617D02*
X141160Y156329D01*
X141160Y153617D02*
X137093Y156329D01*
X137093Y160329D02*
X141160Y160329D01*
X139126Y158295D02*
X137093Y160329D01*
X139126Y161006D02*
X139126Y158295D01*
D11*
X166814Y151296D02*
X166814Y140296D01*
X154242Y140296D02*
X154242Y151296D01*
D12*
X159872Y157685D02*
X159194Y158363D01*
X157838Y158363D01*
X157160Y157685D01*
X157160Y154974D01*
X157838Y154296D01*
X159194Y154296D01*
X159872Y154974D01*
X161838Y157685D02*
X162516Y158363D01*
X163872Y158363D01*
X164550Y157685D01*
X164550Y157007D01*
X163872Y156330D01*
X164550Y155652D01*
X164550Y154974D01*
X163872Y154296D01*
X162516Y154296D01*
X161838Y154974D01*
X161838Y155652D01*
X162516Y156330D01*
X161838Y157007D01*
X161838Y157685D01*
X162516Y156330D02*
X163872Y156330D01*
X166516Y157685D02*
X166516Y154974D01*
X166516Y157685D02*
X167193Y158363D01*
X168549Y158363D01*
X169227Y157685D01*
X169227Y154974D01*
X168549Y154296D01*
X167193Y154296D01*
X166516Y154974D01*
X169227Y157685D01*
D11*
X172808Y157162D02*
X183808Y157162D01*
X183808Y144590D02*
X172808Y144590D01*
D12*
X186877Y145290D02*
X187554Y145968D01*
X186877Y145290D02*
X186877Y143934D01*
X187554Y143256D01*
X190266Y143256D01*
X190944Y143934D01*
X190944Y145290D01*
X190266Y145968D01*
X187554Y147934D02*
X186877Y148612D01*
X186877Y149967D01*
X187554Y150645D01*
X188232Y150645D01*
X188910Y149967D01*
X189588Y150645D01*
X190266Y150645D01*
X190944Y149967D01*
X190944Y148612D01*
X190266Y147934D01*
X189588Y147934D01*
X188910Y148612D01*
X188232Y147934D01*
X187554Y147934D01*
X188910Y148612D02*
X188910Y149967D01*
X188232Y152611D02*
X186877Y153967D01*
X190944Y153967D01*
X190944Y152611D02*
X190944Y155323D01*
D11*
X185508Y241490D02*
X196508Y241490D01*
X196508Y228918D02*
X185508Y228918D01*
D12*
X180062Y231407D02*
X179385Y230729D01*
X179385Y229374D01*
X180062Y228696D01*
X182774Y228696D01*
X183452Y229374D01*
X183452Y230729D01*
X182774Y231407D01*
X179385Y233373D02*
X183452Y236085D01*
X183452Y233373D02*
X179385Y236085D01*
X179385Y238051D02*
X179385Y240762D01*
X179385Y238051D02*
X181418Y238051D01*
X180740Y239407D01*
X180740Y240085D01*
X181418Y240762D01*
X182774Y240762D01*
X183452Y240085D01*
X183452Y238729D01*
X182774Y238051D01*
D11*
X177380Y275018D02*
X188380Y275018D01*
X188380Y262446D02*
X177380Y262446D01*
D12*
X191449Y266596D02*
X192126Y267274D01*
X191449Y266596D02*
X191449Y265240D01*
X192126Y264562D01*
X194838Y264562D01*
X195516Y265240D01*
X195516Y266596D01*
X194838Y267274D01*
X192804Y269240D02*
X191449Y270596D01*
X195516Y270596D01*
X195516Y269240D02*
X195516Y271952D01*
D15*
X106680Y246888D03*
D12*
X110995Y240380D02*
X115062Y240380D01*
X110995Y240380D02*
X110995Y242413D01*
X111672Y243091D01*
X113028Y243091D01*
X113706Y242413D01*
X113706Y240380D01*
X113706Y241735D02*
X115062Y243091D01*
X110995Y245057D02*
X110995Y247769D01*
X111672Y247769D01*
X114384Y245057D01*
X115062Y245057D01*
X115062Y247769D01*
X111672Y251091D02*
X110995Y252446D01*
X111672Y251091D02*
X113028Y249735D01*
X114384Y249735D01*
X115062Y250413D01*
X115062Y251769D01*
X114384Y252446D01*
X113706Y252446D01*
X113028Y251769D01*
X113028Y249735D01*
D15*
X119888Y246888D03*
D12*
X123441Y240380D02*
X127508Y240380D01*
X123441Y240380D02*
X123441Y242413D01*
X124118Y243091D01*
X125474Y243091D01*
X126152Y242413D01*
X126152Y240380D01*
X126152Y241735D02*
X127508Y243091D01*
X123441Y245057D02*
X123441Y247769D01*
X124118Y247769D01*
X126830Y245057D01*
X127508Y245057D01*
X127508Y247769D01*
X123441Y249735D02*
X123441Y252446D01*
X124118Y252446D01*
X126830Y249735D01*
X127508Y249735D01*
D15*
X102616Y226568D03*
D12*
X106931Y220060D02*
X110998Y220060D01*
X106931Y220060D02*
X106931Y222093D01*
X107608Y222771D01*
X108964Y222771D01*
X109642Y222093D01*
X109642Y220060D01*
X109642Y221415D02*
X110998Y222771D01*
X106931Y224737D02*
X106931Y227449D01*
X107608Y227449D01*
X110320Y224737D01*
X110998Y224737D01*
X110998Y227449D01*
X107608Y229415D02*
X106931Y230093D01*
X106931Y231449D01*
X107608Y232126D01*
X108286Y232126D01*
X108964Y231449D01*
X109642Y232126D01*
X110320Y232126D01*
X110998Y231449D01*
X110998Y230093D01*
X110320Y229415D01*
X109642Y229415D01*
X108964Y230093D01*
X108286Y229415D01*
X107608Y229415D01*
X108964Y230093D02*
X108964Y231449D01*
D15*
X132080Y246888D03*
D12*
X135633Y240380D02*
X139700Y240380D01*
X135633Y240380D02*
X135633Y242413D01*
X136310Y243091D01*
X137666Y243091D01*
X138344Y242413D01*
X138344Y240380D01*
X138344Y241735D02*
X139700Y243091D01*
X135633Y245057D02*
X135633Y247769D01*
X136310Y247769D01*
X139022Y245057D01*
X139700Y245057D01*
X139700Y247769D01*
X139022Y249735D02*
X139700Y250413D01*
X139700Y251769D01*
X139022Y252446D01*
X136310Y252446D01*
X135633Y251769D01*
X135633Y250413D01*
X136310Y249735D01*
X136988Y249735D01*
X137666Y250413D01*
X137666Y252446D01*
D15*
X110744Y188976D03*
D12*
X85641Y188217D02*
X85641Y184150D01*
X85641Y188217D02*
X87675Y188217D01*
X88352Y187540D01*
X88352Y186184D01*
X87675Y185506D01*
X85641Y185506D01*
X86997Y185506D02*
X88352Y184150D01*
X90318Y188217D02*
X93030Y188217D01*
X93030Y187540D01*
X90318Y184828D01*
X90318Y184150D01*
X93030Y184150D01*
X94996Y186862D02*
X96352Y188217D01*
X96352Y184150D01*
X94996Y184150D02*
X97708Y184150D01*
X99674Y184828D02*
X99674Y187540D01*
X100352Y188217D01*
X101707Y188217D01*
X102385Y187540D01*
X102385Y184828D01*
X101707Y184150D01*
X100352Y184150D01*
X99674Y184828D01*
X102385Y187540D01*
D15*
X105664Y148336D03*
D12*
X80561Y150117D02*
X80561Y146050D01*
X80561Y150117D02*
X82595Y150117D01*
X83272Y149440D01*
X83272Y148084D01*
X82595Y147406D01*
X80561Y147406D01*
X81917Y147406D02*
X83272Y146050D01*
X85238Y150117D02*
X87950Y150117D01*
X87950Y149440D01*
X85238Y146728D01*
X85238Y146050D01*
X87950Y146050D01*
X89916Y148762D02*
X91272Y150117D01*
X91272Y146050D01*
X89916Y146050D02*
X92628Y146050D01*
X94594Y148762D02*
X95949Y150117D01*
X95949Y146050D01*
X94594Y146050D02*
X97305Y146050D01*
D11*
X311608Y74768D02*
X311608Y22768D01*
X273608Y22768D01*
X273608Y74768D01*
X311608Y74768D01*
X315108Y78768D02*
X315110Y78867D01*
X315116Y78967D01*
X315126Y79066D01*
X315140Y79164D01*
X315157Y79262D01*
X315179Y79359D01*
X315204Y79455D01*
X315233Y79550D01*
X315266Y79644D01*
X315303Y79736D01*
X315343Y79827D01*
X315387Y79916D01*
X315435Y80004D01*
X315486Y80089D01*
X315540Y80172D01*
X315597Y80254D01*
X315658Y80332D01*
X315722Y80409D01*
X315788Y80482D01*
X315858Y80553D01*
X315930Y80621D01*
X316005Y80687D01*
X316083Y80749D01*
X316163Y80808D01*
X316245Y80864D01*
X316329Y80916D01*
X316416Y80965D01*
X316504Y81011D01*
X316594Y81053D01*
X316686Y81092D01*
X316779Y81127D01*
X316873Y81158D01*
X316969Y81185D01*
X317066Y81208D01*
X317163Y81228D01*
X317261Y81244D01*
X317360Y81256D01*
X317459Y81264D01*
X317558Y81268D01*
X317658Y81268D01*
X317757Y81264D01*
X317856Y81256D01*
X317955Y81244D01*
X318053Y81228D01*
X318150Y81208D01*
X318247Y81185D01*
X318343Y81158D01*
X318437Y81127D01*
X318530Y81092D01*
X318622Y81053D01*
X318712Y81011D01*
X318800Y80965D01*
X318887Y80916D01*
X318971Y80864D01*
X319053Y80808D01*
X319133Y80749D01*
X319211Y80687D01*
X319286Y80621D01*
X319358Y80553D01*
X319428Y80482D01*
X319494Y80409D01*
X319558Y80332D01*
X319619Y80254D01*
X319676Y80172D01*
X319730Y80089D01*
X319781Y80004D01*
X319829Y79916D01*
X319873Y79827D01*
X319913Y79736D01*
X319950Y79644D01*
X319983Y79550D01*
X320012Y79455D01*
X320037Y79359D01*
X320059Y79262D01*
X320076Y79164D01*
X320090Y79066D01*
X320100Y78967D01*
X320106Y78867D01*
X320108Y78768D01*
X320106Y78669D01*
X320100Y78569D01*
X320090Y78470D01*
X320076Y78372D01*
X320059Y78274D01*
X320037Y78177D01*
X320012Y78081D01*
X319983Y77986D01*
X319950Y77892D01*
X319913Y77800D01*
X319873Y77709D01*
X319829Y77620D01*
X319781Y77532D01*
X319730Y77447D01*
X319676Y77364D01*
X319619Y77282D01*
X319558Y77204D01*
X319494Y77127D01*
X319428Y77054D01*
X319358Y76983D01*
X319286Y76915D01*
X319211Y76849D01*
X319133Y76787D01*
X319053Y76728D01*
X318971Y76672D01*
X318887Y76620D01*
X318800Y76571D01*
X318712Y76525D01*
X318622Y76483D01*
X318530Y76444D01*
X318437Y76409D01*
X318343Y76378D01*
X318247Y76351D01*
X318150Y76328D01*
X318053Y76308D01*
X317955Y76292D01*
X317856Y76280D01*
X317757Y76272D01*
X317658Y76268D01*
X317558Y76268D01*
X317459Y76272D01*
X317360Y76280D01*
X317261Y76292D01*
X317163Y76308D01*
X317066Y76328D01*
X316969Y76351D01*
X316873Y76378D01*
X316779Y76409D01*
X316686Y76444D01*
X316594Y76483D01*
X316504Y76525D01*
X316416Y76571D01*
X316329Y76620D01*
X316245Y76672D01*
X316163Y76728D01*
X316083Y76787D01*
X316005Y76849D01*
X315930Y76915D01*
X315858Y76983D01*
X315788Y77054D01*
X315722Y77127D01*
X315658Y77204D01*
X315597Y77282D01*
X315540Y77364D01*
X315486Y77447D01*
X315435Y77532D01*
X315387Y77620D01*
X315343Y77709D01*
X315303Y77800D01*
X315266Y77892D01*
X315233Y77986D01*
X315204Y78081D01*
X315179Y78177D01*
X315157Y78274D01*
X315140Y78372D01*
X315126Y78470D01*
X315116Y78569D01*
X315110Y78669D01*
X315108Y78768D01*
D29*
X304958Y71268D03*
D12*
X314194Y22835D02*
X318431Y22835D01*
X319278Y23682D01*
X319278Y25377D01*
X318431Y26224D01*
X314194Y26224D01*
X315041Y30143D02*
X314194Y31838D01*
X315041Y30143D02*
X316736Y28448D01*
X318431Y28448D01*
X319278Y29295D01*
X319278Y30990D01*
X318431Y31838D01*
X317583Y31838D01*
X316736Y30990D01*
X316736Y28448D01*
D15*
X256032Y50800D03*
D12*
X249524Y55118D02*
X249524Y59185D01*
X251557Y59185D01*
X252235Y58508D01*
X252235Y57152D01*
X251557Y56474D01*
X249524Y56474D01*
X250879Y56474D02*
X252235Y55118D01*
X254201Y57830D02*
X255557Y59185D01*
X255557Y55118D01*
X254201Y55118D02*
X256913Y55118D01*
X258879Y55118D02*
X261590Y55118D01*
X258879Y55118D02*
X261590Y57830D01*
X261590Y58508D01*
X260913Y59185D01*
X259557Y59185D01*
X258879Y58508D01*
D15*
X239776Y65024D03*
D12*
X244091Y58516D02*
X248158Y58516D01*
X244091Y58516D02*
X244091Y60549D01*
X244768Y61227D01*
X246124Y61227D01*
X246802Y60549D01*
X246802Y58516D01*
X246802Y59871D02*
X248158Y61227D01*
X245446Y63193D02*
X244091Y64549D01*
X248158Y64549D01*
X248158Y63193D02*
X248158Y65905D01*
X244768Y69227D02*
X244091Y70582D01*
X244768Y69227D02*
X246124Y67871D01*
X247480Y67871D01*
X248158Y68549D01*
X248158Y69905D01*
X247480Y70582D01*
X246802Y70582D01*
X246124Y69905D01*
X246124Y67871D01*
D25*
X4238Y212264D02*
X4238Y213264D01*
X4238Y211264D02*
X4238Y201264D01*
X-5762Y201264D01*
X-5762Y213264D01*
X2238Y213264D01*
D10*
X6854Y218264D02*
X6856Y218361D01*
X6862Y218458D01*
X6872Y218555D01*
X6886Y218651D01*
X6903Y218747D01*
X6925Y218842D01*
X6951Y218936D01*
X6980Y219028D01*
X7013Y219120D01*
X7050Y219210D01*
X7090Y219298D01*
X7134Y219385D01*
X7182Y219470D01*
X7232Y219553D01*
X7287Y219634D01*
X7344Y219712D01*
X7405Y219788D01*
X7469Y219862D01*
X7535Y219932D01*
X7605Y220001D01*
X7677Y220066D01*
X7752Y220128D01*
X7829Y220187D01*
X7908Y220243D01*
X7990Y220295D01*
X8074Y220345D01*
X8160Y220390D01*
X8248Y220433D01*
X8337Y220471D01*
X8428Y220506D01*
X8520Y220537D01*
X8613Y220565D01*
X8708Y220588D01*
X8803Y220608D01*
X8899Y220624D01*
X8995Y220636D01*
X9092Y220644D01*
X9189Y220648D01*
X9287Y220648D01*
X9384Y220644D01*
X9481Y220636D01*
X9577Y220624D01*
X9673Y220608D01*
X9768Y220588D01*
X9863Y220565D01*
X9956Y220537D01*
X10048Y220506D01*
X10139Y220471D01*
X10228Y220433D01*
X10316Y220390D01*
X10402Y220345D01*
X10486Y220295D01*
X10568Y220243D01*
X10647Y220187D01*
X10724Y220128D01*
X10799Y220066D01*
X10871Y220001D01*
X10941Y219932D01*
X11007Y219862D01*
X11071Y219788D01*
X11132Y219712D01*
X11189Y219634D01*
X11244Y219553D01*
X11294Y219470D01*
X11342Y219385D01*
X11386Y219298D01*
X11426Y219210D01*
X11463Y219120D01*
X11496Y219028D01*
X11525Y218936D01*
X11551Y218842D01*
X11573Y218747D01*
X11590Y218651D01*
X11604Y218555D01*
X11614Y218458D01*
X11620Y218361D01*
X11622Y218264D01*
X11620Y218167D01*
X11614Y218070D01*
X11604Y217973D01*
X11590Y217877D01*
X11573Y217781D01*
X11551Y217686D01*
X11525Y217592D01*
X11496Y217500D01*
X11463Y217408D01*
X11426Y217318D01*
X11386Y217230D01*
X11342Y217143D01*
X11294Y217058D01*
X11244Y216975D01*
X11189Y216894D01*
X11132Y216816D01*
X11071Y216740D01*
X11007Y216666D01*
X10941Y216596D01*
X10871Y216527D01*
X10799Y216462D01*
X10724Y216400D01*
X10647Y216341D01*
X10568Y216285D01*
X10486Y216233D01*
X10402Y216183D01*
X10316Y216138D01*
X10228Y216095D01*
X10139Y216057D01*
X10048Y216022D01*
X9956Y215991D01*
X9863Y215963D01*
X9768Y215940D01*
X9673Y215920D01*
X9577Y215904D01*
X9481Y215892D01*
X9384Y215884D01*
X9287Y215880D01*
X9189Y215880D01*
X9092Y215884D01*
X8995Y215892D01*
X8899Y215904D01*
X8803Y215920D01*
X8708Y215940D01*
X8613Y215963D01*
X8520Y215991D01*
X8428Y216022D01*
X8337Y216057D01*
X8248Y216095D01*
X8160Y216138D01*
X8074Y216183D01*
X7990Y216233D01*
X7908Y216285D01*
X7829Y216341D01*
X7752Y216400D01*
X7677Y216462D01*
X7605Y216527D01*
X7535Y216596D01*
X7469Y216666D01*
X7405Y216740D01*
X7344Y216816D01*
X7287Y216894D01*
X7232Y216975D01*
X7182Y217058D01*
X7134Y217143D01*
X7090Y217230D01*
X7050Y217318D01*
X7013Y217408D01*
X6980Y217500D01*
X6951Y217592D01*
X6925Y217686D01*
X6903Y217781D01*
X6886Y217877D01*
X6872Y217973D01*
X6862Y218070D01*
X6856Y218167D01*
X6854Y218264D01*
D25*
X3238Y213264D02*
X2238Y213264D01*
X3238Y213264D02*
X4238Y213264D01*
X2238Y213264D02*
X4238Y211264D01*
X4238Y212264D01*
X3238Y213264D01*
D12*
X-17297Y213110D02*
X-17297Y208873D01*
X-16450Y208026D01*
X-14755Y208026D01*
X-13908Y208873D01*
X-13908Y213110D01*
X-11684Y213110D02*
X-8294Y213110D01*
X-8294Y212263D01*
X-11684Y208873D01*
X-11684Y208026D01*
D16*
X-84328Y149352D03*
D12*
X-88125Y157060D02*
X-88803Y157737D01*
X-90158Y157737D01*
X-90836Y157060D01*
X-90836Y154348D01*
X-90158Y153670D01*
X-88803Y153670D01*
X-88125Y154348D01*
X-86159Y153670D02*
X-83447Y153670D01*
X-86159Y153670D02*
X-83447Y156382D01*
X-83447Y157060D01*
X-84125Y157737D01*
X-85481Y157737D01*
X-86159Y157060D01*
X-80125Y157060D02*
X-78770Y157737D01*
X-80125Y157060D02*
X-81481Y155704D01*
X-81481Y154348D01*
X-80803Y153670D01*
X-79447Y153670D01*
X-78770Y154348D01*
X-78770Y155026D01*
X-79447Y155704D01*
X-81481Y155704D01*
D30*
X-82914Y102534D02*
X-98470Y86978D01*
X-82914Y102534D02*
X-70186Y89806D01*
X-85742Y74250D01*
X-98470Y86978D01*
X-93167Y80260D02*
X-85742Y72836D01*
X-78671Y79907D01*
D11*
X-98057Y81656D02*
X-99555Y74166D01*
X-102551Y77162D02*
X-95061Y78660D01*
X-90849Y74447D02*
X-95343Y69953D01*
X-95343Y74447D02*
X-90849Y74447D01*
X-92347Y71451D02*
X-95343Y74447D01*
D28*
X-105584Y265256D02*
X-105584Y275256D01*
X-95584Y275256D01*
X-95584Y265256D01*
X-105584Y265256D01*
D23*
X-108930Y262636D02*
X-108928Y262690D01*
X-108922Y262743D01*
X-108912Y262796D01*
X-108898Y262848D01*
X-108881Y262898D01*
X-108860Y262948D01*
X-108835Y262995D01*
X-108807Y263041D01*
X-108775Y263084D01*
X-108741Y263125D01*
X-108703Y263163D01*
X-108663Y263199D01*
X-108620Y263231D01*
X-108575Y263260D01*
X-108528Y263286D01*
X-108479Y263308D01*
X-108428Y263326D01*
X-108377Y263341D01*
X-108324Y263352D01*
X-108271Y263359D01*
X-108217Y263362D01*
X-108164Y263361D01*
X-108110Y263356D01*
X-108057Y263347D01*
X-108005Y263334D01*
X-107954Y263318D01*
X-107905Y263297D01*
X-107857Y263273D01*
X-107810Y263246D01*
X-107766Y263215D01*
X-107725Y263181D01*
X-107686Y263145D01*
X-107650Y263105D01*
X-107617Y263063D01*
X-107587Y263018D01*
X-107560Y262972D01*
X-107537Y262923D01*
X-107518Y262873D01*
X-107502Y262822D01*
X-107490Y262769D01*
X-107482Y262716D01*
X-107478Y262663D01*
X-107478Y262609D01*
X-107482Y262556D01*
X-107490Y262503D01*
X-107502Y262450D01*
X-107518Y262399D01*
X-107537Y262349D01*
X-107560Y262300D01*
X-107587Y262254D01*
X-107617Y262209D01*
X-107650Y262167D01*
X-107686Y262127D01*
X-107725Y262091D01*
X-107766Y262057D01*
X-107810Y262026D01*
X-107857Y261999D01*
X-107905Y261975D01*
X-107954Y261954D01*
X-108005Y261938D01*
X-108057Y261925D01*
X-108110Y261916D01*
X-108164Y261911D01*
X-108217Y261910D01*
X-108271Y261913D01*
X-108324Y261920D01*
X-108377Y261931D01*
X-108428Y261946D01*
X-108479Y261964D01*
X-108528Y261986D01*
X-108575Y262012D01*
X-108620Y262041D01*
X-108663Y262073D01*
X-108703Y262109D01*
X-108741Y262147D01*
X-108775Y262188D01*
X-108807Y262231D01*
X-108835Y262277D01*
X-108860Y262324D01*
X-108881Y262374D01*
X-108898Y262424D01*
X-108912Y262476D01*
X-108922Y262529D01*
X-108928Y262582D01*
X-108930Y262636D01*
D12*
X-105060Y261623D02*
X-105060Y258912D01*
X-103705Y257556D01*
X-102349Y258912D01*
X-102349Y261623D01*
X-100383Y261623D02*
X-100383Y257556D01*
X-100383Y261623D02*
X-98349Y261623D01*
X-97671Y260946D01*
X-97671Y259590D01*
X-98349Y258912D01*
X-100383Y258912D01*
X-99027Y258912D02*
X-97671Y257556D01*
X-95705Y260946D02*
X-95027Y261623D01*
X-93672Y261623D01*
X-92994Y260946D01*
X-92994Y260268D01*
X-93672Y259590D01*
X-94349Y259590D01*
X-93672Y259590D02*
X-92994Y258912D01*
X-92994Y258234D01*
X-93672Y257556D01*
X-95027Y257556D01*
X-95705Y258234D01*
D23*
X-113608Y272288D02*
X-116108Y272288D01*
D12*
X-112017Y267813D02*
X-111340Y268491D01*
X-112017Y267813D02*
X-112017Y266458D01*
X-111340Y265780D01*
X-108628Y265780D01*
X-107950Y266458D01*
X-107950Y267813D01*
X-108628Y268491D01*
X-108628Y270457D02*
X-107950Y271135D01*
X-107950Y272491D01*
X-108628Y273169D01*
X-111340Y273169D01*
X-112017Y272491D01*
X-112017Y271135D01*
X-111340Y270457D01*
X-110662Y270457D01*
X-109984Y271135D01*
X-109984Y273169D01*
X-108628Y275135D02*
X-111340Y275135D01*
X-112017Y275813D01*
X-112017Y277169D01*
X-111340Y277846D01*
X-108628Y277846D01*
X-107950Y277169D01*
X-107950Y275813D01*
X-108628Y275135D01*
X-111340Y277846D01*
D23*
X-100584Y255200D02*
X-100584Y252700D01*
D12*
X-103365Y249770D02*
X-104043Y250447D01*
X-105399Y250447D01*
X-106076Y249770D01*
X-106076Y247058D01*
X-105399Y246380D01*
X-104043Y246380D01*
X-103365Y247058D01*
X-101399Y247058D02*
X-100721Y246380D01*
X-99365Y246380D01*
X-98687Y247058D01*
X-98687Y249770D01*
X-99365Y250447D01*
X-100721Y250447D01*
X-101399Y249770D01*
X-101399Y249092D01*
X-100721Y248414D01*
X-98687Y248414D01*
X-96721Y249092D02*
X-95365Y250447D01*
X-95365Y246380D01*
X-94010Y246380D02*
X-96721Y246380D01*
D15*
X59944Y189992D03*
D12*
X55626Y183484D02*
X51559Y183484D01*
X51559Y185517D01*
X52236Y186195D01*
X53592Y186195D01*
X54270Y185517D01*
X54270Y183484D01*
X54270Y184839D02*
X55626Y186195D01*
X51559Y188161D02*
X51559Y190873D01*
X52236Y190873D01*
X54948Y188161D01*
X55626Y188161D01*
X55626Y190873D01*
X55626Y194873D02*
X51559Y194873D01*
X53592Y192839D01*
X53592Y195550D01*
D31*
X37124Y188976D02*
X37126Y189075D01*
X37132Y189175D01*
X37142Y189274D01*
X37156Y189372D01*
X37173Y189470D01*
X37195Y189567D01*
X37220Y189663D01*
X37249Y189758D01*
X37282Y189852D01*
X37319Y189944D01*
X37359Y190035D01*
X37403Y190124D01*
X37451Y190212D01*
X37502Y190297D01*
X37556Y190380D01*
X37613Y190462D01*
X37674Y190540D01*
X37738Y190617D01*
X37804Y190690D01*
X37874Y190761D01*
X37946Y190829D01*
X38021Y190895D01*
X38099Y190957D01*
X38179Y191016D01*
X38261Y191072D01*
X38345Y191124D01*
X38432Y191173D01*
X38520Y191219D01*
X38610Y191261D01*
X38702Y191300D01*
X38795Y191335D01*
X38889Y191366D01*
X38985Y191393D01*
X39082Y191416D01*
X39179Y191436D01*
X39277Y191452D01*
X39376Y191464D01*
X39475Y191472D01*
X39574Y191476D01*
X39674Y191476D01*
X39773Y191472D01*
X39872Y191464D01*
X39971Y191452D01*
X40069Y191436D01*
X40166Y191416D01*
X40263Y191393D01*
X40359Y191366D01*
X40453Y191335D01*
X40546Y191300D01*
X40638Y191261D01*
X40728Y191219D01*
X40816Y191173D01*
X40903Y191124D01*
X40987Y191072D01*
X41069Y191016D01*
X41149Y190957D01*
X41227Y190895D01*
X41302Y190829D01*
X41374Y190761D01*
X41444Y190690D01*
X41510Y190617D01*
X41574Y190540D01*
X41635Y190462D01*
X41692Y190380D01*
X41746Y190297D01*
X41797Y190212D01*
X41845Y190124D01*
X41889Y190035D01*
X41929Y189944D01*
X41966Y189852D01*
X41999Y189758D01*
X42028Y189663D01*
X42053Y189567D01*
X42075Y189470D01*
X42092Y189372D01*
X42106Y189274D01*
X42116Y189175D01*
X42122Y189075D01*
X42124Y188976D01*
X42122Y188877D01*
X42116Y188777D01*
X42106Y188678D01*
X42092Y188580D01*
X42075Y188482D01*
X42053Y188385D01*
X42028Y188289D01*
X41999Y188194D01*
X41966Y188100D01*
X41929Y188008D01*
X41889Y187917D01*
X41845Y187828D01*
X41797Y187740D01*
X41746Y187655D01*
X41692Y187572D01*
X41635Y187490D01*
X41574Y187412D01*
X41510Y187335D01*
X41444Y187262D01*
X41374Y187191D01*
X41302Y187123D01*
X41227Y187057D01*
X41149Y186995D01*
X41069Y186936D01*
X40987Y186880D01*
X40903Y186828D01*
X40816Y186779D01*
X40728Y186733D01*
X40638Y186691D01*
X40546Y186652D01*
X40453Y186617D01*
X40359Y186586D01*
X40263Y186559D01*
X40166Y186536D01*
X40069Y186516D01*
X39971Y186500D01*
X39872Y186488D01*
X39773Y186480D01*
X39674Y186476D01*
X39574Y186476D01*
X39475Y186480D01*
X39376Y186488D01*
X39277Y186500D01*
X39179Y186516D01*
X39082Y186536D01*
X38985Y186559D01*
X38889Y186586D01*
X38795Y186617D01*
X38702Y186652D01*
X38610Y186691D01*
X38520Y186733D01*
X38432Y186779D01*
X38345Y186828D01*
X38261Y186880D01*
X38179Y186936D01*
X38099Y186995D01*
X38021Y187057D01*
X37946Y187123D01*
X37874Y187191D01*
X37804Y187262D01*
X37738Y187335D01*
X37674Y187412D01*
X37613Y187490D01*
X37556Y187572D01*
X37502Y187655D01*
X37451Y187740D01*
X37403Y187828D01*
X37359Y187917D01*
X37319Y188008D01*
X37282Y188100D01*
X37249Y188194D01*
X37220Y188289D01*
X37195Y188385D01*
X37173Y188482D01*
X37156Y188580D01*
X37142Y188678D01*
X37132Y188777D01*
X37126Y188877D01*
X37124Y188976D01*
D11*
X34115Y164915D02*
X35238Y163792D01*
X34115Y164915D02*
X31870Y164915D01*
X30747Y163792D01*
X30747Y159302D01*
X31870Y158179D01*
X34115Y158179D01*
X35238Y159302D01*
X38113Y162670D02*
X40359Y164915D01*
X40359Y158179D01*
X42604Y158179D02*
X38113Y158179D01*
X45480Y162670D02*
X47725Y164915D01*
X47725Y158179D01*
X45480Y158179D02*
X49970Y158179D01*
D32*
X18554Y207264D02*
X18556Y207318D01*
X18562Y207372D01*
X18572Y207425D01*
X18585Y207478D01*
X18602Y207529D01*
X18623Y207579D01*
X18648Y207627D01*
X18676Y207674D01*
X18707Y207718D01*
X18741Y207760D01*
X18778Y207799D01*
X18818Y207836D01*
X18861Y207869D01*
X18906Y207900D01*
X18953Y207927D01*
X19001Y207950D01*
X19052Y207970D01*
X19103Y207987D01*
X19156Y207999D01*
X19209Y208008D01*
X19263Y208013D01*
X19318Y208014D01*
X19372Y208011D01*
X19425Y208004D01*
X19478Y207993D01*
X19531Y207979D01*
X19582Y207961D01*
X19631Y207939D01*
X19679Y207914D01*
X19725Y207885D01*
X19769Y207853D01*
X19810Y207818D01*
X19848Y207780D01*
X19884Y207739D01*
X19917Y207696D01*
X19947Y207651D01*
X19973Y207603D01*
X19996Y207554D01*
X20015Y207503D01*
X20030Y207452D01*
X20042Y207399D01*
X20050Y207345D01*
X20054Y207291D01*
X20054Y207237D01*
X20050Y207183D01*
X20042Y207129D01*
X20030Y207076D01*
X20015Y207025D01*
X19996Y206974D01*
X19973Y206925D01*
X19947Y206877D01*
X19917Y206832D01*
X19884Y206789D01*
X19848Y206748D01*
X19810Y206710D01*
X19769Y206675D01*
X19725Y206643D01*
X19679Y206614D01*
X19631Y206589D01*
X19582Y206567D01*
X19531Y206549D01*
X19478Y206535D01*
X19425Y206524D01*
X19372Y206517D01*
X19318Y206514D01*
X19263Y206515D01*
X19209Y206520D01*
X19156Y206529D01*
X19103Y206541D01*
X19052Y206558D01*
X19001Y206578D01*
X18953Y206601D01*
X18906Y206628D01*
X18861Y206659D01*
X18818Y206692D01*
X18778Y206729D01*
X18741Y206768D01*
X18707Y206810D01*
X18676Y206854D01*
X18648Y206901D01*
X18623Y206949D01*
X18602Y206999D01*
X18585Y207050D01*
X18572Y207103D01*
X18562Y207156D01*
X18556Y207210D01*
X18554Y207264D01*
D12*
X17305Y183928D02*
X16307Y182930D01*
X16307Y180934D01*
X17305Y179936D01*
X21298Y179936D01*
X22296Y180934D01*
X22296Y182930D01*
X21298Y183928D01*
X22296Y189376D02*
X16307Y189376D01*
X19301Y186381D01*
X19301Y190374D01*
X17305Y192827D02*
X16307Y193825D01*
X16307Y195821D01*
X17305Y196819D01*
X18303Y196819D01*
X19301Y195821D01*
X19301Y194823D01*
X19301Y195821D02*
X20300Y196819D01*
X21298Y196819D01*
X22296Y195821D01*
X22296Y193825D01*
X21298Y192827D01*
D33*
X-44172Y81280D02*
X-44170Y81357D01*
X-44164Y81434D01*
X-44154Y81511D01*
X-44140Y81587D01*
X-44123Y81662D01*
X-44101Y81736D01*
X-44076Y81809D01*
X-44046Y81881D01*
X-44014Y81951D01*
X-43977Y82019D01*
X-43938Y82085D01*
X-43895Y82149D01*
X-43848Y82211D01*
X-43799Y82270D01*
X-43746Y82327D01*
X-43691Y82381D01*
X-43633Y82432D01*
X-43572Y82480D01*
X-43509Y82525D01*
X-43444Y82566D01*
X-43377Y82604D01*
X-43308Y82639D01*
X-43237Y82669D01*
X-43165Y82697D01*
X-43091Y82720D01*
X-43017Y82740D01*
X-42941Y82756D01*
X-42865Y82768D01*
X-42788Y82776D01*
X-42711Y82780D01*
X-42633Y82780D01*
X-42556Y82776D01*
X-42479Y82768D01*
X-42403Y82756D01*
X-42327Y82740D01*
X-42253Y82720D01*
X-42179Y82697D01*
X-42107Y82669D01*
X-42036Y82639D01*
X-41967Y82604D01*
X-41900Y82566D01*
X-41835Y82525D01*
X-41772Y82480D01*
X-41711Y82432D01*
X-41653Y82381D01*
X-41598Y82327D01*
X-41545Y82270D01*
X-41496Y82211D01*
X-41449Y82149D01*
X-41406Y82085D01*
X-41367Y82019D01*
X-41330Y81951D01*
X-41298Y81881D01*
X-41268Y81809D01*
X-41243Y81736D01*
X-41221Y81662D01*
X-41204Y81587D01*
X-41190Y81511D01*
X-41180Y81434D01*
X-41174Y81357D01*
X-41172Y81280D01*
X-41174Y81203D01*
X-41180Y81126D01*
X-41190Y81049D01*
X-41204Y80973D01*
X-41221Y80898D01*
X-41243Y80824D01*
X-41268Y80751D01*
X-41298Y80679D01*
X-41330Y80609D01*
X-41367Y80541D01*
X-41406Y80475D01*
X-41449Y80411D01*
X-41496Y80349D01*
X-41545Y80290D01*
X-41598Y80233D01*
X-41653Y80179D01*
X-41711Y80128D01*
X-41772Y80080D01*
X-41835Y80035D01*
X-41900Y79994D01*
X-41967Y79956D01*
X-42036Y79921D01*
X-42107Y79891D01*
X-42179Y79863D01*
X-42253Y79840D01*
X-42327Y79820D01*
X-42403Y79804D01*
X-42479Y79792D01*
X-42556Y79784D01*
X-42633Y79780D01*
X-42711Y79780D01*
X-42788Y79784D01*
X-42865Y79792D01*
X-42941Y79804D01*
X-43017Y79820D01*
X-43091Y79840D01*
X-43165Y79863D01*
X-43237Y79891D01*
X-43308Y79921D01*
X-43377Y79956D01*
X-43444Y79994D01*
X-43509Y80035D01*
X-43572Y80080D01*
X-43633Y80128D01*
X-43691Y80179D01*
X-43746Y80233D01*
X-43799Y80290D01*
X-43848Y80349D01*
X-43895Y80411D01*
X-43938Y80475D01*
X-43977Y80541D01*
X-44014Y80609D01*
X-44046Y80679D01*
X-44076Y80751D01*
X-44101Y80824D01*
X-44123Y80898D01*
X-44140Y80973D01*
X-44154Y81049D01*
X-44164Y81126D01*
X-44170Y81203D01*
X-44172Y81280D01*
D11*
X-68279Y83528D02*
X-69402Y84651D01*
X-71647Y84651D01*
X-72770Y83528D01*
X-72770Y79038D01*
X-71647Y77915D01*
X-69402Y77915D01*
X-68279Y79038D01*
X-65403Y83528D02*
X-64281Y84651D01*
X-62035Y84651D01*
X-60913Y83528D01*
X-60913Y82406D01*
X-62035Y81283D01*
X-63158Y81283D01*
X-62035Y81283D02*
X-60913Y80160D01*
X-60913Y79038D01*
X-62035Y77915D01*
X-64281Y77915D01*
X-65403Y79038D01*
D33*
X-44172Y102616D02*
X-44170Y102693D01*
X-44164Y102770D01*
X-44154Y102847D01*
X-44140Y102923D01*
X-44123Y102998D01*
X-44101Y103072D01*
X-44076Y103145D01*
X-44046Y103217D01*
X-44014Y103287D01*
X-43977Y103355D01*
X-43938Y103421D01*
X-43895Y103485D01*
X-43848Y103547D01*
X-43799Y103606D01*
X-43746Y103663D01*
X-43691Y103717D01*
X-43633Y103768D01*
X-43572Y103816D01*
X-43509Y103861D01*
X-43444Y103902D01*
X-43377Y103940D01*
X-43308Y103975D01*
X-43237Y104005D01*
X-43165Y104033D01*
X-43091Y104056D01*
X-43017Y104076D01*
X-42941Y104092D01*
X-42865Y104104D01*
X-42788Y104112D01*
X-42711Y104116D01*
X-42633Y104116D01*
X-42556Y104112D01*
X-42479Y104104D01*
X-42403Y104092D01*
X-42327Y104076D01*
X-42253Y104056D01*
X-42179Y104033D01*
X-42107Y104005D01*
X-42036Y103975D01*
X-41967Y103940D01*
X-41900Y103902D01*
X-41835Y103861D01*
X-41772Y103816D01*
X-41711Y103768D01*
X-41653Y103717D01*
X-41598Y103663D01*
X-41545Y103606D01*
X-41496Y103547D01*
X-41449Y103485D01*
X-41406Y103421D01*
X-41367Y103355D01*
X-41330Y103287D01*
X-41298Y103217D01*
X-41268Y103145D01*
X-41243Y103072D01*
X-41221Y102998D01*
X-41204Y102923D01*
X-41190Y102847D01*
X-41180Y102770D01*
X-41174Y102693D01*
X-41172Y102616D01*
X-41174Y102539D01*
X-41180Y102462D01*
X-41190Y102385D01*
X-41204Y102309D01*
X-41221Y102234D01*
X-41243Y102160D01*
X-41268Y102087D01*
X-41298Y102015D01*
X-41330Y101945D01*
X-41367Y101877D01*
X-41406Y101811D01*
X-41449Y101747D01*
X-41496Y101685D01*
X-41545Y101626D01*
X-41598Y101569D01*
X-41653Y101515D01*
X-41711Y101464D01*
X-41772Y101416D01*
X-41835Y101371D01*
X-41900Y101330D01*
X-41967Y101292D01*
X-42036Y101257D01*
X-42107Y101227D01*
X-42179Y101199D01*
X-42253Y101176D01*
X-42327Y101156D01*
X-42403Y101140D01*
X-42479Y101128D01*
X-42556Y101120D01*
X-42633Y101116D01*
X-42711Y101116D01*
X-42788Y101120D01*
X-42865Y101128D01*
X-42941Y101140D01*
X-43017Y101156D01*
X-43091Y101176D01*
X-43165Y101199D01*
X-43237Y101227D01*
X-43308Y101257D01*
X-43377Y101292D01*
X-43444Y101330D01*
X-43509Y101371D01*
X-43572Y101416D01*
X-43633Y101464D01*
X-43691Y101515D01*
X-43746Y101569D01*
X-43799Y101626D01*
X-43848Y101685D01*
X-43895Y101747D01*
X-43938Y101811D01*
X-43977Y101877D01*
X-44014Y101945D01*
X-44046Y102015D01*
X-44076Y102087D01*
X-44101Y102160D01*
X-44123Y102234D01*
X-44140Y102309D01*
X-44154Y102385D01*
X-44164Y102462D01*
X-44170Y102539D01*
X-44172Y102616D01*
D11*
X-68279Y104864D02*
X-69402Y105987D01*
X-71647Y105987D01*
X-72770Y104864D01*
X-72770Y100374D01*
X-71647Y99251D01*
X-69402Y99251D01*
X-68279Y100374D01*
X-62035Y99251D02*
X-62035Y105987D01*
X-65403Y102619D01*
X-60913Y102619D01*
D19*
X-90154Y112776D02*
X-90152Y112839D01*
X-90146Y112901D01*
X-90136Y112963D01*
X-90123Y113025D01*
X-90105Y113085D01*
X-90084Y113144D01*
X-90059Y113202D01*
X-90030Y113258D01*
X-89998Y113312D01*
X-89963Y113364D01*
X-89925Y113413D01*
X-89883Y113461D01*
X-89839Y113505D01*
X-89791Y113547D01*
X-89742Y113585D01*
X-89690Y113620D01*
X-89636Y113652D01*
X-89580Y113681D01*
X-89522Y113706D01*
X-89463Y113727D01*
X-89403Y113745D01*
X-89341Y113758D01*
X-89279Y113768D01*
X-89217Y113774D01*
X-89154Y113776D01*
X-89091Y113774D01*
X-89029Y113768D01*
X-88967Y113758D01*
X-88905Y113745D01*
X-88845Y113727D01*
X-88786Y113706D01*
X-88728Y113681D01*
X-88672Y113652D01*
X-88618Y113620D01*
X-88566Y113585D01*
X-88517Y113547D01*
X-88469Y113505D01*
X-88425Y113461D01*
X-88383Y113413D01*
X-88345Y113364D01*
X-88310Y113312D01*
X-88278Y113258D01*
X-88249Y113202D01*
X-88224Y113144D01*
X-88203Y113085D01*
X-88185Y113025D01*
X-88172Y112963D01*
X-88162Y112901D01*
X-88156Y112839D01*
X-88154Y112776D01*
X-88156Y112713D01*
X-88162Y112651D01*
X-88172Y112589D01*
X-88185Y112527D01*
X-88203Y112467D01*
X-88224Y112408D01*
X-88249Y112350D01*
X-88278Y112294D01*
X-88310Y112240D01*
X-88345Y112188D01*
X-88383Y112139D01*
X-88425Y112091D01*
X-88469Y112047D01*
X-88517Y112005D01*
X-88566Y111967D01*
X-88618Y111932D01*
X-88672Y111900D01*
X-88728Y111871D01*
X-88786Y111846D01*
X-88845Y111825D01*
X-88905Y111807D01*
X-88967Y111794D01*
X-89029Y111784D01*
X-89091Y111778D01*
X-89154Y111776D01*
X-89217Y111778D01*
X-89279Y111784D01*
X-89341Y111794D01*
X-89403Y111807D01*
X-89463Y111825D01*
X-89522Y111846D01*
X-89580Y111871D01*
X-89636Y111900D01*
X-89690Y111932D01*
X-89742Y111967D01*
X-89791Y112005D01*
X-89839Y112047D01*
X-89883Y112091D01*
X-89925Y112139D01*
X-89963Y112188D01*
X-89998Y112240D01*
X-90030Y112294D01*
X-90059Y112350D01*
X-90084Y112408D01*
X-90105Y112467D01*
X-90123Y112527D01*
X-90136Y112589D01*
X-90146Y112651D01*
X-90152Y112713D01*
X-90154Y112776D01*
D11*
X-99467Y105793D02*
X-100590Y106916D01*
X-102835Y106916D01*
X-103957Y105793D01*
X-103957Y101302D01*
X-102835Y100180D01*
X-100590Y100180D01*
X-99467Y101302D01*
X-96591Y104670D02*
X-94346Y106916D01*
X-94346Y100180D01*
X-96591Y100180D02*
X-92101Y100180D01*
X-89225Y100180D02*
X-84734Y100180D01*
X-84734Y104670D02*
X-89225Y100180D01*
X-84734Y104670D02*
X-84734Y105793D01*
X-85857Y106916D01*
X-88102Y106916D01*
X-89225Y105793D01*
D19*
X-121904Y137160D02*
X-121902Y137223D01*
X-121896Y137285D01*
X-121886Y137347D01*
X-121873Y137409D01*
X-121855Y137469D01*
X-121834Y137528D01*
X-121809Y137586D01*
X-121780Y137642D01*
X-121748Y137696D01*
X-121713Y137748D01*
X-121675Y137797D01*
X-121633Y137845D01*
X-121589Y137889D01*
X-121541Y137931D01*
X-121492Y137969D01*
X-121440Y138004D01*
X-121386Y138036D01*
X-121330Y138065D01*
X-121272Y138090D01*
X-121213Y138111D01*
X-121153Y138129D01*
X-121091Y138142D01*
X-121029Y138152D01*
X-120967Y138158D01*
X-120904Y138160D01*
X-120841Y138158D01*
X-120779Y138152D01*
X-120717Y138142D01*
X-120655Y138129D01*
X-120595Y138111D01*
X-120536Y138090D01*
X-120478Y138065D01*
X-120422Y138036D01*
X-120368Y138004D01*
X-120316Y137969D01*
X-120267Y137931D01*
X-120219Y137889D01*
X-120175Y137845D01*
X-120133Y137797D01*
X-120095Y137748D01*
X-120060Y137696D01*
X-120028Y137642D01*
X-119999Y137586D01*
X-119974Y137528D01*
X-119953Y137469D01*
X-119935Y137409D01*
X-119922Y137347D01*
X-119912Y137285D01*
X-119906Y137223D01*
X-119904Y137160D01*
X-119906Y137097D01*
X-119912Y137035D01*
X-119922Y136973D01*
X-119935Y136911D01*
X-119953Y136851D01*
X-119974Y136792D01*
X-119999Y136734D01*
X-120028Y136678D01*
X-120060Y136624D01*
X-120095Y136572D01*
X-120133Y136523D01*
X-120175Y136475D01*
X-120219Y136431D01*
X-120267Y136389D01*
X-120316Y136351D01*
X-120368Y136316D01*
X-120422Y136284D01*
X-120478Y136255D01*
X-120536Y136230D01*
X-120595Y136209D01*
X-120655Y136191D01*
X-120717Y136178D01*
X-120779Y136168D01*
X-120841Y136162D01*
X-120904Y136160D01*
X-120967Y136162D01*
X-121029Y136168D01*
X-121091Y136178D01*
X-121153Y136191D01*
X-121213Y136209D01*
X-121272Y136230D01*
X-121330Y136255D01*
X-121386Y136284D01*
X-121440Y136316D01*
X-121492Y136351D01*
X-121541Y136389D01*
X-121589Y136431D01*
X-121633Y136475D01*
X-121675Y136523D01*
X-121713Y136572D01*
X-121748Y136624D01*
X-121780Y136678D01*
X-121809Y136734D01*
X-121834Y136792D01*
X-121855Y136851D01*
X-121873Y136911D01*
X-121886Y136973D01*
X-121896Y137035D01*
X-121902Y137097D01*
X-121904Y137160D01*
D12*
X-109224Y130890D02*
X-108377Y131738D01*
X-109224Y130890D02*
X-109224Y129195D01*
X-108377Y128348D01*
X-104987Y128348D01*
X-104140Y129195D01*
X-104140Y130890D01*
X-104987Y131738D01*
X-107530Y133961D02*
X-109224Y135656D01*
X-104140Y135656D01*
X-104140Y133961D02*
X-104140Y137351D01*
X-108377Y139574D02*
X-109224Y140422D01*
X-109224Y142116D01*
X-108377Y142964D01*
X-107530Y142964D01*
X-106682Y142116D01*
X-106682Y141269D01*
X-106682Y142116D02*
X-105835Y142964D01*
X-104987Y142964D01*
X-104140Y142116D01*
X-104140Y140422D01*
X-104987Y139574D01*
D19*
X-87360Y130048D02*
X-87358Y130111D01*
X-87352Y130173D01*
X-87342Y130235D01*
X-87329Y130297D01*
X-87311Y130357D01*
X-87290Y130416D01*
X-87265Y130474D01*
X-87236Y130530D01*
X-87204Y130584D01*
X-87169Y130636D01*
X-87131Y130685D01*
X-87089Y130733D01*
X-87045Y130777D01*
X-86997Y130819D01*
X-86948Y130857D01*
X-86896Y130892D01*
X-86842Y130924D01*
X-86786Y130953D01*
X-86728Y130978D01*
X-86669Y130999D01*
X-86609Y131017D01*
X-86547Y131030D01*
X-86485Y131040D01*
X-86423Y131046D01*
X-86360Y131048D01*
X-86297Y131046D01*
X-86235Y131040D01*
X-86173Y131030D01*
X-86111Y131017D01*
X-86051Y130999D01*
X-85992Y130978D01*
X-85934Y130953D01*
X-85878Y130924D01*
X-85824Y130892D01*
X-85772Y130857D01*
X-85723Y130819D01*
X-85675Y130777D01*
X-85631Y130733D01*
X-85589Y130685D01*
X-85551Y130636D01*
X-85516Y130584D01*
X-85484Y130530D01*
X-85455Y130474D01*
X-85430Y130416D01*
X-85409Y130357D01*
X-85391Y130297D01*
X-85378Y130235D01*
X-85368Y130173D01*
X-85362Y130111D01*
X-85360Y130048D01*
X-85362Y129985D01*
X-85368Y129923D01*
X-85378Y129861D01*
X-85391Y129799D01*
X-85409Y129739D01*
X-85430Y129680D01*
X-85455Y129622D01*
X-85484Y129566D01*
X-85516Y129512D01*
X-85551Y129460D01*
X-85589Y129411D01*
X-85631Y129363D01*
X-85675Y129319D01*
X-85723Y129277D01*
X-85772Y129239D01*
X-85824Y129204D01*
X-85878Y129172D01*
X-85934Y129143D01*
X-85992Y129118D01*
X-86051Y129097D01*
X-86111Y129079D01*
X-86173Y129066D01*
X-86235Y129056D01*
X-86297Y129050D01*
X-86360Y129048D01*
X-86423Y129050D01*
X-86485Y129056D01*
X-86547Y129066D01*
X-86609Y129079D01*
X-86669Y129097D01*
X-86728Y129118D01*
X-86786Y129143D01*
X-86842Y129172D01*
X-86896Y129204D01*
X-86948Y129239D01*
X-86997Y129277D01*
X-87045Y129319D01*
X-87089Y129363D01*
X-87131Y129411D01*
X-87169Y129460D01*
X-87204Y129512D01*
X-87236Y129566D01*
X-87265Y129622D01*
X-87290Y129680D01*
X-87311Y129739D01*
X-87329Y129799D01*
X-87342Y129861D01*
X-87352Y129923D01*
X-87358Y129985D01*
X-87360Y130048D01*
D12*
X-75696Y144098D02*
X-74849Y144946D01*
X-75696Y144098D02*
X-75696Y142403D01*
X-74849Y141556D01*
X-71459Y141556D01*
X-70612Y142403D01*
X-70612Y144098D01*
X-71459Y144946D01*
X-74002Y147169D02*
X-75696Y148864D01*
X-70612Y148864D01*
X-70612Y147169D02*
X-70612Y150559D01*
X-70612Y155324D02*
X-75696Y155324D01*
X-73154Y152782D01*
X-73154Y156172D01*
D19*
X-121904Y162560D02*
X-121902Y162623D01*
X-121896Y162685D01*
X-121886Y162747D01*
X-121873Y162809D01*
X-121855Y162869D01*
X-121834Y162928D01*
X-121809Y162986D01*
X-121780Y163042D01*
X-121748Y163096D01*
X-121713Y163148D01*
X-121675Y163197D01*
X-121633Y163245D01*
X-121589Y163289D01*
X-121541Y163331D01*
X-121492Y163369D01*
X-121440Y163404D01*
X-121386Y163436D01*
X-121330Y163465D01*
X-121272Y163490D01*
X-121213Y163511D01*
X-121153Y163529D01*
X-121091Y163542D01*
X-121029Y163552D01*
X-120967Y163558D01*
X-120904Y163560D01*
X-120841Y163558D01*
X-120779Y163552D01*
X-120717Y163542D01*
X-120655Y163529D01*
X-120595Y163511D01*
X-120536Y163490D01*
X-120478Y163465D01*
X-120422Y163436D01*
X-120368Y163404D01*
X-120316Y163369D01*
X-120267Y163331D01*
X-120219Y163289D01*
X-120175Y163245D01*
X-120133Y163197D01*
X-120095Y163148D01*
X-120060Y163096D01*
X-120028Y163042D01*
X-119999Y162986D01*
X-119974Y162928D01*
X-119953Y162869D01*
X-119935Y162809D01*
X-119922Y162747D01*
X-119912Y162685D01*
X-119906Y162623D01*
X-119904Y162560D01*
X-119906Y162497D01*
X-119912Y162435D01*
X-119922Y162373D01*
X-119935Y162311D01*
X-119953Y162251D01*
X-119974Y162192D01*
X-119999Y162134D01*
X-120028Y162078D01*
X-120060Y162024D01*
X-120095Y161972D01*
X-120133Y161923D01*
X-120175Y161875D01*
X-120219Y161831D01*
X-120267Y161789D01*
X-120316Y161751D01*
X-120368Y161716D01*
X-120422Y161684D01*
X-120478Y161655D01*
X-120536Y161630D01*
X-120595Y161609D01*
X-120655Y161591D01*
X-120717Y161578D01*
X-120779Y161568D01*
X-120841Y161562D01*
X-120904Y161560D01*
X-120967Y161562D01*
X-121029Y161568D01*
X-121091Y161578D01*
X-121153Y161591D01*
X-121213Y161609D01*
X-121272Y161630D01*
X-121330Y161655D01*
X-121386Y161684D01*
X-121440Y161716D01*
X-121492Y161751D01*
X-121541Y161789D01*
X-121589Y161831D01*
X-121633Y161875D01*
X-121675Y161923D01*
X-121713Y161972D01*
X-121748Y162024D01*
X-121780Y162078D01*
X-121809Y162134D01*
X-121834Y162192D01*
X-121855Y162251D01*
X-121873Y162311D01*
X-121886Y162373D01*
X-121896Y162435D01*
X-121902Y162497D01*
X-121904Y162560D01*
D12*
X-125310Y173401D02*
X-126158Y174248D01*
X-127853Y174248D01*
X-128700Y173401D01*
X-128700Y170011D01*
X-127853Y169164D01*
X-126158Y169164D01*
X-125310Y170011D01*
X-123087Y174248D02*
X-119697Y174248D01*
X-123087Y174248D02*
X-123087Y171706D01*
X-121392Y172554D01*
X-120545Y172554D01*
X-119697Y171706D01*
X-119697Y170011D01*
X-120545Y169164D01*
X-122240Y169164D01*
X-123087Y170011D01*
X-117474Y174248D02*
X-114084Y174248D01*
X-117474Y174248D02*
X-117474Y171706D01*
X-115779Y172554D01*
X-114932Y172554D01*
X-114084Y171706D01*
X-114084Y170011D01*
X-114932Y169164D01*
X-116626Y169164D01*
X-117474Y170011D01*
D19*
X-121904Y149860D02*
X-121902Y149923D01*
X-121896Y149985D01*
X-121886Y150047D01*
X-121873Y150109D01*
X-121855Y150169D01*
X-121834Y150228D01*
X-121809Y150286D01*
X-121780Y150342D01*
X-121748Y150396D01*
X-121713Y150448D01*
X-121675Y150497D01*
X-121633Y150545D01*
X-121589Y150589D01*
X-121541Y150631D01*
X-121492Y150669D01*
X-121440Y150704D01*
X-121386Y150736D01*
X-121330Y150765D01*
X-121272Y150790D01*
X-121213Y150811D01*
X-121153Y150829D01*
X-121091Y150842D01*
X-121029Y150852D01*
X-120967Y150858D01*
X-120904Y150860D01*
X-120841Y150858D01*
X-120779Y150852D01*
X-120717Y150842D01*
X-120655Y150829D01*
X-120595Y150811D01*
X-120536Y150790D01*
X-120478Y150765D01*
X-120422Y150736D01*
X-120368Y150704D01*
X-120316Y150669D01*
X-120267Y150631D01*
X-120219Y150589D01*
X-120175Y150545D01*
X-120133Y150497D01*
X-120095Y150448D01*
X-120060Y150396D01*
X-120028Y150342D01*
X-119999Y150286D01*
X-119974Y150228D01*
X-119953Y150169D01*
X-119935Y150109D01*
X-119922Y150047D01*
X-119912Y149985D01*
X-119906Y149923D01*
X-119904Y149860D01*
X-119906Y149797D01*
X-119912Y149735D01*
X-119922Y149673D01*
X-119935Y149611D01*
X-119953Y149551D01*
X-119974Y149492D01*
X-119999Y149434D01*
X-120028Y149378D01*
X-120060Y149324D01*
X-120095Y149272D01*
X-120133Y149223D01*
X-120175Y149175D01*
X-120219Y149131D01*
X-120267Y149089D01*
X-120316Y149051D01*
X-120368Y149016D01*
X-120422Y148984D01*
X-120478Y148955D01*
X-120536Y148930D01*
X-120595Y148909D01*
X-120655Y148891D01*
X-120717Y148878D01*
X-120779Y148868D01*
X-120841Y148862D01*
X-120904Y148860D01*
X-120967Y148862D01*
X-121029Y148868D01*
X-121091Y148878D01*
X-121153Y148891D01*
X-121213Y148909D01*
X-121272Y148930D01*
X-121330Y148955D01*
X-121386Y148984D01*
X-121440Y149016D01*
X-121492Y149051D01*
X-121541Y149089D01*
X-121589Y149131D01*
X-121633Y149175D01*
X-121675Y149223D01*
X-121713Y149272D01*
X-121748Y149324D01*
X-121780Y149378D01*
X-121809Y149434D01*
X-121834Y149492D01*
X-121855Y149551D01*
X-121873Y149611D01*
X-121886Y149673D01*
X-121896Y149735D01*
X-121902Y149797D01*
X-121904Y149860D01*
D12*
X-108716Y152988D02*
X-107869Y153836D01*
X-108716Y152988D02*
X-108716Y151293D01*
X-107869Y150446D01*
X-104479Y150446D01*
X-103632Y151293D01*
X-103632Y152988D01*
X-104479Y153836D01*
X-103632Y156059D02*
X-103632Y159449D01*
X-103632Y156059D02*
X-107022Y159449D01*
X-107869Y159449D01*
X-108716Y158601D01*
X-108716Y156906D01*
X-107869Y156059D01*
X-108716Y164214D02*
X-103632Y164214D01*
X-106174Y161672D02*
X-108716Y164214D01*
X-106174Y165062D02*
X-106174Y161672D01*
D19*
X-74660Y130048D02*
X-74658Y130111D01*
X-74652Y130173D01*
X-74642Y130235D01*
X-74629Y130297D01*
X-74611Y130357D01*
X-74590Y130416D01*
X-74565Y130474D01*
X-74536Y130530D01*
X-74504Y130584D01*
X-74469Y130636D01*
X-74431Y130685D01*
X-74389Y130733D01*
X-74345Y130777D01*
X-74297Y130819D01*
X-74248Y130857D01*
X-74196Y130892D01*
X-74142Y130924D01*
X-74086Y130953D01*
X-74028Y130978D01*
X-73969Y130999D01*
X-73909Y131017D01*
X-73847Y131030D01*
X-73785Y131040D01*
X-73723Y131046D01*
X-73660Y131048D01*
X-73597Y131046D01*
X-73535Y131040D01*
X-73473Y131030D01*
X-73411Y131017D01*
X-73351Y130999D01*
X-73292Y130978D01*
X-73234Y130953D01*
X-73178Y130924D01*
X-73124Y130892D01*
X-73072Y130857D01*
X-73023Y130819D01*
X-72975Y130777D01*
X-72931Y130733D01*
X-72889Y130685D01*
X-72851Y130636D01*
X-72816Y130584D01*
X-72784Y130530D01*
X-72755Y130474D01*
X-72730Y130416D01*
X-72709Y130357D01*
X-72691Y130297D01*
X-72678Y130235D01*
X-72668Y130173D01*
X-72662Y130111D01*
X-72660Y130048D01*
X-72662Y129985D01*
X-72668Y129923D01*
X-72678Y129861D01*
X-72691Y129799D01*
X-72709Y129739D01*
X-72730Y129680D01*
X-72755Y129622D01*
X-72784Y129566D01*
X-72816Y129512D01*
X-72851Y129460D01*
X-72889Y129411D01*
X-72931Y129363D01*
X-72975Y129319D01*
X-73023Y129277D01*
X-73072Y129239D01*
X-73124Y129204D01*
X-73178Y129172D01*
X-73234Y129143D01*
X-73292Y129118D01*
X-73351Y129097D01*
X-73411Y129079D01*
X-73473Y129066D01*
X-73535Y129056D01*
X-73597Y129050D01*
X-73660Y129048D01*
X-73723Y129050D01*
X-73785Y129056D01*
X-73847Y129066D01*
X-73909Y129079D01*
X-73969Y129097D01*
X-74028Y129118D01*
X-74086Y129143D01*
X-74142Y129172D01*
X-74196Y129204D01*
X-74248Y129239D01*
X-74297Y129277D01*
X-74345Y129319D01*
X-74389Y129363D01*
X-74431Y129411D01*
X-74469Y129460D01*
X-74504Y129512D01*
X-74536Y129566D01*
X-74565Y129622D01*
X-74590Y129680D01*
X-74611Y129739D01*
X-74629Y129799D01*
X-74642Y129861D01*
X-74652Y129923D01*
X-74658Y129985D01*
X-74660Y130048D01*
D12*
X-68076Y144098D02*
X-67229Y144946D01*
X-68076Y144098D02*
X-68076Y142403D01*
X-67229Y141556D01*
X-63839Y141556D01*
X-62992Y142403D01*
X-62992Y144098D01*
X-63839Y144946D01*
X-62992Y147169D02*
X-62992Y150559D01*
X-62992Y147169D02*
X-66382Y150559D01*
X-67229Y150559D01*
X-68076Y149711D01*
X-68076Y148016D01*
X-67229Y147169D01*
X-62992Y152782D02*
X-62992Y156172D01*
X-62992Y152782D02*
X-66382Y156172D01*
X-67229Y156172D01*
X-68076Y155324D01*
X-68076Y153630D01*
X-67229Y152782D01*
D19*
X-61960Y130048D02*
X-61958Y130111D01*
X-61952Y130173D01*
X-61942Y130235D01*
X-61929Y130297D01*
X-61911Y130357D01*
X-61890Y130416D01*
X-61865Y130474D01*
X-61836Y130530D01*
X-61804Y130584D01*
X-61769Y130636D01*
X-61731Y130685D01*
X-61689Y130733D01*
X-61645Y130777D01*
X-61597Y130819D01*
X-61548Y130857D01*
X-61496Y130892D01*
X-61442Y130924D01*
X-61386Y130953D01*
X-61328Y130978D01*
X-61269Y130999D01*
X-61209Y131017D01*
X-61147Y131030D01*
X-61085Y131040D01*
X-61023Y131046D01*
X-60960Y131048D01*
X-60897Y131046D01*
X-60835Y131040D01*
X-60773Y131030D01*
X-60711Y131017D01*
X-60651Y130999D01*
X-60592Y130978D01*
X-60534Y130953D01*
X-60478Y130924D01*
X-60424Y130892D01*
X-60372Y130857D01*
X-60323Y130819D01*
X-60275Y130777D01*
X-60231Y130733D01*
X-60189Y130685D01*
X-60151Y130636D01*
X-60116Y130584D01*
X-60084Y130530D01*
X-60055Y130474D01*
X-60030Y130416D01*
X-60009Y130357D01*
X-59991Y130297D01*
X-59978Y130235D01*
X-59968Y130173D01*
X-59962Y130111D01*
X-59960Y130048D01*
X-59962Y129985D01*
X-59968Y129923D01*
X-59978Y129861D01*
X-59991Y129799D01*
X-60009Y129739D01*
X-60030Y129680D01*
X-60055Y129622D01*
X-60084Y129566D01*
X-60116Y129512D01*
X-60151Y129460D01*
X-60189Y129411D01*
X-60231Y129363D01*
X-60275Y129319D01*
X-60323Y129277D01*
X-60372Y129239D01*
X-60424Y129204D01*
X-60478Y129172D01*
X-60534Y129143D01*
X-60592Y129118D01*
X-60651Y129097D01*
X-60711Y129079D01*
X-60773Y129066D01*
X-60835Y129056D01*
X-60897Y129050D01*
X-60960Y129048D01*
X-61023Y129050D01*
X-61085Y129056D01*
X-61147Y129066D01*
X-61209Y129079D01*
X-61269Y129097D01*
X-61328Y129118D01*
X-61386Y129143D01*
X-61442Y129172D01*
X-61496Y129204D01*
X-61548Y129239D01*
X-61597Y129277D01*
X-61645Y129319D01*
X-61689Y129363D01*
X-61731Y129411D01*
X-61769Y129460D01*
X-61804Y129512D01*
X-61836Y129566D01*
X-61865Y129622D01*
X-61890Y129680D01*
X-61911Y129739D01*
X-61929Y129799D01*
X-61942Y129861D01*
X-61952Y129923D01*
X-61958Y129985D01*
X-61960Y130048D01*
D12*
X-60456Y144098D02*
X-59609Y144946D01*
X-60456Y144098D02*
X-60456Y142403D01*
X-59609Y141556D01*
X-56219Y141556D01*
X-55372Y142403D01*
X-55372Y144098D01*
X-56219Y144946D01*
X-60456Y147169D02*
X-60456Y150559D01*
X-60456Y147169D02*
X-57914Y147169D01*
X-58762Y148864D01*
X-58762Y149711D01*
X-57914Y150559D01*
X-56219Y150559D01*
X-55372Y149711D01*
X-55372Y148016D01*
X-56219Y147169D01*
X-55372Y155324D02*
X-60456Y155324D01*
X-57914Y152782D01*
X-57914Y156172D01*
D19*
X-101076Y137160D02*
X-101074Y137223D01*
X-101068Y137285D01*
X-101058Y137347D01*
X-101045Y137409D01*
X-101027Y137469D01*
X-101006Y137528D01*
X-100981Y137586D01*
X-100952Y137642D01*
X-100920Y137696D01*
X-100885Y137748D01*
X-100847Y137797D01*
X-100805Y137845D01*
X-100761Y137889D01*
X-100713Y137931D01*
X-100664Y137969D01*
X-100612Y138004D01*
X-100558Y138036D01*
X-100502Y138065D01*
X-100444Y138090D01*
X-100385Y138111D01*
X-100325Y138129D01*
X-100263Y138142D01*
X-100201Y138152D01*
X-100139Y138158D01*
X-100076Y138160D01*
X-100013Y138158D01*
X-99951Y138152D01*
X-99889Y138142D01*
X-99827Y138129D01*
X-99767Y138111D01*
X-99708Y138090D01*
X-99650Y138065D01*
X-99594Y138036D01*
X-99540Y138004D01*
X-99488Y137969D01*
X-99439Y137931D01*
X-99391Y137889D01*
X-99347Y137845D01*
X-99305Y137797D01*
X-99267Y137748D01*
X-99232Y137696D01*
X-99200Y137642D01*
X-99171Y137586D01*
X-99146Y137528D01*
X-99125Y137469D01*
X-99107Y137409D01*
X-99094Y137347D01*
X-99084Y137285D01*
X-99078Y137223D01*
X-99076Y137160D01*
X-99078Y137097D01*
X-99084Y137035D01*
X-99094Y136973D01*
X-99107Y136911D01*
X-99125Y136851D01*
X-99146Y136792D01*
X-99171Y136734D01*
X-99200Y136678D01*
X-99232Y136624D01*
X-99267Y136572D01*
X-99305Y136523D01*
X-99347Y136475D01*
X-99391Y136431D01*
X-99439Y136389D01*
X-99488Y136351D01*
X-99540Y136316D01*
X-99594Y136284D01*
X-99650Y136255D01*
X-99708Y136230D01*
X-99767Y136209D01*
X-99827Y136191D01*
X-99889Y136178D01*
X-99951Y136168D01*
X-100013Y136162D01*
X-100076Y136160D01*
X-100139Y136162D01*
X-100201Y136168D01*
X-100263Y136178D01*
X-100325Y136191D01*
X-100385Y136209D01*
X-100444Y136230D01*
X-100502Y136255D01*
X-100558Y136284D01*
X-100612Y136316D01*
X-100664Y136351D01*
X-100713Y136389D01*
X-100761Y136431D01*
X-100805Y136475D01*
X-100847Y136523D01*
X-100885Y136572D01*
X-100920Y136624D01*
X-100952Y136678D01*
X-100981Y136734D01*
X-101006Y136792D01*
X-101027Y136851D01*
X-101045Y136911D01*
X-101058Y136973D01*
X-101068Y137035D01*
X-101074Y137097D01*
X-101076Y137160D01*
D12*
X-102620Y151210D02*
X-101773Y152058D01*
X-102620Y151210D02*
X-102620Y149515D01*
X-101773Y148668D01*
X-98383Y148668D01*
X-97536Y149515D01*
X-97536Y151210D01*
X-98383Y152058D01*
X-101773Y154281D02*
X-102620Y155128D01*
X-102620Y156823D01*
X-101773Y157671D01*
X-100926Y157671D01*
X-100078Y156823D01*
X-100078Y155976D01*
X-100078Y156823D02*
X-99231Y157671D01*
X-98383Y157671D01*
X-97536Y156823D01*
X-97536Y155128D01*
X-98383Y154281D01*
X-102620Y159894D02*
X-102620Y163284D01*
X-101773Y163284D01*
X-98383Y159894D01*
X-97536Y159894D01*
D10*
X-20320Y170180D02*
X-20320Y195580D01*
X-36068Y200152D02*
X-36201Y200150D01*
X-36334Y200144D01*
X-36466Y200135D01*
X-36599Y200121D01*
X-36731Y200104D01*
X-36862Y200083D01*
X-36993Y200058D01*
X-37122Y200029D01*
X-37251Y199996D01*
X-37379Y199960D01*
X-37506Y199920D01*
X-37632Y199876D01*
X-37756Y199829D01*
X-37879Y199778D01*
X-38000Y199724D01*
X-38120Y199666D01*
X-38238Y199604D01*
X-38354Y199539D01*
X-38468Y199471D01*
X-38580Y199400D01*
X-38690Y199325D01*
X-38798Y199247D01*
X-38904Y199166D01*
X-39007Y199082D01*
X-39107Y198995D01*
X-39205Y198906D01*
X-39301Y198813D01*
X-39394Y198717D01*
X-39483Y198619D01*
X-39570Y198519D01*
X-39654Y198416D01*
X-39735Y198310D01*
X-39813Y198202D01*
X-39888Y198092D01*
X-39959Y197980D01*
X-40027Y197866D01*
X-40092Y197750D01*
X-40154Y197632D01*
X-40212Y197512D01*
X-40266Y197391D01*
X-40317Y197268D01*
X-40364Y197144D01*
X-40408Y197018D01*
X-40448Y196891D01*
X-40484Y196763D01*
X-40517Y196634D01*
X-40546Y196505D01*
X-40571Y196374D01*
X-40592Y196243D01*
X-40609Y196111D01*
X-40623Y195978D01*
X-40632Y195846D01*
X-40638Y195713D01*
X-40640Y195580D01*
X-40640Y170180D02*
X-40638Y170047D01*
X-40632Y169914D01*
X-40623Y169782D01*
X-40609Y169649D01*
X-40592Y169517D01*
X-40571Y169386D01*
X-40546Y169255D01*
X-40517Y169126D01*
X-40484Y168997D01*
X-40448Y168869D01*
X-40408Y168742D01*
X-40364Y168616D01*
X-40317Y168492D01*
X-40266Y168369D01*
X-40212Y168248D01*
X-40154Y168128D01*
X-40092Y168010D01*
X-40027Y167894D01*
X-39959Y167780D01*
X-39888Y167668D01*
X-39813Y167558D01*
X-39735Y167450D01*
X-39654Y167344D01*
X-39570Y167241D01*
X-39483Y167141D01*
X-39394Y167043D01*
X-39301Y166947D01*
X-39205Y166854D01*
X-39107Y166765D01*
X-39007Y166678D01*
X-38904Y166594D01*
X-38798Y166513D01*
X-38690Y166435D01*
X-38580Y166360D01*
X-38468Y166289D01*
X-38354Y166221D01*
X-38238Y166156D01*
X-38120Y166094D01*
X-38000Y166036D01*
X-37879Y165982D01*
X-37756Y165931D01*
X-37632Y165884D01*
X-37506Y165840D01*
X-37379Y165800D01*
X-37251Y165764D01*
X-37122Y165731D01*
X-36993Y165702D01*
X-36862Y165677D01*
X-36731Y165656D01*
X-36599Y165639D01*
X-36466Y165625D01*
X-36334Y165616D01*
X-36201Y165610D01*
X-36068Y165608D01*
X-24892Y165608D02*
X-24759Y165610D01*
X-24626Y165616D01*
X-24494Y165625D01*
X-24361Y165639D01*
X-24229Y165656D01*
X-24098Y165677D01*
X-23967Y165702D01*
X-23838Y165731D01*
X-23709Y165764D01*
X-23581Y165800D01*
X-23454Y165840D01*
X-23328Y165884D01*
X-23204Y165931D01*
X-23081Y165982D01*
X-22960Y166036D01*
X-22840Y166094D01*
X-22722Y166156D01*
X-22606Y166221D01*
X-22492Y166289D01*
X-22380Y166360D01*
X-22270Y166435D01*
X-22162Y166513D01*
X-22056Y166594D01*
X-21953Y166678D01*
X-21853Y166765D01*
X-21755Y166854D01*
X-21659Y166947D01*
X-21566Y167043D01*
X-21477Y167141D01*
X-21390Y167241D01*
X-21306Y167344D01*
X-21225Y167450D01*
X-21147Y167558D01*
X-21072Y167668D01*
X-21001Y167780D01*
X-20933Y167894D01*
X-20868Y168010D01*
X-20806Y168128D01*
X-20748Y168248D01*
X-20694Y168369D01*
X-20643Y168492D01*
X-20596Y168616D01*
X-20552Y168742D01*
X-20512Y168869D01*
X-20476Y168997D01*
X-20443Y169126D01*
X-20414Y169255D01*
X-20389Y169386D01*
X-20368Y169517D01*
X-20351Y169649D01*
X-20337Y169782D01*
X-20328Y169914D01*
X-20322Y170047D01*
X-20320Y170180D01*
X-20320Y195580D02*
X-20322Y195713D01*
X-20328Y195846D01*
X-20337Y195978D01*
X-20351Y196111D01*
X-20368Y196243D01*
X-20389Y196374D01*
X-20414Y196505D01*
X-20443Y196634D01*
X-20476Y196763D01*
X-20512Y196891D01*
X-20552Y197018D01*
X-20596Y197144D01*
X-20643Y197268D01*
X-20694Y197391D01*
X-20748Y197512D01*
X-20806Y197632D01*
X-20868Y197750D01*
X-20933Y197866D01*
X-21001Y197980D01*
X-21072Y198092D01*
X-21147Y198202D01*
X-21225Y198310D01*
X-21306Y198416D01*
X-21390Y198519D01*
X-21477Y198619D01*
X-21566Y198717D01*
X-21659Y198813D01*
X-21755Y198906D01*
X-21853Y198995D01*
X-21953Y199082D01*
X-22056Y199166D01*
X-22162Y199247D01*
X-22270Y199325D01*
X-22380Y199400D01*
X-22492Y199471D01*
X-22606Y199539D01*
X-22722Y199604D01*
X-22840Y199666D01*
X-22960Y199724D01*
X-23081Y199778D01*
X-23204Y199829D01*
X-23328Y199876D01*
X-23454Y199920D01*
X-23581Y199960D01*
X-23709Y199996D01*
X-23838Y200029D01*
X-23967Y200058D01*
X-24098Y200083D01*
X-24229Y200104D01*
X-24361Y200121D01*
X-24494Y200135D01*
X-24626Y200144D01*
X-24759Y200150D01*
X-24892Y200152D01*
X-36068Y200152D01*
X-36068Y165608D02*
X-24892Y165608D01*
X-40640Y170180D02*
X-40640Y195580D01*
D11*
X-46570Y178315D02*
X-47375Y177510D01*
X-47375Y175900D01*
X-46570Y175095D01*
X-45765Y175095D01*
X-44960Y175900D01*
X-44960Y177510D01*
X-44155Y178315D01*
X-43350Y178315D01*
X-42545Y177510D01*
X-42545Y175900D01*
X-43350Y175095D01*
X-43350Y180708D02*
X-42545Y181513D01*
X-42545Y182318D01*
X-43350Y183124D01*
X-47375Y183124D01*
X-47375Y183929D02*
X-47375Y182318D01*
X-46570Y186322D02*
X-47375Y187127D01*
X-47375Y188737D01*
X-46570Y189542D01*
X-45765Y189542D01*
X-44960Y188737D01*
X-44960Y187932D01*
X-44960Y188737D02*
X-44155Y189542D01*
X-43350Y189542D01*
X-42545Y188737D01*
X-42545Y187127D01*
X-43350Y186322D01*
D10*
X31120Y125504D02*
X111120Y125504D01*
X111120Y65504D01*
X31120Y65504D01*
X31120Y125504D01*
X19558Y132964D02*
X19560Y133092D01*
X19566Y133219D01*
X19576Y133346D01*
X19590Y133473D01*
X19608Y133599D01*
X19629Y133725D01*
X19655Y133850D01*
X19684Y133974D01*
X19718Y134097D01*
X19755Y134219D01*
X19796Y134340D01*
X19840Y134460D01*
X19889Y134578D01*
X19941Y134694D01*
X19996Y134809D01*
X20056Y134922D01*
X20118Y135033D01*
X20184Y135143D01*
X20254Y135250D01*
X20326Y135354D01*
X20402Y135457D01*
X20482Y135557D01*
X20564Y135655D01*
X20649Y135750D01*
X20737Y135842D01*
X20828Y135931D01*
X20922Y136018D01*
X21018Y136102D01*
X21117Y136182D01*
X21218Y136260D01*
X21322Y136334D01*
X21428Y136405D01*
X21536Y136473D01*
X21646Y136538D01*
X21758Y136598D01*
X21872Y136656D01*
X21988Y136710D01*
X22105Y136760D01*
X22224Y136806D01*
X22344Y136849D01*
X22465Y136888D01*
X22588Y136923D01*
X22712Y136955D01*
X22836Y136982D01*
X22962Y137006D01*
X23088Y137026D01*
X23214Y137042D01*
X23341Y137054D01*
X23469Y137062D01*
X23596Y137066D01*
X23724Y137066D01*
X23851Y137062D01*
X23979Y137054D01*
X24106Y137042D01*
X24232Y137026D01*
X24358Y137006D01*
X24484Y136982D01*
X24608Y136955D01*
X24732Y136923D01*
X24855Y136888D01*
X24976Y136849D01*
X25096Y136806D01*
X25215Y136760D01*
X25332Y136710D01*
X25448Y136656D01*
X25562Y136598D01*
X25674Y136538D01*
X25784Y136473D01*
X25892Y136405D01*
X25998Y136334D01*
X26102Y136260D01*
X26203Y136182D01*
X26302Y136102D01*
X26398Y136018D01*
X26492Y135931D01*
X26583Y135842D01*
X26671Y135750D01*
X26756Y135655D01*
X26838Y135557D01*
X26918Y135457D01*
X26994Y135354D01*
X27066Y135250D01*
X27136Y135143D01*
X27202Y135033D01*
X27264Y134922D01*
X27324Y134809D01*
X27379Y134694D01*
X27431Y134578D01*
X27480Y134460D01*
X27524Y134340D01*
X27565Y134219D01*
X27602Y134097D01*
X27636Y133974D01*
X27665Y133850D01*
X27691Y133725D01*
X27712Y133599D01*
X27730Y133473D01*
X27744Y133346D01*
X27754Y133219D01*
X27760Y133092D01*
X27762Y132964D01*
X27760Y132836D01*
X27754Y132709D01*
X27744Y132582D01*
X27730Y132455D01*
X27712Y132329D01*
X27691Y132203D01*
X27665Y132078D01*
X27636Y131954D01*
X27602Y131831D01*
X27565Y131709D01*
X27524Y131588D01*
X27480Y131468D01*
X27431Y131350D01*
X27379Y131234D01*
X27324Y131119D01*
X27264Y131006D01*
X27202Y130895D01*
X27136Y130785D01*
X27066Y130678D01*
X26994Y130574D01*
X26918Y130471D01*
X26838Y130371D01*
X26756Y130273D01*
X26671Y130178D01*
X26583Y130086D01*
X26492Y129997D01*
X26398Y129910D01*
X26302Y129826D01*
X26203Y129746D01*
X26102Y129668D01*
X25998Y129594D01*
X25892Y129523D01*
X25784Y129455D01*
X25674Y129390D01*
X25562Y129330D01*
X25448Y129272D01*
X25332Y129218D01*
X25215Y129168D01*
X25096Y129122D01*
X24976Y129079D01*
X24855Y129040D01*
X24732Y129005D01*
X24608Y128973D01*
X24484Y128946D01*
X24358Y128922D01*
X24232Y128902D01*
X24106Y128886D01*
X23979Y128874D01*
X23851Y128866D01*
X23724Y128862D01*
X23596Y128862D01*
X23469Y128866D01*
X23341Y128874D01*
X23214Y128886D01*
X23088Y128902D01*
X22962Y128922D01*
X22836Y128946D01*
X22712Y128973D01*
X22588Y129005D01*
X22465Y129040D01*
X22344Y129079D01*
X22224Y129122D01*
X22105Y129168D01*
X21988Y129218D01*
X21872Y129272D01*
X21758Y129330D01*
X21646Y129390D01*
X21536Y129455D01*
X21428Y129523D01*
X21322Y129594D01*
X21218Y129668D01*
X21117Y129746D01*
X21018Y129826D01*
X20922Y129910D01*
X20828Y129997D01*
X20737Y130086D01*
X20649Y130178D01*
X20564Y130273D01*
X20482Y130371D01*
X20402Y130471D01*
X20326Y130574D01*
X20254Y130678D01*
X20184Y130785D01*
X20118Y130895D01*
X20056Y131006D01*
X19996Y131119D01*
X19941Y131234D01*
X19889Y131350D01*
X19840Y131468D01*
X19796Y131588D01*
X19755Y131709D01*
X19718Y131831D01*
X19684Y131954D01*
X19655Y132078D01*
X19629Y132203D01*
X19608Y132329D01*
X19590Y132455D01*
X19576Y132582D01*
X19566Y132709D01*
X19560Y132836D01*
X19558Y132964D01*
D11*
X62400Y130642D02*
X62400Y138057D01*
X62400Y130642D02*
X63883Y129159D01*
X66849Y129159D01*
X68332Y130642D01*
X68332Y138057D01*
X71755Y136574D02*
X73238Y138057D01*
X76204Y138057D01*
X77687Y136574D01*
X77687Y135091D01*
X76204Y133608D01*
X77687Y132125D01*
X77687Y130642D01*
X76204Y129159D01*
X73238Y129159D01*
X71755Y130642D01*
X71755Y132125D01*
X73238Y133608D01*
X71755Y135091D01*
X71755Y136574D01*
X73238Y133608D02*
X76204Y133608D01*
M02*
