G04 EAGLE Gerber X2 export*
%TF.Part,Single*%
%TF.FileFunction,Legend,Bot*%
%TF.FilePolarity,Positive*%
%TF.GenerationSoftware,Autodesk,EAGLE,9.6.2*%
%TF.CreationDate,2024-11-13T18:58:01Z*%
G75*
%MOMM*%
%FSLAX44Y44*%
%LPD*%
%INsilkscreen-bottom*%
%AMOC8*
5,1,8,0,0,1.08239X$1,22.5*%
G01*
%ADD10C,0.101600*%
%ADD11C,0.177800*%
%ADD12R,4.064000X2.032000*%
%ADD13C,0.200000*%
%ADD14C,0.127000*%
%ADD15C,0.152400*%
%ADD16R,0.762000X0.457200*%
%ADD17R,0.457200X0.762000*%


D10*
X-331718Y252987D02*
X-331718Y250614D01*
X-332904Y249428D01*
X-337650Y249428D01*
X-338836Y250614D01*
X-338836Y252987D01*
X-337650Y254173D01*
X-332904Y254173D01*
X-331718Y252987D01*
X-331718Y256912D02*
X-338836Y256912D01*
X-338836Y261658D02*
X-331718Y256912D01*
X-331718Y261658D02*
X-338836Y261658D01*
X-331718Y191927D02*
X-331718Y189554D01*
X-332904Y188368D01*
X-337650Y188368D01*
X-338836Y189554D01*
X-338836Y191927D01*
X-337650Y193113D01*
X-332904Y193113D01*
X-331718Y191927D01*
X-331718Y195852D02*
X-338836Y195852D01*
X-331718Y195852D02*
X-331718Y200597D01*
X-335277Y198224D02*
X-335277Y195852D01*
X-338836Y203336D02*
X-331718Y203336D01*
X-331718Y208081D01*
X-335277Y205709D02*
X-335277Y203336D01*
X-227775Y54800D02*
X-228023Y53874D01*
X-227775Y54800D02*
X-226600Y55478D01*
X-225674Y55230D01*
X-224319Y52881D01*
X-224567Y51955D01*
X-225741Y51278D01*
X-226667Y51526D01*
X-227345Y52700D01*
X-226171Y53378D01*
X-228031Y49956D02*
X-230064Y53478D01*
X-230379Y48600D01*
X-232413Y52122D01*
X-234115Y51139D02*
X-232082Y47617D01*
X-233843Y46600D01*
X-234769Y46848D01*
X-236125Y49196D01*
X-235877Y50122D01*
X-234115Y51139D01*
X-244308Y45810D02*
X-242952Y43462D01*
X-243448Y41610D01*
X-245300Y42106D01*
X-246656Y44455D01*
X-248359Y43472D02*
X-246325Y39949D01*
X-248359Y43472D02*
X-250120Y42455D01*
X-250368Y41529D01*
X-250029Y40942D01*
X-249103Y40693D01*
X-249351Y39767D01*
X-249012Y39180D01*
X-248086Y38932D01*
X-246325Y39949D01*
X-247342Y41710D02*
X-249103Y40693D01*
X-251732Y39959D02*
X-250376Y37610D01*
X-251732Y39959D02*
X-253584Y40455D01*
X-254080Y38603D01*
X-252724Y36254D01*
X-253741Y38016D02*
X-251393Y39371D01*
X-255601Y34593D02*
X-257635Y38116D01*
X-256461Y38794D02*
X-258809Y37438D01*
D11*
X329814Y224922D02*
X334009Y224922D01*
X335407Y223524D01*
X335407Y220727D01*
X334009Y219329D01*
X329814Y219329D01*
X326052Y220727D02*
X326052Y226320D01*
X324654Y227718D01*
X321857Y227718D01*
X320459Y226320D01*
X320459Y220727D01*
X321857Y219329D01*
X324654Y219329D01*
X326052Y220727D01*
X320459Y226320D01*
X316697Y224922D02*
X315298Y224922D01*
X315298Y223524D01*
X316697Y223524D01*
X316697Y224922D01*
X316697Y220727D02*
X315298Y220727D01*
X315298Y219329D01*
X316697Y219329D01*
X316697Y220727D01*
X312019Y220727D02*
X310621Y219329D01*
X307824Y219329D01*
X306426Y220727D01*
X306426Y226320D01*
X307824Y227718D01*
X310621Y227718D01*
X312019Y226320D01*
X312019Y224922D01*
X310621Y223524D01*
X306426Y223524D01*
X302664Y226320D02*
X301266Y227718D01*
X298469Y227718D01*
X297071Y226320D01*
X297071Y224922D01*
X298469Y223524D01*
X297071Y222125D01*
X297071Y220727D01*
X298469Y219329D01*
X301266Y219329D01*
X302664Y220727D01*
X302664Y222125D01*
X301266Y223524D01*
X302664Y224922D01*
X302664Y226320D01*
X301266Y223524D02*
X298469Y223524D01*
X293309Y224922D02*
X291910Y224922D01*
X291910Y223524D01*
X293309Y223524D01*
X293309Y224922D01*
X293309Y220727D02*
X291910Y220727D01*
X291910Y219329D01*
X293309Y219329D01*
X293309Y220727D01*
X287233Y219329D02*
X284437Y219329D01*
X287233Y219329D02*
X288631Y220727D01*
X288631Y223524D01*
X287233Y224922D01*
X284437Y224922D01*
X283038Y223524D01*
X283038Y222125D01*
X288631Y222125D01*
X279276Y227718D02*
X273683Y227718D01*
X279276Y227718D02*
X279276Y223524D01*
X276480Y224922D01*
X275081Y224922D01*
X273683Y223524D01*
X273683Y220727D01*
X275081Y219329D01*
X277878Y219329D01*
X279276Y220727D01*
X269921Y224922D02*
X268523Y224922D01*
X268523Y223524D01*
X269921Y223524D01*
X269921Y224922D01*
X269921Y220727D02*
X268523Y220727D01*
X268523Y219329D01*
X269921Y219329D01*
X269921Y220727D01*
X261049Y219329D02*
X261049Y227718D01*
X265243Y223524D01*
X259650Y223524D01*
X255888Y219329D02*
X250295Y219329D01*
X255888Y219329D02*
X250295Y224922D01*
X250295Y226320D01*
X251693Y227718D01*
X254490Y227718D01*
X255888Y226320D01*
D12*
X315976Y205232D03*
D11*
X293319Y207472D02*
X291921Y207472D01*
X291921Y206074D01*
X293319Y206074D01*
X293319Y207472D01*
X293319Y203277D02*
X291921Y203277D01*
X291921Y201879D01*
X293319Y201879D01*
X293319Y203277D01*
D12*
X269240Y205232D03*
D11*
X246532Y206608D02*
X245134Y206608D01*
X245134Y205210D01*
X246532Y205210D01*
X246532Y206608D01*
X246532Y202414D02*
X245134Y202414D01*
X245134Y201016D01*
X246532Y201016D01*
X246532Y202414D01*
D10*
X196007Y86626D02*
X196854Y85779D01*
X196854Y84084D01*
X196007Y83237D01*
X195160Y83237D01*
X194312Y84084D01*
X194312Y85779D01*
X193465Y86626D01*
X192617Y86626D01*
X191770Y85779D01*
X191770Y84084D01*
X192617Y83237D01*
X191770Y88850D02*
X196854Y88850D01*
X193465Y90545D02*
X191770Y88850D01*
X193465Y90545D02*
X191770Y92239D01*
X196854Y92239D01*
X196854Y94463D02*
X191770Y94463D01*
X191770Y97005D01*
X192617Y97852D01*
X196007Y97852D01*
X196854Y97005D01*
X196854Y94463D01*
X93391Y238986D02*
X90001Y238986D01*
X89154Y239834D01*
X92544Y239834D02*
X92544Y238139D01*
X92544Y241881D02*
X89154Y241881D01*
X90849Y241881D02*
X92544Y243576D01*
X92544Y244423D01*
X92544Y247406D02*
X92544Y249101D01*
X91696Y249948D01*
X89154Y249948D01*
X89154Y247406D01*
X90001Y246559D01*
X90849Y247406D01*
X90849Y249948D01*
X92544Y253019D02*
X92544Y255561D01*
X92544Y253019D02*
X91696Y252172D01*
X90001Y252172D01*
X89154Y253019D01*
X89154Y255561D01*
X89154Y258632D02*
X89154Y260327D01*
X89154Y258632D02*
X90001Y257785D01*
X91696Y257785D01*
X92544Y258632D01*
X92544Y260327D01*
X91696Y261174D01*
X90849Y261174D01*
X90849Y257785D01*
D13*
X-328190Y255314D02*
X-328190Y226414D01*
X-343190Y226414D01*
X-343190Y211414D01*
X-328190Y211414D01*
X-328190Y197314D01*
X-317690Y260814D02*
X-309690Y260814D01*
X-309690Y191814D02*
X-317690Y191814D01*
X-299190Y210314D02*
X-299190Y227314D01*
X-305690Y209314D02*
X-305688Y209377D01*
X-305682Y209439D01*
X-305672Y209501D01*
X-305659Y209563D01*
X-305641Y209623D01*
X-305620Y209682D01*
X-305595Y209740D01*
X-305566Y209796D01*
X-305534Y209850D01*
X-305499Y209902D01*
X-305461Y209951D01*
X-305419Y209999D01*
X-305375Y210043D01*
X-305327Y210085D01*
X-305278Y210123D01*
X-305226Y210158D01*
X-305172Y210190D01*
X-305116Y210219D01*
X-305058Y210244D01*
X-304999Y210265D01*
X-304939Y210283D01*
X-304877Y210296D01*
X-304815Y210306D01*
X-304753Y210312D01*
X-304690Y210314D01*
X-304627Y210312D01*
X-304565Y210306D01*
X-304503Y210296D01*
X-304441Y210283D01*
X-304381Y210265D01*
X-304322Y210244D01*
X-304264Y210219D01*
X-304208Y210190D01*
X-304154Y210158D01*
X-304102Y210123D01*
X-304053Y210085D01*
X-304005Y210043D01*
X-303961Y209999D01*
X-303919Y209951D01*
X-303881Y209902D01*
X-303846Y209850D01*
X-303814Y209796D01*
X-303785Y209740D01*
X-303760Y209682D01*
X-303739Y209623D01*
X-303721Y209563D01*
X-303708Y209501D01*
X-303698Y209439D01*
X-303692Y209377D01*
X-303690Y209314D01*
X-303692Y209251D01*
X-303698Y209189D01*
X-303708Y209127D01*
X-303721Y209065D01*
X-303739Y209005D01*
X-303760Y208946D01*
X-303785Y208888D01*
X-303814Y208832D01*
X-303846Y208778D01*
X-303881Y208726D01*
X-303919Y208677D01*
X-303961Y208629D01*
X-304005Y208585D01*
X-304053Y208543D01*
X-304102Y208505D01*
X-304154Y208470D01*
X-304208Y208438D01*
X-304264Y208409D01*
X-304322Y208384D01*
X-304381Y208363D01*
X-304441Y208345D01*
X-304503Y208332D01*
X-304565Y208322D01*
X-304627Y208316D01*
X-304690Y208314D01*
X-304753Y208316D01*
X-304815Y208322D01*
X-304877Y208332D01*
X-304939Y208345D01*
X-304999Y208363D01*
X-305058Y208384D01*
X-305116Y208409D01*
X-305172Y208438D01*
X-305226Y208470D01*
X-305278Y208505D01*
X-305327Y208543D01*
X-305375Y208585D01*
X-305419Y208629D01*
X-305461Y208677D01*
X-305499Y208726D01*
X-305534Y208778D01*
X-305566Y208832D01*
X-305595Y208888D01*
X-305620Y208946D01*
X-305641Y209005D01*
X-305659Y209065D01*
X-305672Y209127D01*
X-305682Y209189D01*
X-305688Y209251D01*
X-305690Y209314D01*
D14*
X-291602Y17150D02*
X-291602Y9650D01*
X-324602Y9650D01*
X-324602Y17150D01*
X-337102Y17150D01*
X-337102Y67150D01*
X-279102Y67150D01*
X-279102Y17150D01*
X-291602Y17150D01*
X-308102Y2150D02*
X-308102Y-17850D01*
X-301102Y-4850D02*
X-308102Y2150D01*
X-315102Y-4850D01*
D10*
X-275082Y18098D02*
X-274404Y17420D01*
X-275082Y18098D02*
X-275082Y18776D01*
X-274404Y19454D01*
X-271015Y19454D01*
X-271015Y18776D02*
X-271015Y20132D01*
X-271015Y24132D02*
X-275082Y24132D01*
X-273048Y22098D02*
X-271015Y24132D01*
X-273048Y24810D02*
X-273048Y22098D01*
D14*
X144018Y-20828D02*
X144325Y-20832D01*
X144632Y-20843D01*
X144938Y-20861D01*
X145244Y-20887D01*
X145549Y-20921D01*
X145853Y-20961D01*
X146156Y-21009D01*
X146458Y-21065D01*
X146758Y-21127D01*
X147057Y-21197D01*
X147354Y-21274D01*
X147650Y-21358D01*
X147943Y-21450D01*
X148233Y-21548D01*
X148521Y-21653D01*
X148807Y-21766D01*
X149090Y-21885D01*
X149370Y-22011D01*
X149647Y-22143D01*
X149920Y-22283D01*
X150190Y-22429D01*
X150456Y-22581D01*
X150719Y-22740D01*
X150978Y-22905D01*
X151232Y-23076D01*
X151483Y-23253D01*
X151729Y-23437D01*
X151971Y-23626D01*
X152207Y-23821D01*
X152440Y-24022D01*
X152667Y-24228D01*
X152889Y-24440D01*
X153106Y-24657D01*
X153318Y-24879D01*
X153524Y-25106D01*
X153725Y-25339D01*
X153920Y-25575D01*
X154109Y-25817D01*
X154293Y-26063D01*
X154470Y-26314D01*
X154641Y-26568D01*
X154806Y-26827D01*
X154965Y-27090D01*
X155117Y-27356D01*
X155263Y-27626D01*
X155403Y-27899D01*
X155535Y-28176D01*
X155661Y-28456D01*
X155780Y-28739D01*
X155893Y-29025D01*
X155998Y-29313D01*
X156096Y-29603D01*
X156188Y-29896D01*
X156272Y-30192D01*
X156349Y-30489D01*
X156419Y-30788D01*
X156481Y-31088D01*
X156537Y-31390D01*
X156585Y-31693D01*
X156625Y-31997D01*
X156659Y-32302D01*
X156685Y-32608D01*
X156703Y-32914D01*
X156714Y-33221D01*
X156718Y-33528D01*
X156714Y-33835D01*
X156703Y-34142D01*
X156685Y-34448D01*
X156659Y-34754D01*
X156625Y-35059D01*
X156585Y-35363D01*
X156537Y-35666D01*
X156481Y-35968D01*
X156419Y-36268D01*
X156349Y-36567D01*
X156272Y-36864D01*
X156188Y-37160D01*
X156096Y-37453D01*
X155998Y-37743D01*
X155893Y-38031D01*
X155780Y-38317D01*
X155661Y-38600D01*
X155535Y-38880D01*
X155403Y-39157D01*
X155263Y-39430D01*
X155117Y-39700D01*
X154965Y-39966D01*
X154806Y-40229D01*
X154641Y-40488D01*
X154470Y-40742D01*
X154293Y-40993D01*
X154109Y-41239D01*
X153920Y-41481D01*
X153725Y-41717D01*
X153524Y-41950D01*
X153318Y-42177D01*
X153106Y-42399D01*
X152889Y-42616D01*
X152667Y-42828D01*
X152440Y-43034D01*
X152207Y-43235D01*
X151971Y-43430D01*
X151729Y-43619D01*
X151483Y-43803D01*
X151232Y-43980D01*
X150978Y-44151D01*
X150719Y-44316D01*
X150456Y-44475D01*
X150190Y-44627D01*
X149920Y-44773D01*
X149647Y-44913D01*
X149370Y-45045D01*
X149090Y-45171D01*
X148807Y-45290D01*
X148521Y-45403D01*
X148233Y-45508D01*
X147943Y-45606D01*
X147650Y-45698D01*
X147354Y-45782D01*
X147057Y-45859D01*
X146758Y-45929D01*
X146458Y-45991D01*
X146156Y-46047D01*
X145853Y-46095D01*
X145549Y-46135D01*
X145244Y-46169D01*
X144938Y-46195D01*
X144632Y-46213D01*
X144325Y-46224D01*
X144018Y-46228D01*
X126238Y-46228D01*
X125931Y-46224D01*
X125624Y-46213D01*
X125318Y-46195D01*
X125012Y-46169D01*
X124707Y-46135D01*
X124403Y-46095D01*
X124100Y-46047D01*
X123798Y-45991D01*
X123498Y-45929D01*
X123199Y-45859D01*
X122902Y-45782D01*
X122606Y-45698D01*
X122313Y-45606D01*
X122023Y-45508D01*
X121735Y-45403D01*
X121449Y-45290D01*
X121166Y-45171D01*
X120886Y-45045D01*
X120609Y-44913D01*
X120336Y-44773D01*
X120066Y-44627D01*
X119800Y-44475D01*
X119537Y-44316D01*
X119278Y-44151D01*
X119024Y-43980D01*
X118773Y-43803D01*
X118527Y-43619D01*
X118285Y-43430D01*
X118049Y-43235D01*
X117816Y-43034D01*
X117589Y-42828D01*
X117367Y-42616D01*
X117150Y-42399D01*
X116938Y-42177D01*
X116732Y-41950D01*
X116531Y-41717D01*
X116336Y-41481D01*
X116147Y-41239D01*
X115963Y-40993D01*
X115786Y-40742D01*
X115615Y-40488D01*
X115450Y-40229D01*
X115291Y-39966D01*
X115139Y-39700D01*
X114993Y-39430D01*
X114853Y-39157D01*
X114721Y-38880D01*
X114595Y-38600D01*
X114476Y-38317D01*
X114363Y-38031D01*
X114258Y-37743D01*
X114160Y-37453D01*
X114068Y-37160D01*
X113984Y-36864D01*
X113907Y-36567D01*
X113837Y-36268D01*
X113775Y-35968D01*
X113719Y-35666D01*
X113671Y-35363D01*
X113631Y-35059D01*
X113597Y-34754D01*
X113571Y-34448D01*
X113553Y-34142D01*
X113542Y-33835D01*
X113538Y-33528D01*
X113542Y-33221D01*
X113553Y-32914D01*
X113571Y-32608D01*
X113597Y-32302D01*
X113631Y-31997D01*
X113671Y-31693D01*
X113719Y-31390D01*
X113775Y-31088D01*
X113837Y-30788D01*
X113907Y-30489D01*
X113984Y-30192D01*
X114068Y-29896D01*
X114160Y-29603D01*
X114258Y-29313D01*
X114363Y-29025D01*
X114476Y-28739D01*
X114595Y-28456D01*
X114721Y-28176D01*
X114853Y-27899D01*
X114993Y-27626D01*
X115139Y-27356D01*
X115291Y-27090D01*
X115450Y-26827D01*
X115615Y-26568D01*
X115786Y-26314D01*
X115963Y-26063D01*
X116147Y-25817D01*
X116336Y-25575D01*
X116531Y-25339D01*
X116732Y-25106D01*
X116938Y-24879D01*
X117150Y-24657D01*
X117367Y-24440D01*
X117589Y-24228D01*
X117816Y-24022D01*
X118049Y-23821D01*
X118285Y-23626D01*
X118527Y-23437D01*
X118773Y-23253D01*
X119024Y-23076D01*
X119278Y-22905D01*
X119537Y-22740D01*
X119800Y-22581D01*
X120066Y-22429D01*
X120336Y-22283D01*
X120609Y-22143D01*
X120886Y-22011D01*
X121166Y-21885D01*
X121449Y-21766D01*
X121735Y-21653D01*
X122023Y-21548D01*
X122313Y-21450D01*
X122606Y-21358D01*
X122902Y-21274D01*
X123199Y-21197D01*
X123498Y-21127D01*
X123798Y-21065D01*
X124100Y-21009D01*
X124403Y-20961D01*
X124707Y-20921D01*
X125012Y-20887D01*
X125318Y-20861D01*
X125624Y-20843D01*
X125931Y-20832D01*
X126238Y-20828D01*
X144018Y-20828D01*
D15*
X-219964Y105156D02*
X-245364Y105156D01*
X-249936Y120904D02*
X-249934Y121037D01*
X-249928Y121170D01*
X-249919Y121302D01*
X-249905Y121435D01*
X-249888Y121567D01*
X-249867Y121698D01*
X-249842Y121829D01*
X-249813Y121958D01*
X-249780Y122087D01*
X-249744Y122215D01*
X-249704Y122342D01*
X-249660Y122468D01*
X-249613Y122592D01*
X-249562Y122715D01*
X-249508Y122836D01*
X-249450Y122956D01*
X-249388Y123074D01*
X-249323Y123190D01*
X-249255Y123304D01*
X-249184Y123416D01*
X-249109Y123526D01*
X-249031Y123634D01*
X-248950Y123740D01*
X-248866Y123843D01*
X-248779Y123943D01*
X-248690Y124041D01*
X-248597Y124137D01*
X-248501Y124230D01*
X-248403Y124319D01*
X-248303Y124406D01*
X-248200Y124490D01*
X-248094Y124571D01*
X-247986Y124649D01*
X-247876Y124724D01*
X-247764Y124795D01*
X-247650Y124863D01*
X-247534Y124928D01*
X-247416Y124990D01*
X-247296Y125048D01*
X-247175Y125102D01*
X-247052Y125153D01*
X-246928Y125200D01*
X-246802Y125244D01*
X-246675Y125284D01*
X-246547Y125320D01*
X-246418Y125353D01*
X-246289Y125382D01*
X-246158Y125407D01*
X-246027Y125428D01*
X-245895Y125445D01*
X-245762Y125459D01*
X-245630Y125468D01*
X-245497Y125474D01*
X-245364Y125476D01*
X-219964Y125476D02*
X-219831Y125474D01*
X-219698Y125468D01*
X-219566Y125459D01*
X-219433Y125445D01*
X-219301Y125428D01*
X-219170Y125407D01*
X-219039Y125382D01*
X-218910Y125353D01*
X-218781Y125320D01*
X-218653Y125284D01*
X-218526Y125244D01*
X-218400Y125200D01*
X-218276Y125153D01*
X-218153Y125102D01*
X-218032Y125048D01*
X-217912Y124990D01*
X-217794Y124928D01*
X-217678Y124863D01*
X-217564Y124795D01*
X-217452Y124724D01*
X-217342Y124649D01*
X-217234Y124571D01*
X-217128Y124490D01*
X-217025Y124406D01*
X-216925Y124319D01*
X-216827Y124230D01*
X-216731Y124137D01*
X-216638Y124041D01*
X-216549Y123943D01*
X-216462Y123843D01*
X-216378Y123740D01*
X-216297Y123634D01*
X-216219Y123526D01*
X-216144Y123416D01*
X-216073Y123304D01*
X-216005Y123190D01*
X-215940Y123074D01*
X-215878Y122956D01*
X-215820Y122836D01*
X-215766Y122715D01*
X-215715Y122592D01*
X-215668Y122468D01*
X-215624Y122342D01*
X-215584Y122215D01*
X-215548Y122087D01*
X-215515Y121958D01*
X-215486Y121829D01*
X-215461Y121698D01*
X-215440Y121567D01*
X-215423Y121435D01*
X-215409Y121302D01*
X-215400Y121170D01*
X-215394Y121037D01*
X-215392Y120904D01*
X-215392Y109728D02*
X-215394Y109595D01*
X-215400Y109462D01*
X-215409Y109330D01*
X-215423Y109197D01*
X-215440Y109065D01*
X-215461Y108934D01*
X-215486Y108803D01*
X-215515Y108674D01*
X-215548Y108545D01*
X-215584Y108417D01*
X-215624Y108290D01*
X-215668Y108164D01*
X-215715Y108040D01*
X-215766Y107917D01*
X-215820Y107796D01*
X-215878Y107676D01*
X-215940Y107558D01*
X-216005Y107442D01*
X-216073Y107328D01*
X-216144Y107216D01*
X-216219Y107106D01*
X-216297Y106998D01*
X-216378Y106892D01*
X-216462Y106789D01*
X-216549Y106689D01*
X-216638Y106591D01*
X-216731Y106495D01*
X-216827Y106402D01*
X-216925Y106313D01*
X-217025Y106226D01*
X-217128Y106142D01*
X-217234Y106061D01*
X-217342Y105983D01*
X-217452Y105908D01*
X-217564Y105837D01*
X-217678Y105769D01*
X-217794Y105704D01*
X-217912Y105642D01*
X-218032Y105584D01*
X-218153Y105530D01*
X-218276Y105479D01*
X-218400Y105432D01*
X-218526Y105388D01*
X-218653Y105348D01*
X-218781Y105312D01*
X-218910Y105279D01*
X-219039Y105250D01*
X-219170Y105225D01*
X-219301Y105204D01*
X-219433Y105187D01*
X-219566Y105173D01*
X-219698Y105164D01*
X-219831Y105158D01*
X-219964Y105156D01*
X-245364Y105156D02*
X-245497Y105158D01*
X-245630Y105164D01*
X-245762Y105173D01*
X-245895Y105187D01*
X-246027Y105204D01*
X-246158Y105225D01*
X-246289Y105250D01*
X-246418Y105279D01*
X-246547Y105312D01*
X-246675Y105348D01*
X-246802Y105388D01*
X-246928Y105432D01*
X-247052Y105479D01*
X-247175Y105530D01*
X-247296Y105584D01*
X-247416Y105642D01*
X-247534Y105704D01*
X-247650Y105769D01*
X-247764Y105837D01*
X-247876Y105908D01*
X-247986Y105983D01*
X-248094Y106061D01*
X-248200Y106142D01*
X-248303Y106226D01*
X-248403Y106313D01*
X-248501Y106402D01*
X-248597Y106495D01*
X-248690Y106591D01*
X-248779Y106689D01*
X-248866Y106789D01*
X-248950Y106892D01*
X-249031Y106998D01*
X-249109Y107106D01*
X-249184Y107216D01*
X-249255Y107328D01*
X-249323Y107442D01*
X-249388Y107558D01*
X-249450Y107676D01*
X-249508Y107796D01*
X-249562Y107917D01*
X-249613Y108040D01*
X-249660Y108164D01*
X-249704Y108290D01*
X-249744Y108417D01*
X-249780Y108545D01*
X-249813Y108674D01*
X-249842Y108803D01*
X-249867Y108934D01*
X-249888Y109065D01*
X-249905Y109197D01*
X-249919Y109330D01*
X-249928Y109462D01*
X-249934Y109595D01*
X-249936Y109728D01*
X-249936Y120904D01*
X-215392Y120904D02*
X-215392Y109728D01*
X-219964Y125476D02*
X-245364Y125476D01*
D10*
X-227681Y103127D02*
X-228359Y102450D01*
X-227681Y103127D02*
X-226326Y103127D01*
X-225648Y102450D01*
X-225648Y101772D01*
X-226326Y101094D01*
X-227681Y101094D01*
X-228359Y100416D01*
X-228359Y99738D01*
X-227681Y99060D01*
X-226326Y99060D01*
X-225648Y99738D01*
X-230325Y99738D02*
X-231003Y99060D01*
X-231681Y99060D01*
X-232359Y99738D01*
X-232359Y103127D01*
X-231681Y103127D02*
X-233037Y103127D01*
X-235003Y99060D02*
X-237714Y99060D01*
X-235003Y99060D02*
X-237714Y101772D01*
X-237714Y102450D01*
X-237037Y103127D01*
X-235681Y103127D01*
X-235003Y102450D01*
D14*
X321752Y240096D02*
X321752Y280096D01*
X281752Y280096D01*
X281752Y240096D01*
X321752Y240096D01*
X306752Y290096D02*
X296752Y290096D01*
X301752Y285096D02*
X301752Y295096D01*
D10*
X325120Y253588D02*
X329187Y253588D01*
X325120Y253588D02*
X325120Y256299D01*
X329187Y260299D02*
X328510Y260977D01*
X329187Y260299D02*
X329187Y258943D01*
X328510Y258265D01*
X327832Y258265D01*
X327154Y258943D01*
X327154Y260299D01*
X326476Y260977D01*
X325798Y260977D01*
X325120Y260299D01*
X325120Y258943D01*
X325798Y258265D01*
X327832Y262943D02*
X329187Y264299D01*
X325120Y264299D01*
X325120Y265654D02*
X325120Y262943D01*
D15*
X279146Y282702D02*
X263906Y282702D01*
X259334Y298450D02*
X259336Y298583D01*
X259342Y298716D01*
X259351Y298848D01*
X259365Y298981D01*
X259382Y299113D01*
X259403Y299244D01*
X259428Y299375D01*
X259457Y299504D01*
X259490Y299633D01*
X259526Y299761D01*
X259566Y299888D01*
X259610Y300014D01*
X259657Y300138D01*
X259708Y300261D01*
X259762Y300382D01*
X259820Y300502D01*
X259882Y300620D01*
X259947Y300736D01*
X260015Y300850D01*
X260086Y300962D01*
X260161Y301072D01*
X260239Y301180D01*
X260320Y301286D01*
X260404Y301389D01*
X260491Y301489D01*
X260580Y301587D01*
X260673Y301683D01*
X260769Y301776D01*
X260867Y301865D01*
X260967Y301952D01*
X261070Y302036D01*
X261176Y302117D01*
X261284Y302195D01*
X261394Y302270D01*
X261506Y302341D01*
X261620Y302409D01*
X261736Y302474D01*
X261854Y302536D01*
X261974Y302594D01*
X262095Y302648D01*
X262218Y302699D01*
X262342Y302746D01*
X262468Y302790D01*
X262595Y302830D01*
X262723Y302866D01*
X262852Y302899D01*
X262981Y302928D01*
X263112Y302953D01*
X263243Y302974D01*
X263375Y302991D01*
X263508Y303005D01*
X263640Y303014D01*
X263773Y303020D01*
X263906Y303022D01*
X279146Y303022D02*
X279279Y303020D01*
X279412Y303014D01*
X279544Y303005D01*
X279677Y302991D01*
X279809Y302974D01*
X279940Y302953D01*
X280071Y302928D01*
X280200Y302899D01*
X280329Y302866D01*
X280457Y302830D01*
X280584Y302790D01*
X280710Y302746D01*
X280834Y302699D01*
X280957Y302648D01*
X281078Y302594D01*
X281198Y302536D01*
X281316Y302474D01*
X281432Y302409D01*
X281546Y302341D01*
X281658Y302270D01*
X281768Y302195D01*
X281876Y302117D01*
X281982Y302036D01*
X282085Y301952D01*
X282185Y301865D01*
X282283Y301776D01*
X282379Y301683D01*
X282472Y301587D01*
X282561Y301489D01*
X282648Y301389D01*
X282732Y301286D01*
X282813Y301180D01*
X282891Y301072D01*
X282966Y300962D01*
X283037Y300850D01*
X283105Y300736D01*
X283170Y300620D01*
X283232Y300502D01*
X283290Y300382D01*
X283344Y300261D01*
X283395Y300138D01*
X283442Y300014D01*
X283486Y299888D01*
X283526Y299761D01*
X283562Y299633D01*
X283595Y299504D01*
X283624Y299375D01*
X283649Y299244D01*
X283670Y299113D01*
X283687Y298981D01*
X283701Y298848D01*
X283710Y298716D01*
X283716Y298583D01*
X283718Y298450D01*
X283718Y287274D02*
X283716Y287141D01*
X283710Y287008D01*
X283701Y286876D01*
X283687Y286743D01*
X283670Y286611D01*
X283649Y286480D01*
X283624Y286349D01*
X283595Y286220D01*
X283562Y286091D01*
X283526Y285963D01*
X283486Y285836D01*
X283442Y285710D01*
X283395Y285586D01*
X283344Y285463D01*
X283290Y285342D01*
X283232Y285222D01*
X283170Y285104D01*
X283105Y284988D01*
X283037Y284874D01*
X282966Y284762D01*
X282891Y284652D01*
X282813Y284544D01*
X282732Y284438D01*
X282648Y284335D01*
X282561Y284235D01*
X282472Y284137D01*
X282379Y284041D01*
X282283Y283948D01*
X282185Y283859D01*
X282085Y283772D01*
X281982Y283688D01*
X281876Y283607D01*
X281768Y283529D01*
X281658Y283454D01*
X281546Y283383D01*
X281432Y283315D01*
X281316Y283250D01*
X281198Y283188D01*
X281078Y283130D01*
X280957Y283076D01*
X280834Y283025D01*
X280710Y282978D01*
X280584Y282934D01*
X280457Y282894D01*
X280329Y282858D01*
X280200Y282825D01*
X280071Y282796D01*
X279940Y282771D01*
X279809Y282750D01*
X279677Y282733D01*
X279544Y282719D01*
X279412Y282710D01*
X279279Y282704D01*
X279146Y282702D01*
X263906Y282702D02*
X263773Y282704D01*
X263640Y282710D01*
X263508Y282719D01*
X263375Y282733D01*
X263243Y282750D01*
X263112Y282771D01*
X262981Y282796D01*
X262852Y282825D01*
X262723Y282858D01*
X262595Y282894D01*
X262468Y282934D01*
X262342Y282978D01*
X262218Y283025D01*
X262095Y283076D01*
X261974Y283130D01*
X261854Y283188D01*
X261736Y283250D01*
X261620Y283315D01*
X261506Y283383D01*
X261394Y283454D01*
X261284Y283529D01*
X261176Y283607D01*
X261070Y283688D01*
X260967Y283772D01*
X260867Y283859D01*
X260769Y283948D01*
X260673Y284041D01*
X260580Y284137D01*
X260491Y284235D01*
X260404Y284335D01*
X260320Y284438D01*
X260239Y284544D01*
X260161Y284652D01*
X260086Y284762D01*
X260015Y284874D01*
X259947Y284988D01*
X259882Y285104D01*
X259820Y285222D01*
X259762Y285342D01*
X259708Y285463D01*
X259657Y285586D01*
X259610Y285710D01*
X259566Y285836D01*
X259526Y285963D01*
X259490Y286091D01*
X259457Y286220D01*
X259428Y286349D01*
X259403Y286480D01*
X259382Y286611D01*
X259365Y286743D01*
X259351Y286876D01*
X259342Y287008D01*
X259336Y287141D01*
X259334Y287274D01*
X259334Y298450D01*
X283718Y298450D02*
X283718Y287274D01*
X279146Y303022D02*
X263906Y303022D01*
D10*
X256374Y289065D02*
X257051Y288387D01*
X257051Y287032D01*
X256374Y286354D01*
X255696Y286354D01*
X255018Y287032D01*
X255018Y288387D01*
X254340Y289065D01*
X253662Y289065D01*
X252984Y288387D01*
X252984Y287032D01*
X253662Y286354D01*
X253662Y291031D02*
X252984Y291709D01*
X252984Y292387D01*
X253662Y293065D01*
X257051Y293065D01*
X257051Y292387D02*
X257051Y293743D01*
X255696Y295709D02*
X257051Y297065D01*
X252984Y297065D01*
X252984Y298420D02*
X252984Y295709D01*
D16*
X311912Y53848D03*
D10*
X303788Y45936D02*
X298704Y45936D01*
X303788Y45936D02*
X303788Y48478D01*
X302941Y49326D01*
X301246Y49326D01*
X300399Y48478D01*
X300399Y45936D01*
X300399Y47631D02*
X298704Y49326D01*
X303788Y51549D02*
X298704Y54939D01*
X298704Y51549D02*
X303788Y54939D01*
X303788Y57163D02*
X303788Y60552D01*
X303788Y57163D02*
X301246Y57163D01*
X302094Y58857D01*
X302094Y59705D01*
X301246Y60552D01*
X299551Y60552D01*
X298704Y59705D01*
X298704Y58010D01*
X299551Y57163D01*
D17*
X253492Y169164D03*
D10*
X260000Y163071D02*
X260000Y159004D01*
X260000Y163071D02*
X257967Y163071D01*
X257289Y162394D01*
X257289Y161038D01*
X257967Y160360D01*
X260000Y160360D01*
X258645Y160360D02*
X257289Y159004D01*
X255323Y163071D02*
X252611Y159004D01*
X255323Y159004D02*
X252611Y163071D01*
X249289Y162394D02*
X247934Y163071D01*
X249289Y162394D02*
X250645Y161038D01*
X250645Y159682D01*
X249967Y159004D01*
X248612Y159004D01*
X247934Y159682D01*
X247934Y160360D01*
X248612Y161038D01*
X250645Y161038D01*
D17*
X212852Y71499D03*
D10*
X219360Y77595D02*
X219360Y81663D01*
X217327Y81663D01*
X216649Y80985D01*
X216649Y79629D01*
X217327Y78951D01*
X219360Y78951D01*
X218005Y78951D02*
X216649Y77595D01*
X214683Y81663D02*
X211971Y77595D01*
X214683Y77595D02*
X211971Y81663D01*
X210005Y80985D02*
X209327Y81663D01*
X207971Y81663D01*
X207294Y80985D01*
X207294Y80307D01*
X207971Y79629D01*
X207294Y78951D01*
X207294Y78273D01*
X207971Y77595D01*
X209327Y77595D01*
X210005Y78273D01*
X210005Y78951D01*
X209327Y79629D01*
X210005Y80307D01*
X210005Y80985D01*
X209327Y79629D02*
X207971Y79629D01*
D17*
X38608Y79248D03*
D10*
X43083Y73155D02*
X42405Y72478D01*
X43083Y73155D02*
X44439Y73155D01*
X45116Y72478D01*
X45116Y69766D01*
X44439Y69088D01*
X43083Y69088D01*
X42405Y69766D01*
X40439Y73155D02*
X37727Y69088D01*
X40439Y69088D02*
X37727Y73155D01*
X35761Y71800D02*
X34405Y73155D01*
X34405Y69088D01*
X33050Y69088D02*
X35761Y69088D01*
D17*
X41656Y61976D03*
D10*
X46131Y55883D02*
X45453Y55206D01*
X46131Y55883D02*
X47487Y55883D01*
X48164Y55206D01*
X48164Y52494D01*
X47487Y51816D01*
X46131Y51816D01*
X45453Y52494D01*
X43487Y55883D02*
X40775Y51816D01*
X43487Y51816D02*
X40775Y55883D01*
X38809Y51816D02*
X36098Y51816D01*
X38809Y51816D02*
X36098Y54528D01*
X36098Y55206D01*
X36776Y55883D01*
X38131Y55883D01*
X38809Y55206D01*
D15*
X-111252Y229616D02*
X-136652Y229616D01*
X-111252Y209296D02*
X-111119Y209298D01*
X-110986Y209304D01*
X-110854Y209313D01*
X-110721Y209327D01*
X-110589Y209344D01*
X-110458Y209365D01*
X-110327Y209390D01*
X-110198Y209419D01*
X-110069Y209452D01*
X-109941Y209488D01*
X-109814Y209528D01*
X-109688Y209572D01*
X-109564Y209619D01*
X-109441Y209670D01*
X-109320Y209724D01*
X-109200Y209782D01*
X-109082Y209844D01*
X-108966Y209909D01*
X-108852Y209977D01*
X-108740Y210048D01*
X-108630Y210123D01*
X-108522Y210201D01*
X-108416Y210282D01*
X-108313Y210366D01*
X-108213Y210453D01*
X-108115Y210542D01*
X-108019Y210635D01*
X-107926Y210731D01*
X-107837Y210829D01*
X-107750Y210929D01*
X-107666Y211032D01*
X-107585Y211138D01*
X-107507Y211246D01*
X-107432Y211356D01*
X-107361Y211468D01*
X-107293Y211582D01*
X-107228Y211698D01*
X-107166Y211816D01*
X-107108Y211936D01*
X-107054Y212057D01*
X-107003Y212180D01*
X-106956Y212304D01*
X-106912Y212430D01*
X-106872Y212557D01*
X-106836Y212685D01*
X-106803Y212814D01*
X-106774Y212943D01*
X-106749Y213074D01*
X-106728Y213205D01*
X-106711Y213337D01*
X-106697Y213470D01*
X-106688Y213602D01*
X-106682Y213735D01*
X-106680Y213868D01*
X-136652Y209296D02*
X-136785Y209298D01*
X-136918Y209304D01*
X-137050Y209313D01*
X-137183Y209327D01*
X-137315Y209344D01*
X-137446Y209365D01*
X-137577Y209390D01*
X-137706Y209419D01*
X-137835Y209452D01*
X-137963Y209488D01*
X-138090Y209528D01*
X-138216Y209572D01*
X-138340Y209619D01*
X-138463Y209670D01*
X-138584Y209724D01*
X-138704Y209782D01*
X-138822Y209844D01*
X-138938Y209909D01*
X-139052Y209977D01*
X-139164Y210048D01*
X-139274Y210123D01*
X-139382Y210201D01*
X-139488Y210282D01*
X-139591Y210366D01*
X-139691Y210453D01*
X-139789Y210542D01*
X-139885Y210635D01*
X-139978Y210731D01*
X-140067Y210829D01*
X-140154Y210929D01*
X-140238Y211032D01*
X-140319Y211138D01*
X-140397Y211246D01*
X-140472Y211356D01*
X-140543Y211468D01*
X-140611Y211582D01*
X-140676Y211698D01*
X-140738Y211816D01*
X-140796Y211936D01*
X-140850Y212057D01*
X-140901Y212180D01*
X-140948Y212304D01*
X-140992Y212430D01*
X-141032Y212557D01*
X-141068Y212685D01*
X-141101Y212814D01*
X-141130Y212943D01*
X-141155Y213074D01*
X-141176Y213205D01*
X-141193Y213337D01*
X-141207Y213470D01*
X-141216Y213602D01*
X-141222Y213735D01*
X-141224Y213868D01*
X-141224Y225044D02*
X-141222Y225177D01*
X-141216Y225310D01*
X-141207Y225442D01*
X-141193Y225575D01*
X-141176Y225707D01*
X-141155Y225838D01*
X-141130Y225969D01*
X-141101Y226098D01*
X-141068Y226227D01*
X-141032Y226355D01*
X-140992Y226482D01*
X-140948Y226608D01*
X-140901Y226732D01*
X-140850Y226855D01*
X-140796Y226976D01*
X-140738Y227096D01*
X-140676Y227214D01*
X-140611Y227330D01*
X-140543Y227444D01*
X-140472Y227556D01*
X-140397Y227666D01*
X-140319Y227774D01*
X-140238Y227880D01*
X-140154Y227983D01*
X-140067Y228083D01*
X-139978Y228181D01*
X-139885Y228277D01*
X-139789Y228370D01*
X-139691Y228459D01*
X-139591Y228546D01*
X-139488Y228630D01*
X-139382Y228711D01*
X-139274Y228789D01*
X-139164Y228864D01*
X-139052Y228935D01*
X-138938Y229003D01*
X-138822Y229068D01*
X-138704Y229130D01*
X-138584Y229188D01*
X-138463Y229242D01*
X-138340Y229293D01*
X-138216Y229340D01*
X-138090Y229384D01*
X-137963Y229424D01*
X-137835Y229460D01*
X-137706Y229493D01*
X-137577Y229522D01*
X-137446Y229547D01*
X-137315Y229568D01*
X-137183Y229585D01*
X-137050Y229599D01*
X-136918Y229608D01*
X-136785Y229614D01*
X-136652Y229616D01*
X-111252Y229616D02*
X-111119Y229614D01*
X-110986Y229608D01*
X-110854Y229599D01*
X-110721Y229585D01*
X-110589Y229568D01*
X-110458Y229547D01*
X-110327Y229522D01*
X-110198Y229493D01*
X-110069Y229460D01*
X-109941Y229424D01*
X-109814Y229384D01*
X-109688Y229340D01*
X-109564Y229293D01*
X-109441Y229242D01*
X-109320Y229188D01*
X-109200Y229130D01*
X-109082Y229068D01*
X-108966Y229003D01*
X-108852Y228935D01*
X-108740Y228864D01*
X-108630Y228789D01*
X-108522Y228711D01*
X-108416Y228630D01*
X-108313Y228546D01*
X-108213Y228459D01*
X-108115Y228370D01*
X-108019Y228277D01*
X-107926Y228181D01*
X-107837Y228083D01*
X-107750Y227983D01*
X-107666Y227880D01*
X-107585Y227774D01*
X-107507Y227666D01*
X-107432Y227556D01*
X-107361Y227444D01*
X-107293Y227330D01*
X-107228Y227214D01*
X-107166Y227096D01*
X-107108Y226976D01*
X-107054Y226855D01*
X-107003Y226732D01*
X-106956Y226608D01*
X-106912Y226482D01*
X-106872Y226355D01*
X-106836Y226227D01*
X-106803Y226098D01*
X-106774Y225969D01*
X-106749Y225838D01*
X-106728Y225707D01*
X-106711Y225575D01*
X-106697Y225442D01*
X-106688Y225310D01*
X-106682Y225177D01*
X-106680Y225044D01*
X-106680Y213868D01*
X-141224Y213868D02*
X-141224Y225044D01*
X-136652Y209296D02*
X-111252Y209296D01*
D14*
X-118582Y207395D02*
X-119387Y206590D01*
X-118582Y207395D02*
X-116972Y207395D01*
X-116167Y206590D01*
X-116167Y205785D01*
X-116972Y204980D01*
X-118582Y204980D01*
X-119387Y204175D01*
X-119387Y203370D01*
X-118582Y202565D01*
X-116972Y202565D01*
X-116167Y203370D01*
X-121780Y203370D02*
X-122585Y202565D01*
X-123390Y202565D01*
X-124195Y203370D01*
X-124195Y207395D01*
X-123390Y207395D02*
X-125000Y207395D01*
X-129809Y207395D02*
X-129809Y202565D01*
X-127394Y204980D02*
X-129809Y207395D01*
X-130614Y204980D02*
X-127394Y204980D01*
X168656Y101346D02*
X168658Y101505D01*
X168664Y101664D01*
X168674Y101822D01*
X168688Y101981D01*
X168706Y102139D01*
X168727Y102296D01*
X168753Y102453D01*
X168783Y102609D01*
X168816Y102765D01*
X168854Y102919D01*
X168895Y103073D01*
X168940Y103225D01*
X168989Y103376D01*
X169042Y103526D01*
X169098Y103675D01*
X169159Y103822D01*
X169222Y103967D01*
X169290Y104111D01*
X169361Y104254D01*
X169435Y104394D01*
X169513Y104532D01*
X169595Y104669D01*
X169680Y104803D01*
X169768Y104936D01*
X169859Y105066D01*
X169954Y105193D01*
X170052Y105318D01*
X170153Y105441D01*
X170257Y105561D01*
X170364Y105679D01*
X170474Y105794D01*
X170587Y105906D01*
X170702Y106015D01*
X170820Y106121D01*
X170941Y106225D01*
X171065Y106325D01*
X171190Y106422D01*
X171319Y106516D01*
X171449Y106606D01*
X171582Y106694D01*
X171717Y106778D01*
X171854Y106858D01*
X171993Y106936D01*
X172134Y107009D01*
X172276Y107079D01*
X172421Y107146D01*
X172567Y107209D01*
X172714Y107268D01*
X172863Y107324D01*
X173014Y107375D01*
X173165Y107423D01*
X173318Y107467D01*
X173472Y107508D01*
X173626Y107544D01*
X173782Y107577D01*
X173938Y107606D01*
X174095Y107630D01*
X174253Y107651D01*
X174411Y107668D01*
X174569Y107681D01*
X174728Y107690D01*
X174887Y107695D01*
X175046Y107696D01*
X175205Y107693D01*
X175363Y107686D01*
X175522Y107675D01*
X175680Y107660D01*
X175838Y107641D01*
X175995Y107618D01*
X176152Y107592D01*
X176308Y107561D01*
X176463Y107527D01*
X176617Y107488D01*
X176771Y107446D01*
X176923Y107400D01*
X177074Y107350D01*
X177223Y107296D01*
X177372Y107239D01*
X177518Y107178D01*
X177664Y107113D01*
X177807Y107045D01*
X177949Y106973D01*
X178089Y106897D01*
X178227Y106819D01*
X178363Y106736D01*
X178497Y106651D01*
X178628Y106562D01*
X178758Y106469D01*
X178885Y106374D01*
X179009Y106275D01*
X179132Y106173D01*
X179251Y106069D01*
X179368Y105961D01*
X179482Y105850D01*
X179593Y105737D01*
X179702Y105621D01*
X179807Y105502D01*
X179910Y105380D01*
X180009Y105256D01*
X180106Y105130D01*
X180199Y105001D01*
X180289Y104870D01*
X180375Y104736D01*
X180458Y104601D01*
X180538Y104463D01*
X180614Y104324D01*
X180687Y104183D01*
X180756Y104040D01*
X180822Y103895D01*
X180884Y103748D01*
X180942Y103601D01*
X180997Y103451D01*
X181048Y103301D01*
X181095Y103149D01*
X181138Y102996D01*
X181177Y102842D01*
X181213Y102687D01*
X181244Y102531D01*
X181272Y102375D01*
X181296Y102218D01*
X181316Y102060D01*
X181332Y101902D01*
X181344Y101743D01*
X181352Y101584D01*
X181356Y101425D01*
X181356Y101267D01*
X181352Y101108D01*
X181344Y100949D01*
X181332Y100790D01*
X181316Y100632D01*
X181296Y100474D01*
X181272Y100317D01*
X181244Y100161D01*
X181213Y100005D01*
X181177Y99850D01*
X181138Y99696D01*
X181095Y99543D01*
X181048Y99391D01*
X180997Y99241D01*
X180942Y99091D01*
X180884Y98944D01*
X180822Y98797D01*
X180756Y98652D01*
X180687Y98509D01*
X180614Y98368D01*
X180538Y98229D01*
X180458Y98091D01*
X180375Y97956D01*
X180289Y97822D01*
X180199Y97691D01*
X180106Y97562D01*
X180009Y97436D01*
X179910Y97312D01*
X179807Y97190D01*
X179702Y97071D01*
X179593Y96955D01*
X179482Y96842D01*
X179368Y96731D01*
X179251Y96623D01*
X179132Y96519D01*
X179009Y96417D01*
X178885Y96318D01*
X178758Y96223D01*
X178628Y96130D01*
X178497Y96041D01*
X178363Y95956D01*
X178227Y95873D01*
X178089Y95795D01*
X177949Y95719D01*
X177807Y95647D01*
X177664Y95579D01*
X177518Y95514D01*
X177372Y95453D01*
X177223Y95396D01*
X177074Y95342D01*
X176923Y95292D01*
X176771Y95246D01*
X176617Y95204D01*
X176463Y95165D01*
X176308Y95131D01*
X176152Y95100D01*
X175995Y95074D01*
X175838Y95051D01*
X175680Y95032D01*
X175522Y95017D01*
X175363Y95006D01*
X175205Y94999D01*
X175046Y94996D01*
X174887Y94997D01*
X174728Y95002D01*
X174569Y95011D01*
X174411Y95024D01*
X174253Y95041D01*
X174095Y95062D01*
X173938Y95086D01*
X173782Y95115D01*
X173626Y95148D01*
X173472Y95184D01*
X173318Y95225D01*
X173165Y95269D01*
X173014Y95317D01*
X172863Y95368D01*
X172714Y95424D01*
X172567Y95483D01*
X172421Y95546D01*
X172276Y95613D01*
X172134Y95683D01*
X171993Y95756D01*
X171854Y95834D01*
X171717Y95914D01*
X171582Y95998D01*
X171449Y96086D01*
X171319Y96176D01*
X171190Y96270D01*
X171065Y96367D01*
X170941Y96467D01*
X170820Y96571D01*
X170702Y96677D01*
X170587Y96786D01*
X170474Y96898D01*
X170364Y97013D01*
X170257Y97131D01*
X170153Y97251D01*
X170052Y97374D01*
X169954Y97499D01*
X169859Y97626D01*
X169768Y97756D01*
X169680Y97889D01*
X169595Y98023D01*
X169513Y98160D01*
X169435Y98298D01*
X169361Y98438D01*
X169290Y98581D01*
X169222Y98725D01*
X169159Y98870D01*
X169098Y99017D01*
X169042Y99166D01*
X168989Y99316D01*
X168940Y99467D01*
X168895Y99619D01*
X168854Y99773D01*
X168816Y99927D01*
X168783Y100083D01*
X168753Y100239D01*
X168727Y100396D01*
X168706Y100553D01*
X168688Y100711D01*
X168674Y100870D01*
X168664Y101028D01*
X168658Y101187D01*
X168656Y101346D01*
X148209Y98438D02*
X148209Y65786D01*
X148209Y98438D02*
X148213Y98739D01*
X148223Y99040D01*
X148241Y99340D01*
X148266Y99640D01*
X148298Y99939D01*
X148337Y100238D01*
X148383Y100535D01*
X148437Y100831D01*
X148497Y101126D01*
X148564Y101419D01*
X148638Y101711D01*
X148719Y102001D01*
X148807Y102289D01*
X148901Y102574D01*
X149003Y102858D01*
X149111Y103139D01*
X149226Y103417D01*
X149347Y103692D01*
X149475Y103965D01*
X149475Y103964D02*
X157524Y120619D01*
X157525Y120619D02*
X157595Y120761D01*
X157669Y120900D01*
X157747Y121038D01*
X157828Y121174D01*
X157912Y121308D01*
X158000Y121440D01*
X158091Y121569D01*
X158185Y121696D01*
X158282Y121821D01*
X158382Y121943D01*
X158485Y122063D01*
X158592Y122180D01*
X158701Y122294D01*
X158813Y122406D01*
X158927Y122515D01*
X159045Y122621D01*
X159165Y122724D01*
X159287Y122824D01*
X159412Y122921D01*
X159539Y123015D01*
X159669Y123105D01*
X159801Y123193D01*
X159935Y123277D01*
X160071Y123357D01*
X160209Y123435D01*
X160348Y123508D01*
X160490Y123579D01*
X160633Y123645D01*
X160778Y123709D01*
X160925Y123768D01*
X161073Y123824D01*
X161222Y123876D01*
X161373Y123925D01*
X161524Y123969D01*
X161677Y124010D01*
X161831Y124047D01*
X161985Y124080D01*
X162141Y124110D01*
X162297Y124135D01*
X162453Y124157D01*
X162611Y124175D01*
X162768Y124188D01*
X162926Y124198D01*
X163084Y124204D01*
X163242Y124206D01*
X174070Y124206D01*
X174228Y124204D01*
X174386Y124198D01*
X174544Y124188D01*
X174701Y124175D01*
X174859Y124157D01*
X175015Y124135D01*
X175171Y124110D01*
X175327Y124080D01*
X175481Y124047D01*
X175635Y124010D01*
X175788Y123969D01*
X175939Y123925D01*
X176090Y123876D01*
X176239Y123824D01*
X176387Y123768D01*
X176534Y123709D01*
X176679Y123645D01*
X176822Y123579D01*
X176964Y123508D01*
X177103Y123435D01*
X177241Y123357D01*
X177377Y123277D01*
X177511Y123193D01*
X177643Y123105D01*
X177773Y123015D01*
X177900Y122921D01*
X178025Y122824D01*
X178147Y122724D01*
X178267Y122621D01*
X178385Y122515D01*
X178499Y122406D01*
X178611Y122294D01*
X178720Y122180D01*
X178827Y122063D01*
X178930Y121943D01*
X179030Y121821D01*
X179127Y121696D01*
X179221Y121569D01*
X179312Y121440D01*
X179400Y121308D01*
X179484Y121174D01*
X179565Y121038D01*
X179643Y120901D01*
X179717Y120761D01*
X179787Y120619D01*
X179788Y120619D02*
X187837Y103964D01*
X187837Y103965D02*
X187965Y103692D01*
X188086Y103417D01*
X188201Y103138D01*
X188309Y102858D01*
X188411Y102574D01*
X188505Y102289D01*
X188593Y102001D01*
X188674Y101711D01*
X188748Y101419D01*
X188815Y101126D01*
X188875Y100831D01*
X188929Y100535D01*
X188975Y100238D01*
X189014Y99939D01*
X189046Y99640D01*
X189071Y99340D01*
X189089Y99040D01*
X189099Y98739D01*
X189103Y98438D01*
X189103Y65786D01*
X189099Y65479D01*
X189088Y65172D01*
X189070Y64866D01*
X189044Y64560D01*
X189010Y64255D01*
X188970Y63951D01*
X188922Y63648D01*
X188866Y63346D01*
X188804Y63046D01*
X188734Y62747D01*
X188657Y62450D01*
X188573Y62154D01*
X188481Y61861D01*
X188383Y61571D01*
X188278Y61283D01*
X188165Y60997D01*
X188046Y60714D01*
X187920Y60434D01*
X187788Y60157D01*
X187648Y59884D01*
X187502Y59614D01*
X187350Y59348D01*
X187191Y59085D01*
X187026Y58826D01*
X186855Y58572D01*
X186678Y58321D01*
X186494Y58075D01*
X186305Y57833D01*
X186110Y57597D01*
X185909Y57364D01*
X185703Y57137D01*
X185491Y56915D01*
X185274Y56698D01*
X185052Y56486D01*
X184825Y56280D01*
X184592Y56079D01*
X184356Y55884D01*
X184114Y55695D01*
X183868Y55511D01*
X183617Y55334D01*
X183363Y55163D01*
X183104Y54998D01*
X182841Y54839D01*
X182575Y54687D01*
X182305Y54541D01*
X182032Y54401D01*
X181755Y54269D01*
X181475Y54143D01*
X181192Y54024D01*
X180906Y53911D01*
X180618Y53806D01*
X180328Y53708D01*
X180035Y53616D01*
X179739Y53532D01*
X179442Y53455D01*
X179143Y53385D01*
X178843Y53323D01*
X178541Y53267D01*
X178238Y53219D01*
X177934Y53179D01*
X177629Y53145D01*
X177323Y53119D01*
X177017Y53101D01*
X176710Y53090D01*
X176403Y53086D01*
X160909Y53086D01*
X160602Y53090D01*
X160295Y53101D01*
X159989Y53119D01*
X159683Y53145D01*
X159378Y53179D01*
X159074Y53219D01*
X158771Y53267D01*
X158469Y53323D01*
X158169Y53385D01*
X157870Y53455D01*
X157573Y53532D01*
X157277Y53616D01*
X156984Y53708D01*
X156694Y53806D01*
X156406Y53911D01*
X156120Y54024D01*
X155837Y54143D01*
X155557Y54269D01*
X155280Y54401D01*
X155007Y54541D01*
X154737Y54687D01*
X154471Y54839D01*
X154208Y54998D01*
X153949Y55163D01*
X153695Y55334D01*
X153444Y55511D01*
X153198Y55695D01*
X152956Y55884D01*
X152720Y56079D01*
X152487Y56280D01*
X152260Y56486D01*
X152038Y56698D01*
X151821Y56915D01*
X151609Y57137D01*
X151403Y57364D01*
X151202Y57597D01*
X151007Y57833D01*
X150818Y58075D01*
X150634Y58321D01*
X150457Y58572D01*
X150286Y58826D01*
X150121Y59085D01*
X149962Y59348D01*
X149810Y59614D01*
X149664Y59884D01*
X149524Y60157D01*
X149392Y60434D01*
X149266Y60714D01*
X149147Y60997D01*
X149034Y61283D01*
X148929Y61571D01*
X148831Y61861D01*
X148739Y62154D01*
X148655Y62450D01*
X148578Y62747D01*
X148508Y63046D01*
X148446Y63346D01*
X148390Y63648D01*
X148342Y63951D01*
X148302Y64255D01*
X148268Y64560D01*
X148242Y64866D01*
X148224Y65172D01*
X148213Y65479D01*
X148209Y65786D01*
D10*
X191178Y113940D02*
X190500Y114618D01*
X190500Y115296D01*
X191178Y115974D01*
X194567Y115974D01*
X194567Y115296D02*
X194567Y116652D01*
X193212Y118618D02*
X194567Y119974D01*
X190500Y119974D01*
X190500Y118618D02*
X190500Y121330D01*
D14*
X52070Y251968D02*
X52072Y252127D01*
X52078Y252286D01*
X52088Y252444D01*
X52102Y252603D01*
X52120Y252761D01*
X52141Y252918D01*
X52167Y253075D01*
X52197Y253231D01*
X52230Y253387D01*
X52268Y253541D01*
X52309Y253695D01*
X52354Y253847D01*
X52403Y253998D01*
X52456Y254148D01*
X52512Y254297D01*
X52573Y254444D01*
X52636Y254589D01*
X52704Y254733D01*
X52775Y254876D01*
X52849Y255016D01*
X52927Y255154D01*
X53009Y255291D01*
X53094Y255425D01*
X53182Y255558D01*
X53273Y255688D01*
X53368Y255815D01*
X53466Y255940D01*
X53567Y256063D01*
X53671Y256183D01*
X53778Y256301D01*
X53888Y256416D01*
X54001Y256528D01*
X54116Y256637D01*
X54234Y256743D01*
X54355Y256847D01*
X54479Y256947D01*
X54604Y257044D01*
X54733Y257138D01*
X54863Y257228D01*
X54996Y257316D01*
X55131Y257400D01*
X55268Y257480D01*
X55407Y257558D01*
X55548Y257631D01*
X55690Y257701D01*
X55835Y257768D01*
X55981Y257831D01*
X56128Y257890D01*
X56277Y257946D01*
X56428Y257997D01*
X56579Y258045D01*
X56732Y258089D01*
X56886Y258130D01*
X57040Y258166D01*
X57196Y258199D01*
X57352Y258228D01*
X57509Y258252D01*
X57667Y258273D01*
X57825Y258290D01*
X57983Y258303D01*
X58142Y258312D01*
X58301Y258317D01*
X58460Y258318D01*
X58619Y258315D01*
X58777Y258308D01*
X58936Y258297D01*
X59094Y258282D01*
X59252Y258263D01*
X59409Y258240D01*
X59566Y258214D01*
X59722Y258183D01*
X59877Y258149D01*
X60031Y258110D01*
X60185Y258068D01*
X60337Y258022D01*
X60488Y257972D01*
X60637Y257918D01*
X60786Y257861D01*
X60932Y257800D01*
X61078Y257735D01*
X61221Y257667D01*
X61363Y257595D01*
X61503Y257519D01*
X61641Y257441D01*
X61777Y257358D01*
X61911Y257273D01*
X62042Y257184D01*
X62172Y257091D01*
X62299Y256996D01*
X62423Y256897D01*
X62546Y256795D01*
X62665Y256691D01*
X62782Y256583D01*
X62896Y256472D01*
X63007Y256359D01*
X63116Y256243D01*
X63221Y256124D01*
X63324Y256002D01*
X63423Y255878D01*
X63520Y255752D01*
X63613Y255623D01*
X63703Y255492D01*
X63789Y255358D01*
X63872Y255223D01*
X63952Y255085D01*
X64028Y254946D01*
X64101Y254805D01*
X64170Y254662D01*
X64236Y254517D01*
X64298Y254370D01*
X64356Y254223D01*
X64411Y254073D01*
X64462Y253923D01*
X64509Y253771D01*
X64552Y253618D01*
X64591Y253464D01*
X64627Y253309D01*
X64658Y253153D01*
X64686Y252997D01*
X64710Y252840D01*
X64730Y252682D01*
X64746Y252524D01*
X64758Y252365D01*
X64766Y252206D01*
X64770Y252047D01*
X64770Y251889D01*
X64766Y251730D01*
X64758Y251571D01*
X64746Y251412D01*
X64730Y251254D01*
X64710Y251096D01*
X64686Y250939D01*
X64658Y250783D01*
X64627Y250627D01*
X64591Y250472D01*
X64552Y250318D01*
X64509Y250165D01*
X64462Y250013D01*
X64411Y249863D01*
X64356Y249713D01*
X64298Y249566D01*
X64236Y249419D01*
X64170Y249274D01*
X64101Y249131D01*
X64028Y248990D01*
X63952Y248851D01*
X63872Y248713D01*
X63789Y248578D01*
X63703Y248444D01*
X63613Y248313D01*
X63520Y248184D01*
X63423Y248058D01*
X63324Y247934D01*
X63221Y247812D01*
X63116Y247693D01*
X63007Y247577D01*
X62896Y247464D01*
X62782Y247353D01*
X62665Y247245D01*
X62546Y247141D01*
X62423Y247039D01*
X62299Y246940D01*
X62172Y246845D01*
X62042Y246752D01*
X61911Y246663D01*
X61777Y246578D01*
X61641Y246495D01*
X61503Y246417D01*
X61363Y246341D01*
X61221Y246269D01*
X61078Y246201D01*
X60932Y246136D01*
X60786Y246075D01*
X60637Y246018D01*
X60488Y245964D01*
X60337Y245914D01*
X60185Y245868D01*
X60031Y245826D01*
X59877Y245787D01*
X59722Y245753D01*
X59566Y245722D01*
X59409Y245696D01*
X59252Y245673D01*
X59094Y245654D01*
X58936Y245639D01*
X58777Y245628D01*
X58619Y245621D01*
X58460Y245618D01*
X58301Y245619D01*
X58142Y245624D01*
X57983Y245633D01*
X57825Y245646D01*
X57667Y245663D01*
X57509Y245684D01*
X57352Y245708D01*
X57196Y245737D01*
X57040Y245770D01*
X56886Y245806D01*
X56732Y245847D01*
X56579Y245891D01*
X56428Y245939D01*
X56277Y245990D01*
X56128Y246046D01*
X55981Y246105D01*
X55835Y246168D01*
X55690Y246235D01*
X55548Y246305D01*
X55407Y246378D01*
X55268Y246456D01*
X55131Y246536D01*
X54996Y246620D01*
X54863Y246708D01*
X54733Y246798D01*
X54604Y246892D01*
X54479Y246989D01*
X54355Y247089D01*
X54234Y247193D01*
X54116Y247299D01*
X54001Y247408D01*
X53888Y247520D01*
X53778Y247635D01*
X53671Y247753D01*
X53567Y247873D01*
X53466Y247996D01*
X53368Y248121D01*
X53273Y248248D01*
X53182Y248378D01*
X53094Y248511D01*
X53009Y248645D01*
X52927Y248782D01*
X52849Y248920D01*
X52775Y249060D01*
X52704Y249203D01*
X52636Y249347D01*
X52573Y249492D01*
X52512Y249639D01*
X52456Y249788D01*
X52403Y249938D01*
X52354Y250089D01*
X52309Y250241D01*
X52268Y250395D01*
X52230Y250549D01*
X52197Y250705D01*
X52167Y250861D01*
X52141Y251018D01*
X52120Y251175D01*
X52102Y251333D01*
X52088Y251492D01*
X52078Y251650D01*
X52072Y251809D01*
X52070Y251968D01*
X85217Y254876D02*
X85217Y287528D01*
X85217Y254876D02*
X85213Y254575D01*
X85203Y254274D01*
X85185Y253974D01*
X85160Y253674D01*
X85128Y253375D01*
X85089Y253076D01*
X85043Y252779D01*
X84989Y252483D01*
X84929Y252188D01*
X84862Y251895D01*
X84788Y251603D01*
X84707Y251313D01*
X84619Y251025D01*
X84525Y250740D01*
X84423Y250456D01*
X84315Y250175D01*
X84200Y249897D01*
X84079Y249622D01*
X83951Y249349D01*
X83951Y249350D02*
X75902Y232695D01*
X75901Y232695D02*
X75831Y232553D01*
X75757Y232414D01*
X75679Y232276D01*
X75598Y232140D01*
X75514Y232006D01*
X75426Y231874D01*
X75335Y231745D01*
X75241Y231618D01*
X75144Y231493D01*
X75044Y231371D01*
X74941Y231251D01*
X74834Y231134D01*
X74725Y231020D01*
X74613Y230908D01*
X74499Y230799D01*
X74381Y230693D01*
X74261Y230590D01*
X74139Y230490D01*
X74014Y230393D01*
X73887Y230299D01*
X73757Y230209D01*
X73625Y230121D01*
X73491Y230037D01*
X73355Y229957D01*
X73217Y229879D01*
X73078Y229806D01*
X72936Y229735D01*
X72793Y229669D01*
X72648Y229605D01*
X72501Y229546D01*
X72353Y229490D01*
X72204Y229438D01*
X72053Y229389D01*
X71902Y229345D01*
X71749Y229304D01*
X71595Y229267D01*
X71441Y229234D01*
X71285Y229204D01*
X71129Y229179D01*
X70973Y229157D01*
X70815Y229139D01*
X70658Y229126D01*
X70500Y229116D01*
X70342Y229110D01*
X70184Y229108D01*
X59356Y229108D01*
X59198Y229110D01*
X59040Y229116D01*
X58882Y229126D01*
X58725Y229139D01*
X58567Y229157D01*
X58411Y229179D01*
X58255Y229204D01*
X58099Y229234D01*
X57945Y229267D01*
X57791Y229304D01*
X57638Y229345D01*
X57487Y229389D01*
X57336Y229438D01*
X57187Y229490D01*
X57039Y229546D01*
X56892Y229605D01*
X56747Y229669D01*
X56604Y229735D01*
X56462Y229806D01*
X56323Y229879D01*
X56185Y229957D01*
X56049Y230037D01*
X55915Y230121D01*
X55783Y230209D01*
X55653Y230299D01*
X55526Y230393D01*
X55401Y230490D01*
X55279Y230590D01*
X55159Y230693D01*
X55041Y230799D01*
X54927Y230908D01*
X54815Y231020D01*
X54706Y231134D01*
X54599Y231251D01*
X54496Y231371D01*
X54396Y231493D01*
X54299Y231618D01*
X54205Y231745D01*
X54114Y231874D01*
X54026Y232006D01*
X53942Y232140D01*
X53861Y232276D01*
X53783Y232413D01*
X53709Y232553D01*
X53639Y232695D01*
X53638Y232695D02*
X45589Y249350D01*
X45589Y249349D02*
X45461Y249622D01*
X45340Y249897D01*
X45225Y250176D01*
X45117Y250456D01*
X45015Y250740D01*
X44921Y251025D01*
X44833Y251313D01*
X44752Y251603D01*
X44678Y251895D01*
X44611Y252188D01*
X44551Y252483D01*
X44497Y252779D01*
X44451Y253076D01*
X44412Y253375D01*
X44380Y253674D01*
X44355Y253974D01*
X44337Y254274D01*
X44327Y254575D01*
X44323Y254876D01*
X44323Y287528D01*
X44327Y287835D01*
X44338Y288142D01*
X44356Y288448D01*
X44382Y288754D01*
X44416Y289059D01*
X44456Y289363D01*
X44504Y289666D01*
X44560Y289968D01*
X44622Y290268D01*
X44692Y290567D01*
X44769Y290864D01*
X44853Y291160D01*
X44945Y291453D01*
X45043Y291743D01*
X45148Y292031D01*
X45261Y292317D01*
X45380Y292600D01*
X45506Y292880D01*
X45638Y293157D01*
X45778Y293430D01*
X45924Y293700D01*
X46076Y293966D01*
X46235Y294229D01*
X46400Y294488D01*
X46571Y294742D01*
X46748Y294993D01*
X46932Y295239D01*
X47121Y295481D01*
X47316Y295717D01*
X47517Y295950D01*
X47723Y296177D01*
X47935Y296399D01*
X48152Y296616D01*
X48374Y296828D01*
X48601Y297034D01*
X48834Y297235D01*
X49070Y297430D01*
X49312Y297619D01*
X49558Y297803D01*
X49809Y297980D01*
X50063Y298151D01*
X50322Y298316D01*
X50585Y298475D01*
X50851Y298627D01*
X51121Y298773D01*
X51394Y298913D01*
X51671Y299045D01*
X51951Y299171D01*
X52234Y299290D01*
X52520Y299403D01*
X52808Y299508D01*
X53098Y299606D01*
X53391Y299698D01*
X53687Y299782D01*
X53984Y299859D01*
X54283Y299929D01*
X54583Y299991D01*
X54885Y300047D01*
X55188Y300095D01*
X55492Y300135D01*
X55797Y300169D01*
X56103Y300195D01*
X56409Y300213D01*
X56716Y300224D01*
X57023Y300228D01*
X72517Y300228D01*
X72824Y300224D01*
X73131Y300213D01*
X73437Y300195D01*
X73743Y300169D01*
X74048Y300135D01*
X74352Y300095D01*
X74655Y300047D01*
X74957Y299991D01*
X75257Y299929D01*
X75556Y299859D01*
X75853Y299782D01*
X76149Y299698D01*
X76442Y299606D01*
X76732Y299508D01*
X77020Y299403D01*
X77306Y299290D01*
X77589Y299171D01*
X77869Y299045D01*
X78146Y298913D01*
X78419Y298773D01*
X78689Y298627D01*
X78955Y298475D01*
X79218Y298316D01*
X79477Y298151D01*
X79731Y297980D01*
X79982Y297803D01*
X80228Y297619D01*
X80470Y297430D01*
X80706Y297235D01*
X80939Y297034D01*
X81166Y296828D01*
X81388Y296616D01*
X81605Y296399D01*
X81817Y296177D01*
X82023Y295950D01*
X82224Y295717D01*
X82419Y295481D01*
X82608Y295239D01*
X82792Y294993D01*
X82969Y294742D01*
X83140Y294488D01*
X83305Y294229D01*
X83464Y293966D01*
X83616Y293700D01*
X83762Y293430D01*
X83902Y293157D01*
X84034Y292880D01*
X84160Y292600D01*
X84279Y292317D01*
X84392Y292031D01*
X84497Y291743D01*
X84595Y291453D01*
X84687Y291160D01*
X84771Y290864D01*
X84848Y290567D01*
X84918Y290268D01*
X84980Y289968D01*
X85036Y289666D01*
X85084Y289363D01*
X85124Y289059D01*
X85158Y288754D01*
X85184Y288448D01*
X85202Y288142D01*
X85213Y287835D01*
X85217Y287528D01*
D10*
X85958Y227500D02*
X85280Y226822D01*
X84602Y226822D01*
X83924Y227500D01*
X83924Y230889D01*
X84602Y230889D02*
X83246Y230889D01*
X81280Y226822D02*
X78568Y226822D01*
X81280Y226822D02*
X78568Y229534D01*
X78568Y230212D01*
X79246Y230889D01*
X80602Y230889D01*
X81280Y230212D01*
D17*
X-108712Y278384D03*
D14*
X-95314Y270137D02*
X-95314Y261239D01*
X-95314Y270137D02*
X-99763Y270137D01*
X-101246Y268654D01*
X-101246Y265688D01*
X-99763Y264205D01*
X-95314Y264205D01*
X-98280Y264205D02*
X-101246Y261239D01*
X-110601Y261239D02*
X-104669Y270137D01*
X-110601Y270137D02*
X-104669Y261239D01*
X-114025Y267171D02*
X-116990Y270137D01*
X-116990Y261239D01*
X-114025Y261239D02*
X-119956Y261239D01*
D16*
X43688Y129032D03*
D14*
X36457Y115634D02*
X27559Y115634D01*
X36457Y115634D02*
X36457Y120083D01*
X34974Y121566D01*
X32008Y121566D01*
X30525Y120083D01*
X30525Y115634D01*
X30525Y118600D02*
X27559Y121566D01*
X27559Y130921D02*
X36457Y124989D01*
X36457Y130921D02*
X27559Y124989D01*
X27559Y134345D02*
X27559Y140276D01*
X27559Y134345D02*
X33491Y140276D01*
X34974Y140276D01*
X36457Y138793D01*
X36457Y135828D01*
X34974Y134345D01*
D15*
X308356Y20320D02*
X333756Y20320D01*
X308356Y40640D02*
X308223Y40638D01*
X308090Y40632D01*
X307958Y40623D01*
X307825Y40609D01*
X307693Y40592D01*
X307562Y40571D01*
X307431Y40546D01*
X307302Y40517D01*
X307173Y40484D01*
X307045Y40448D01*
X306918Y40408D01*
X306792Y40364D01*
X306668Y40317D01*
X306545Y40266D01*
X306424Y40212D01*
X306304Y40154D01*
X306186Y40092D01*
X306070Y40027D01*
X305956Y39959D01*
X305844Y39888D01*
X305734Y39813D01*
X305626Y39735D01*
X305520Y39654D01*
X305417Y39570D01*
X305317Y39483D01*
X305219Y39394D01*
X305123Y39301D01*
X305030Y39205D01*
X304941Y39107D01*
X304854Y39007D01*
X304770Y38904D01*
X304689Y38798D01*
X304611Y38690D01*
X304536Y38580D01*
X304465Y38468D01*
X304397Y38354D01*
X304332Y38238D01*
X304270Y38120D01*
X304212Y38000D01*
X304158Y37879D01*
X304107Y37756D01*
X304060Y37632D01*
X304016Y37506D01*
X303976Y37379D01*
X303940Y37251D01*
X303907Y37122D01*
X303878Y36993D01*
X303853Y36862D01*
X303832Y36731D01*
X303815Y36599D01*
X303801Y36466D01*
X303792Y36334D01*
X303786Y36201D01*
X303784Y36068D01*
X333756Y40640D02*
X333889Y40638D01*
X334022Y40632D01*
X334154Y40623D01*
X334287Y40609D01*
X334419Y40592D01*
X334550Y40571D01*
X334681Y40546D01*
X334810Y40517D01*
X334939Y40484D01*
X335067Y40448D01*
X335194Y40408D01*
X335320Y40364D01*
X335444Y40317D01*
X335567Y40266D01*
X335688Y40212D01*
X335808Y40154D01*
X335926Y40092D01*
X336042Y40027D01*
X336156Y39959D01*
X336268Y39888D01*
X336378Y39813D01*
X336486Y39735D01*
X336592Y39654D01*
X336695Y39570D01*
X336795Y39483D01*
X336893Y39394D01*
X336989Y39301D01*
X337082Y39205D01*
X337171Y39107D01*
X337258Y39007D01*
X337342Y38904D01*
X337423Y38798D01*
X337501Y38690D01*
X337576Y38580D01*
X337647Y38468D01*
X337715Y38354D01*
X337780Y38238D01*
X337842Y38120D01*
X337900Y38000D01*
X337954Y37879D01*
X338005Y37756D01*
X338052Y37632D01*
X338096Y37506D01*
X338136Y37379D01*
X338172Y37251D01*
X338205Y37122D01*
X338234Y36993D01*
X338259Y36862D01*
X338280Y36731D01*
X338297Y36599D01*
X338311Y36466D01*
X338320Y36334D01*
X338326Y36201D01*
X338328Y36068D01*
X338328Y24892D02*
X338326Y24759D01*
X338320Y24626D01*
X338311Y24494D01*
X338297Y24361D01*
X338280Y24229D01*
X338259Y24098D01*
X338234Y23967D01*
X338205Y23838D01*
X338172Y23709D01*
X338136Y23581D01*
X338096Y23454D01*
X338052Y23328D01*
X338005Y23204D01*
X337954Y23081D01*
X337900Y22960D01*
X337842Y22840D01*
X337780Y22722D01*
X337715Y22606D01*
X337647Y22492D01*
X337576Y22380D01*
X337501Y22270D01*
X337423Y22162D01*
X337342Y22056D01*
X337258Y21953D01*
X337171Y21853D01*
X337082Y21755D01*
X336989Y21659D01*
X336893Y21566D01*
X336795Y21477D01*
X336695Y21390D01*
X336592Y21306D01*
X336486Y21225D01*
X336378Y21147D01*
X336268Y21072D01*
X336156Y21001D01*
X336042Y20933D01*
X335926Y20868D01*
X335808Y20806D01*
X335688Y20748D01*
X335567Y20694D01*
X335444Y20643D01*
X335320Y20596D01*
X335194Y20552D01*
X335067Y20512D01*
X334939Y20476D01*
X334810Y20443D01*
X334681Y20414D01*
X334550Y20389D01*
X334419Y20368D01*
X334287Y20351D01*
X334154Y20337D01*
X334022Y20328D01*
X333889Y20322D01*
X333756Y20320D01*
X308356Y20320D02*
X308223Y20322D01*
X308090Y20328D01*
X307958Y20337D01*
X307825Y20351D01*
X307693Y20368D01*
X307562Y20389D01*
X307431Y20414D01*
X307302Y20443D01*
X307173Y20476D01*
X307045Y20512D01*
X306918Y20552D01*
X306792Y20596D01*
X306668Y20643D01*
X306545Y20694D01*
X306424Y20748D01*
X306304Y20806D01*
X306186Y20868D01*
X306070Y20933D01*
X305956Y21001D01*
X305844Y21072D01*
X305734Y21147D01*
X305626Y21225D01*
X305520Y21306D01*
X305417Y21390D01*
X305317Y21477D01*
X305219Y21566D01*
X305123Y21659D01*
X305030Y21755D01*
X304941Y21853D01*
X304854Y21953D01*
X304770Y22056D01*
X304689Y22162D01*
X304611Y22270D01*
X304536Y22380D01*
X304465Y22492D01*
X304397Y22606D01*
X304332Y22722D01*
X304270Y22840D01*
X304212Y22960D01*
X304158Y23081D01*
X304107Y23204D01*
X304060Y23328D01*
X304016Y23454D01*
X303976Y23581D01*
X303940Y23709D01*
X303907Y23838D01*
X303878Y23967D01*
X303853Y24098D01*
X303832Y24229D01*
X303815Y24361D01*
X303801Y24494D01*
X303792Y24626D01*
X303786Y24759D01*
X303784Y24892D01*
X303784Y36068D01*
X338328Y36068D02*
X338328Y24892D01*
X333756Y40640D02*
X308356Y40640D01*
D14*
X330701Y46570D02*
X331506Y47375D01*
X333116Y47375D01*
X333921Y46570D01*
X333921Y45765D01*
X333116Y44960D01*
X331506Y44960D01*
X330701Y44155D01*
X330701Y43350D01*
X331506Y42545D01*
X333116Y42545D01*
X333921Y43350D01*
X328308Y43350D02*
X327503Y42545D01*
X326698Y42545D01*
X325893Y43350D01*
X325893Y47375D01*
X326698Y47375D02*
X325088Y47375D01*
X322694Y47375D02*
X319474Y47375D01*
X322694Y47375D02*
X322694Y44960D01*
X321084Y45765D01*
X320279Y45765D01*
X319474Y44960D01*
X319474Y43350D01*
X320279Y42545D01*
X321889Y42545D01*
X322694Y43350D01*
D15*
X266192Y49276D02*
X266192Y23876D01*
X286512Y49276D02*
X286510Y49409D01*
X286504Y49542D01*
X286495Y49674D01*
X286481Y49807D01*
X286464Y49939D01*
X286443Y50070D01*
X286418Y50201D01*
X286389Y50330D01*
X286356Y50459D01*
X286320Y50587D01*
X286280Y50714D01*
X286236Y50840D01*
X286189Y50964D01*
X286138Y51087D01*
X286084Y51208D01*
X286026Y51328D01*
X285964Y51446D01*
X285899Y51562D01*
X285831Y51676D01*
X285760Y51788D01*
X285685Y51898D01*
X285607Y52006D01*
X285526Y52112D01*
X285442Y52215D01*
X285355Y52315D01*
X285266Y52413D01*
X285173Y52509D01*
X285077Y52602D01*
X284979Y52691D01*
X284879Y52778D01*
X284776Y52862D01*
X284670Y52943D01*
X284562Y53021D01*
X284452Y53096D01*
X284340Y53167D01*
X284226Y53235D01*
X284110Y53300D01*
X283992Y53362D01*
X283872Y53420D01*
X283751Y53474D01*
X283628Y53525D01*
X283504Y53572D01*
X283378Y53616D01*
X283251Y53656D01*
X283123Y53692D01*
X282994Y53725D01*
X282865Y53754D01*
X282734Y53779D01*
X282603Y53800D01*
X282471Y53817D01*
X282338Y53831D01*
X282206Y53840D01*
X282073Y53846D01*
X281940Y53848D01*
X286512Y23876D02*
X286510Y23743D01*
X286504Y23610D01*
X286495Y23478D01*
X286481Y23345D01*
X286464Y23213D01*
X286443Y23082D01*
X286418Y22951D01*
X286389Y22822D01*
X286356Y22693D01*
X286320Y22565D01*
X286280Y22438D01*
X286236Y22312D01*
X286189Y22188D01*
X286138Y22065D01*
X286084Y21944D01*
X286026Y21824D01*
X285964Y21706D01*
X285899Y21590D01*
X285831Y21476D01*
X285760Y21364D01*
X285685Y21254D01*
X285607Y21146D01*
X285526Y21040D01*
X285442Y20937D01*
X285355Y20837D01*
X285266Y20739D01*
X285173Y20643D01*
X285077Y20550D01*
X284979Y20461D01*
X284879Y20374D01*
X284776Y20290D01*
X284670Y20209D01*
X284562Y20131D01*
X284452Y20056D01*
X284340Y19985D01*
X284226Y19917D01*
X284110Y19852D01*
X283992Y19790D01*
X283872Y19732D01*
X283751Y19678D01*
X283628Y19627D01*
X283504Y19580D01*
X283378Y19536D01*
X283251Y19496D01*
X283123Y19460D01*
X282994Y19427D01*
X282865Y19398D01*
X282734Y19373D01*
X282603Y19352D01*
X282471Y19335D01*
X282338Y19321D01*
X282206Y19312D01*
X282073Y19306D01*
X281940Y19304D01*
X270764Y19304D02*
X270631Y19306D01*
X270498Y19312D01*
X270366Y19321D01*
X270233Y19335D01*
X270101Y19352D01*
X269970Y19373D01*
X269839Y19398D01*
X269710Y19427D01*
X269581Y19460D01*
X269453Y19496D01*
X269326Y19536D01*
X269200Y19580D01*
X269076Y19627D01*
X268953Y19678D01*
X268832Y19732D01*
X268712Y19790D01*
X268594Y19852D01*
X268478Y19917D01*
X268364Y19985D01*
X268252Y20056D01*
X268142Y20131D01*
X268034Y20209D01*
X267928Y20290D01*
X267825Y20374D01*
X267725Y20461D01*
X267627Y20550D01*
X267531Y20643D01*
X267438Y20739D01*
X267349Y20837D01*
X267262Y20937D01*
X267178Y21040D01*
X267097Y21146D01*
X267019Y21254D01*
X266944Y21364D01*
X266873Y21476D01*
X266805Y21590D01*
X266740Y21706D01*
X266678Y21824D01*
X266620Y21944D01*
X266566Y22065D01*
X266515Y22188D01*
X266468Y22312D01*
X266424Y22438D01*
X266384Y22565D01*
X266348Y22693D01*
X266315Y22822D01*
X266286Y22951D01*
X266261Y23082D01*
X266240Y23213D01*
X266223Y23345D01*
X266209Y23478D01*
X266200Y23610D01*
X266194Y23743D01*
X266192Y23876D01*
X266192Y49276D02*
X266194Y49409D01*
X266200Y49542D01*
X266209Y49674D01*
X266223Y49807D01*
X266240Y49939D01*
X266261Y50070D01*
X266286Y50201D01*
X266315Y50330D01*
X266348Y50459D01*
X266384Y50587D01*
X266424Y50714D01*
X266468Y50840D01*
X266515Y50964D01*
X266566Y51087D01*
X266620Y51208D01*
X266678Y51328D01*
X266740Y51446D01*
X266805Y51562D01*
X266873Y51676D01*
X266944Y51788D01*
X267019Y51898D01*
X267097Y52006D01*
X267178Y52112D01*
X267262Y52215D01*
X267349Y52315D01*
X267438Y52413D01*
X267531Y52509D01*
X267627Y52602D01*
X267725Y52691D01*
X267825Y52778D01*
X267928Y52862D01*
X268034Y52943D01*
X268142Y53021D01*
X268252Y53096D01*
X268364Y53167D01*
X268478Y53235D01*
X268594Y53300D01*
X268712Y53362D01*
X268832Y53420D01*
X268953Y53474D01*
X269076Y53525D01*
X269200Y53572D01*
X269326Y53616D01*
X269453Y53656D01*
X269581Y53692D01*
X269710Y53725D01*
X269839Y53754D01*
X269970Y53779D01*
X270101Y53800D01*
X270233Y53817D01*
X270366Y53831D01*
X270498Y53840D01*
X270631Y53846D01*
X270764Y53848D01*
X281940Y53848D01*
X281940Y19304D02*
X270764Y19304D01*
X286512Y23876D02*
X286512Y49276D01*
D14*
X292442Y43187D02*
X293247Y42382D01*
X293247Y40772D01*
X292442Y39967D01*
X291637Y39967D01*
X290832Y40772D01*
X290832Y42382D01*
X290027Y43187D01*
X289222Y43187D01*
X288417Y42382D01*
X288417Y40772D01*
X289222Y39967D01*
X289222Y45580D02*
X288417Y46385D01*
X288417Y47190D01*
X289222Y47996D01*
X293247Y47996D01*
X293247Y48801D02*
X293247Y47190D01*
X292442Y52804D02*
X293247Y54414D01*
X292442Y52804D02*
X290832Y51194D01*
X289222Y51194D01*
X288417Y51999D01*
X288417Y53609D01*
X289222Y54414D01*
X290027Y54414D01*
X290832Y53609D01*
X290832Y51194D01*
D15*
X278892Y69088D02*
X304292Y69088D01*
X278892Y89408D02*
X278759Y89406D01*
X278626Y89400D01*
X278494Y89391D01*
X278361Y89377D01*
X278229Y89360D01*
X278098Y89339D01*
X277967Y89314D01*
X277838Y89285D01*
X277709Y89252D01*
X277581Y89216D01*
X277454Y89176D01*
X277328Y89132D01*
X277204Y89085D01*
X277081Y89034D01*
X276960Y88980D01*
X276840Y88922D01*
X276722Y88860D01*
X276606Y88795D01*
X276492Y88727D01*
X276380Y88656D01*
X276270Y88581D01*
X276162Y88503D01*
X276056Y88422D01*
X275953Y88338D01*
X275853Y88251D01*
X275755Y88162D01*
X275659Y88069D01*
X275566Y87973D01*
X275477Y87875D01*
X275390Y87775D01*
X275306Y87672D01*
X275225Y87566D01*
X275147Y87458D01*
X275072Y87348D01*
X275001Y87236D01*
X274933Y87122D01*
X274868Y87006D01*
X274806Y86888D01*
X274748Y86768D01*
X274694Y86647D01*
X274643Y86524D01*
X274596Y86400D01*
X274552Y86274D01*
X274512Y86147D01*
X274476Y86019D01*
X274443Y85890D01*
X274414Y85761D01*
X274389Y85630D01*
X274368Y85499D01*
X274351Y85367D01*
X274337Y85234D01*
X274328Y85102D01*
X274322Y84969D01*
X274320Y84836D01*
X304292Y89408D02*
X304425Y89406D01*
X304558Y89400D01*
X304690Y89391D01*
X304823Y89377D01*
X304955Y89360D01*
X305086Y89339D01*
X305217Y89314D01*
X305346Y89285D01*
X305475Y89252D01*
X305603Y89216D01*
X305730Y89176D01*
X305856Y89132D01*
X305980Y89085D01*
X306103Y89034D01*
X306224Y88980D01*
X306344Y88922D01*
X306462Y88860D01*
X306578Y88795D01*
X306692Y88727D01*
X306804Y88656D01*
X306914Y88581D01*
X307022Y88503D01*
X307128Y88422D01*
X307231Y88338D01*
X307331Y88251D01*
X307429Y88162D01*
X307525Y88069D01*
X307618Y87973D01*
X307707Y87875D01*
X307794Y87775D01*
X307878Y87672D01*
X307959Y87566D01*
X308037Y87458D01*
X308112Y87348D01*
X308183Y87236D01*
X308251Y87122D01*
X308316Y87006D01*
X308378Y86888D01*
X308436Y86768D01*
X308490Y86647D01*
X308541Y86524D01*
X308588Y86400D01*
X308632Y86274D01*
X308672Y86147D01*
X308708Y86019D01*
X308741Y85890D01*
X308770Y85761D01*
X308795Y85630D01*
X308816Y85499D01*
X308833Y85367D01*
X308847Y85234D01*
X308856Y85102D01*
X308862Y84969D01*
X308864Y84836D01*
X308864Y73660D02*
X308862Y73527D01*
X308856Y73394D01*
X308847Y73262D01*
X308833Y73129D01*
X308816Y72997D01*
X308795Y72866D01*
X308770Y72735D01*
X308741Y72606D01*
X308708Y72477D01*
X308672Y72349D01*
X308632Y72222D01*
X308588Y72096D01*
X308541Y71972D01*
X308490Y71849D01*
X308436Y71728D01*
X308378Y71608D01*
X308316Y71490D01*
X308251Y71374D01*
X308183Y71260D01*
X308112Y71148D01*
X308037Y71038D01*
X307959Y70930D01*
X307878Y70824D01*
X307794Y70721D01*
X307707Y70621D01*
X307618Y70523D01*
X307525Y70427D01*
X307429Y70334D01*
X307331Y70245D01*
X307231Y70158D01*
X307128Y70074D01*
X307022Y69993D01*
X306914Y69915D01*
X306804Y69840D01*
X306692Y69769D01*
X306578Y69701D01*
X306462Y69636D01*
X306344Y69574D01*
X306224Y69516D01*
X306103Y69462D01*
X305980Y69411D01*
X305856Y69364D01*
X305730Y69320D01*
X305603Y69280D01*
X305475Y69244D01*
X305346Y69211D01*
X305217Y69182D01*
X305086Y69157D01*
X304955Y69136D01*
X304823Y69119D01*
X304690Y69105D01*
X304558Y69096D01*
X304425Y69090D01*
X304292Y69088D01*
X278892Y69088D02*
X278759Y69090D01*
X278626Y69096D01*
X278494Y69105D01*
X278361Y69119D01*
X278229Y69136D01*
X278098Y69157D01*
X277967Y69182D01*
X277838Y69211D01*
X277709Y69244D01*
X277581Y69280D01*
X277454Y69320D01*
X277328Y69364D01*
X277204Y69411D01*
X277081Y69462D01*
X276960Y69516D01*
X276840Y69574D01*
X276722Y69636D01*
X276606Y69701D01*
X276492Y69769D01*
X276380Y69840D01*
X276270Y69915D01*
X276162Y69993D01*
X276056Y70074D01*
X275953Y70158D01*
X275853Y70245D01*
X275755Y70334D01*
X275659Y70427D01*
X275566Y70523D01*
X275477Y70621D01*
X275390Y70721D01*
X275306Y70824D01*
X275225Y70930D01*
X275147Y71038D01*
X275072Y71148D01*
X275001Y71260D01*
X274933Y71374D01*
X274868Y71490D01*
X274806Y71608D01*
X274748Y71728D01*
X274694Y71849D01*
X274643Y71972D01*
X274596Y72096D01*
X274552Y72222D01*
X274512Y72349D01*
X274476Y72477D01*
X274443Y72606D01*
X274414Y72735D01*
X274389Y72866D01*
X274368Y72997D01*
X274351Y73129D01*
X274337Y73262D01*
X274328Y73394D01*
X274322Y73527D01*
X274320Y73660D01*
X274320Y84836D01*
X308864Y84836D02*
X308864Y73660D01*
X304292Y89408D02*
X278892Y89408D01*
D14*
X270598Y67571D02*
X271403Y66766D01*
X271403Y65156D01*
X270598Y64351D01*
X269793Y64351D01*
X268988Y65156D01*
X268988Y66766D01*
X268183Y67571D01*
X267378Y67571D01*
X266573Y66766D01*
X266573Y65156D01*
X267378Y64351D01*
X267378Y69964D02*
X266573Y70769D01*
X266573Y71574D01*
X267378Y72379D01*
X271403Y72379D01*
X271403Y71574D02*
X271403Y73184D01*
X271403Y75578D02*
X271403Y78798D01*
X270598Y78798D01*
X267378Y75578D01*
X266573Y75578D01*
M02*
