G04 EAGLE Gerber X2 export*
%TF.Part,Single*%
%TF.FileFunction,Soldermask,Top*%
%TF.FilePolarity,Negative*%
%TF.GenerationSoftware,Autodesk,EAGLE,9.6.2*%
%TF.CreationDate,2024-11-13T18:58:05Z*%
G75*
%MOMM*%
%FSLAX44Y44*%
%LPD*%
%INsolder-mask-top*%
%AMOC8*
5,1,8,0,0,1.08239X$1,22.5*%
G01*
%ADD10C,1.863500*%
%ADD11R,0.609600X0.599441*%
%ADD12C,0.825500*%
%ADD13C,0.963500*%
%ADD14R,0.599441X0.609600*%
%ADD15C,1.563500*%
%ADD16C,0.113303*%
%ADD17C,0.289050*%
%ADD18C,0.510894*%
%ADD19C,0.138128*%
%ADD20R,2.243500X2.063500*%
%ADD21C,0.713500*%
%ADD22C,0.182100*%
%ADD23R,0.900000X0.900000*%
%ADD24R,0.800000X0.900000*%
%ADD25C,0.313500*%
%ADD26R,1.063500X0.763500*%
%ADD27R,0.763500X1.063500*%
%ADD28R,1.563500X2.063500*%
%ADD29R,1.063500X2.063500*%
%ADD30R,0.503500X0.263500*%
%ADD31R,0.263500X0.503500*%
%ADD32C,0.279500*%
%ADD33R,0.363500X0.273500*%
%ADD34R,0.493500X0.343500*%
%ADD35R,0.313500X0.413500*%
%ADD36R,0.463500X0.303500*%
%ADD37R,1.633500X0.363500*%
%ADD38C,0.287100*%
%ADD39R,2.563500X1.663500*%
%ADD40R,0.343500X0.493500*%
%ADD41R,0.863500X2.763500*%
%ADD42R,0.413500X0.313500*%
%ADD43R,0.923500X0.463500*%
%ADD44R,0.663500X0.463500*%
%ADD45R,0.463500X0.313500*%
%ADD46R,0.463500X0.763500*%
%ADD47C,1.587500*%
%ADD48R,0.713500X0.563500*%
%ADD49P,1.718294X8X202.500000*%
%ADD50P,1.718294X8X22.500000*%
%ADD51C,2.000000*%
%ADD52R,0.463500X0.601500*%
%ADD53C,0.850900*%
%ADD54C,1.079500*%
%ADD55R,0.863500X1.463500*%
%ADD56C,0.263500*%
%ADD57R,0.480000X0.480000*%
%ADD58R,0.463500X0.923500*%
%ADD59R,0.463500X0.663500*%
%ADD60R,0.643500X0.793500*%
%ADD61R,0.692600X0.623500*%
%ADD62R,0.792600X0.623500*%
%ADD63R,0.623500X0.792600*%
%ADD64R,0.623500X0.692600*%
%ADD65R,0.438500X0.313500*%
%ADD66R,0.313500X0.438500*%
%ADD67R,0.233500X0.263500*%
%ADD68R,0.863500X0.763500*%
%ADD69R,2.163500X1.513500*%
%ADD70R,0.763500X0.663500*%
%ADD71R,1.113500X1.663500*%
%ADD72R,1.333500X0.698500*%

G36*
X197957Y12741D02*
X197957Y12741D01*
X197979Y12741D01*
X198075Y12775D01*
X198173Y12802D01*
X198191Y12815D01*
X198211Y12822D01*
X198292Y12884D01*
X198376Y12942D01*
X198389Y12959D01*
X198406Y12972D01*
X198506Y13106D01*
X206360Y26503D01*
X206370Y26531D01*
X206388Y26556D01*
X206414Y26646D01*
X206448Y26733D01*
X206450Y26763D01*
X206458Y26792D01*
X206455Y26885D01*
X206459Y26979D01*
X206451Y27008D01*
X206449Y27037D01*
X206417Y27125D01*
X206391Y27215D01*
X206374Y27240D01*
X206363Y27268D01*
X206304Y27340D01*
X206251Y27417D01*
X206227Y27435D01*
X206208Y27458D01*
X206071Y27555D01*
X187228Y37942D01*
X187135Y37976D01*
X187044Y38015D01*
X187019Y38017D01*
X186997Y38025D01*
X186898Y38026D01*
X186799Y38034D01*
X186769Y38029D01*
X186751Y38029D01*
X186719Y38019D01*
X186634Y38002D01*
X178819Y35560D01*
X178816Y35559D01*
X178815Y35559D01*
X178811Y35562D01*
X172504Y38781D01*
X172477Y38789D01*
X172431Y38813D01*
X165854Y41343D01*
X165827Y41348D01*
X165778Y41368D01*
X158973Y43196D01*
X158945Y43199D01*
X158895Y43212D01*
X151936Y44319D01*
X151908Y44319D01*
X151857Y44328D01*
X144800Y44702D01*
X144788Y44701D01*
X144772Y44703D01*
X144766Y44703D01*
X144760Y44703D01*
X19930Y44703D01*
X19897Y44698D01*
X19865Y44700D01*
X19859Y44699D01*
X19845Y44700D01*
X19822Y44699D01*
X19787Y44703D01*
X19785Y44703D01*
X19779Y44703D01*
X19746Y44703D01*
X19695Y44713D01*
X18215Y44841D01*
X18211Y44841D01*
X18140Y44839D01*
X18120Y44843D01*
X18051Y44870D01*
X16584Y45261D01*
X16579Y45262D01*
X16509Y45272D01*
X16490Y45280D01*
X16427Y45318D01*
X15050Y45958D01*
X15046Y45959D01*
X14978Y45982D01*
X14961Y45993D01*
X14906Y46041D01*
X13660Y46911D01*
X13657Y46913D01*
X13594Y46947D01*
X13578Y46961D01*
X13533Y47018D01*
X12457Y48091D01*
X12454Y48093D01*
X12398Y48138D01*
X12385Y48154D01*
X12350Y48218D01*
X11657Y49205D01*
X11633Y49230D01*
X11616Y49259D01*
X11548Y49317D01*
X11485Y49381D01*
X11455Y49397D01*
X11429Y49419D01*
X11346Y49452D01*
X11266Y49493D01*
X11232Y49498D01*
X11201Y49511D01*
X11034Y49529D01*
X9630Y49529D01*
X9554Y49517D01*
X9478Y49514D01*
X9434Y49497D01*
X9388Y49490D01*
X9320Y49454D01*
X9248Y49426D01*
X9212Y49396D01*
X9170Y49374D01*
X9117Y49319D01*
X9058Y49270D01*
X9033Y49230D01*
X9001Y49196D01*
X8968Y49126D01*
X8928Y49061D01*
X8917Y49016D01*
X8897Y48973D01*
X8889Y48897D01*
X8871Y48822D01*
X8875Y48775D01*
X8870Y48729D01*
X8887Y48653D01*
X8894Y48577D01*
X8916Y48518D01*
X8922Y48488D01*
X8936Y48466D01*
X8953Y48420D01*
X9297Y47752D01*
X9315Y47727D01*
X9367Y47640D01*
X10536Y46100D01*
X10559Y46079D01*
X10625Y46002D01*
X12043Y44689D01*
X12070Y44671D01*
X12148Y44607D01*
X13773Y43560D01*
X13802Y43548D01*
X13890Y43498D01*
X15672Y42749D01*
X15703Y42742D01*
X15798Y42709D01*
X17683Y42280D01*
X17715Y42279D01*
X17815Y42262D01*
X19793Y42166D01*
X19808Y42167D01*
X19831Y42165D01*
X144926Y42165D01*
X144949Y42168D01*
X144972Y42166D01*
X144992Y42170D01*
X145020Y42171D01*
X145077Y42165D01*
X145088Y42165D01*
X145141Y42153D01*
X153428Y41218D01*
X153448Y41219D01*
X153469Y41214D01*
X153496Y41216D01*
X153519Y41214D01*
X153577Y41201D01*
X153584Y41200D01*
X153635Y41182D01*
X161757Y39282D01*
X161778Y39280D01*
X161798Y39273D01*
X161825Y39271D01*
X161847Y39267D01*
X161903Y39247D01*
X161910Y39246D01*
X161959Y39222D01*
X169802Y36382D01*
X169823Y36379D01*
X169842Y36369D01*
X169868Y36364D01*
X169890Y36358D01*
X169944Y36331D01*
X169950Y36329D01*
X169996Y36299D01*
X177431Y32571D01*
X177463Y32561D01*
X177528Y32523D01*
X177543Y32518D01*
X177548Y32514D01*
X177549Y32513D01*
X177554Y32492D01*
X177574Y32431D01*
X177577Y32410D01*
X177578Y32396D01*
X177580Y32392D01*
X177580Y32387D01*
X180006Y23413D01*
X180042Y23335D01*
X180070Y23253D01*
X180092Y23223D01*
X180108Y23189D01*
X180167Y23126D01*
X180219Y23058D01*
X180258Y23029D01*
X180275Y23010D01*
X180302Y22995D01*
X180353Y22957D01*
X197462Y12836D01*
X197482Y12828D01*
X197499Y12816D01*
X197596Y12784D01*
X197691Y12747D01*
X197713Y12746D01*
X197733Y12739D01*
X197835Y12740D01*
X197937Y12735D01*
X197957Y12741D01*
G37*
G36*
X-199026Y12998D02*
X-199026Y12998D01*
X-198925Y13008D01*
X-198905Y13016D01*
X-198884Y13019D01*
X-198731Y13088D01*
X-179394Y24449D01*
X-179381Y24460D01*
X-179365Y24467D01*
X-179286Y24538D01*
X-179205Y24606D01*
X-179196Y24621D01*
X-179183Y24632D01*
X-179131Y24725D01*
X-179076Y24815D01*
X-179072Y24832D01*
X-179063Y24847D01*
X-179024Y25010D01*
X-178065Y32686D01*
X-178065Y32699D01*
X-178064Y32762D01*
X-178062Y32770D01*
X-178060Y32772D01*
X-178052Y32777D01*
X-177983Y32804D01*
X-164951Y39570D01*
X-164924Y39590D01*
X-164894Y39603D01*
X-164889Y39607D01*
X-164877Y39612D01*
X-164857Y39625D01*
X-164847Y39628D01*
X-164846Y39628D01*
X-164813Y39628D01*
X-164780Y39630D01*
X-164728Y39625D01*
X-162052Y39625D01*
X-162032Y39628D01*
X-162013Y39626D01*
X-161911Y39648D01*
X-161809Y39665D01*
X-161792Y39674D01*
X-161772Y39678D01*
X-161683Y39731D01*
X-161592Y39780D01*
X-161578Y39794D01*
X-161561Y39804D01*
X-161494Y39883D01*
X-161423Y39958D01*
X-161414Y39976D01*
X-161401Y39991D01*
X-161362Y40087D01*
X-161319Y40181D01*
X-161317Y40201D01*
X-161309Y40219D01*
X-161291Y40386D01*
X-161291Y43710D01*
X-161303Y43786D01*
X-161306Y43862D01*
X-161323Y43906D01*
X-161331Y43952D01*
X-161366Y44020D01*
X-161394Y44092D01*
X-161424Y44128D01*
X-161446Y44170D01*
X-161501Y44223D01*
X-161550Y44282D01*
X-161590Y44307D01*
X-161624Y44339D01*
X-161694Y44372D01*
X-161759Y44412D01*
X-161805Y44423D01*
X-161847Y44443D01*
X-161923Y44451D01*
X-161998Y44469D01*
X-162045Y44465D01*
X-162091Y44470D01*
X-162167Y44454D01*
X-162243Y44447D01*
X-162302Y44424D01*
X-162332Y44418D01*
X-162354Y44404D01*
X-162400Y44387D01*
X-179496Y35601D01*
X-179502Y35597D01*
X-179509Y35595D01*
X-179560Y35559D01*
X-179577Y35553D01*
X-179580Y35553D01*
X-179604Y35564D01*
X-179660Y35600D01*
X-187343Y39442D01*
X-187383Y39454D01*
X-187420Y39475D01*
X-187500Y39490D01*
X-187578Y39515D01*
X-187620Y39514D01*
X-187661Y39522D01*
X-187742Y39511D01*
X-187824Y39509D01*
X-187863Y39495D01*
X-187905Y39489D01*
X-188046Y39428D01*
X-188055Y39425D01*
X-188056Y39424D01*
X-188059Y39423D01*
X-207609Y28320D01*
X-207628Y28305D01*
X-207651Y28295D01*
X-207724Y28228D01*
X-207801Y28166D01*
X-207814Y28145D01*
X-207832Y28129D01*
X-207880Y28042D01*
X-207933Y27958D01*
X-207939Y27935D01*
X-207951Y27913D01*
X-207968Y27816D01*
X-207992Y27719D01*
X-207990Y27695D01*
X-207995Y27671D01*
X-207980Y27573D01*
X-207972Y27474D01*
X-207962Y27452D01*
X-207959Y27428D01*
X-207891Y27275D01*
X-199775Y13361D01*
X-199761Y13344D01*
X-199752Y13325D01*
X-199683Y13250D01*
X-199618Y13171D01*
X-199600Y13160D01*
X-199586Y13144D01*
X-199496Y13095D01*
X-199409Y13041D01*
X-199388Y13036D01*
X-199370Y13026D01*
X-199269Y13008D01*
X-199170Y12985D01*
X-199149Y12987D01*
X-199128Y12983D01*
X-199026Y12998D01*
G37*
G36*
X245384Y191520D02*
X245384Y191520D01*
X245403Y191518D01*
X245505Y191540D01*
X245607Y191557D01*
X245624Y191566D01*
X245644Y191570D01*
X245733Y191623D01*
X245824Y191672D01*
X245838Y191686D01*
X245855Y191696D01*
X245922Y191775D01*
X245994Y191850D01*
X246002Y191868D01*
X246015Y191883D01*
X246054Y191979D01*
X246097Y192073D01*
X246099Y192093D01*
X246107Y192111D01*
X246125Y192278D01*
X246125Y212598D01*
X246122Y212618D01*
X246124Y212637D01*
X246102Y212739D01*
X246086Y212841D01*
X246076Y212858D01*
X246072Y212878D01*
X246019Y212967D01*
X245970Y213058D01*
X245956Y213072D01*
X245946Y213089D01*
X245867Y213156D01*
X245792Y213228D01*
X245774Y213236D01*
X245759Y213249D01*
X245663Y213288D01*
X245569Y213331D01*
X245549Y213333D01*
X245531Y213341D01*
X245364Y213359D01*
X245220Y213359D01*
X245212Y213358D01*
X245203Y213359D01*
X245090Y213338D01*
X244978Y213320D01*
X244970Y213316D01*
X244962Y213314D01*
X244861Y213258D01*
X244760Y213204D01*
X244754Y213198D01*
X244747Y213194D01*
X244628Y213076D01*
X238538Y205525D01*
X238523Y205497D01*
X238510Y205481D01*
X238508Y205480D01*
X238506Y205480D01*
X238456Y205493D01*
X236922Y205730D01*
X236903Y205730D01*
X236847Y205733D01*
X236839Y205735D01*
X236771Y205768D01*
X235335Y206280D01*
X235316Y206283D01*
X235262Y206297D01*
X235254Y206301D01*
X235194Y206346D01*
X233880Y207118D01*
X233862Y207125D01*
X233811Y207149D01*
X233804Y207154D01*
X233754Y207209D01*
X232608Y208215D01*
X232592Y208225D01*
X232546Y208258D01*
X232541Y208264D01*
X232501Y208328D01*
X231565Y209531D01*
X231551Y209544D01*
X231512Y209585D01*
X231508Y209592D01*
X231481Y209662D01*
X230787Y211020D01*
X230776Y211035D01*
X230746Y211083D01*
X230743Y211090D01*
X230730Y211164D01*
X230304Y212628D01*
X230295Y212645D01*
X230275Y212698D01*
X230273Y212705D01*
X230275Y212780D01*
X230134Y214262D01*
X230127Y214291D01*
X230126Y214320D01*
X230123Y214331D01*
X230123Y214340D01*
X230119Y214365D01*
X230119Y214380D01*
X230121Y214394D01*
X230120Y214399D01*
X230120Y214412D01*
X230117Y214438D01*
X230123Y214490D01*
X230123Y246113D01*
X230122Y246123D01*
X230123Y246139D01*
X229977Y250556D01*
X229971Y250586D01*
X229968Y250650D01*
X229279Y254980D01*
X229269Y255009D01*
X229258Y255073D01*
X228036Y259283D01*
X228023Y259311D01*
X228004Y259373D01*
X226268Y263399D01*
X226251Y263425D01*
X226225Y263484D01*
X224002Y267262D01*
X223982Y267286D01*
X223949Y267341D01*
X221273Y270814D01*
X221250Y270835D01*
X221210Y270886D01*
X218139Y273983D01*
X218115Y274001D01*
X218033Y274073D01*
X209642Y279900D01*
X209616Y279912D01*
X209543Y279968D01*
X209532Y279973D01*
X209517Y279986D01*
X209452Y280032D01*
X209439Y280046D01*
X209432Y280050D01*
X209423Y280059D01*
X206795Y282052D01*
X206766Y282068D01*
X206703Y282112D01*
X203746Y283746D01*
X203715Y283757D01*
X203647Y283792D01*
X200486Y284984D01*
X200454Y284990D01*
X200381Y285015D01*
X199848Y285132D01*
X197081Y285740D01*
X197048Y285742D01*
X196973Y285756D01*
X193857Y285981D01*
X193810Y285977D01*
X193763Y285982D01*
X193688Y285966D01*
X193612Y285959D01*
X193569Y285940D01*
X193522Y285930D01*
X193457Y285890D01*
X193387Y285860D01*
X193352Y285828D01*
X193311Y285803D01*
X193261Y285745D01*
X193205Y285694D01*
X193182Y285653D01*
X193151Y285617D01*
X193123Y285546D01*
X193086Y285479D01*
X193077Y285432D01*
X193059Y285388D01*
X193045Y285258D01*
X193041Y285237D01*
X193042Y285231D01*
X193041Y285222D01*
X193041Y278384D01*
X193044Y278364D01*
X193042Y278345D01*
X193064Y278243D01*
X193081Y278141D01*
X193090Y278124D01*
X193094Y278104D01*
X193147Y278015D01*
X193196Y277924D01*
X193210Y277910D01*
X193220Y277893D01*
X193299Y277826D01*
X193374Y277755D01*
X193392Y277746D01*
X193407Y277733D01*
X193503Y277694D01*
X193597Y277651D01*
X193617Y277649D01*
X193635Y277641D01*
X193802Y277623D01*
X202850Y277623D01*
X202861Y277625D01*
X202873Y277623D01*
X202927Y277631D01*
X202980Y277625D01*
X203041Y277609D01*
X208277Y276861D01*
X208280Y276861D01*
X208283Y276859D01*
X212213Y274581D01*
X212224Y274577D01*
X212234Y274569D01*
X212284Y274549D01*
X212328Y274517D01*
X212372Y274473D01*
X215871Y271725D01*
X215882Y271719D01*
X215890Y271710D01*
X215937Y271683D01*
X215976Y271645D01*
X216014Y271595D01*
X219094Y268385D01*
X219103Y268378D01*
X219111Y268368D01*
X219153Y268334D01*
X219186Y268291D01*
X219217Y268237D01*
X221817Y264627D01*
X221826Y264618D01*
X221832Y264607D01*
X221869Y264569D01*
X221896Y264521D01*
X221919Y264463D01*
X223988Y260525D01*
X223996Y260515D01*
X224000Y260503D01*
X224031Y260460D01*
X224051Y260409D01*
X224066Y260348D01*
X225564Y256159D01*
X225570Y256148D01*
X225572Y256136D01*
X225597Y256089D01*
X225610Y256036D01*
X225616Y255973D01*
X226513Y251616D01*
X226517Y251604D01*
X226518Y251592D01*
X226536Y251541D01*
X226541Y251487D01*
X226538Y251425D01*
X226815Y247012D01*
X226823Y246975D01*
X226823Y246915D01*
X226826Y246895D01*
X226824Y246862D01*
X226828Y246812D01*
X226822Y246764D01*
X226822Y246763D01*
X226569Y213381D01*
X226571Y213365D01*
X226570Y213339D01*
X226664Y211337D01*
X226670Y211308D01*
X226683Y211202D01*
X227122Y209295D01*
X227133Y209267D01*
X227164Y209166D01*
X227936Y207368D01*
X227953Y207342D01*
X228001Y207248D01*
X229081Y205617D01*
X229102Y205595D01*
X229166Y205510D01*
X230520Y204098D01*
X230544Y204079D01*
X230623Y204008D01*
X232207Y202860D01*
X232234Y202846D01*
X232324Y202790D01*
X234087Y201942D01*
X234116Y201933D01*
X234215Y201894D01*
X236101Y201374D01*
X236131Y201371D01*
X236235Y201350D01*
X238218Y201172D01*
X238243Y201174D01*
X238286Y201169D01*
X238695Y201169D01*
X238727Y201174D01*
X238761Y201176D01*
X238764Y201175D01*
X238766Y201173D01*
X238795Y201113D01*
X244632Y191872D01*
X244667Y191832D01*
X244694Y191787D01*
X244748Y191741D01*
X244796Y191688D01*
X244841Y191661D01*
X244881Y191627D01*
X244947Y191600D01*
X245009Y191565D01*
X245060Y191555D01*
X245109Y191535D01*
X245223Y191523D01*
X245250Y191517D01*
X245260Y191519D01*
X245276Y191517D01*
X245364Y191517D01*
X245384Y191520D01*
G37*
G36*
X-58Y216422D02*
X-58Y216422D01*
X22Y216426D01*
X62Y216442D01*
X105Y216449D01*
X176Y216486D01*
X251Y216515D01*
X284Y216543D01*
X323Y216564D01*
X378Y216622D01*
X440Y216674D01*
X462Y216711D01*
X492Y216742D01*
X526Y216815D01*
X568Y216883D01*
X583Y216939D01*
X596Y216965D01*
X599Y216993D01*
X613Y217045D01*
X743Y217823D01*
X743Y217849D01*
X750Y217874D01*
X750Y217890D01*
X751Y217894D01*
X754Y217921D01*
X757Y217934D01*
X782Y217966D01*
X792Y217981D01*
X830Y218020D01*
X2452Y220106D01*
X2461Y220122D01*
X2534Y220211D01*
X2537Y220217D01*
X2539Y220220D01*
X2547Y220223D01*
X2627Y220268D01*
X2634Y220270D01*
X2645Y220278D01*
X2665Y220286D01*
X5667Y221902D01*
X5754Y221969D01*
X5843Y222033D01*
X5853Y222046D01*
X5862Y222053D01*
X5877Y222076D01*
X5948Y222164D01*
X7500Y224603D01*
X7503Y224611D01*
X7509Y224617D01*
X7552Y224724D01*
X7597Y224829D01*
X7598Y224838D01*
X7601Y224845D01*
X7619Y225012D01*
X7619Y245872D01*
X7616Y245892D01*
X7618Y245911D01*
X7596Y246013D01*
X7580Y246115D01*
X7570Y246132D01*
X7566Y246152D01*
X7513Y246241D01*
X7464Y246332D01*
X7450Y246346D01*
X7440Y246363D01*
X7361Y246430D01*
X7286Y246502D01*
X7268Y246510D01*
X7253Y246523D01*
X7157Y246562D01*
X7063Y246605D01*
X7043Y246607D01*
X7025Y246615D01*
X6858Y246633D01*
X-7874Y246633D01*
X-7894Y246630D01*
X-7913Y246632D01*
X-8015Y246610D01*
X-8117Y246594D01*
X-8134Y246584D01*
X-8154Y246580D01*
X-8243Y246527D01*
X-8334Y246478D01*
X-8348Y246464D01*
X-8365Y246454D01*
X-8432Y246375D01*
X-8504Y246300D01*
X-8512Y246282D01*
X-8525Y246267D01*
X-8564Y246171D01*
X-8607Y246077D01*
X-8609Y246057D01*
X-8617Y246039D01*
X-8635Y245872D01*
X-8635Y227424D01*
X-8634Y227415D01*
X-8635Y227405D01*
X-8613Y227239D01*
X-8162Y225439D01*
X-8139Y225384D01*
X-8125Y225327D01*
X-8078Y225242D01*
X-8065Y225213D01*
X-8055Y225202D01*
X-8043Y225181D01*
X-6894Y223572D01*
X-6874Y223552D01*
X-6861Y223530D01*
X-6846Y223517D01*
X-6813Y223476D01*
X-5118Y221781D01*
X-5091Y221762D01*
X-5036Y221710D01*
X-3103Y220260D01*
X-3076Y220246D01*
X-3042Y220224D01*
X-3040Y220221D01*
X-3026Y220153D01*
X-2314Y218018D01*
X-2311Y218013D01*
X-2310Y218007D01*
X-2282Y217949D01*
X-2274Y217912D01*
X-2273Y217895D01*
X-2274Y217892D01*
X-2273Y217889D01*
X-2270Y217843D01*
X-2137Y217045D01*
X-2112Y216969D01*
X-2094Y216890D01*
X-2072Y216853D01*
X-2058Y216812D01*
X-2009Y216748D01*
X-1968Y216679D01*
X-1935Y216651D01*
X-1909Y216616D01*
X-1842Y216571D01*
X-1781Y216519D01*
X-1741Y216503D01*
X-1705Y216479D01*
X-1628Y216457D01*
X-1553Y216427D01*
X-1496Y216421D01*
X-1468Y216413D01*
X-1440Y216415D01*
X-1386Y216409D01*
X-138Y216409D01*
X-58Y216422D01*
G37*
G36*
X-133030Y41031D02*
X-133030Y41031D01*
X-132977Y41034D01*
X-129121Y41643D01*
X-129116Y41645D01*
X-129110Y41645D01*
X-129048Y41663D01*
X-129010Y41664D01*
X-128942Y41657D01*
X-9513Y41657D01*
X-9490Y41661D01*
X-9467Y41658D01*
X-9302Y41687D01*
X-7464Y42217D01*
X-7435Y42231D01*
X-7340Y42265D01*
X-5585Y43125D01*
X-5559Y43143D01*
X-5471Y43194D01*
X-3892Y44345D01*
X-3870Y44368D01*
X-3792Y44433D01*
X-2438Y45841D01*
X-2420Y45867D01*
X-2354Y45944D01*
X-1264Y47566D01*
X-1251Y47595D01*
X-1200Y47683D01*
X-856Y48460D01*
X-842Y48513D01*
X-819Y48563D01*
X-811Y48631D01*
X-794Y48698D01*
X-798Y48753D01*
X-792Y48807D01*
X-806Y48875D01*
X-811Y48943D01*
X-832Y48994D01*
X-844Y49048D01*
X-879Y49107D01*
X-906Y49170D01*
X-942Y49212D01*
X-970Y49259D01*
X-1022Y49304D01*
X-1068Y49355D01*
X-1115Y49383D01*
X-1157Y49419D01*
X-1221Y49445D01*
X-1280Y49479D01*
X-1334Y49490D01*
X-1385Y49511D01*
X-1492Y49523D01*
X-1521Y49529D01*
X-1533Y49527D01*
X-1552Y49529D01*
X-2870Y49529D01*
X-2931Y49519D01*
X-2993Y49519D01*
X-3051Y49499D01*
X-3112Y49490D01*
X-3167Y49461D01*
X-3226Y49441D01*
X-3275Y49403D01*
X-3330Y49374D01*
X-3372Y49329D01*
X-3422Y49292D01*
X-3476Y49220D01*
X-3499Y49196D01*
X-3506Y49181D01*
X-3523Y49158D01*
X-4086Y48215D01*
X-4087Y48214D01*
X-4087Y48213D01*
X-4118Y48146D01*
X-4133Y48126D01*
X-4186Y48076D01*
X-5125Y46978D01*
X-5125Y46977D01*
X-5126Y46976D01*
X-5167Y46915D01*
X-5186Y46897D01*
X-5246Y46858D01*
X-6356Y45932D01*
X-6357Y45931D01*
X-6358Y45930D01*
X-6408Y45877D01*
X-6430Y45863D01*
X-6496Y45834D01*
X-7745Y45108D01*
X-7747Y45107D01*
X-7748Y45107D01*
X-7806Y45063D01*
X-7830Y45052D01*
X-7900Y45035D01*
X-9254Y44529D01*
X-9255Y44528D01*
X-9256Y44528D01*
X-9321Y44495D01*
X-9346Y44488D01*
X-9418Y44483D01*
X-10845Y44210D01*
X-10863Y44203D01*
X-10917Y44188D01*
X-10925Y44187D01*
X-11000Y44195D01*
X-128942Y44195D01*
X-128947Y44194D01*
X-128953Y44195D01*
X-129018Y44187D01*
X-129055Y44191D01*
X-129121Y44209D01*
X-132977Y44818D01*
X-133057Y44818D01*
X-133135Y44826D01*
X-133179Y44817D01*
X-133223Y44817D01*
X-133298Y44791D01*
X-133376Y44774D01*
X-133414Y44751D01*
X-133456Y44737D01*
X-133519Y44689D01*
X-133587Y44648D01*
X-133616Y44614D01*
X-133651Y44587D01*
X-133695Y44521D01*
X-133747Y44461D01*
X-133763Y44420D01*
X-133788Y44383D01*
X-133809Y44307D01*
X-133839Y44233D01*
X-133845Y44174D01*
X-133853Y44146D01*
X-133852Y44118D01*
X-133857Y44066D01*
X-133857Y41786D01*
X-133844Y41708D01*
X-133841Y41628D01*
X-133825Y41587D01*
X-133818Y41543D01*
X-133780Y41473D01*
X-133752Y41399D01*
X-133723Y41365D01*
X-133702Y41326D01*
X-133645Y41271D01*
X-133594Y41210D01*
X-133556Y41187D01*
X-133524Y41156D01*
X-133452Y41123D01*
X-133385Y41081D01*
X-133341Y41071D01*
X-133301Y41053D01*
X-133222Y41044D01*
X-133145Y41026D01*
X-133086Y41029D01*
X-133057Y41026D01*
X-133030Y41031D01*
G37*
G36*
X-225Y77472D02*
X-225Y77472D01*
X-215Y77471D01*
X-104Y77492D01*
X8Y77511D01*
X17Y77515D01*
X27Y77517D01*
X125Y77573D01*
X225Y77626D01*
X232Y77633D01*
X241Y77638D01*
X317Y77722D01*
X394Y77804D01*
X399Y77813D01*
X406Y77821D01*
X450Y77925D01*
X498Y78027D01*
X499Y78037D01*
X503Y78047D01*
X526Y78213D01*
X761Y87609D01*
X759Y87625D01*
X761Y87651D01*
X511Y95872D01*
X507Y95894D01*
X507Y96000D01*
X506Y96009D01*
X507Y96023D01*
X504Y96111D01*
X507Y96123D01*
X505Y96134D01*
X507Y96152D01*
X507Y198374D01*
X504Y198394D01*
X506Y198413D01*
X484Y198515D01*
X468Y198617D01*
X458Y198634D01*
X454Y198654D01*
X401Y198743D01*
X352Y198834D01*
X338Y198848D01*
X328Y198865D01*
X249Y198932D01*
X174Y199004D01*
X156Y199012D01*
X141Y199025D01*
X45Y199064D01*
X-49Y199107D01*
X-69Y199109D01*
X-87Y199117D01*
X-254Y199135D01*
X-1270Y199135D01*
X-1290Y199132D01*
X-1309Y199134D01*
X-1411Y199112D01*
X-1513Y199096D01*
X-1530Y199086D01*
X-1550Y199082D01*
X-1639Y199029D01*
X-1730Y198980D01*
X-1744Y198966D01*
X-1761Y198956D01*
X-1828Y198877D01*
X-1900Y198802D01*
X-1908Y198784D01*
X-1921Y198769D01*
X-1960Y198673D01*
X-2003Y198579D01*
X-2005Y198559D01*
X-2013Y198541D01*
X-2031Y198374D01*
X-2031Y86246D01*
X-2028Y86225D01*
X-2031Y86117D01*
X-2030Y86108D01*
X-2031Y86095D01*
X-2031Y86007D01*
X-2034Y85995D01*
X-2033Y85984D01*
X-2035Y85966D01*
X-2262Y78254D01*
X-2258Y78224D01*
X-2261Y78193D01*
X-2242Y78102D01*
X-2230Y78011D01*
X-2216Y77983D01*
X-2209Y77952D01*
X-2162Y77873D01*
X-2121Y77790D01*
X-2099Y77768D01*
X-2083Y77741D01*
X-2013Y77681D01*
X-1948Y77615D01*
X-1920Y77601D01*
X-1896Y77581D01*
X-1810Y77547D01*
X-1728Y77505D01*
X-1697Y77501D01*
X-1668Y77489D01*
X-1501Y77471D01*
X-235Y77471D01*
X-225Y77472D01*
G37*
G36*
X-11664Y61726D02*
X-11664Y61726D01*
X-11645Y61724D01*
X-11543Y61746D01*
X-11441Y61763D01*
X-11424Y61772D01*
X-11404Y61776D01*
X-11315Y61829D01*
X-11224Y61878D01*
X-11210Y61892D01*
X-11193Y61902D01*
X-11126Y61981D01*
X-11055Y62056D01*
X-11046Y62074D01*
X-11033Y62089D01*
X-10994Y62185D01*
X-10951Y62279D01*
X-10949Y62299D01*
X-10941Y62317D01*
X-10923Y62484D01*
X-10923Y63500D01*
X-10926Y63520D01*
X-10924Y63539D01*
X-10946Y63641D01*
X-10963Y63743D01*
X-10972Y63760D01*
X-10976Y63780D01*
X-11029Y63869D01*
X-11078Y63960D01*
X-11092Y63974D01*
X-11102Y63991D01*
X-11181Y64058D01*
X-11256Y64130D01*
X-11274Y64138D01*
X-11289Y64151D01*
X-11385Y64190D01*
X-11479Y64233D01*
X-11499Y64235D01*
X-11517Y64243D01*
X-11684Y64261D01*
X-106310Y64261D01*
X-106341Y64256D01*
X-106372Y64259D01*
X-106380Y64257D01*
X-106392Y64258D01*
X-106416Y64256D01*
X-106460Y64261D01*
X-106490Y64261D01*
X-106542Y64272D01*
X-108227Y64424D01*
X-108238Y64423D01*
X-108302Y64422D01*
X-108318Y64425D01*
X-108386Y64453D01*
X-110050Y64914D01*
X-110061Y64915D01*
X-110125Y64926D01*
X-110139Y64932D01*
X-110202Y64971D01*
X-111757Y65723D01*
X-111767Y65726D01*
X-111828Y65748D01*
X-111841Y65756D01*
X-111895Y65806D01*
X-113290Y66824D01*
X-113300Y66829D01*
X-113356Y66861D01*
X-113367Y66872D01*
X-113412Y66931D01*
X-114602Y68182D01*
X-114610Y68189D01*
X-114659Y68231D01*
X-114669Y68243D01*
X-114702Y68309D01*
X-115649Y69753D01*
X-115656Y69761D01*
X-115687Y69800D01*
X-115703Y69826D01*
X-115704Y69827D01*
X-115725Y69896D01*
X-116397Y71487D01*
X-116403Y71496D01*
X-116434Y71553D01*
X-116439Y71568D01*
X-116447Y71641D01*
X-116708Y72810D01*
X-116730Y72865D01*
X-116743Y72924D01*
X-116775Y72979D01*
X-116799Y73038D01*
X-116838Y73084D01*
X-116869Y73135D01*
X-116917Y73177D01*
X-116959Y73225D01*
X-117010Y73256D01*
X-117056Y73295D01*
X-117115Y73319D01*
X-117170Y73352D01*
X-117228Y73364D01*
X-117284Y73387D01*
X-117379Y73397D01*
X-117410Y73404D01*
X-117426Y73403D01*
X-117451Y73405D01*
X-119400Y73405D01*
X-119518Y73386D01*
X-119637Y73367D01*
X-119640Y73366D01*
X-119643Y73366D01*
X-119747Y73310D01*
X-119855Y73254D01*
X-119857Y73252D01*
X-119860Y73250D01*
X-119942Y73164D01*
X-120026Y73077D01*
X-120027Y73074D01*
X-120029Y73072D01*
X-120080Y72962D01*
X-120131Y72855D01*
X-120132Y72852D01*
X-120133Y72849D01*
X-120146Y72730D01*
X-120160Y72611D01*
X-120160Y72607D01*
X-120160Y72605D01*
X-120158Y72594D01*
X-120135Y72445D01*
X-119767Y71088D01*
X-119754Y71059D01*
X-119721Y70964D01*
X-118728Y68850D01*
X-118711Y68824D01*
X-118662Y68735D01*
X-117318Y66825D01*
X-117296Y66803D01*
X-117233Y66724D01*
X-115579Y65075D01*
X-115553Y65057D01*
X-115477Y64991D01*
X-113562Y63654D01*
X-113534Y63640D01*
X-113447Y63588D01*
X-111330Y62603D01*
X-111300Y62594D01*
X-111205Y62558D01*
X-108949Y61955D01*
X-108918Y61951D01*
X-108819Y61932D01*
X-106459Y61726D01*
X-106435Y61727D01*
X-106393Y61723D01*
X-11684Y61723D01*
X-11664Y61726D01*
G37*
G36*
X-115166Y223324D02*
X-115166Y223324D01*
X-115147Y223322D01*
X-115045Y223344D01*
X-114943Y223361D01*
X-114926Y223370D01*
X-114906Y223374D01*
X-114817Y223427D01*
X-114726Y223476D01*
X-114712Y223490D01*
X-114695Y223500D01*
X-114628Y223579D01*
X-114557Y223654D01*
X-114548Y223672D01*
X-114535Y223687D01*
X-114496Y223783D01*
X-114453Y223877D01*
X-114451Y223897D01*
X-114443Y223915D01*
X-114425Y224082D01*
X-114425Y237358D01*
X-114428Y237378D01*
X-114426Y237397D01*
X-114448Y237499D01*
X-114465Y237601D01*
X-114474Y237618D01*
X-114478Y237638D01*
X-114531Y237727D01*
X-114580Y237818D01*
X-114594Y237832D01*
X-114604Y237849D01*
X-114683Y237916D01*
X-114758Y237988D01*
X-114776Y237996D01*
X-114791Y238009D01*
X-114887Y238048D01*
X-114981Y238091D01*
X-115001Y238093D01*
X-115019Y238101D01*
X-115186Y238119D01*
X-120308Y238119D01*
X-120398Y238105D01*
X-120489Y238097D01*
X-120519Y238085D01*
X-120551Y238080D01*
X-120632Y238037D01*
X-120716Y238001D01*
X-120748Y237975D01*
X-120769Y237964D01*
X-120791Y237941D01*
X-120847Y237896D01*
X-122600Y236143D01*
X-122653Y236069D01*
X-122713Y235999D01*
X-122725Y235969D01*
X-122744Y235943D01*
X-122771Y235856D01*
X-122805Y235771D01*
X-122809Y235730D01*
X-122816Y235708D01*
X-122815Y235676D01*
X-122823Y235604D01*
X-122823Y224082D01*
X-122820Y224062D01*
X-122822Y224043D01*
X-122800Y223941D01*
X-122784Y223839D01*
X-122774Y223822D01*
X-122770Y223802D01*
X-122717Y223713D01*
X-122668Y223622D01*
X-122654Y223608D01*
X-122644Y223591D01*
X-122565Y223524D01*
X-122490Y223453D01*
X-122472Y223444D01*
X-122457Y223431D01*
X-122361Y223392D01*
X-122267Y223349D01*
X-122247Y223347D01*
X-122229Y223339D01*
X-122062Y223321D01*
X-115186Y223321D01*
X-115166Y223324D01*
G37*
G36*
X-153557Y37944D02*
X-153557Y37944D01*
X-153451Y37957D01*
X-153436Y37964D01*
X-153420Y37967D01*
X-153325Y38016D01*
X-153229Y38062D01*
X-153213Y38076D01*
X-153202Y38082D01*
X-153181Y38104D01*
X-153102Y38173D01*
X-151230Y40208D01*
X-151188Y40271D01*
X-151139Y40328D01*
X-151121Y40373D01*
X-151095Y40413D01*
X-151075Y40486D01*
X-151047Y40557D01*
X-151040Y40621D01*
X-151032Y40651D01*
X-151034Y40677D01*
X-151029Y40723D01*
X-151029Y45129D01*
X-151041Y45203D01*
X-151044Y45279D01*
X-151061Y45324D01*
X-151069Y45372D01*
X-151104Y45438D01*
X-151131Y45509D01*
X-151169Y45561D01*
X-151184Y45589D01*
X-151202Y45607D01*
X-151230Y45644D01*
X-153102Y47679D01*
X-153186Y47745D01*
X-153268Y47815D01*
X-153283Y47821D01*
X-153296Y47831D01*
X-153396Y47867D01*
X-153496Y47907D01*
X-153516Y47909D01*
X-153528Y47913D01*
X-153558Y47914D01*
X-153662Y47925D01*
X-158566Y47925D01*
X-158586Y47922D01*
X-158605Y47924D01*
X-158707Y47902D01*
X-158809Y47886D01*
X-158826Y47876D01*
X-158846Y47872D01*
X-158935Y47819D01*
X-159026Y47770D01*
X-159040Y47756D01*
X-159057Y47746D01*
X-159124Y47667D01*
X-159196Y47592D01*
X-159204Y47574D01*
X-159217Y47559D01*
X-159256Y47463D01*
X-159299Y47369D01*
X-159301Y47349D01*
X-159309Y47331D01*
X-159327Y47164D01*
X-159327Y38688D01*
X-159324Y38668D01*
X-159326Y38649D01*
X-159304Y38547D01*
X-159288Y38445D01*
X-159278Y38428D01*
X-159274Y38408D01*
X-159221Y38319D01*
X-159172Y38228D01*
X-159158Y38214D01*
X-159148Y38197D01*
X-159069Y38130D01*
X-158994Y38059D01*
X-158976Y38050D01*
X-158961Y38037D01*
X-158865Y37998D01*
X-158771Y37955D01*
X-158751Y37953D01*
X-158733Y37945D01*
X-158566Y37927D01*
X-153662Y37927D01*
X-153557Y37944D01*
G37*
G36*
X-137070Y37930D02*
X-137070Y37930D01*
X-137051Y37928D01*
X-136949Y37950D01*
X-136847Y37967D01*
X-136830Y37976D01*
X-136810Y37980D01*
X-136721Y38033D01*
X-136630Y38082D01*
X-136616Y38096D01*
X-136599Y38106D01*
X-136532Y38185D01*
X-136461Y38260D01*
X-136452Y38278D01*
X-136439Y38293D01*
X-136400Y38389D01*
X-136357Y38483D01*
X-136355Y38503D01*
X-136347Y38521D01*
X-136329Y38688D01*
X-136329Y47164D01*
X-136332Y47184D01*
X-136330Y47203D01*
X-136352Y47305D01*
X-136369Y47407D01*
X-136378Y47424D01*
X-136382Y47444D01*
X-136435Y47533D01*
X-136484Y47624D01*
X-136498Y47638D01*
X-136508Y47655D01*
X-136587Y47722D01*
X-136662Y47794D01*
X-136680Y47802D01*
X-136695Y47815D01*
X-136791Y47854D01*
X-136885Y47897D01*
X-136905Y47899D01*
X-136923Y47907D01*
X-137090Y47925D01*
X-141994Y47925D01*
X-142099Y47908D01*
X-142205Y47895D01*
X-142220Y47888D01*
X-142236Y47886D01*
X-142331Y47836D01*
X-142427Y47790D01*
X-142443Y47776D01*
X-142454Y47770D01*
X-142475Y47748D01*
X-142554Y47679D01*
X-144426Y45644D01*
X-144468Y45581D01*
X-144517Y45524D01*
X-144535Y45479D01*
X-144561Y45439D01*
X-144581Y45366D01*
X-144609Y45296D01*
X-144616Y45231D01*
X-144624Y45201D01*
X-144622Y45175D01*
X-144627Y45129D01*
X-144627Y40723D01*
X-144615Y40649D01*
X-144612Y40573D01*
X-144595Y40528D01*
X-144588Y40480D01*
X-144552Y40414D01*
X-144526Y40343D01*
X-144487Y40291D01*
X-144472Y40263D01*
X-144454Y40245D01*
X-144426Y40208D01*
X-142554Y38173D01*
X-142470Y38107D01*
X-142388Y38037D01*
X-142373Y38031D01*
X-142360Y38021D01*
X-142260Y37985D01*
X-142160Y37945D01*
X-142140Y37943D01*
X-142128Y37939D01*
X-142098Y37938D01*
X-141994Y37927D01*
X-137090Y37927D01*
X-137070Y37930D01*
G37*
G36*
X6845Y58598D02*
X6845Y58598D01*
X6913Y58599D01*
X7179Y58634D01*
X7194Y58639D01*
X7210Y58639D01*
X7371Y58686D01*
X7571Y58769D01*
X7584Y58777D01*
X7600Y58781D01*
X7743Y58868D01*
X7915Y59000D01*
X7926Y59012D01*
X7940Y59020D01*
X8056Y59141D01*
X8188Y59313D01*
X8195Y59327D01*
X8207Y59338D01*
X8287Y59485D01*
X8370Y59685D01*
X8374Y59701D01*
X8382Y59714D01*
X8422Y59877D01*
X8457Y60143D01*
X8456Y60174D01*
X8463Y60242D01*
X8463Y65742D01*
X8458Y65773D01*
X8457Y65841D01*
X8422Y66107D01*
X8417Y66122D01*
X8417Y66138D01*
X8370Y66299D01*
X8287Y66499D01*
X8279Y66512D01*
X8275Y66528D01*
X8188Y66671D01*
X8056Y66843D01*
X8044Y66854D01*
X8036Y66868D01*
X7915Y66984D01*
X7743Y67116D01*
X7729Y67123D01*
X7718Y67135D01*
X7571Y67215D01*
X7371Y67298D01*
X7355Y67302D01*
X7342Y67310D01*
X7179Y67350D01*
X6913Y67385D01*
X6882Y67384D01*
X6814Y67391D01*
X1314Y67391D01*
X1283Y67386D01*
X1215Y67385D01*
X949Y67350D01*
X934Y67345D01*
X919Y67345D01*
X757Y67298D01*
X557Y67215D01*
X544Y67207D01*
X528Y67203D01*
X385Y67116D01*
X213Y66984D01*
X202Y66972D01*
X188Y66964D01*
X72Y66843D01*
X-60Y66671D01*
X-67Y66657D01*
X-79Y66646D01*
X-84Y66636D01*
X-87Y66633D01*
X-93Y66621D01*
X-159Y66499D01*
X-242Y66299D01*
X-246Y66283D01*
X-254Y66270D01*
X-294Y66107D01*
X-329Y65841D01*
X-328Y65810D01*
X-335Y65742D01*
X-335Y61252D01*
X-330Y61220D01*
X-326Y61133D01*
X-315Y61064D01*
X-304Y61030D01*
X-301Y60994D01*
X-241Y60837D01*
X-237Y60829D01*
X-216Y60801D01*
X-202Y60768D01*
X-97Y60637D01*
X-91Y60631D01*
X-62Y60610D01*
X-39Y60583D01*
X101Y60491D01*
X109Y60487D01*
X144Y60476D01*
X174Y60457D01*
X336Y60413D01*
X387Y60405D01*
X744Y60348D01*
X766Y60349D01*
X775Y60347D01*
X800Y60330D01*
X1025Y60215D01*
X1046Y60209D01*
X1055Y60204D01*
X1074Y60180D01*
X1252Y60002D01*
X1270Y59989D01*
X1277Y59982D01*
X1287Y59953D01*
X1402Y59728D01*
X1415Y59710D01*
X1419Y59702D01*
X1420Y59672D01*
X1485Y59264D01*
X1496Y59230D01*
X1499Y59194D01*
X1559Y59037D01*
X1563Y59029D01*
X1584Y59001D01*
X1598Y58968D01*
X1703Y58837D01*
X1709Y58831D01*
X1738Y58810D01*
X1761Y58783D01*
X1901Y58691D01*
X1909Y58687D01*
X1944Y58676D01*
X1974Y58657D01*
X2136Y58613D01*
X2205Y58602D01*
X2238Y58602D01*
X2324Y58593D01*
X6814Y58593D01*
X6845Y58598D01*
G37*
G36*
X-143070Y31430D02*
X-143070Y31430D01*
X-143051Y31428D01*
X-142949Y31450D01*
X-142847Y31467D01*
X-142830Y31476D01*
X-142810Y31480D01*
X-142721Y31533D01*
X-142630Y31582D01*
X-142616Y31596D01*
X-142599Y31606D01*
X-142532Y31685D01*
X-142461Y31760D01*
X-142452Y31778D01*
X-142439Y31793D01*
X-142400Y31889D01*
X-142357Y31983D01*
X-142355Y32003D01*
X-142347Y32021D01*
X-142329Y32188D01*
X-142329Y35810D01*
X-142344Y35900D01*
X-142351Y35991D01*
X-142363Y36021D01*
X-142369Y36053D01*
X-142411Y36134D01*
X-142447Y36218D01*
X-142473Y36250D01*
X-142484Y36271D01*
X-142507Y36293D01*
X-142552Y36349D01*
X-144405Y38202D01*
X-144479Y38255D01*
X-144549Y38315D01*
X-144579Y38327D01*
X-144605Y38346D01*
X-144692Y38373D01*
X-144777Y38407D01*
X-144818Y38411D01*
X-144840Y38418D01*
X-144872Y38417D01*
X-144944Y38425D01*
X-150712Y38425D01*
X-150802Y38411D01*
X-150893Y38403D01*
X-150923Y38391D01*
X-150955Y38386D01*
X-151036Y38343D01*
X-151120Y38307D01*
X-151152Y38281D01*
X-151173Y38270D01*
X-151195Y38247D01*
X-151251Y38202D01*
X-153104Y36349D01*
X-153157Y36275D01*
X-153217Y36205D01*
X-153229Y36175D01*
X-153248Y36149D01*
X-153275Y36062D01*
X-153309Y35977D01*
X-153313Y35936D01*
X-153320Y35914D01*
X-153319Y35882D01*
X-153327Y35810D01*
X-153327Y32188D01*
X-153324Y32168D01*
X-153326Y32149D01*
X-153304Y32047D01*
X-153288Y31945D01*
X-153278Y31928D01*
X-153274Y31908D01*
X-153221Y31819D01*
X-153172Y31728D01*
X-153158Y31714D01*
X-153148Y31697D01*
X-153069Y31630D01*
X-152994Y31559D01*
X-152976Y31550D01*
X-152961Y31537D01*
X-152865Y31498D01*
X-152771Y31455D01*
X-152751Y31453D01*
X-152733Y31445D01*
X-152566Y31427D01*
X-143090Y31427D01*
X-143070Y31430D01*
G37*
G36*
X-144854Y47442D02*
X-144854Y47442D01*
X-144763Y47449D01*
X-144733Y47461D01*
X-144701Y47467D01*
X-144620Y47509D01*
X-144536Y47545D01*
X-144504Y47571D01*
X-144484Y47582D01*
X-144461Y47605D01*
X-144405Y47650D01*
X-142552Y49503D01*
X-142499Y49577D01*
X-142439Y49647D01*
X-142427Y49677D01*
X-142408Y49703D01*
X-142381Y49790D01*
X-142347Y49875D01*
X-142343Y49916D01*
X-142336Y49938D01*
X-142337Y49970D01*
X-142329Y50042D01*
X-142329Y53664D01*
X-142332Y53684D01*
X-142330Y53703D01*
X-142352Y53805D01*
X-142369Y53907D01*
X-142378Y53924D01*
X-142382Y53944D01*
X-142435Y54033D01*
X-142484Y54124D01*
X-142498Y54138D01*
X-142508Y54155D01*
X-142587Y54222D01*
X-142662Y54294D01*
X-142680Y54302D01*
X-142695Y54315D01*
X-142791Y54354D01*
X-142885Y54397D01*
X-142905Y54399D01*
X-142923Y54407D01*
X-143090Y54425D01*
X-152566Y54425D01*
X-152586Y54422D01*
X-152605Y54424D01*
X-152707Y54402D01*
X-152809Y54386D01*
X-152826Y54376D01*
X-152846Y54372D01*
X-152935Y54319D01*
X-153026Y54270D01*
X-153040Y54256D01*
X-153057Y54246D01*
X-153124Y54167D01*
X-153196Y54092D01*
X-153204Y54074D01*
X-153217Y54059D01*
X-153256Y53963D01*
X-153299Y53869D01*
X-153301Y53849D01*
X-153309Y53831D01*
X-153327Y53664D01*
X-153327Y50042D01*
X-153313Y49952D01*
X-153305Y49861D01*
X-153293Y49831D01*
X-153288Y49799D01*
X-153245Y49718D01*
X-153209Y49634D01*
X-153183Y49602D01*
X-153172Y49582D01*
X-153149Y49559D01*
X-153104Y49503D01*
X-151251Y47650D01*
X-151177Y47597D01*
X-151107Y47537D01*
X-151077Y47525D01*
X-151051Y47506D01*
X-150964Y47479D01*
X-150879Y47445D01*
X-150838Y47441D01*
X-150816Y47434D01*
X-150784Y47435D01*
X-150712Y47427D01*
X-144944Y47427D01*
X-144854Y47442D01*
G37*
G36*
X75363Y-15705D02*
X75363Y-15705D01*
X75358Y-15698D01*
X75365Y-15692D01*
X75365Y-14192D01*
X75329Y-14145D01*
X75322Y-14150D01*
X75316Y-14143D01*
X70866Y-14143D01*
X70865Y-14142D01*
X70865Y-10242D01*
X70866Y-10241D01*
X75316Y-10241D01*
X75363Y-10205D01*
X75358Y-10198D01*
X75365Y-10192D01*
X75365Y-8692D01*
X75329Y-8645D01*
X75322Y-8650D01*
X75316Y-8643D01*
X68316Y-8643D01*
X68269Y-8679D01*
X68272Y-8683D01*
X68269Y-8685D01*
X68271Y-8689D01*
X68267Y-8692D01*
X68267Y-15692D01*
X68303Y-15739D01*
X68310Y-15734D01*
X68316Y-15741D01*
X75316Y-15741D01*
X75363Y-15705D01*
G37*
G36*
X35363Y-15705D02*
X35363Y-15705D01*
X35358Y-15698D01*
X35365Y-15692D01*
X35365Y-8692D01*
X35329Y-8645D01*
X35322Y-8650D01*
X35316Y-8643D01*
X28316Y-8643D01*
X28269Y-8679D01*
X28272Y-8683D01*
X28269Y-8685D01*
X28271Y-8689D01*
X28267Y-8692D01*
X28267Y-10192D01*
X28303Y-10239D01*
X28310Y-10234D01*
X28316Y-10241D01*
X32766Y-10241D01*
X32767Y-10242D01*
X32767Y-14142D01*
X32766Y-14143D01*
X28316Y-14143D01*
X28269Y-14179D01*
X28274Y-14186D01*
X28267Y-14192D01*
X28267Y-15692D01*
X28303Y-15739D01*
X28310Y-15734D01*
X28316Y-15741D01*
X35316Y-15741D01*
X35363Y-15705D01*
G37*
G36*
X-29145Y185432D02*
X-29145Y185432D01*
X-29079Y185434D01*
X-29036Y185452D01*
X-28989Y185460D01*
X-28932Y185494D01*
X-28872Y185519D01*
X-28837Y185550D01*
X-28796Y185575D01*
X-28755Y185626D01*
X-28706Y185670D01*
X-28684Y185712D01*
X-28655Y185749D01*
X-28634Y185811D01*
X-28603Y185870D01*
X-28595Y185924D01*
X-28583Y185961D01*
X-28584Y186001D01*
X-28576Y186055D01*
X-28576Y189865D01*
X-28587Y189930D01*
X-28589Y189996D01*
X-28607Y190039D01*
X-28615Y190086D01*
X-28649Y190143D01*
X-28674Y190203D01*
X-28705Y190238D01*
X-28730Y190279D01*
X-28781Y190321D01*
X-28825Y190369D01*
X-28867Y190391D01*
X-28904Y190420D01*
X-28966Y190441D01*
X-29025Y190472D01*
X-29079Y190480D01*
X-29116Y190492D01*
X-29156Y190491D01*
X-29210Y190499D01*
X-31750Y190499D01*
X-31815Y190488D01*
X-31881Y190486D01*
X-31924Y190468D01*
X-31971Y190460D01*
X-32028Y190426D01*
X-32088Y190401D01*
X-32123Y190370D01*
X-32164Y190345D01*
X-32206Y190294D01*
X-32254Y190250D01*
X-32276Y190208D01*
X-32305Y190171D01*
X-32326Y190109D01*
X-32357Y190050D01*
X-32365Y189996D01*
X-32377Y189959D01*
X-32377Y189955D01*
X-32377Y189954D01*
X-32376Y189919D01*
X-32384Y189865D01*
X-32384Y186055D01*
X-32373Y185990D01*
X-32371Y185924D01*
X-32353Y185881D01*
X-32345Y185834D01*
X-32311Y185777D01*
X-32286Y185717D01*
X-32255Y185682D01*
X-32230Y185641D01*
X-32179Y185600D01*
X-32135Y185551D01*
X-32093Y185529D01*
X-32056Y185500D01*
X-31994Y185479D01*
X-31935Y185448D01*
X-31881Y185440D01*
X-31844Y185428D01*
X-31804Y185429D01*
X-31750Y185421D01*
X-29210Y185421D01*
X-29145Y185432D01*
G37*
G36*
X-118598Y84586D02*
X-118598Y84586D01*
X-118579Y84584D01*
X-118477Y84606D01*
X-118375Y84623D01*
X-118358Y84632D01*
X-118338Y84636D01*
X-118249Y84689D01*
X-118158Y84738D01*
X-118144Y84752D01*
X-118127Y84762D01*
X-118060Y84841D01*
X-117989Y84916D01*
X-117980Y84934D01*
X-117967Y84949D01*
X-117928Y85045D01*
X-117885Y85139D01*
X-117883Y85159D01*
X-117875Y85177D01*
X-117857Y85344D01*
X-117857Y87884D01*
X-117860Y87904D01*
X-117858Y87923D01*
X-117880Y88025D01*
X-117897Y88127D01*
X-117906Y88144D01*
X-117910Y88164D01*
X-117963Y88253D01*
X-118012Y88344D01*
X-118026Y88358D01*
X-118036Y88375D01*
X-118115Y88442D01*
X-118190Y88514D01*
X-118208Y88522D01*
X-118223Y88535D01*
X-118319Y88574D01*
X-118413Y88617D01*
X-118433Y88619D01*
X-118451Y88627D01*
X-118618Y88645D01*
X-119126Y88645D01*
X-119146Y88642D01*
X-119165Y88644D01*
X-119267Y88622D01*
X-119369Y88606D01*
X-119386Y88596D01*
X-119406Y88592D01*
X-119495Y88539D01*
X-119586Y88490D01*
X-119600Y88476D01*
X-119617Y88466D01*
X-119684Y88387D01*
X-119756Y88312D01*
X-119764Y88294D01*
X-119777Y88279D01*
X-119816Y88183D01*
X-119859Y88089D01*
X-119861Y88069D01*
X-119869Y88051D01*
X-119887Y87884D01*
X-119887Y85344D01*
X-119884Y85324D01*
X-119886Y85305D01*
X-119864Y85203D01*
X-119848Y85101D01*
X-119838Y85084D01*
X-119834Y85064D01*
X-119781Y84975D01*
X-119732Y84884D01*
X-119718Y84870D01*
X-119708Y84853D01*
X-119629Y84786D01*
X-119554Y84715D01*
X-119536Y84706D01*
X-119521Y84693D01*
X-119425Y84654D01*
X-119331Y84611D01*
X-119311Y84609D01*
X-119293Y84601D01*
X-119126Y84583D01*
X-118618Y84583D01*
X-118598Y84586D01*
G37*
G36*
X-130790Y85094D02*
X-130790Y85094D01*
X-130771Y85092D01*
X-130669Y85114D01*
X-130567Y85131D01*
X-130550Y85140D01*
X-130530Y85144D01*
X-130441Y85197D01*
X-130350Y85246D01*
X-130336Y85260D01*
X-130319Y85270D01*
X-130252Y85349D01*
X-130181Y85424D01*
X-130172Y85442D01*
X-130159Y85457D01*
X-130120Y85553D01*
X-130077Y85647D01*
X-130075Y85667D01*
X-130067Y85685D01*
X-130049Y85852D01*
X-130049Y87884D01*
X-130052Y87904D01*
X-130050Y87923D01*
X-130072Y88025D01*
X-130089Y88127D01*
X-130098Y88144D01*
X-130102Y88164D01*
X-130155Y88253D01*
X-130204Y88344D01*
X-130218Y88358D01*
X-130228Y88375D01*
X-130307Y88442D01*
X-130382Y88514D01*
X-130400Y88522D01*
X-130415Y88535D01*
X-130511Y88574D01*
X-130605Y88617D01*
X-130625Y88619D01*
X-130643Y88627D01*
X-130810Y88645D01*
X-131064Y88645D01*
X-131084Y88642D01*
X-131103Y88644D01*
X-131205Y88622D01*
X-131307Y88606D01*
X-131324Y88596D01*
X-131344Y88592D01*
X-131433Y88539D01*
X-131524Y88490D01*
X-131538Y88476D01*
X-131555Y88466D01*
X-131622Y88387D01*
X-131694Y88312D01*
X-131702Y88294D01*
X-131715Y88279D01*
X-131754Y88183D01*
X-131797Y88089D01*
X-131799Y88069D01*
X-131807Y88051D01*
X-131825Y87884D01*
X-131825Y85852D01*
X-131822Y85832D01*
X-131824Y85813D01*
X-131802Y85711D01*
X-131786Y85609D01*
X-131776Y85592D01*
X-131772Y85572D01*
X-131719Y85483D01*
X-131670Y85392D01*
X-131656Y85378D01*
X-131646Y85361D01*
X-131567Y85294D01*
X-131492Y85223D01*
X-131474Y85214D01*
X-131459Y85201D01*
X-131363Y85162D01*
X-131269Y85119D01*
X-131249Y85117D01*
X-131231Y85109D01*
X-131064Y85091D01*
X-130810Y85091D01*
X-130790Y85094D01*
G37*
G36*
X-97026Y264160D02*
X-97026Y264160D01*
X-97007Y264158D01*
X-96905Y264180D01*
X-96803Y264197D01*
X-96786Y264206D01*
X-96766Y264210D01*
X-96677Y264263D01*
X-96586Y264312D01*
X-96572Y264326D01*
X-96555Y264336D01*
X-96488Y264415D01*
X-96417Y264490D01*
X-96408Y264508D01*
X-96395Y264523D01*
X-96356Y264619D01*
X-96313Y264713D01*
X-96311Y264733D01*
X-96303Y264751D01*
X-96285Y264918D01*
X-96285Y266216D01*
X-96296Y266287D01*
X-96298Y266359D01*
X-96316Y266408D01*
X-96325Y266459D01*
X-96358Y266522D01*
X-96383Y266590D01*
X-96415Y266631D01*
X-96440Y266677D01*
X-96491Y266726D01*
X-96536Y266782D01*
X-96580Y266810D01*
X-96618Y266846D01*
X-96683Y266876D01*
X-96743Y266915D01*
X-96794Y266928D01*
X-96841Y266950D01*
X-96912Y266957D01*
X-96982Y266975D01*
X-97034Y266971D01*
X-97085Y266977D01*
X-97156Y266961D01*
X-97227Y266956D01*
X-97275Y266935D01*
X-97326Y266924D01*
X-97387Y266888D01*
X-97453Y266859D01*
X-97509Y266815D01*
X-97537Y266798D01*
X-97552Y266780D01*
X-97584Y266755D01*
X-98160Y266179D01*
X-98208Y266112D01*
X-98213Y266107D01*
X-98214Y266104D01*
X-98273Y266035D01*
X-98285Y266005D01*
X-98304Y265979D01*
X-98331Y265892D01*
X-98365Y265807D01*
X-98369Y265766D01*
X-98376Y265744D01*
X-98375Y265712D01*
X-98383Y265640D01*
X-98383Y264918D01*
X-98380Y264898D01*
X-98382Y264879D01*
X-98360Y264777D01*
X-98344Y264675D01*
X-98334Y264658D01*
X-98330Y264638D01*
X-98277Y264549D01*
X-98228Y264458D01*
X-98214Y264444D01*
X-98204Y264427D01*
X-98125Y264360D01*
X-98050Y264289D01*
X-98032Y264280D01*
X-98017Y264267D01*
X-97921Y264228D01*
X-97827Y264185D01*
X-97807Y264183D01*
X-97789Y264175D01*
X-97622Y264157D01*
X-97046Y264157D01*
X-97026Y264160D01*
G37*
G36*
X106775Y171480D02*
X106775Y171480D01*
X106847Y171482D01*
X106896Y171500D01*
X106947Y171509D01*
X107010Y171542D01*
X107078Y171567D01*
X107119Y171599D01*
X107165Y171624D01*
X107214Y171675D01*
X107270Y171720D01*
X107298Y171764D01*
X107334Y171802D01*
X107364Y171867D01*
X107403Y171927D01*
X107416Y171978D01*
X107438Y172025D01*
X107445Y172096D01*
X107463Y172166D01*
X107459Y172218D01*
X107465Y172269D01*
X107449Y172340D01*
X107444Y172411D01*
X107423Y172459D01*
X107412Y172510D01*
X107376Y172571D01*
X107347Y172637D01*
X107303Y172693D01*
X107286Y172721D01*
X107268Y172736D01*
X107243Y172768D01*
X106667Y173344D01*
X106593Y173397D01*
X106523Y173457D01*
X106493Y173469D01*
X106467Y173488D01*
X106380Y173515D01*
X106295Y173549D01*
X106254Y173553D01*
X106232Y173560D01*
X106200Y173559D01*
X106128Y173567D01*
X105406Y173567D01*
X105386Y173564D01*
X105367Y173566D01*
X105265Y173544D01*
X105163Y173528D01*
X105146Y173518D01*
X105126Y173514D01*
X105037Y173461D01*
X104946Y173412D01*
X104932Y173398D01*
X104915Y173388D01*
X104848Y173309D01*
X104777Y173234D01*
X104768Y173216D01*
X104755Y173201D01*
X104716Y173105D01*
X104673Y173011D01*
X104671Y172991D01*
X104663Y172973D01*
X104645Y172806D01*
X104645Y172230D01*
X104648Y172210D01*
X104646Y172191D01*
X104668Y172089D01*
X104685Y171987D01*
X104694Y171970D01*
X104698Y171950D01*
X104751Y171861D01*
X104800Y171770D01*
X104814Y171756D01*
X104824Y171739D01*
X104903Y171672D01*
X104978Y171601D01*
X104996Y171592D01*
X105011Y171579D01*
X105107Y171540D01*
X105201Y171497D01*
X105221Y171495D01*
X105239Y171487D01*
X105406Y171469D01*
X106704Y171469D01*
X106775Y171480D01*
G37*
G36*
X116102Y177972D02*
X116102Y177972D01*
X116121Y177970D01*
X116223Y177992D01*
X116325Y178009D01*
X116342Y178018D01*
X116362Y178022D01*
X116451Y178075D01*
X116542Y178124D01*
X116556Y178138D01*
X116573Y178148D01*
X116640Y178227D01*
X116712Y178302D01*
X116720Y178320D01*
X116733Y178335D01*
X116772Y178431D01*
X116815Y178525D01*
X116817Y178545D01*
X116825Y178563D01*
X116843Y178730D01*
X116843Y179306D01*
X116840Y179326D01*
X116842Y179345D01*
X116820Y179447D01*
X116804Y179549D01*
X116794Y179566D01*
X116790Y179586D01*
X116737Y179675D01*
X116688Y179766D01*
X116674Y179780D01*
X116664Y179797D01*
X116585Y179864D01*
X116510Y179936D01*
X116492Y179944D01*
X116477Y179957D01*
X116381Y179996D01*
X116287Y180039D01*
X116267Y180041D01*
X116249Y180049D01*
X116082Y180067D01*
X114784Y180067D01*
X114713Y180056D01*
X114641Y180054D01*
X114592Y180036D01*
X114541Y180028D01*
X114478Y179994D01*
X114410Y179969D01*
X114369Y179937D01*
X114324Y179912D01*
X114274Y179861D01*
X114218Y179816D01*
X114190Y179772D01*
X114154Y179734D01*
X114124Y179669D01*
X114085Y179609D01*
X114072Y179558D01*
X114051Y179511D01*
X114043Y179440D01*
X114025Y179370D01*
X114029Y179318D01*
X114023Y179267D01*
X114039Y179196D01*
X114044Y179125D01*
X114065Y179077D01*
X114076Y179026D01*
X114113Y178965D01*
X114141Y178899D01*
X114185Y178843D01*
X114202Y178815D01*
X114220Y178800D01*
X114245Y178768D01*
X114821Y178192D01*
X114895Y178139D01*
X114965Y178079D01*
X114995Y178067D01*
X115021Y178048D01*
X115108Y178021D01*
X115193Y177987D01*
X115234Y177983D01*
X115256Y177976D01*
X115288Y177977D01*
X115360Y177969D01*
X116082Y177969D01*
X116102Y177972D01*
G37*
G36*
X-104012Y273551D02*
X-104012Y273551D01*
X-103941Y273556D01*
X-103893Y273577D01*
X-103842Y273588D01*
X-103781Y273625D01*
X-103715Y273653D01*
X-103659Y273697D01*
X-103631Y273714D01*
X-103616Y273732D01*
X-103584Y273757D01*
X-103008Y274333D01*
X-102955Y274407D01*
X-102895Y274477D01*
X-102883Y274507D01*
X-102864Y274533D01*
X-102837Y274620D01*
X-102803Y274705D01*
X-102799Y274746D01*
X-102792Y274768D01*
X-102793Y274800D01*
X-102785Y274872D01*
X-102785Y275594D01*
X-102788Y275614D01*
X-102786Y275633D01*
X-102808Y275735D01*
X-102825Y275837D01*
X-102834Y275854D01*
X-102838Y275874D01*
X-102891Y275963D01*
X-102940Y276054D01*
X-102954Y276068D01*
X-102964Y276085D01*
X-103043Y276152D01*
X-103118Y276224D01*
X-103136Y276232D01*
X-103151Y276245D01*
X-103247Y276284D01*
X-103341Y276327D01*
X-103361Y276329D01*
X-103379Y276337D01*
X-103546Y276355D01*
X-104122Y276355D01*
X-104142Y276352D01*
X-104161Y276354D01*
X-104263Y276332D01*
X-104365Y276316D01*
X-104382Y276306D01*
X-104402Y276302D01*
X-104491Y276249D01*
X-104582Y276200D01*
X-104596Y276186D01*
X-104613Y276176D01*
X-104680Y276097D01*
X-104752Y276022D01*
X-104760Y276004D01*
X-104773Y275989D01*
X-104812Y275893D01*
X-104855Y275799D01*
X-104857Y275779D01*
X-104865Y275761D01*
X-104883Y275594D01*
X-104883Y274296D01*
X-104872Y274225D01*
X-104870Y274153D01*
X-104852Y274104D01*
X-104844Y274053D01*
X-104810Y273990D01*
X-104785Y273922D01*
X-104753Y273881D01*
X-104728Y273836D01*
X-104677Y273786D01*
X-104632Y273730D01*
X-104588Y273702D01*
X-104550Y273666D01*
X-104485Y273636D01*
X-104425Y273597D01*
X-104374Y273584D01*
X-104327Y273563D01*
X-104256Y273555D01*
X-104186Y273537D01*
X-104134Y273541D01*
X-104083Y273535D01*
X-104012Y273551D01*
G37*
G36*
X116102Y171472D02*
X116102Y171472D01*
X116121Y171470D01*
X116223Y171492D01*
X116325Y171509D01*
X116342Y171518D01*
X116362Y171522D01*
X116451Y171575D01*
X116542Y171624D01*
X116556Y171638D01*
X116573Y171648D01*
X116640Y171727D01*
X116712Y171802D01*
X116720Y171820D01*
X116733Y171835D01*
X116772Y171931D01*
X116815Y172025D01*
X116817Y172045D01*
X116825Y172063D01*
X116843Y172230D01*
X116843Y172806D01*
X116840Y172826D01*
X116842Y172845D01*
X116820Y172947D01*
X116804Y173049D01*
X116794Y173066D01*
X116790Y173086D01*
X116737Y173175D01*
X116688Y173266D01*
X116674Y173280D01*
X116664Y173297D01*
X116585Y173364D01*
X116510Y173436D01*
X116492Y173444D01*
X116477Y173457D01*
X116381Y173496D01*
X116287Y173539D01*
X116267Y173541D01*
X116249Y173549D01*
X116082Y173567D01*
X115360Y173567D01*
X115270Y173553D01*
X115179Y173545D01*
X115149Y173533D01*
X115117Y173528D01*
X115036Y173485D01*
X114952Y173449D01*
X114920Y173423D01*
X114900Y173412D01*
X114877Y173389D01*
X114821Y173344D01*
X114245Y172768D01*
X114204Y172710D01*
X114154Y172658D01*
X114132Y172611D01*
X114102Y172569D01*
X114081Y172500D01*
X114051Y172435D01*
X114045Y172383D01*
X114029Y172333D01*
X114031Y172262D01*
X114023Y172191D01*
X114034Y172140D01*
X114036Y172088D01*
X114060Y172020D01*
X114076Y171950D01*
X114102Y171906D01*
X114120Y171857D01*
X114165Y171801D01*
X114202Y171739D01*
X114241Y171705D01*
X114274Y171665D01*
X114334Y171626D01*
X114389Y171579D01*
X114437Y171560D01*
X114481Y171532D01*
X114550Y171514D01*
X114617Y171487D01*
X114688Y171479D01*
X114719Y171471D01*
X114743Y171473D01*
X114784Y171469D01*
X116082Y171469D01*
X116102Y171472D01*
G37*
G36*
X106218Y177984D02*
X106218Y177984D01*
X106309Y177991D01*
X106339Y178003D01*
X106371Y178009D01*
X106452Y178051D01*
X106536Y178087D01*
X106568Y178113D01*
X106589Y178124D01*
X106611Y178147D01*
X106667Y178192D01*
X107243Y178768D01*
X107284Y178826D01*
X107334Y178878D01*
X107356Y178925D01*
X107386Y178967D01*
X107407Y179036D01*
X107438Y179101D01*
X107443Y179153D01*
X107459Y179203D01*
X107457Y179274D01*
X107465Y179345D01*
X107454Y179396D01*
X107452Y179448D01*
X107428Y179516D01*
X107412Y179586D01*
X107386Y179630D01*
X107368Y179679D01*
X107323Y179735D01*
X107286Y179797D01*
X107247Y179831D01*
X107214Y179871D01*
X107154Y179910D01*
X107099Y179957D01*
X107051Y179976D01*
X107007Y180004D01*
X106938Y180022D01*
X106871Y180049D01*
X106800Y180057D01*
X106769Y180065D01*
X106745Y180063D01*
X106704Y180067D01*
X105406Y180067D01*
X105386Y180064D01*
X105367Y180066D01*
X105265Y180044D01*
X105163Y180028D01*
X105146Y180018D01*
X105126Y180014D01*
X105037Y179961D01*
X104946Y179912D01*
X104932Y179898D01*
X104915Y179888D01*
X104848Y179809D01*
X104777Y179734D01*
X104768Y179716D01*
X104755Y179701D01*
X104716Y179605D01*
X104673Y179511D01*
X104671Y179491D01*
X104663Y179473D01*
X104645Y179306D01*
X104645Y178730D01*
X104648Y178710D01*
X104646Y178691D01*
X104668Y178589D01*
X104685Y178487D01*
X104694Y178470D01*
X104698Y178450D01*
X104751Y178361D01*
X104800Y178270D01*
X104814Y178256D01*
X104824Y178239D01*
X104903Y178172D01*
X104978Y178101D01*
X104996Y178092D01*
X105011Y178079D01*
X105107Y178040D01*
X105201Y177997D01*
X105221Y177995D01*
X105239Y177987D01*
X105406Y177969D01*
X106128Y177969D01*
X106218Y177984D01*
G37*
G36*
X-103526Y264160D02*
X-103526Y264160D01*
X-103507Y264158D01*
X-103405Y264180D01*
X-103303Y264197D01*
X-103286Y264206D01*
X-103266Y264210D01*
X-103177Y264263D01*
X-103086Y264312D01*
X-103072Y264326D01*
X-103055Y264336D01*
X-102988Y264415D01*
X-102917Y264490D01*
X-102908Y264508D01*
X-102895Y264523D01*
X-102856Y264619D01*
X-102813Y264713D01*
X-102811Y264733D01*
X-102803Y264751D01*
X-102785Y264918D01*
X-102785Y265640D01*
X-102800Y265730D01*
X-102807Y265821D01*
X-102819Y265851D01*
X-102825Y265883D01*
X-102867Y265964D01*
X-102903Y266048D01*
X-102929Y266080D01*
X-102940Y266101D01*
X-102963Y266123D01*
X-103008Y266179D01*
X-103584Y266755D01*
X-103642Y266796D01*
X-103694Y266846D01*
X-103741Y266868D01*
X-103783Y266898D01*
X-103852Y266919D01*
X-103917Y266950D01*
X-103969Y266955D01*
X-104019Y266971D01*
X-104090Y266969D01*
X-104161Y266977D01*
X-104212Y266966D01*
X-104264Y266964D01*
X-104332Y266940D01*
X-104402Y266924D01*
X-104446Y266898D01*
X-104495Y266880D01*
X-104551Y266835D01*
X-104613Y266798D01*
X-104647Y266759D01*
X-104687Y266726D01*
X-104726Y266666D01*
X-104773Y266611D01*
X-104792Y266563D01*
X-104820Y266519D01*
X-104838Y266450D01*
X-104865Y266383D01*
X-104873Y266312D01*
X-104881Y266281D01*
X-104879Y266257D01*
X-104883Y266216D01*
X-104883Y264918D01*
X-104880Y264898D01*
X-104882Y264879D01*
X-104860Y264777D01*
X-104844Y264675D01*
X-104834Y264658D01*
X-104830Y264638D01*
X-104777Y264549D01*
X-104728Y264458D01*
X-104714Y264444D01*
X-104704Y264427D01*
X-104625Y264360D01*
X-104550Y264289D01*
X-104532Y264280D01*
X-104517Y264267D01*
X-104421Y264228D01*
X-104327Y264185D01*
X-104307Y264183D01*
X-104289Y264175D01*
X-104122Y264157D01*
X-103546Y264157D01*
X-103526Y264160D01*
G37*
G36*
X-96956Y273546D02*
X-96956Y273546D01*
X-96904Y273548D01*
X-96836Y273572D01*
X-96766Y273588D01*
X-96722Y273614D01*
X-96673Y273632D01*
X-96617Y273677D01*
X-96555Y273714D01*
X-96521Y273753D01*
X-96481Y273786D01*
X-96442Y273846D01*
X-96395Y273901D01*
X-96376Y273949D01*
X-96348Y273993D01*
X-96330Y274062D01*
X-96303Y274129D01*
X-96295Y274200D01*
X-96287Y274231D01*
X-96289Y274255D01*
X-96285Y274296D01*
X-96285Y275594D01*
X-96288Y275614D01*
X-96286Y275633D01*
X-96308Y275735D01*
X-96325Y275837D01*
X-96334Y275854D01*
X-96338Y275874D01*
X-96391Y275963D01*
X-96440Y276054D01*
X-96454Y276068D01*
X-96464Y276085D01*
X-96543Y276152D01*
X-96618Y276224D01*
X-96636Y276232D01*
X-96651Y276245D01*
X-96747Y276284D01*
X-96841Y276327D01*
X-96861Y276329D01*
X-96879Y276337D01*
X-97046Y276355D01*
X-97622Y276355D01*
X-97642Y276352D01*
X-97661Y276354D01*
X-97763Y276332D01*
X-97865Y276316D01*
X-97882Y276306D01*
X-97902Y276302D01*
X-97991Y276249D01*
X-98082Y276200D01*
X-98096Y276186D01*
X-98113Y276176D01*
X-98180Y276097D01*
X-98252Y276022D01*
X-98260Y276004D01*
X-98273Y275989D01*
X-98312Y275893D01*
X-98355Y275799D01*
X-98357Y275779D01*
X-98365Y275761D01*
X-98383Y275594D01*
X-98383Y274872D01*
X-98369Y274782D01*
X-98361Y274691D01*
X-98349Y274661D01*
X-98344Y274629D01*
X-98301Y274548D01*
X-98265Y274464D01*
X-98239Y274432D01*
X-98228Y274412D01*
X-98205Y274389D01*
X-98160Y274333D01*
X-97584Y273757D01*
X-97526Y273716D01*
X-97474Y273666D01*
X-97427Y273644D01*
X-97385Y273614D01*
X-97316Y273593D01*
X-97251Y273563D01*
X-97199Y273557D01*
X-97149Y273541D01*
X-97078Y273543D01*
X-97007Y273535D01*
X-96956Y273546D01*
G37*
D10*
X-220000Y135000D03*
X220000Y135000D03*
D11*
X15240Y171971D03*
X15240Y163309D03*
X15240Y151651D03*
X15240Y142989D03*
X-157480Y178549D03*
X-157480Y187211D03*
D12*
X-160528Y123698D03*
X-160528Y112776D03*
D13*
X-313690Y241314D03*
X-313690Y211314D03*
D14*
X131331Y-17272D03*
X122669Y-17272D03*
X131331Y-5080D03*
X122669Y-5080D03*
X131331Y7112D03*
X122669Y7112D03*
D11*
X88138Y-17539D03*
X88138Y-8877D03*
X100330Y-17539D03*
X100330Y-8877D03*
D15*
X145128Y-33528D03*
X125128Y-33528D03*
D11*
X-146304Y-4813D03*
X-146304Y-13475D03*
X-146304Y-33795D03*
X-146304Y-25133D03*
D16*
X-193481Y97907D02*
X-197983Y97907D01*
X-193481Y97907D02*
X-193481Y96405D01*
X-197983Y96405D01*
X-197983Y97907D01*
X-197983Y97481D02*
X-193481Y97481D01*
X-193481Y101907D02*
X-197983Y101907D01*
X-193481Y101907D02*
X-193481Y100405D01*
X-197983Y100405D01*
X-197983Y101907D01*
X-197983Y101481D02*
X-193481Y101481D01*
X-193481Y105907D02*
X-197983Y105907D01*
X-193481Y105907D02*
X-193481Y104405D01*
X-197983Y104405D01*
X-197983Y105907D01*
X-197983Y105481D02*
X-193481Y105481D01*
X-193481Y109907D02*
X-197983Y109907D01*
X-193481Y109907D02*
X-193481Y108405D01*
X-197983Y108405D01*
X-197983Y109907D01*
X-197983Y109481D02*
X-193481Y109481D01*
X-193481Y113907D02*
X-197983Y113907D01*
X-193481Y113907D02*
X-193481Y112405D01*
X-197983Y112405D01*
X-197983Y113907D01*
X-197983Y113481D02*
X-193481Y113481D01*
X-212481Y113907D02*
X-216983Y113907D01*
X-212481Y113907D02*
X-212481Y112405D01*
X-216983Y112405D01*
X-216983Y113907D01*
X-216983Y113481D02*
X-212481Y113481D01*
X-212481Y109907D02*
X-216983Y109907D01*
X-212481Y109907D02*
X-212481Y108405D01*
X-216983Y108405D01*
X-216983Y109907D01*
X-216983Y109481D02*
X-212481Y109481D01*
X-212481Y105907D02*
X-216983Y105907D01*
X-212481Y105907D02*
X-212481Y104405D01*
X-216983Y104405D01*
X-216983Y105907D01*
X-216983Y105481D02*
X-212481Y105481D01*
X-212481Y101907D02*
X-216983Y101907D01*
X-212481Y101907D02*
X-212481Y100405D01*
X-216983Y100405D01*
X-216983Y101907D01*
X-216983Y101481D02*
X-212481Y101481D01*
X-212481Y97907D02*
X-216983Y97907D01*
X-212481Y97907D02*
X-212481Y96405D01*
X-216983Y96405D01*
X-216983Y97907D01*
X-216983Y97481D02*
X-212481Y97481D01*
D17*
X-208604Y111528D02*
X-201860Y111528D01*
X-201860Y98784D01*
X-208604Y98784D01*
X-208604Y111528D01*
X-208604Y101530D02*
X-201860Y101530D01*
X-201860Y104276D02*
X-208604Y104276D01*
X-208604Y107022D02*
X-201860Y107022D01*
X-201860Y109768D02*
X-208604Y109768D01*
D14*
X-187211Y78232D03*
X-178549Y78232D03*
D11*
X-227584Y110985D03*
X-227584Y119647D03*
X-181864Y131813D03*
X-181864Y140475D03*
D18*
X-94739Y20445D02*
X-93213Y20445D01*
X-94739Y20445D02*
X-94739Y27471D01*
X-93213Y27471D01*
X-93213Y20445D01*
X-93213Y25299D02*
X-94739Y25299D01*
X-86739Y20445D02*
X-85213Y20445D01*
X-86739Y20445D02*
X-86739Y27471D01*
X-85213Y27471D01*
X-85213Y20445D01*
X-85213Y25299D02*
X-86739Y25299D01*
X-38739Y20445D02*
X-37213Y20445D01*
X-38739Y20445D02*
X-38739Y27471D01*
X-37213Y27471D01*
X-37213Y20445D01*
X-37213Y25299D02*
X-38739Y25299D01*
X-30739Y20445D02*
X-29213Y20445D01*
X-30739Y20445D02*
X-30739Y27471D01*
X-29213Y27471D01*
X-29213Y20445D01*
X-29213Y25299D02*
X-30739Y25299D01*
D19*
X-78349Y18581D02*
X-80603Y18581D01*
X-80603Y29335D01*
X-78349Y29335D01*
X-78349Y18581D01*
X-78349Y19893D02*
X-80603Y19893D01*
X-80603Y21205D02*
X-78349Y21205D01*
X-78349Y22517D02*
X-80603Y22517D01*
X-80603Y23829D02*
X-78349Y23829D01*
X-78349Y25141D02*
X-80603Y25141D01*
X-80603Y26453D02*
X-78349Y26453D01*
X-78349Y27765D02*
X-80603Y27765D01*
X-80603Y29077D02*
X-78349Y29077D01*
X-45603Y18581D02*
X-43349Y18581D01*
X-45603Y18581D02*
X-45603Y29335D01*
X-43349Y29335D01*
X-43349Y18581D01*
X-43349Y19893D02*
X-45603Y19893D01*
X-45603Y21205D02*
X-43349Y21205D01*
X-43349Y22517D02*
X-45603Y22517D01*
X-45603Y23829D02*
X-43349Y23829D01*
X-43349Y25141D02*
X-45603Y25141D01*
X-45603Y26453D02*
X-43349Y26453D01*
X-43349Y27765D02*
X-45603Y27765D01*
X-45603Y29077D02*
X-43349Y29077D01*
X-73349Y18581D02*
X-75603Y18581D01*
X-75603Y29335D01*
X-73349Y29335D01*
X-73349Y18581D01*
X-73349Y19893D02*
X-75603Y19893D01*
X-75603Y21205D02*
X-73349Y21205D01*
X-73349Y22517D02*
X-75603Y22517D01*
X-75603Y23829D02*
X-73349Y23829D01*
X-73349Y25141D02*
X-75603Y25141D01*
X-75603Y26453D02*
X-73349Y26453D01*
X-73349Y27765D02*
X-75603Y27765D01*
X-75603Y29077D02*
X-73349Y29077D01*
X-50603Y18581D02*
X-48349Y18581D01*
X-50603Y18581D02*
X-50603Y29335D01*
X-48349Y29335D01*
X-48349Y18581D01*
X-48349Y19893D02*
X-50603Y19893D01*
X-50603Y21205D02*
X-48349Y21205D01*
X-48349Y22517D02*
X-50603Y22517D01*
X-50603Y23829D02*
X-48349Y23829D01*
X-48349Y25141D02*
X-50603Y25141D01*
X-50603Y26453D02*
X-48349Y26453D01*
X-48349Y27765D02*
X-50603Y27765D01*
X-50603Y29077D02*
X-48349Y29077D01*
X-68349Y18581D02*
X-70603Y18581D01*
X-70603Y29335D01*
X-68349Y29335D01*
X-68349Y18581D01*
X-68349Y19893D02*
X-70603Y19893D01*
X-70603Y21205D02*
X-68349Y21205D01*
X-68349Y22517D02*
X-70603Y22517D01*
X-70603Y23829D02*
X-68349Y23829D01*
X-68349Y25141D02*
X-70603Y25141D01*
X-70603Y26453D02*
X-68349Y26453D01*
X-68349Y27765D02*
X-70603Y27765D01*
X-70603Y29077D02*
X-68349Y29077D01*
X-55603Y18581D02*
X-53349Y18581D01*
X-55603Y18581D02*
X-55603Y29335D01*
X-53349Y29335D01*
X-53349Y18581D01*
X-53349Y19893D02*
X-55603Y19893D01*
X-55603Y21205D02*
X-53349Y21205D01*
X-53349Y22517D02*
X-55603Y22517D01*
X-55603Y23829D02*
X-53349Y23829D01*
X-53349Y25141D02*
X-55603Y25141D01*
X-55603Y26453D02*
X-53349Y26453D01*
X-53349Y27765D02*
X-55603Y27765D01*
X-55603Y29077D02*
X-53349Y29077D01*
X-63349Y18581D02*
X-65603Y18581D01*
X-65603Y29335D01*
X-63349Y29335D01*
X-63349Y18581D01*
X-63349Y19893D02*
X-65603Y19893D01*
X-65603Y21205D02*
X-63349Y21205D01*
X-63349Y22517D02*
X-65603Y22517D01*
X-65603Y23829D02*
X-63349Y23829D01*
X-63349Y25141D02*
X-65603Y25141D01*
X-65603Y26453D02*
X-63349Y26453D01*
X-63349Y27765D02*
X-65603Y27765D01*
X-65603Y29077D02*
X-63349Y29077D01*
X-60603Y18581D02*
X-58349Y18581D01*
X-60603Y18581D02*
X-60603Y29335D01*
X-58349Y29335D01*
X-58349Y18581D01*
X-58349Y19893D02*
X-60603Y19893D01*
X-60603Y21205D02*
X-58349Y21205D01*
X-58349Y22517D02*
X-60603Y22517D01*
X-60603Y23829D02*
X-58349Y23829D01*
X-58349Y25141D02*
X-60603Y25141D01*
X-60603Y26453D02*
X-58349Y26453D01*
X-58349Y27765D02*
X-60603Y27765D01*
X-60603Y29077D02*
X-58349Y29077D01*
D20*
X-113076Y18208D03*
X-10876Y18208D03*
X-113076Y-21092D03*
X-10876Y-21092D03*
D21*
X-90876Y13208D03*
X-33076Y13208D03*
D22*
X53709Y6715D02*
X53709Y1901D01*
X53709Y6715D02*
X54923Y6715D01*
X54923Y1901D01*
X53709Y1901D01*
X53709Y3631D02*
X54923Y3631D01*
X54923Y5361D02*
X53709Y5361D01*
X58709Y6715D02*
X58709Y1901D01*
X58709Y6715D02*
X59923Y6715D01*
X59923Y1901D01*
X58709Y1901D01*
X58709Y3631D02*
X59923Y3631D01*
X59923Y5361D02*
X58709Y5361D01*
X63709Y6715D02*
X63709Y1901D01*
X63709Y6715D02*
X64923Y6715D01*
X64923Y1901D01*
X63709Y1901D01*
X63709Y3631D02*
X64923Y3631D01*
X64923Y5361D02*
X63709Y5361D01*
X68709Y6715D02*
X68709Y1901D01*
X68709Y6715D02*
X69923Y6715D01*
X69923Y1901D01*
X68709Y1901D01*
X68709Y3631D02*
X69923Y3631D01*
X69923Y5361D02*
X68709Y5361D01*
X48709Y6715D02*
X48709Y1901D01*
X48709Y6715D02*
X49923Y6715D01*
X49923Y1901D01*
X48709Y1901D01*
X48709Y3631D02*
X49923Y3631D01*
X49923Y5361D02*
X48709Y5361D01*
X43709Y6715D02*
X43709Y1901D01*
X43709Y6715D02*
X44923Y6715D01*
X44923Y1901D01*
X43709Y1901D01*
X43709Y3631D02*
X44923Y3631D01*
X44923Y5361D02*
X43709Y5361D01*
X38709Y6715D02*
X38709Y1901D01*
X38709Y6715D02*
X39923Y6715D01*
X39923Y1901D01*
X38709Y1901D01*
X38709Y3631D02*
X39923Y3631D01*
X39923Y5361D02*
X38709Y5361D01*
X33709Y6715D02*
X33709Y1901D01*
X33709Y6715D02*
X34923Y6715D01*
X34923Y1901D01*
X33709Y1901D01*
X33709Y3631D02*
X34923Y3631D01*
X34923Y5361D02*
X33709Y5361D01*
X70909Y-20549D02*
X75723Y-20549D01*
X70909Y-20549D02*
X70909Y-19335D01*
X75723Y-19335D01*
X75723Y-20549D01*
X75723Y-5049D02*
X70909Y-5049D01*
X70909Y-3835D01*
X75723Y-3835D01*
X75723Y-5049D01*
X32723Y-5049D02*
X27909Y-5049D01*
X27909Y-3835D01*
X32723Y-3835D01*
X32723Y-5049D01*
X32723Y-20549D02*
X27909Y-20549D01*
X27909Y-19335D01*
X32723Y-19335D01*
X32723Y-20549D01*
X53709Y-26285D02*
X53709Y-31099D01*
X53709Y-26285D02*
X54923Y-26285D01*
X54923Y-31099D01*
X53709Y-31099D01*
X53709Y-29369D02*
X54923Y-29369D01*
X54923Y-27639D02*
X53709Y-27639D01*
X58709Y-26285D02*
X58709Y-31099D01*
X58709Y-26285D02*
X59923Y-26285D01*
X59923Y-31099D01*
X58709Y-31099D01*
X58709Y-29369D02*
X59923Y-29369D01*
X59923Y-27639D02*
X58709Y-27639D01*
X63709Y-26285D02*
X63709Y-31099D01*
X63709Y-26285D02*
X64923Y-26285D01*
X64923Y-31099D01*
X63709Y-31099D01*
X63709Y-29369D02*
X64923Y-29369D01*
X64923Y-27639D02*
X63709Y-27639D01*
X68709Y-26285D02*
X68709Y-31099D01*
X68709Y-26285D02*
X69923Y-26285D01*
X69923Y-31099D01*
X68709Y-31099D01*
X68709Y-29369D02*
X69923Y-29369D01*
X69923Y-27639D02*
X68709Y-27639D01*
X48709Y-26285D02*
X48709Y-31099D01*
X48709Y-26285D02*
X49923Y-26285D01*
X49923Y-31099D01*
X48709Y-31099D01*
X48709Y-29369D02*
X49923Y-29369D01*
X49923Y-27639D02*
X48709Y-27639D01*
X43709Y-26285D02*
X43709Y-31099D01*
X43709Y-26285D02*
X44923Y-26285D01*
X44923Y-31099D01*
X43709Y-31099D01*
X43709Y-29369D02*
X44923Y-29369D01*
X44923Y-27639D02*
X43709Y-27639D01*
X38709Y-26285D02*
X38709Y-31099D01*
X38709Y-26285D02*
X39923Y-26285D01*
X39923Y-31099D01*
X38709Y-31099D01*
X38709Y-29369D02*
X39923Y-29369D01*
X39923Y-27639D02*
X38709Y-27639D01*
X33709Y-26285D02*
X33709Y-31099D01*
X33709Y-26285D02*
X34923Y-26285D01*
X34923Y-31099D01*
X33709Y-31099D01*
X33709Y-29369D02*
X34923Y-29369D01*
X34923Y-27639D02*
X33709Y-27639D01*
X61209Y-9099D02*
X61209Y-4285D01*
X62423Y-4285D01*
X62423Y-9099D01*
X61209Y-9099D01*
X61209Y-7369D02*
X62423Y-7369D01*
X62423Y-5639D02*
X61209Y-5639D01*
D23*
X62316Y-6692D03*
X62316Y-17692D03*
X41316Y-6692D03*
X41316Y-17692D03*
D24*
X51816Y-6692D03*
X51816Y-17692D03*
D11*
X37846Y14719D03*
X37846Y23381D03*
X86106Y1765D03*
X86106Y10427D03*
X85344Y-27165D03*
X85344Y-35827D03*
D25*
X11684Y17780D03*
X11684Y12780D03*
X11684Y22780D03*
X16684Y22780D03*
X16684Y17780D03*
X16684Y12780D03*
X6684Y12780D03*
X6684Y17780D03*
X6684Y22780D03*
D11*
X98298Y1765D03*
X98298Y10427D03*
X110490Y1765D03*
X110490Y10427D03*
X97536Y-27165D03*
X97536Y-35827D03*
X109728Y-27165D03*
X109728Y-35827D03*
X84328Y-58687D03*
X84328Y-50025D03*
X96520Y-50025D03*
X96520Y-58687D03*
X153416Y-50025D03*
X153416Y-58687D03*
X141224Y-58687D03*
X141224Y-50025D03*
X116840Y-58687D03*
X116840Y-50025D03*
X129032Y-50025D03*
X129032Y-58687D03*
D26*
X26162Y-57300D03*
X26162Y-44300D03*
X10668Y-57300D03*
X10668Y-44300D03*
D11*
X39624Y-49517D03*
X39624Y-58179D03*
D27*
X127358Y23368D03*
X140358Y23368D03*
D14*
X109588Y25540D03*
X100927Y25540D03*
X5771Y-21395D03*
X14432Y-21395D03*
X14491Y-32512D03*
X5829Y-32512D03*
X14432Y-10101D03*
X5771Y-10101D03*
X5829Y1105D03*
X14491Y1105D03*
D11*
X314960Y264909D03*
X314960Y273571D03*
X-179324Y90157D03*
X-179324Y98819D03*
D14*
X-210045Y82296D03*
X-218707Y82296D03*
D28*
X327060Y202438D03*
D29*
X254560Y202438D03*
D14*
X251224Y39116D03*
X259886Y39116D03*
D30*
X-5236Y62992D03*
X-5236Y67992D03*
X-5236Y57992D03*
X13364Y57992D03*
X13364Y62992D03*
X13364Y67992D03*
D31*
X9064Y72292D03*
X-936Y72292D03*
X4064Y72292D03*
X4064Y53692D03*
X-936Y53692D03*
X9064Y53692D03*
D30*
X4064Y62992D03*
D32*
X-124968Y110854D03*
X-124968Y117774D03*
X-128968Y117774D03*
X-132968Y117774D03*
X-136968Y117774D03*
X-120968Y117774D03*
X-116968Y117774D03*
X-112968Y117774D03*
X-126968Y114314D03*
X-130968Y114314D03*
X-134968Y114314D03*
X-138968Y114314D03*
X-122968Y114314D03*
X-118968Y114314D03*
X-114968Y114314D03*
X-110968Y114314D03*
X-128968Y110854D03*
X-132968Y110854D03*
X-136968Y110854D03*
X-120968Y110854D03*
X-116968Y110854D03*
X-112968Y110854D03*
X-138968Y107394D03*
X-134968Y107394D03*
X-130968Y107394D03*
X-126968Y107394D03*
X-122968Y107394D03*
X-118968Y107394D03*
X-114968Y107394D03*
X-110968Y107394D03*
X-136968Y103934D03*
X-132968Y103934D03*
X-128968Y103934D03*
X-120968Y103934D03*
X-116968Y103934D03*
X-112968Y103934D03*
X-138968Y100474D03*
X-126968Y100474D03*
X-122968Y100474D03*
X-110968Y100474D03*
X-136968Y97014D03*
X-128968Y97014D03*
X-120968Y97014D03*
X-112968Y97014D03*
X-138968Y93554D03*
X-134968Y93554D03*
X-130968Y93554D03*
X-126968Y93554D03*
X-122968Y93554D03*
X-118968Y93554D03*
X-114968Y93554D03*
X-110968Y93554D03*
D12*
X-160528Y157480D03*
X-160528Y146304D03*
D33*
X-118872Y81448D03*
X-118872Y77048D03*
D34*
X-131064Y81798D03*
X-131064Y76698D03*
D35*
X-67100Y111506D03*
X-72600Y111506D03*
D12*
X-160528Y168656D03*
X-160528Y135128D03*
X-160528Y101600D03*
D36*
X-126624Y238220D03*
X-126624Y233220D03*
X-126624Y228220D03*
X-126624Y223220D03*
X-110624Y223220D03*
X-110624Y228220D03*
X-110624Y233220D03*
X-110624Y238220D03*
X-118624Y230720D03*
D37*
X-610Y251440D03*
X-610Y280440D03*
G36*
X200946Y11377D02*
X209112Y25522D01*
X212260Y23705D01*
X204094Y9560D01*
X200946Y11377D01*
G37*
G36*
X226061Y-3123D02*
X234227Y11022D01*
X237375Y9205D01*
X229209Y-4940D01*
X226061Y-3123D01*
G37*
G36*
X-209582Y26460D02*
X-201416Y12315D01*
X-204564Y10498D01*
X-212730Y24643D01*
X-209582Y26460D01*
G37*
G36*
X-234697Y11960D02*
X-226531Y-2185D01*
X-229679Y-4002D01*
X-237845Y10143D01*
X-234697Y11960D01*
G37*
D38*
X-195330Y249111D02*
X-195330Y255005D01*
X-195330Y255005D01*
X-195330Y249111D01*
X-195330Y249111D01*
X-195330Y251838D02*
X-195330Y251838D01*
X-195330Y254565D02*
X-195330Y254565D01*
X-199830Y255005D02*
X-199830Y249111D01*
X-199830Y255005D02*
X-199830Y255005D01*
X-199830Y249111D01*
X-199830Y249111D01*
X-199830Y251838D02*
X-199830Y251838D01*
X-199830Y254565D02*
X-199830Y254565D01*
X-204330Y255005D02*
X-204330Y249111D01*
X-204330Y255005D02*
X-204330Y255005D01*
X-204330Y249111D01*
X-204330Y249111D01*
X-204330Y251838D02*
X-204330Y251838D01*
X-204330Y254565D02*
X-204330Y254565D01*
X-208830Y255005D02*
X-208830Y249111D01*
X-208830Y255005D02*
X-208830Y255005D01*
X-208830Y249111D01*
X-208830Y249111D01*
X-208830Y251838D02*
X-208830Y251838D01*
X-208830Y254565D02*
X-208830Y254565D01*
X-213330Y255005D02*
X-213330Y249111D01*
X-213330Y255005D02*
X-213330Y255005D01*
X-213330Y249111D01*
X-213330Y249111D01*
X-213330Y251838D02*
X-213330Y251838D01*
X-213330Y254565D02*
X-213330Y254565D01*
X-217830Y255005D02*
X-217830Y249111D01*
X-217830Y255005D02*
X-217830Y255005D01*
X-217830Y249111D01*
X-217830Y249111D01*
X-217830Y251838D02*
X-217830Y251838D01*
X-217830Y254565D02*
X-217830Y254565D01*
X-217830Y226097D02*
X-217830Y220203D01*
X-217830Y226097D02*
X-217830Y226097D01*
X-217830Y220203D01*
X-217830Y220203D01*
X-217830Y222930D02*
X-217830Y222930D01*
X-217830Y225657D02*
X-217830Y225657D01*
X-213330Y226097D02*
X-213330Y220203D01*
X-213330Y226097D02*
X-213330Y226097D01*
X-213330Y220203D01*
X-213330Y220203D01*
X-213330Y222930D02*
X-213330Y222930D01*
X-213330Y225657D02*
X-213330Y225657D01*
X-208830Y226097D02*
X-208830Y220203D01*
X-208830Y226097D02*
X-208830Y226097D01*
X-208830Y220203D01*
X-208830Y220203D01*
X-208830Y222930D02*
X-208830Y222930D01*
X-208830Y225657D02*
X-208830Y225657D01*
X-204330Y226097D02*
X-204330Y220203D01*
X-204330Y226097D02*
X-204330Y226097D01*
X-204330Y220203D01*
X-204330Y220203D01*
X-204330Y222930D02*
X-204330Y222930D01*
X-204330Y225657D02*
X-204330Y225657D01*
X-199830Y226097D02*
X-199830Y220203D01*
X-199830Y226097D02*
X-199830Y226097D01*
X-199830Y220203D01*
X-199830Y220203D01*
X-199830Y222930D02*
X-199830Y222930D01*
X-199830Y225657D02*
X-199830Y225657D01*
X-195330Y226097D02*
X-195330Y220203D01*
X-195330Y226097D02*
X-195330Y226097D01*
X-195330Y220203D01*
X-195330Y220203D01*
X-195330Y222930D02*
X-195330Y222930D01*
X-195330Y225657D02*
X-195330Y225657D01*
D39*
X-206580Y237604D03*
D34*
X-187452Y211846D03*
X-187452Y206746D03*
D40*
X-229118Y263652D03*
X-224018Y263652D03*
D34*
X-198628Y206746D03*
X-198628Y211846D03*
X-214884Y275854D03*
X-214884Y270754D03*
D41*
X-198452Y279400D03*
X-176452Y279400D03*
X-237060Y194056D03*
X-215060Y194056D03*
D42*
X-177800Y206546D03*
X-177800Y212046D03*
D35*
X-223818Y273304D03*
X-229318Y273304D03*
D12*
X-160528Y90424D03*
D43*
X326136Y65244D03*
D44*
X326136Y54644D03*
D35*
X323386Y77216D03*
X328886Y77216D03*
X328886Y42672D03*
X323386Y42672D03*
D45*
X329636Y290458D03*
D46*
X322636Y292608D03*
D45*
X329636Y294758D03*
D14*
X232397Y276352D03*
X241059Y276352D03*
D11*
X-138176Y139459D03*
X-138176Y130797D03*
X17272Y95771D03*
X17272Y87109D03*
D14*
X-78981Y237744D03*
X-87643Y237744D03*
D11*
X-94488Y213093D03*
X-94488Y221755D03*
D47*
X-266776Y66289D02*
X-259157Y53091D01*
X-237160Y65791D02*
X-244779Y78989D01*
D14*
X301485Y84328D03*
X310147Y84328D03*
X280149Y84328D03*
X288811Y84328D03*
X130002Y111420D03*
X121341Y111420D03*
D11*
X-166116Y216141D03*
X-166116Y224803D03*
D14*
X-224803Y289560D03*
X-216141Y289560D03*
D11*
X15240Y126251D03*
X15240Y117589D03*
D14*
X256781Y276352D03*
X265443Y276352D03*
X256781Y265176D03*
X265443Y265176D03*
X256781Y298704D03*
X265443Y298704D03*
X256781Y287528D03*
X265443Y287528D03*
D48*
X285874Y274240D03*
X285874Y264240D03*
X301374Y274240D03*
X301374Y264240D03*
X285874Y298624D03*
X285874Y288624D03*
X301374Y298624D03*
X301374Y288624D03*
D49*
X-128016Y285496D03*
D50*
X-245872Y162560D03*
D26*
X-65024Y231036D03*
X-65024Y218036D03*
D27*
X-80668Y203200D03*
X-67668Y203200D03*
D51*
X-279856Y196352D03*
X179856Y-36312D03*
D11*
X255016Y73419D03*
X255016Y64757D03*
X329184Y273571D03*
X329184Y264909D03*
D27*
X-130452Y254000D03*
X-117452Y254000D03*
D26*
X-140208Y221892D03*
X-140208Y208892D03*
X-258064Y186540D03*
X-258064Y199540D03*
D27*
X-151996Y255016D03*
X-164996Y255016D03*
D26*
X-153416Y275948D03*
X-153416Y288948D03*
D27*
X-235308Y227584D03*
X-248308Y227584D03*
D35*
X209594Y182880D03*
X215094Y182880D03*
D42*
X143256Y232962D03*
X143256Y238462D03*
X151384Y232962D03*
X151384Y238462D03*
D35*
X185630Y162560D03*
X180130Y162560D03*
X202482Y220472D03*
X207982Y220472D03*
X142538Y151384D03*
X148038Y151384D03*
D42*
X164084Y236010D03*
X164084Y241510D03*
X171704Y236010D03*
X171704Y241510D03*
X125984Y201886D03*
X125984Y196386D03*
D35*
X146006Y160528D03*
X140506Y160528D03*
X202482Y202184D03*
X207982Y202184D03*
X185630Y170688D03*
X180130Y170688D03*
X202482Y173736D03*
X207982Y173736D03*
X209594Y192024D03*
X215094Y192024D03*
X202482Y211328D03*
X207982Y211328D03*
D42*
X136144Y196386D03*
X136144Y201886D03*
X200660Y188170D03*
X200660Y182670D03*
D11*
X117856Y230899D03*
X117856Y222237D03*
D52*
X122936Y144100D03*
X122936Y128188D03*
D53*
X162306Y101346D03*
X162306Y88646D03*
X162306Y75946D03*
X175006Y75946D03*
X175006Y88646D03*
X175006Y101346D03*
D54*
X168656Y114046D03*
X178816Y63246D03*
X158496Y63246D03*
D53*
X71120Y251968D03*
X71120Y264668D03*
X71120Y277368D03*
X58420Y277368D03*
X58420Y264668D03*
X58420Y251968D03*
D54*
X64770Y239268D03*
X54610Y290068D03*
X74930Y290068D03*
D55*
X216248Y159512D03*
X196248Y159512D03*
D26*
X131572Y225448D03*
X131572Y212448D03*
D12*
X111760Y211328D03*
D56*
X187906Y182934D03*
X184406Y182934D03*
X180906Y182934D03*
X177406Y182934D03*
X173906Y182934D03*
X170406Y182934D03*
X166906Y182934D03*
X163406Y182934D03*
X159906Y182934D03*
X156406Y182934D03*
X152906Y182934D03*
X149406Y182934D03*
X187906Y186434D03*
X184406Y186434D03*
X180906Y186434D03*
X177406Y186434D03*
X173906Y186434D03*
X170406Y186434D03*
X166906Y186434D03*
X163406Y186434D03*
X159906Y186434D03*
X156406Y186434D03*
X152906Y186434D03*
X149406Y186434D03*
X187906Y189934D03*
X184406Y189934D03*
X180906Y189934D03*
X177406Y189934D03*
X173906Y189934D03*
X170406Y189934D03*
X166906Y189934D03*
X163406Y189934D03*
X159906Y189934D03*
X156406Y189934D03*
X152906Y189934D03*
X149406Y189934D03*
X187906Y193434D03*
X184406Y193434D03*
X180906Y193434D03*
X177406Y193434D03*
X173906Y193434D03*
X170406Y193434D03*
X166906Y193434D03*
X163406Y193434D03*
X159906Y193434D03*
X156406Y193434D03*
X152906Y193434D03*
X149406Y193434D03*
X187906Y196934D03*
X184406Y196934D03*
X180906Y196934D03*
X177406Y196934D03*
X173906Y196934D03*
X170406Y196934D03*
X166906Y196934D03*
X163406Y196934D03*
X159906Y196934D03*
X156406Y196934D03*
X152906Y196934D03*
X149406Y196934D03*
X187906Y200434D03*
X184406Y200434D03*
X180906Y200434D03*
X177406Y200434D03*
X159906Y200434D03*
X156406Y200434D03*
X152906Y200434D03*
X149406Y200434D03*
X187906Y203934D03*
X184406Y203934D03*
X180906Y203934D03*
X177406Y203934D03*
X159906Y203934D03*
X156406Y203934D03*
X152906Y203934D03*
X149406Y203934D03*
X187906Y207434D03*
X184406Y207434D03*
X180906Y207434D03*
X177406Y207434D03*
X159906Y207434D03*
X156406Y207434D03*
X152906Y207434D03*
X149406Y207434D03*
X187906Y210934D03*
X184406Y210934D03*
X180906Y210934D03*
X177406Y210934D03*
X173906Y210934D03*
X170406Y210934D03*
X166906Y210934D03*
X163406Y210934D03*
X159906Y210934D03*
X156406Y210934D03*
X152906Y210934D03*
X149406Y210934D03*
X187906Y214434D03*
X184406Y214434D03*
X180906Y214434D03*
X177406Y214434D03*
X173906Y214434D03*
X170406Y214434D03*
X166906Y214434D03*
X163406Y214434D03*
X159906Y214434D03*
X156406Y214434D03*
X152906Y214434D03*
X149406Y214434D03*
X187906Y217934D03*
X184406Y217934D03*
X177406Y217934D03*
X173906Y217934D03*
X170406Y217934D03*
X166906Y217934D03*
X163406Y217934D03*
X159906Y217934D03*
X156406Y217934D03*
X152906Y217934D03*
X149406Y217934D03*
X187906Y221434D03*
X184406Y221434D03*
X180906Y221434D03*
X177406Y221434D03*
X173906Y221434D03*
X170406Y221434D03*
X166906Y221434D03*
X163406Y221434D03*
X159906Y221434D03*
X156406Y221434D03*
X152906Y221434D03*
X149406Y221434D03*
D57*
G36*
X107350Y175768D02*
X110744Y179162D01*
X114138Y175768D01*
X110744Y172374D01*
X107350Y175768D01*
G37*
D58*
X169892Y166116D03*
D59*
X159292Y166116D03*
D60*
X133040Y173816D03*
X126040Y173816D03*
X133040Y183816D03*
X126040Y183816D03*
D61*
X137148Y140938D03*
X137148Y131246D03*
D12*
X215304Y174412D03*
X200406Y194310D03*
D62*
X187960Y247376D03*
X187960Y257068D03*
D63*
X177018Y281940D03*
X186710Y281940D03*
D42*
X104648Y163278D03*
X104648Y157778D03*
X113792Y163278D03*
X113792Y157778D03*
D35*
X142538Y169672D03*
X148038Y169672D03*
D64*
X114574Y200152D03*
X104882Y200152D03*
X133370Y158496D03*
X123678Y158496D03*
D61*
X160528Y150642D03*
X160528Y140950D03*
D64*
X173462Y150876D03*
X183154Y150876D03*
X186162Y235204D03*
X195854Y235204D03*
X178034Y268732D03*
X187726Y268732D03*
D11*
X106680Y242557D03*
X106680Y251219D03*
X119888Y242557D03*
X119888Y251219D03*
X102616Y222237D03*
X102616Y230899D03*
X132080Y251219D03*
X132080Y242557D03*
D14*
X106413Y188976D03*
X115075Y188976D03*
X109995Y148336D03*
X101333Y148336D03*
D65*
X308233Y71268D03*
D66*
X295108Y71393D03*
X290108Y71393D03*
X285108Y71393D03*
X300108Y71393D03*
D65*
X308233Y66268D03*
X308233Y61268D03*
X308233Y56268D03*
X308233Y51268D03*
X308233Y46268D03*
X308233Y41268D03*
X308233Y36268D03*
X308233Y31268D03*
X308233Y26268D03*
X276983Y26268D03*
X276983Y31268D03*
X276983Y36268D03*
X276983Y41268D03*
X276983Y46268D03*
X276983Y51268D03*
X276983Y56268D03*
X276983Y61268D03*
X276983Y66268D03*
X276983Y71268D03*
D66*
X300108Y26143D03*
X295108Y26143D03*
X290108Y26143D03*
X285108Y26143D03*
D14*
X251701Y50800D03*
X260363Y50800D03*
D11*
X239776Y69355D03*
X239776Y60693D03*
D67*
X-762Y207264D03*
X-762Y202764D03*
X-762Y211764D03*
X2888Y207264D03*
X2888Y202764D03*
X2888Y211764D03*
X-4412Y207264D03*
X-4412Y202764D03*
X-4412Y211764D03*
D14*
X-79997Y149352D03*
X-88659Y149352D03*
D68*
G36*
X-86709Y87684D02*
X-92813Y81580D01*
X-98211Y86978D01*
X-92107Y93082D01*
X-86709Y87684D01*
G37*
G36*
X-77516Y96877D02*
X-83620Y90773D01*
X-89018Y96171D01*
X-82914Y102275D01*
X-77516Y96877D01*
G37*
G36*
X-70445Y89806D02*
X-76549Y83702D01*
X-81947Y89100D01*
X-75843Y95204D01*
X-70445Y89806D01*
G37*
G36*
X-79638Y80613D02*
X-85742Y74509D01*
X-91140Y79907D01*
X-85036Y86011D01*
X-79638Y80613D01*
G37*
D57*
G36*
X-100584Y273650D02*
X-97190Y270256D01*
X-100584Y266862D01*
X-103978Y270256D01*
X-100584Y273650D01*
G37*
D42*
X-114808Y275038D03*
X-114808Y269538D03*
D35*
X-103334Y254000D03*
X-97834Y254000D03*
D11*
X59944Y194323D03*
X59944Y185661D03*
D69*
X39624Y203726D03*
X39624Y174226D03*
D70*
X19304Y212264D03*
X19304Y202264D03*
D71*
X-52422Y81280D03*
X-32922Y81280D03*
X-52422Y102616D03*
X-32922Y102616D03*
D27*
X-96154Y112776D03*
X-82154Y112776D03*
X-113904Y137160D03*
X-127904Y137160D03*
D26*
X-86360Y137048D03*
X-86360Y123048D03*
D27*
X-113904Y162560D03*
X-127904Y162560D03*
X-113904Y149860D03*
X-127904Y149860D03*
D26*
X-73660Y137048D03*
X-73660Y123048D03*
X-60960Y137048D03*
X-60960Y123048D03*
X-100076Y144160D03*
X-100076Y130160D03*
D72*
X-30480Y172720D03*
X-30480Y182880D03*
X-30480Y193040D03*
D48*
X33120Y114504D03*
X33120Y76504D03*
X109120Y114504D03*
X109120Y76504D03*
X33120Y101804D03*
X33120Y89104D03*
X109320Y101804D03*
X109320Y89104D03*
M02*
