G04 EAGLE Gerber X2 export*
%TF.Part,Single*%
%TF.FileFunction,Soldermask,Bot*%
%TF.FilePolarity,Negative*%
%TF.GenerationSoftware,Autodesk,EAGLE,9.6.2*%
%TF.CreationDate,2024-11-13T18:58:03Z*%
G75*
%MOMM*%
%FSLAX44Y44*%
%LPD*%
%INsolder-mask-bottom*%
%AMOC8*
5,1,8,0,0,1.08239X$1,22.5*%
G01*
%ADD10C,1.863500*%
%ADD11R,1.163500X0.763500*%
%ADD12R,0.863500X1.063500*%
%ADD13C,0.963500*%
%ADD14R,0.913500X3.613500*%
%ADD15R,0.913500X2.713500*%
%ADD16C,1.563500*%
%ADD17R,0.698500X1.333500*%
%ADD18C,0.713500*%
%ADD19R,1.863500X0.963500*%
%ADD20R,1.063500X0.763500*%
%ADD21R,0.763500X1.063500*%
%ADD22C,1.587500*%
%ADD23P,1.718294X8X202.500000*%
%ADD24P,1.718294X8X22.500000*%
%ADD25C,2.000000*%
%ADD26C,0.850900*%
%ADD27C,1.079500*%
%ADD28R,1.333500X0.698500*%

G36*
X277687Y39128D02*
X277687Y39128D01*
X277753Y39130D01*
X277796Y39148D01*
X277843Y39156D01*
X277900Y39190D01*
X277960Y39215D01*
X277995Y39246D01*
X278036Y39271D01*
X278078Y39322D01*
X278126Y39366D01*
X278148Y39408D01*
X278177Y39445D01*
X278198Y39507D01*
X278229Y39566D01*
X278237Y39620D01*
X278249Y39657D01*
X278248Y39697D01*
X278256Y39751D01*
X278256Y43561D01*
X278245Y43626D01*
X278243Y43692D01*
X278225Y43735D01*
X278217Y43782D01*
X278183Y43839D01*
X278158Y43899D01*
X278127Y43934D01*
X278102Y43975D01*
X278051Y44017D01*
X278007Y44065D01*
X277965Y44087D01*
X277928Y44116D01*
X277866Y44137D01*
X277807Y44168D01*
X277753Y44176D01*
X277716Y44188D01*
X277676Y44187D01*
X277622Y44195D01*
X275082Y44195D01*
X275017Y44184D01*
X274951Y44182D01*
X274908Y44164D01*
X274861Y44156D01*
X274804Y44122D01*
X274744Y44097D01*
X274709Y44066D01*
X274668Y44041D01*
X274627Y43990D01*
X274578Y43946D01*
X274556Y43904D01*
X274527Y43867D01*
X274506Y43805D01*
X274475Y43746D01*
X274467Y43692D01*
X274455Y43655D01*
X274455Y43651D01*
X274455Y43650D01*
X274456Y43615D01*
X274448Y43561D01*
X274448Y39751D01*
X274459Y39686D01*
X274461Y39620D01*
X274479Y39577D01*
X274487Y39530D01*
X274521Y39473D01*
X274546Y39413D01*
X274577Y39378D01*
X274602Y39337D01*
X274653Y39296D01*
X274697Y39247D01*
X274739Y39225D01*
X274776Y39196D01*
X274838Y39175D01*
X274897Y39144D01*
X274951Y39136D01*
X274988Y39124D01*
X275028Y39125D01*
X275082Y39117D01*
X277622Y39117D01*
X277687Y39128D01*
G37*
G36*
X-116902Y217563D02*
X-116902Y217563D01*
X-116836Y217565D01*
X-116793Y217583D01*
X-116746Y217591D01*
X-116689Y217625D01*
X-116629Y217650D01*
X-116594Y217681D01*
X-116553Y217706D01*
X-116512Y217757D01*
X-116463Y217801D01*
X-116441Y217843D01*
X-116412Y217880D01*
X-116391Y217942D01*
X-116360Y218001D01*
X-116352Y218055D01*
X-116340Y218092D01*
X-116341Y218132D01*
X-116333Y218186D01*
X-116333Y220726D01*
X-116344Y220791D01*
X-116346Y220857D01*
X-116364Y220900D01*
X-116372Y220947D01*
X-116406Y221004D01*
X-116431Y221064D01*
X-116462Y221099D01*
X-116487Y221140D01*
X-116538Y221182D01*
X-116582Y221230D01*
X-116624Y221252D01*
X-116661Y221281D01*
X-116723Y221302D01*
X-116782Y221333D01*
X-116836Y221341D01*
X-116873Y221353D01*
X-116913Y221352D01*
X-116967Y221360D01*
X-120777Y221360D01*
X-120842Y221349D01*
X-120908Y221347D01*
X-120951Y221329D01*
X-120998Y221321D01*
X-121055Y221287D01*
X-121115Y221262D01*
X-121150Y221231D01*
X-121191Y221206D01*
X-121233Y221155D01*
X-121281Y221111D01*
X-121303Y221069D01*
X-121332Y221032D01*
X-121353Y220970D01*
X-121384Y220911D01*
X-121392Y220857D01*
X-121404Y220820D01*
X-121404Y220817D01*
X-121403Y220780D01*
X-121411Y220726D01*
X-121411Y218186D01*
X-121400Y218121D01*
X-121398Y218055D01*
X-121380Y218012D01*
X-121372Y217965D01*
X-121338Y217908D01*
X-121313Y217848D01*
X-121282Y217813D01*
X-121257Y217772D01*
X-121206Y217731D01*
X-121162Y217682D01*
X-121120Y217660D01*
X-121083Y217631D01*
X-121021Y217610D01*
X-120962Y217579D01*
X-120908Y217571D01*
X-120871Y217559D01*
X-120831Y217560D01*
X-120777Y217552D01*
X-116967Y217552D01*
X-116902Y217563D01*
G37*
G36*
X273496Y290969D02*
X273496Y290969D01*
X273562Y290971D01*
X273605Y290989D01*
X273652Y290997D01*
X273709Y291031D01*
X273769Y291056D01*
X273804Y291087D01*
X273845Y291112D01*
X273887Y291163D01*
X273935Y291207D01*
X273957Y291249D01*
X273986Y291286D01*
X274007Y291348D01*
X274038Y291407D01*
X274046Y291461D01*
X274058Y291498D01*
X274057Y291538D01*
X274065Y291592D01*
X274065Y294132D01*
X274054Y294197D01*
X274052Y294263D01*
X274034Y294306D01*
X274026Y294353D01*
X273992Y294410D01*
X273967Y294470D01*
X273936Y294505D01*
X273911Y294546D01*
X273860Y294588D01*
X273816Y294636D01*
X273774Y294658D01*
X273737Y294687D01*
X273675Y294708D01*
X273616Y294739D01*
X273562Y294747D01*
X273525Y294759D01*
X273485Y294758D01*
X273431Y294766D01*
X269621Y294766D01*
X269556Y294755D01*
X269490Y294753D01*
X269447Y294735D01*
X269400Y294727D01*
X269343Y294693D01*
X269283Y294668D01*
X269248Y294637D01*
X269207Y294612D01*
X269166Y294561D01*
X269117Y294517D01*
X269095Y294475D01*
X269066Y294438D01*
X269045Y294376D01*
X269014Y294317D01*
X269006Y294263D01*
X268994Y294226D01*
X268994Y294223D01*
X268995Y294186D01*
X268987Y294132D01*
X268987Y291592D01*
X268998Y291527D01*
X269000Y291461D01*
X269018Y291418D01*
X269026Y291371D01*
X269060Y291314D01*
X269085Y291254D01*
X269116Y291219D01*
X269141Y291178D01*
X269192Y291137D01*
X269236Y291088D01*
X269278Y291066D01*
X269315Y291037D01*
X269377Y291016D01*
X269436Y290985D01*
X269490Y290977D01*
X269527Y290965D01*
X269567Y290966D01*
X269621Y290958D01*
X273431Y290958D01*
X273496Y290969D01*
G37*
G36*
X-235774Y113423D02*
X-235774Y113423D01*
X-235708Y113425D01*
X-235665Y113443D01*
X-235618Y113451D01*
X-235561Y113485D01*
X-235501Y113510D01*
X-235466Y113541D01*
X-235425Y113566D01*
X-235384Y113617D01*
X-235335Y113661D01*
X-235313Y113703D01*
X-235284Y113740D01*
X-235263Y113802D01*
X-235232Y113861D01*
X-235224Y113915D01*
X-235212Y113952D01*
X-235213Y113992D01*
X-235205Y114046D01*
X-235205Y116586D01*
X-235216Y116651D01*
X-235218Y116717D01*
X-235236Y116760D01*
X-235244Y116807D01*
X-235278Y116864D01*
X-235303Y116924D01*
X-235334Y116959D01*
X-235359Y117000D01*
X-235410Y117042D01*
X-235454Y117090D01*
X-235496Y117112D01*
X-235533Y117141D01*
X-235595Y117162D01*
X-235654Y117193D01*
X-235708Y117201D01*
X-235745Y117213D01*
X-235785Y117212D01*
X-235839Y117220D01*
X-239649Y117220D01*
X-239714Y117209D01*
X-239780Y117207D01*
X-239823Y117189D01*
X-239870Y117181D01*
X-239927Y117147D01*
X-239987Y117122D01*
X-240022Y117091D01*
X-240063Y117066D01*
X-240105Y117015D01*
X-240153Y116971D01*
X-240175Y116929D01*
X-240204Y116892D01*
X-240225Y116830D01*
X-240256Y116771D01*
X-240264Y116717D01*
X-240276Y116680D01*
X-240276Y116677D01*
X-240275Y116640D01*
X-240283Y116586D01*
X-240283Y114046D01*
X-240272Y113981D01*
X-240270Y113915D01*
X-240252Y113872D01*
X-240244Y113825D01*
X-240210Y113768D01*
X-240185Y113708D01*
X-240154Y113673D01*
X-240129Y113632D01*
X-240078Y113591D01*
X-240034Y113542D01*
X-239992Y113520D01*
X-239955Y113491D01*
X-239893Y113470D01*
X-239834Y113439D01*
X-239780Y113431D01*
X-239743Y113419D01*
X-239703Y113420D01*
X-239649Y113412D01*
X-235839Y113412D01*
X-235774Y113423D01*
G37*
G36*
X288482Y77355D02*
X288482Y77355D01*
X288548Y77357D01*
X288591Y77375D01*
X288638Y77383D01*
X288695Y77417D01*
X288755Y77442D01*
X288790Y77473D01*
X288831Y77498D01*
X288873Y77549D01*
X288921Y77593D01*
X288943Y77635D01*
X288972Y77672D01*
X288993Y77734D01*
X289024Y77793D01*
X289032Y77847D01*
X289044Y77884D01*
X289043Y77924D01*
X289051Y77978D01*
X289051Y80518D01*
X289040Y80583D01*
X289038Y80649D01*
X289020Y80692D01*
X289012Y80739D01*
X288978Y80796D01*
X288953Y80856D01*
X288922Y80891D01*
X288897Y80932D01*
X288846Y80974D01*
X288802Y81022D01*
X288760Y81044D01*
X288723Y81073D01*
X288661Y81094D01*
X288602Y81125D01*
X288548Y81133D01*
X288511Y81145D01*
X288471Y81144D01*
X288417Y81152D01*
X284607Y81152D01*
X284542Y81141D01*
X284476Y81139D01*
X284433Y81121D01*
X284386Y81113D01*
X284329Y81079D01*
X284269Y81054D01*
X284234Y81023D01*
X284193Y80998D01*
X284152Y80947D01*
X284103Y80903D01*
X284081Y80861D01*
X284052Y80824D01*
X284031Y80762D01*
X284000Y80703D01*
X283992Y80649D01*
X283980Y80612D01*
X283980Y80609D01*
X283981Y80572D01*
X283973Y80518D01*
X283973Y77978D01*
X283984Y77913D01*
X283986Y77847D01*
X284004Y77804D01*
X284012Y77757D01*
X284046Y77700D01*
X284071Y77640D01*
X284102Y77605D01*
X284127Y77564D01*
X284178Y77523D01*
X284222Y77474D01*
X284264Y77452D01*
X284301Y77423D01*
X284363Y77402D01*
X284422Y77371D01*
X284476Y77363D01*
X284513Y77351D01*
X284553Y77352D01*
X284607Y77344D01*
X288417Y77344D01*
X288482Y77355D01*
G37*
G36*
X317946Y28587D02*
X317946Y28587D01*
X318012Y28589D01*
X318055Y28607D01*
X318102Y28615D01*
X318159Y28649D01*
X318219Y28674D01*
X318254Y28705D01*
X318295Y28730D01*
X318337Y28781D01*
X318385Y28825D01*
X318407Y28867D01*
X318436Y28904D01*
X318457Y28966D01*
X318488Y29025D01*
X318496Y29079D01*
X318508Y29116D01*
X318507Y29156D01*
X318515Y29210D01*
X318515Y31750D01*
X318504Y31815D01*
X318502Y31881D01*
X318484Y31924D01*
X318476Y31971D01*
X318442Y32028D01*
X318417Y32088D01*
X318386Y32123D01*
X318361Y32164D01*
X318310Y32206D01*
X318266Y32254D01*
X318224Y32276D01*
X318187Y32305D01*
X318125Y32326D01*
X318066Y32357D01*
X318012Y32365D01*
X317975Y32377D01*
X317935Y32376D01*
X317881Y32384D01*
X314071Y32384D01*
X314006Y32373D01*
X313940Y32371D01*
X313897Y32353D01*
X313850Y32345D01*
X313793Y32311D01*
X313733Y32286D01*
X313698Y32255D01*
X313657Y32230D01*
X313616Y32179D01*
X313567Y32135D01*
X313545Y32093D01*
X313516Y32056D01*
X313495Y31994D01*
X313464Y31935D01*
X313456Y31881D01*
X313444Y31844D01*
X313444Y31841D01*
X313445Y31804D01*
X313437Y31750D01*
X313437Y29210D01*
X313448Y29145D01*
X313450Y29079D01*
X313468Y29036D01*
X313476Y28989D01*
X313510Y28932D01*
X313535Y28872D01*
X313566Y28837D01*
X313591Y28796D01*
X313642Y28755D01*
X313686Y28706D01*
X313728Y28684D01*
X313765Y28655D01*
X313827Y28634D01*
X313886Y28603D01*
X313940Y28595D01*
X313977Y28583D01*
X314017Y28584D01*
X314071Y28576D01*
X317881Y28576D01*
X317946Y28587D01*
G37*
D10*
X-220000Y135000D03*
X220000Y135000D03*
D11*
X-293190Y203814D03*
X-293190Y233814D03*
X-293190Y248814D03*
D12*
X-325190Y263814D03*
X-325190Y188814D03*
X-302190Y188814D03*
X-302190Y263814D03*
D13*
X-313690Y241314D03*
X-313690Y211314D03*
D14*
X-293102Y39900D03*
X-308102Y39900D03*
X-323102Y39900D03*
D15*
X-293102Y78900D03*
X-308102Y78900D03*
X-323102Y78900D03*
D16*
X145128Y-33528D03*
X125128Y-33528D03*
D17*
X-222504Y115316D03*
X-232664Y115316D03*
X-242824Y115316D03*
D18*
X-90876Y13208D03*
X-33076Y13208D03*
D19*
X301752Y242596D03*
X301752Y277596D03*
D17*
X276606Y292862D03*
X266446Y292862D03*
D20*
X311912Y60348D03*
X311912Y47348D03*
D21*
X259992Y169164D03*
X246992Y169164D03*
D22*
X-259157Y53091D02*
X-266776Y66289D01*
X-244779Y78989D02*
X-237160Y65791D01*
D21*
X206352Y71499D03*
X219352Y71499D03*
X32108Y79248D03*
X45108Y79248D03*
X35156Y61976D03*
X48156Y61976D03*
D23*
X-128016Y285496D03*
D24*
X-245872Y162560D03*
D17*
X-134112Y219456D03*
X-123952Y219456D03*
X-113792Y219456D03*
D25*
X-190976Y259344D03*
X-124880Y1280D03*
D26*
X175006Y101346D03*
X162306Y101346D03*
X162306Y88646D03*
X175006Y88646D03*
X175006Y75946D03*
X162306Y75946D03*
D27*
X168656Y114046D03*
X178816Y63246D03*
X158496Y63246D03*
D26*
X58420Y251968D03*
X71120Y251968D03*
X71120Y264668D03*
X58420Y264668D03*
X58420Y277368D03*
X71120Y277368D03*
D27*
X64770Y239268D03*
X54610Y290068D03*
X74930Y290068D03*
D21*
X-115212Y278384D03*
X-102212Y278384D03*
D20*
X43688Y122532D03*
X43688Y135532D03*
D17*
X331216Y30480D03*
X321056Y30480D03*
X310896Y30480D03*
D28*
X276352Y26416D03*
X276352Y36576D03*
X276352Y46736D03*
D17*
X301752Y79248D03*
X291592Y79248D03*
X281432Y79248D03*
M02*
