G04 EAGLE Gerber X2 export*
%TF.Part,Single*%
%TF.FileFunction,Paste,Top*%
%TF.FilePolarity,Positive*%
%TF.GenerationSoftware,Autodesk,EAGLE,9.6.2*%
%TF.CreationDate,2024-11-13T18:58:07Z*%
G75*
%MOMM*%
%FSLAX44Y44*%
%LPD*%
%INstencil-top*%
%AMOC8*
5,1,8,0,0,1.08239X$1,22.5*%
G01*
%ADD10R,0.546100X0.535941*%
%ADD11R,0.535941X0.546100*%
%ADD12C,0.050000*%
%ADD13C,0.225000*%
%ADD14C,0.450000*%
%ADD15C,0.075000*%
%ADD16R,2.180000X2.000000*%
%ADD17C,0.120000*%
%ADD18C,0.250000*%
%ADD19R,1.000000X0.700000*%
%ADD20R,0.700000X1.000000*%
%ADD21R,1.500000X2.000000*%
%ADD22R,1.000000X2.000000*%
%ADD23R,0.440000X0.200000*%
%ADD24R,0.200000X0.440000*%
%ADD25R,0.380000X0.080000*%
%ADD26R,0.060000X0.440000*%
%ADD27R,0.440000X0.080000*%
%ADD28R,0.060000X0.460000*%
%ADD29C,0.216000*%
%ADD30R,0.300000X0.210000*%
%ADD31R,0.430000X0.280000*%
%ADD32R,0.250000X0.350000*%
%ADD33R,0.400000X0.240000*%
%ADD34R,0.400000X0.180000*%
%ADD35R,0.460000X0.180000*%
%ADD36R,1.570000X0.300000*%
%ADD37C,0.223600*%
%ADD38R,2.500000X1.600000*%
%ADD39R,0.280000X0.430000*%
%ADD40R,0.800000X2.700000*%
%ADD41R,0.350000X0.250000*%
%ADD42R,0.860000X0.400000*%
%ADD43R,0.600000X0.400000*%
%ADD44R,0.400000X0.250000*%
%ADD45R,0.400000X0.700000*%
%ADD46R,0.650000X0.500000*%
%ADD47R,0.360000X0.360000*%
%ADD48R,0.400000X0.538000*%
%ADD49R,0.800000X1.400000*%
%ADD50C,0.200000*%
%ADD51R,0.440000X0.440000*%
%ADD52R,0.400000X0.860000*%
%ADD53R,0.400000X0.600000*%
%ADD54R,0.580000X0.730000*%
%ADD55R,0.629100X0.560000*%
%ADD56R,0.729100X0.560000*%
%ADD57R,0.560000X0.729100*%
%ADD58R,0.560000X0.629100*%
%ADD59R,0.375000X0.250000*%
%ADD60R,0.250000X0.375000*%
%ADD61R,0.170000X0.200000*%
%ADD62R,0.800000X0.700000*%
%ADD63R,2.100000X1.450000*%
%ADD64R,0.700000X0.600000*%
%ADD65R,1.050000X1.600000*%

G36*
X66217Y-22488D02*
X66217Y-22488D01*
X66220Y-22491D01*
X66484Y-22449D01*
X66490Y-22442D01*
X66491Y-22442D01*
X66492Y-22441D01*
X66499Y-22444D01*
X66736Y-22323D01*
X66741Y-22313D01*
X66749Y-22314D01*
X66938Y-22125D01*
X66939Y-22114D01*
X66947Y-22112D01*
X67068Y-21875D01*
X67067Y-21868D01*
X67072Y-21864D01*
X67070Y-21862D01*
X67073Y-21860D01*
X67115Y-21596D01*
X67112Y-21591D01*
X67115Y-21588D01*
X67115Y-15992D01*
X67116Y-15991D01*
X75816Y-15991D01*
X75863Y-15955D01*
X75863Y-15954D01*
X75858Y-15947D01*
X75865Y-15942D01*
X75865Y-13942D01*
X75829Y-13895D01*
X75822Y-13900D01*
X75816Y-13893D01*
X71116Y-13893D01*
X71115Y-13892D01*
X71115Y-10492D01*
X71116Y-10491D01*
X75816Y-10491D01*
X75863Y-10455D01*
X75858Y-10448D01*
X75865Y-10442D01*
X75865Y-8442D01*
X75829Y-8395D01*
X75822Y-8400D01*
X75816Y-8393D01*
X67116Y-8393D01*
X67115Y-8392D01*
X67115Y-2796D01*
X67112Y-2791D01*
X67115Y-2788D01*
X67073Y-2524D01*
X67065Y-2516D01*
X67068Y-2509D01*
X66947Y-2272D01*
X66937Y-2267D01*
X66938Y-2259D01*
X66749Y-2070D01*
X66738Y-2069D01*
X66736Y-2061D01*
X66499Y-1940D01*
X66488Y-1942D01*
X66484Y-1935D01*
X66220Y-1893D01*
X66215Y-1896D01*
X66212Y-1893D01*
X37420Y-1893D01*
X37415Y-1896D01*
X37412Y-1893D01*
X37148Y-1935D01*
X37140Y-1943D01*
X37133Y-1940D01*
X36896Y-2061D01*
X36891Y-2071D01*
X36883Y-2070D01*
X36694Y-2259D01*
X36693Y-2270D01*
X36685Y-2272D01*
X36564Y-2509D01*
X36566Y-2521D01*
X36559Y-2524D01*
X36517Y-2788D01*
X36520Y-2793D01*
X36517Y-2796D01*
X36517Y-8392D01*
X36516Y-8393D01*
X27816Y-8393D01*
X27769Y-8429D01*
X27774Y-8436D01*
X27767Y-8442D01*
X27767Y-10442D01*
X27803Y-10489D01*
X27810Y-10484D01*
X27816Y-10491D01*
X32516Y-10491D01*
X32517Y-10492D01*
X32517Y-13892D01*
X32516Y-13893D01*
X27816Y-13893D01*
X27769Y-13929D01*
X27774Y-13936D01*
X27767Y-13942D01*
X27767Y-15942D01*
X27803Y-15989D01*
X27810Y-15984D01*
X27816Y-15991D01*
X36516Y-15991D01*
X36517Y-15992D01*
X36517Y-21588D01*
X36520Y-21593D01*
X36517Y-21596D01*
X36559Y-21860D01*
X36567Y-21868D01*
X36564Y-21875D01*
X36685Y-22112D01*
X36695Y-22117D01*
X36694Y-22125D01*
X36883Y-22314D01*
X36894Y-22315D01*
X36896Y-22323D01*
X37133Y-22444D01*
X37145Y-22442D01*
X37148Y-22449D01*
X37412Y-22491D01*
X37417Y-22488D01*
X37420Y-22491D01*
X66212Y-22491D01*
X66217Y-22488D01*
G37*
G36*
X-143854Y48442D02*
X-143854Y48442D01*
X-143763Y48449D01*
X-143733Y48461D01*
X-143701Y48467D01*
X-143620Y48509D01*
X-143536Y48545D01*
X-143504Y48571D01*
X-143484Y48582D01*
X-143461Y48605D01*
X-143405Y48650D01*
X-142552Y49503D01*
X-142499Y49577D01*
X-142439Y49647D01*
X-142427Y49677D01*
X-142408Y49703D01*
X-142381Y49790D01*
X-142347Y49875D01*
X-142343Y49916D01*
X-142336Y49938D01*
X-142337Y49970D01*
X-142329Y50042D01*
X-142329Y53164D01*
X-142332Y53184D01*
X-142330Y53203D01*
X-142352Y53305D01*
X-142369Y53407D01*
X-142378Y53424D01*
X-142382Y53444D01*
X-142435Y53533D01*
X-142484Y53624D01*
X-142498Y53638D01*
X-142508Y53655D01*
X-142587Y53722D01*
X-142662Y53794D01*
X-142680Y53802D01*
X-142695Y53815D01*
X-142791Y53854D01*
X-142885Y53897D01*
X-142905Y53899D01*
X-142923Y53907D01*
X-143090Y53925D01*
X-152566Y53925D01*
X-152586Y53922D01*
X-152605Y53924D01*
X-152707Y53902D01*
X-152809Y53886D01*
X-152826Y53876D01*
X-152846Y53872D01*
X-152935Y53819D01*
X-153026Y53770D01*
X-153040Y53756D01*
X-153057Y53746D01*
X-153124Y53667D01*
X-153196Y53592D01*
X-153204Y53574D01*
X-153217Y53559D01*
X-153256Y53463D01*
X-153299Y53369D01*
X-153301Y53349D01*
X-153309Y53331D01*
X-153327Y53164D01*
X-153327Y50042D01*
X-153313Y49952D01*
X-153305Y49861D01*
X-153293Y49831D01*
X-153288Y49799D01*
X-153245Y49718D01*
X-153209Y49634D01*
X-153183Y49602D01*
X-153172Y49582D01*
X-153149Y49559D01*
X-153104Y49503D01*
X-152251Y48650D01*
X-152177Y48597D01*
X-152107Y48537D01*
X-152077Y48525D01*
X-152051Y48506D01*
X-151964Y48479D01*
X-151879Y48445D01*
X-151838Y48441D01*
X-151816Y48434D01*
X-151784Y48435D01*
X-151712Y48427D01*
X-143944Y48427D01*
X-143854Y48442D01*
G37*
G36*
X-143070Y31930D02*
X-143070Y31930D01*
X-143051Y31928D01*
X-142949Y31950D01*
X-142847Y31967D01*
X-142830Y31976D01*
X-142810Y31980D01*
X-142721Y32033D01*
X-142630Y32082D01*
X-142616Y32096D01*
X-142599Y32106D01*
X-142532Y32185D01*
X-142461Y32260D01*
X-142452Y32278D01*
X-142439Y32293D01*
X-142400Y32389D01*
X-142357Y32483D01*
X-142355Y32503D01*
X-142347Y32521D01*
X-142329Y32688D01*
X-142329Y35810D01*
X-142344Y35900D01*
X-142351Y35991D01*
X-142363Y36021D01*
X-142369Y36053D01*
X-142411Y36134D01*
X-142447Y36218D01*
X-142473Y36250D01*
X-142484Y36271D01*
X-142507Y36293D01*
X-142552Y36349D01*
X-143405Y37202D01*
X-143479Y37255D01*
X-143549Y37315D01*
X-143579Y37327D01*
X-143605Y37346D01*
X-143692Y37373D01*
X-143777Y37407D01*
X-143818Y37411D01*
X-143840Y37418D01*
X-143872Y37417D01*
X-143944Y37425D01*
X-151712Y37425D01*
X-151802Y37411D01*
X-151893Y37403D01*
X-151923Y37391D01*
X-151955Y37386D01*
X-152036Y37343D01*
X-152120Y37307D01*
X-152152Y37281D01*
X-152173Y37270D01*
X-152195Y37247D01*
X-152251Y37202D01*
X-153104Y36349D01*
X-153157Y36275D01*
X-153217Y36205D01*
X-153229Y36175D01*
X-153248Y36149D01*
X-153275Y36062D01*
X-153309Y35977D01*
X-153313Y35936D01*
X-153320Y35914D01*
X-153319Y35882D01*
X-153327Y35810D01*
X-153327Y32688D01*
X-153324Y32668D01*
X-153326Y32649D01*
X-153304Y32547D01*
X-153288Y32445D01*
X-153278Y32428D01*
X-153274Y32408D01*
X-153221Y32319D01*
X-153172Y32228D01*
X-153158Y32214D01*
X-153148Y32197D01*
X-153069Y32130D01*
X-152994Y32059D01*
X-152976Y32050D01*
X-152961Y32037D01*
X-152865Y31998D01*
X-152771Y31955D01*
X-152751Y31953D01*
X-152733Y31945D01*
X-152566Y31927D01*
X-143090Y31927D01*
X-143070Y31930D01*
G37*
G36*
X-103812Y274051D02*
X-103812Y274051D01*
X-103741Y274056D01*
X-103693Y274077D01*
X-103642Y274088D01*
X-103581Y274125D01*
X-103515Y274153D01*
X-103459Y274197D01*
X-103431Y274214D01*
X-103416Y274232D01*
X-103384Y274257D01*
X-103208Y274433D01*
X-103155Y274507D01*
X-103095Y274577D01*
X-103083Y274607D01*
X-103064Y274633D01*
X-103037Y274720D01*
X-103003Y274805D01*
X-102999Y274846D01*
X-102992Y274868D01*
X-102993Y274900D01*
X-102985Y274972D01*
X-102985Y275394D01*
X-102988Y275414D01*
X-102986Y275433D01*
X-103008Y275535D01*
X-103025Y275637D01*
X-103034Y275654D01*
X-103038Y275674D01*
X-103091Y275763D01*
X-103140Y275854D01*
X-103154Y275868D01*
X-103164Y275885D01*
X-103243Y275952D01*
X-103318Y276024D01*
X-103336Y276032D01*
X-103351Y276045D01*
X-103447Y276084D01*
X-103541Y276127D01*
X-103561Y276129D01*
X-103579Y276137D01*
X-103746Y276155D01*
X-103922Y276155D01*
X-103942Y276152D01*
X-103961Y276154D01*
X-104063Y276132D01*
X-104165Y276116D01*
X-104182Y276106D01*
X-104202Y276102D01*
X-104291Y276049D01*
X-104382Y276000D01*
X-104396Y275986D01*
X-104413Y275976D01*
X-104480Y275897D01*
X-104552Y275822D01*
X-104560Y275804D01*
X-104573Y275789D01*
X-104612Y275693D01*
X-104655Y275599D01*
X-104657Y275579D01*
X-104665Y275561D01*
X-104683Y275394D01*
X-104683Y274796D01*
X-104672Y274725D01*
X-104670Y274653D01*
X-104652Y274604D01*
X-104644Y274553D01*
X-104610Y274490D01*
X-104585Y274422D01*
X-104553Y274381D01*
X-104528Y274336D01*
X-104477Y274286D01*
X-104432Y274230D01*
X-104388Y274202D01*
X-104350Y274166D01*
X-104285Y274136D01*
X-104225Y274097D01*
X-104174Y274084D01*
X-104127Y274063D01*
X-104056Y274055D01*
X-103986Y274037D01*
X-103934Y274041D01*
X-103883Y274035D01*
X-103812Y274051D01*
G37*
G36*
X-97226Y264360D02*
X-97226Y264360D01*
X-97207Y264358D01*
X-97105Y264380D01*
X-97003Y264397D01*
X-96986Y264406D01*
X-96966Y264410D01*
X-96877Y264463D01*
X-96786Y264512D01*
X-96772Y264526D01*
X-96755Y264536D01*
X-96688Y264615D01*
X-96617Y264690D01*
X-96608Y264708D01*
X-96595Y264723D01*
X-96556Y264819D01*
X-96513Y264913D01*
X-96511Y264933D01*
X-96503Y264951D01*
X-96485Y265118D01*
X-96485Y265716D01*
X-96496Y265787D01*
X-96498Y265859D01*
X-96516Y265908D01*
X-96525Y265959D01*
X-96558Y266022D01*
X-96583Y266090D01*
X-96615Y266131D01*
X-96640Y266177D01*
X-96691Y266226D01*
X-96736Y266282D01*
X-96780Y266310D01*
X-96818Y266346D01*
X-96883Y266376D01*
X-96943Y266415D01*
X-96994Y266428D01*
X-97041Y266450D01*
X-97112Y266457D01*
X-97182Y266475D01*
X-97234Y266471D01*
X-97285Y266477D01*
X-97356Y266461D01*
X-97427Y266456D01*
X-97475Y266435D01*
X-97526Y266424D01*
X-97587Y266388D01*
X-97653Y266359D01*
X-97709Y266315D01*
X-97737Y266298D01*
X-97752Y266280D01*
X-97784Y266255D01*
X-97960Y266079D01*
X-98013Y266005D01*
X-98073Y265935D01*
X-98085Y265905D01*
X-98104Y265879D01*
X-98131Y265792D01*
X-98165Y265707D01*
X-98169Y265666D01*
X-98176Y265644D01*
X-98175Y265612D01*
X-98183Y265540D01*
X-98183Y265118D01*
X-98180Y265098D01*
X-98182Y265079D01*
X-98160Y264977D01*
X-98144Y264875D01*
X-98134Y264858D01*
X-98130Y264838D01*
X-98077Y264749D01*
X-98028Y264658D01*
X-98014Y264644D01*
X-98004Y264627D01*
X-97925Y264560D01*
X-97850Y264489D01*
X-97832Y264480D01*
X-97817Y264467D01*
X-97721Y264428D01*
X-97627Y264385D01*
X-97607Y264383D01*
X-97589Y264375D01*
X-97422Y264357D01*
X-97246Y264357D01*
X-97226Y264360D01*
G37*
G36*
X115902Y178172D02*
X115902Y178172D01*
X115921Y178170D01*
X116023Y178192D01*
X116125Y178209D01*
X116142Y178218D01*
X116162Y178222D01*
X116251Y178275D01*
X116342Y178324D01*
X116356Y178338D01*
X116373Y178348D01*
X116440Y178427D01*
X116512Y178502D01*
X116520Y178520D01*
X116533Y178535D01*
X116572Y178631D01*
X116615Y178725D01*
X116617Y178745D01*
X116625Y178763D01*
X116643Y178930D01*
X116643Y179106D01*
X116640Y179126D01*
X116642Y179145D01*
X116620Y179247D01*
X116604Y179349D01*
X116594Y179366D01*
X116590Y179386D01*
X116537Y179475D01*
X116488Y179566D01*
X116474Y179580D01*
X116464Y179597D01*
X116385Y179664D01*
X116310Y179736D01*
X116292Y179744D01*
X116277Y179757D01*
X116181Y179796D01*
X116087Y179839D01*
X116067Y179841D01*
X116049Y179849D01*
X115882Y179867D01*
X115284Y179867D01*
X115213Y179856D01*
X115141Y179854D01*
X115092Y179836D01*
X115041Y179828D01*
X114978Y179794D01*
X114910Y179769D01*
X114869Y179737D01*
X114824Y179712D01*
X114774Y179661D01*
X114718Y179616D01*
X114690Y179572D01*
X114654Y179534D01*
X114624Y179469D01*
X114585Y179409D01*
X114572Y179358D01*
X114551Y179311D01*
X114543Y179240D01*
X114525Y179170D01*
X114529Y179118D01*
X114523Y179067D01*
X114539Y178996D01*
X114544Y178925D01*
X114565Y178877D01*
X114576Y178826D01*
X114613Y178765D01*
X114641Y178699D01*
X114685Y178643D01*
X114702Y178615D01*
X114720Y178600D01*
X114745Y178568D01*
X114921Y178392D01*
X114995Y178339D01*
X115065Y178279D01*
X115095Y178267D01*
X115121Y178248D01*
X115208Y178221D01*
X115293Y178187D01*
X115334Y178183D01*
X115356Y178176D01*
X115388Y178177D01*
X115460Y178169D01*
X115882Y178169D01*
X115902Y178172D01*
G37*
G36*
X106275Y171680D02*
X106275Y171680D01*
X106347Y171682D01*
X106396Y171700D01*
X106447Y171709D01*
X106510Y171742D01*
X106578Y171767D01*
X106619Y171799D01*
X106665Y171824D01*
X106714Y171875D01*
X106770Y171920D01*
X106798Y171964D01*
X106834Y172002D01*
X106864Y172067D01*
X106903Y172127D01*
X106916Y172178D01*
X106938Y172225D01*
X106945Y172296D01*
X106963Y172366D01*
X106959Y172418D01*
X106965Y172469D01*
X106949Y172540D01*
X106944Y172611D01*
X106923Y172659D01*
X106912Y172710D01*
X106876Y172771D01*
X106847Y172837D01*
X106803Y172893D01*
X106786Y172921D01*
X106768Y172936D01*
X106743Y172968D01*
X106567Y173144D01*
X106493Y173197D01*
X106423Y173257D01*
X106393Y173269D01*
X106367Y173288D01*
X106280Y173315D01*
X106195Y173349D01*
X106154Y173353D01*
X106132Y173360D01*
X106100Y173359D01*
X106028Y173367D01*
X105606Y173367D01*
X105586Y173364D01*
X105567Y173366D01*
X105465Y173344D01*
X105363Y173328D01*
X105346Y173318D01*
X105326Y173314D01*
X105237Y173261D01*
X105146Y173212D01*
X105132Y173198D01*
X105115Y173188D01*
X105048Y173109D01*
X104977Y173034D01*
X104968Y173016D01*
X104955Y173001D01*
X104916Y172905D01*
X104873Y172811D01*
X104871Y172791D01*
X104863Y172773D01*
X104845Y172606D01*
X104845Y172430D01*
X104848Y172410D01*
X104846Y172391D01*
X104868Y172289D01*
X104885Y172187D01*
X104894Y172170D01*
X104898Y172150D01*
X104951Y172061D01*
X105000Y171970D01*
X105014Y171956D01*
X105024Y171939D01*
X105103Y171872D01*
X105178Y171801D01*
X105196Y171792D01*
X105211Y171779D01*
X105307Y171740D01*
X105401Y171697D01*
X105421Y171695D01*
X105439Y171687D01*
X105606Y171669D01*
X106204Y171669D01*
X106275Y171680D01*
G37*
G36*
X-97156Y274046D02*
X-97156Y274046D01*
X-97104Y274048D01*
X-97036Y274072D01*
X-96966Y274088D01*
X-96922Y274114D01*
X-96873Y274132D01*
X-96817Y274177D01*
X-96755Y274214D01*
X-96721Y274253D01*
X-96681Y274286D01*
X-96642Y274346D01*
X-96595Y274401D01*
X-96576Y274449D01*
X-96548Y274493D01*
X-96530Y274562D01*
X-96503Y274629D01*
X-96495Y274700D01*
X-96487Y274731D01*
X-96489Y274755D01*
X-96485Y274796D01*
X-96485Y275394D01*
X-96488Y275414D01*
X-96486Y275433D01*
X-96508Y275535D01*
X-96525Y275637D01*
X-96534Y275654D01*
X-96538Y275674D01*
X-96591Y275763D01*
X-96640Y275854D01*
X-96654Y275868D01*
X-96664Y275885D01*
X-96743Y275952D01*
X-96818Y276024D01*
X-96836Y276032D01*
X-96851Y276045D01*
X-96947Y276084D01*
X-97041Y276127D01*
X-97061Y276129D01*
X-97079Y276137D01*
X-97246Y276155D01*
X-97422Y276155D01*
X-97442Y276152D01*
X-97461Y276154D01*
X-97563Y276132D01*
X-97665Y276116D01*
X-97682Y276106D01*
X-97702Y276102D01*
X-97791Y276049D01*
X-97882Y276000D01*
X-97896Y275986D01*
X-97913Y275976D01*
X-97980Y275897D01*
X-98052Y275822D01*
X-98060Y275804D01*
X-98073Y275789D01*
X-98112Y275693D01*
X-98155Y275599D01*
X-98157Y275579D01*
X-98165Y275561D01*
X-98183Y275394D01*
X-98183Y274972D01*
X-98169Y274882D01*
X-98161Y274791D01*
X-98149Y274761D01*
X-98144Y274729D01*
X-98101Y274648D01*
X-98065Y274564D01*
X-98039Y274532D01*
X-98028Y274512D01*
X-98005Y274489D01*
X-97960Y274433D01*
X-97784Y274257D01*
X-97726Y274216D01*
X-97674Y274166D01*
X-97627Y274144D01*
X-97585Y274114D01*
X-97516Y274093D01*
X-97451Y274063D01*
X-97399Y274057D01*
X-97349Y274041D01*
X-97278Y274043D01*
X-97207Y274035D01*
X-97156Y274046D01*
G37*
G36*
X-103726Y264360D02*
X-103726Y264360D01*
X-103707Y264358D01*
X-103605Y264380D01*
X-103503Y264397D01*
X-103486Y264406D01*
X-103466Y264410D01*
X-103377Y264463D01*
X-103286Y264512D01*
X-103272Y264526D01*
X-103255Y264536D01*
X-103188Y264615D01*
X-103117Y264690D01*
X-103108Y264708D01*
X-103095Y264723D01*
X-103056Y264819D01*
X-103013Y264913D01*
X-103011Y264933D01*
X-103003Y264951D01*
X-102985Y265118D01*
X-102985Y265540D01*
X-103000Y265630D01*
X-103007Y265721D01*
X-103019Y265751D01*
X-103025Y265783D01*
X-103067Y265864D01*
X-103103Y265948D01*
X-103129Y265980D01*
X-103140Y266001D01*
X-103163Y266023D01*
X-103208Y266079D01*
X-103384Y266255D01*
X-103442Y266296D01*
X-103494Y266346D01*
X-103541Y266368D01*
X-103583Y266398D01*
X-103652Y266419D01*
X-103717Y266450D01*
X-103769Y266455D01*
X-103819Y266471D01*
X-103890Y266469D01*
X-103961Y266477D01*
X-104012Y266466D01*
X-104064Y266464D01*
X-104132Y266440D01*
X-104202Y266424D01*
X-104246Y266398D01*
X-104295Y266380D01*
X-104351Y266335D01*
X-104413Y266298D01*
X-104447Y266259D01*
X-104487Y266226D01*
X-104526Y266166D01*
X-104573Y266111D01*
X-104592Y266063D01*
X-104620Y266019D01*
X-104638Y265950D01*
X-104665Y265883D01*
X-104673Y265812D01*
X-104681Y265781D01*
X-104679Y265757D01*
X-104683Y265716D01*
X-104683Y265118D01*
X-104680Y265098D01*
X-104682Y265079D01*
X-104660Y264977D01*
X-104644Y264875D01*
X-104634Y264858D01*
X-104630Y264838D01*
X-104577Y264749D01*
X-104528Y264658D01*
X-104514Y264644D01*
X-104504Y264627D01*
X-104425Y264560D01*
X-104350Y264489D01*
X-104332Y264480D01*
X-104317Y264467D01*
X-104221Y264428D01*
X-104127Y264385D01*
X-104107Y264383D01*
X-104089Y264375D01*
X-103922Y264357D01*
X-103746Y264357D01*
X-103726Y264360D01*
G37*
G36*
X106118Y178184D02*
X106118Y178184D01*
X106209Y178191D01*
X106239Y178203D01*
X106271Y178209D01*
X106352Y178251D01*
X106436Y178287D01*
X106468Y178313D01*
X106489Y178324D01*
X106511Y178347D01*
X106567Y178392D01*
X106743Y178568D01*
X106784Y178626D01*
X106834Y178678D01*
X106856Y178725D01*
X106886Y178767D01*
X106907Y178836D01*
X106938Y178901D01*
X106943Y178953D01*
X106959Y179003D01*
X106957Y179074D01*
X106965Y179145D01*
X106954Y179196D01*
X106952Y179248D01*
X106928Y179316D01*
X106912Y179386D01*
X106886Y179430D01*
X106868Y179479D01*
X106823Y179535D01*
X106786Y179597D01*
X106747Y179631D01*
X106714Y179671D01*
X106654Y179710D01*
X106599Y179757D01*
X106551Y179776D01*
X106507Y179804D01*
X106438Y179822D01*
X106371Y179849D01*
X106300Y179857D01*
X106269Y179865D01*
X106245Y179863D01*
X106204Y179867D01*
X105606Y179867D01*
X105586Y179864D01*
X105567Y179866D01*
X105465Y179844D01*
X105363Y179828D01*
X105346Y179818D01*
X105326Y179814D01*
X105237Y179761D01*
X105146Y179712D01*
X105132Y179698D01*
X105115Y179688D01*
X105048Y179609D01*
X104977Y179534D01*
X104968Y179516D01*
X104955Y179501D01*
X104916Y179405D01*
X104873Y179311D01*
X104871Y179291D01*
X104863Y179273D01*
X104845Y179106D01*
X104845Y178930D01*
X104848Y178910D01*
X104846Y178891D01*
X104868Y178789D01*
X104885Y178687D01*
X104894Y178670D01*
X104898Y178650D01*
X104951Y178561D01*
X105000Y178470D01*
X105014Y178456D01*
X105024Y178439D01*
X105103Y178372D01*
X105178Y178301D01*
X105196Y178292D01*
X105211Y178279D01*
X105307Y178240D01*
X105401Y178197D01*
X105421Y178195D01*
X105439Y178187D01*
X105606Y178169D01*
X106028Y178169D01*
X106118Y178184D01*
G37*
G36*
X115902Y171672D02*
X115902Y171672D01*
X115921Y171670D01*
X116023Y171692D01*
X116125Y171709D01*
X116142Y171718D01*
X116162Y171722D01*
X116251Y171775D01*
X116342Y171824D01*
X116356Y171838D01*
X116373Y171848D01*
X116440Y171927D01*
X116512Y172002D01*
X116520Y172020D01*
X116533Y172035D01*
X116572Y172131D01*
X116615Y172225D01*
X116617Y172245D01*
X116625Y172263D01*
X116643Y172430D01*
X116643Y172606D01*
X116640Y172626D01*
X116642Y172645D01*
X116620Y172747D01*
X116604Y172849D01*
X116594Y172866D01*
X116590Y172886D01*
X116537Y172975D01*
X116488Y173066D01*
X116474Y173080D01*
X116464Y173097D01*
X116385Y173164D01*
X116310Y173236D01*
X116292Y173244D01*
X116277Y173257D01*
X116181Y173296D01*
X116087Y173339D01*
X116067Y173341D01*
X116049Y173349D01*
X115882Y173367D01*
X115460Y173367D01*
X115370Y173353D01*
X115279Y173345D01*
X115249Y173333D01*
X115217Y173328D01*
X115136Y173285D01*
X115052Y173249D01*
X115020Y173223D01*
X115000Y173212D01*
X114977Y173189D01*
X114921Y173144D01*
X114745Y172968D01*
X114704Y172910D01*
X114654Y172858D01*
X114632Y172811D01*
X114602Y172769D01*
X114581Y172700D01*
X114551Y172635D01*
X114545Y172583D01*
X114529Y172533D01*
X114531Y172462D01*
X114523Y172391D01*
X114534Y172340D01*
X114536Y172288D01*
X114560Y172220D01*
X114576Y172150D01*
X114602Y172106D01*
X114620Y172057D01*
X114665Y172001D01*
X114702Y171939D01*
X114741Y171905D01*
X114774Y171865D01*
X114834Y171826D01*
X114889Y171779D01*
X114937Y171760D01*
X114981Y171732D01*
X115050Y171714D01*
X115117Y171687D01*
X115188Y171679D01*
X115219Y171671D01*
X115243Y171673D01*
X115284Y171669D01*
X115882Y171669D01*
X115902Y171672D01*
G37*
D10*
X15240Y171971D03*
X15240Y163309D03*
X15240Y151651D03*
X15240Y142989D03*
X-157480Y178549D03*
X-157480Y187211D03*
D11*
X131331Y-17272D03*
X122669Y-17272D03*
X131331Y-5080D03*
X122669Y-5080D03*
X131331Y7112D03*
X122669Y7112D03*
D10*
X88138Y-17539D03*
X88138Y-8877D03*
X100330Y-17539D03*
X100330Y-8877D03*
X-146304Y-4813D03*
X-146304Y-13475D03*
X-146304Y-33795D03*
X-146304Y-25133D03*
D12*
X-193482Y97906D02*
X-197982Y97906D01*
X-193482Y97906D02*
X-193482Y96406D01*
X-197982Y96406D01*
X-197982Y97906D01*
X-197982Y96881D02*
X-193482Y96881D01*
X-193482Y97356D02*
X-197982Y97356D01*
X-197982Y97831D02*
X-193482Y97831D01*
X-193482Y101906D02*
X-197982Y101906D01*
X-193482Y101906D02*
X-193482Y100406D01*
X-197982Y100406D01*
X-197982Y101906D01*
X-197982Y100881D02*
X-193482Y100881D01*
X-193482Y101356D02*
X-197982Y101356D01*
X-197982Y101831D02*
X-193482Y101831D01*
X-193482Y105906D02*
X-197982Y105906D01*
X-193482Y105906D02*
X-193482Y104406D01*
X-197982Y104406D01*
X-197982Y105906D01*
X-197982Y104881D02*
X-193482Y104881D01*
X-193482Y105356D02*
X-197982Y105356D01*
X-197982Y105831D02*
X-193482Y105831D01*
X-193482Y109906D02*
X-197982Y109906D01*
X-193482Y109906D02*
X-193482Y108406D01*
X-197982Y108406D01*
X-197982Y109906D01*
X-197982Y108881D02*
X-193482Y108881D01*
X-193482Y109356D02*
X-197982Y109356D01*
X-197982Y109831D02*
X-193482Y109831D01*
X-193482Y113906D02*
X-197982Y113906D01*
X-193482Y113906D02*
X-193482Y112406D01*
X-197982Y112406D01*
X-197982Y113906D01*
X-197982Y112881D02*
X-193482Y112881D01*
X-193482Y113356D02*
X-197982Y113356D01*
X-197982Y113831D02*
X-193482Y113831D01*
X-212482Y113906D02*
X-216982Y113906D01*
X-212482Y113906D02*
X-212482Y112406D01*
X-216982Y112406D01*
X-216982Y113906D01*
X-216982Y112881D02*
X-212482Y112881D01*
X-212482Y113356D02*
X-216982Y113356D01*
X-216982Y113831D02*
X-212482Y113831D01*
X-212482Y109906D02*
X-216982Y109906D01*
X-212482Y109906D02*
X-212482Y108406D01*
X-216982Y108406D01*
X-216982Y109906D01*
X-216982Y108881D02*
X-212482Y108881D01*
X-212482Y109356D02*
X-216982Y109356D01*
X-216982Y109831D02*
X-212482Y109831D01*
X-212482Y105906D02*
X-216982Y105906D01*
X-212482Y105906D02*
X-212482Y104406D01*
X-216982Y104406D01*
X-216982Y105906D01*
X-216982Y104881D02*
X-212482Y104881D01*
X-212482Y105356D02*
X-216982Y105356D01*
X-216982Y105831D02*
X-212482Y105831D01*
X-212482Y101906D02*
X-216982Y101906D01*
X-212482Y101906D02*
X-212482Y100406D01*
X-216982Y100406D01*
X-216982Y101906D01*
X-216982Y100881D02*
X-212482Y100881D01*
X-212482Y101356D02*
X-216982Y101356D01*
X-216982Y101831D02*
X-212482Y101831D01*
X-212482Y97906D02*
X-216982Y97906D01*
X-212482Y97906D02*
X-212482Y96406D01*
X-216982Y96406D01*
X-216982Y97906D01*
X-216982Y96881D02*
X-212482Y96881D01*
X-212482Y97356D02*
X-216982Y97356D01*
X-216982Y97831D02*
X-212482Y97831D01*
D13*
X-208607Y111531D02*
X-201857Y111531D01*
X-201857Y98781D01*
X-208607Y98781D01*
X-208607Y111531D01*
X-208607Y100918D02*
X-201857Y100918D01*
X-201857Y103055D02*
X-208607Y103055D01*
X-208607Y105192D02*
X-201857Y105192D01*
X-201857Y107329D02*
X-208607Y107329D01*
X-208607Y109466D02*
X-201857Y109466D01*
D11*
X-187211Y78232D03*
X-178549Y78232D03*
D10*
X-227584Y110985D03*
X-227584Y119647D03*
X-181864Y131813D03*
X-181864Y140475D03*
D14*
X-94726Y20458D02*
X-93226Y20458D01*
X-94726Y20458D02*
X-94726Y27458D01*
X-93226Y27458D01*
X-93226Y20458D01*
X-93226Y24733D02*
X-94726Y24733D01*
X-86726Y20458D02*
X-85226Y20458D01*
X-86726Y20458D02*
X-86726Y27458D01*
X-85226Y27458D01*
X-85226Y20458D01*
X-85226Y24733D02*
X-86726Y24733D01*
X-38726Y20458D02*
X-37226Y20458D01*
X-38726Y20458D02*
X-38726Y27458D01*
X-37226Y27458D01*
X-37226Y20458D01*
X-37226Y24733D02*
X-38726Y24733D01*
X-30726Y20458D02*
X-29226Y20458D01*
X-30726Y20458D02*
X-30726Y27458D01*
X-29226Y27458D01*
X-29226Y20458D01*
X-29226Y24733D02*
X-30726Y24733D01*
D15*
X-78351Y18583D02*
X-80601Y18583D01*
X-80601Y29333D01*
X-78351Y29333D01*
X-78351Y18583D01*
X-78351Y19295D02*
X-80601Y19295D01*
X-80601Y20007D02*
X-78351Y20007D01*
X-78351Y20719D02*
X-80601Y20719D01*
X-80601Y21431D02*
X-78351Y21431D01*
X-78351Y22143D02*
X-80601Y22143D01*
X-80601Y22855D02*
X-78351Y22855D01*
X-78351Y23567D02*
X-80601Y23567D01*
X-80601Y24279D02*
X-78351Y24279D01*
X-78351Y24991D02*
X-80601Y24991D01*
X-80601Y25703D02*
X-78351Y25703D01*
X-78351Y26415D02*
X-80601Y26415D01*
X-80601Y27127D02*
X-78351Y27127D01*
X-78351Y27839D02*
X-80601Y27839D01*
X-80601Y28551D02*
X-78351Y28551D01*
X-78351Y29263D02*
X-80601Y29263D01*
X-45601Y18583D02*
X-43351Y18583D01*
X-45601Y18583D02*
X-45601Y29333D01*
X-43351Y29333D01*
X-43351Y18583D01*
X-43351Y19295D02*
X-45601Y19295D01*
X-45601Y20007D02*
X-43351Y20007D01*
X-43351Y20719D02*
X-45601Y20719D01*
X-45601Y21431D02*
X-43351Y21431D01*
X-43351Y22143D02*
X-45601Y22143D01*
X-45601Y22855D02*
X-43351Y22855D01*
X-43351Y23567D02*
X-45601Y23567D01*
X-45601Y24279D02*
X-43351Y24279D01*
X-43351Y24991D02*
X-45601Y24991D01*
X-45601Y25703D02*
X-43351Y25703D01*
X-43351Y26415D02*
X-45601Y26415D01*
X-45601Y27127D02*
X-43351Y27127D01*
X-43351Y27839D02*
X-45601Y27839D01*
X-45601Y28551D02*
X-43351Y28551D01*
X-43351Y29263D02*
X-45601Y29263D01*
X-73351Y18583D02*
X-75601Y18583D01*
X-75601Y29333D01*
X-73351Y29333D01*
X-73351Y18583D01*
X-73351Y19295D02*
X-75601Y19295D01*
X-75601Y20007D02*
X-73351Y20007D01*
X-73351Y20719D02*
X-75601Y20719D01*
X-75601Y21431D02*
X-73351Y21431D01*
X-73351Y22143D02*
X-75601Y22143D01*
X-75601Y22855D02*
X-73351Y22855D01*
X-73351Y23567D02*
X-75601Y23567D01*
X-75601Y24279D02*
X-73351Y24279D01*
X-73351Y24991D02*
X-75601Y24991D01*
X-75601Y25703D02*
X-73351Y25703D01*
X-73351Y26415D02*
X-75601Y26415D01*
X-75601Y27127D02*
X-73351Y27127D01*
X-73351Y27839D02*
X-75601Y27839D01*
X-75601Y28551D02*
X-73351Y28551D01*
X-73351Y29263D02*
X-75601Y29263D01*
X-50601Y18583D02*
X-48351Y18583D01*
X-50601Y18583D02*
X-50601Y29333D01*
X-48351Y29333D01*
X-48351Y18583D01*
X-48351Y19295D02*
X-50601Y19295D01*
X-50601Y20007D02*
X-48351Y20007D01*
X-48351Y20719D02*
X-50601Y20719D01*
X-50601Y21431D02*
X-48351Y21431D01*
X-48351Y22143D02*
X-50601Y22143D01*
X-50601Y22855D02*
X-48351Y22855D01*
X-48351Y23567D02*
X-50601Y23567D01*
X-50601Y24279D02*
X-48351Y24279D01*
X-48351Y24991D02*
X-50601Y24991D01*
X-50601Y25703D02*
X-48351Y25703D01*
X-48351Y26415D02*
X-50601Y26415D01*
X-50601Y27127D02*
X-48351Y27127D01*
X-48351Y27839D02*
X-50601Y27839D01*
X-50601Y28551D02*
X-48351Y28551D01*
X-48351Y29263D02*
X-50601Y29263D01*
X-68351Y18583D02*
X-70601Y18583D01*
X-70601Y29333D01*
X-68351Y29333D01*
X-68351Y18583D01*
X-68351Y19295D02*
X-70601Y19295D01*
X-70601Y20007D02*
X-68351Y20007D01*
X-68351Y20719D02*
X-70601Y20719D01*
X-70601Y21431D02*
X-68351Y21431D01*
X-68351Y22143D02*
X-70601Y22143D01*
X-70601Y22855D02*
X-68351Y22855D01*
X-68351Y23567D02*
X-70601Y23567D01*
X-70601Y24279D02*
X-68351Y24279D01*
X-68351Y24991D02*
X-70601Y24991D01*
X-70601Y25703D02*
X-68351Y25703D01*
X-68351Y26415D02*
X-70601Y26415D01*
X-70601Y27127D02*
X-68351Y27127D01*
X-68351Y27839D02*
X-70601Y27839D01*
X-70601Y28551D02*
X-68351Y28551D01*
X-68351Y29263D02*
X-70601Y29263D01*
X-55601Y18583D02*
X-53351Y18583D01*
X-55601Y18583D02*
X-55601Y29333D01*
X-53351Y29333D01*
X-53351Y18583D01*
X-53351Y19295D02*
X-55601Y19295D01*
X-55601Y20007D02*
X-53351Y20007D01*
X-53351Y20719D02*
X-55601Y20719D01*
X-55601Y21431D02*
X-53351Y21431D01*
X-53351Y22143D02*
X-55601Y22143D01*
X-55601Y22855D02*
X-53351Y22855D01*
X-53351Y23567D02*
X-55601Y23567D01*
X-55601Y24279D02*
X-53351Y24279D01*
X-53351Y24991D02*
X-55601Y24991D01*
X-55601Y25703D02*
X-53351Y25703D01*
X-53351Y26415D02*
X-55601Y26415D01*
X-55601Y27127D02*
X-53351Y27127D01*
X-53351Y27839D02*
X-55601Y27839D01*
X-55601Y28551D02*
X-53351Y28551D01*
X-53351Y29263D02*
X-55601Y29263D01*
X-63351Y18583D02*
X-65601Y18583D01*
X-65601Y29333D01*
X-63351Y29333D01*
X-63351Y18583D01*
X-63351Y19295D02*
X-65601Y19295D01*
X-65601Y20007D02*
X-63351Y20007D01*
X-63351Y20719D02*
X-65601Y20719D01*
X-65601Y21431D02*
X-63351Y21431D01*
X-63351Y22143D02*
X-65601Y22143D01*
X-65601Y22855D02*
X-63351Y22855D01*
X-63351Y23567D02*
X-65601Y23567D01*
X-65601Y24279D02*
X-63351Y24279D01*
X-63351Y24991D02*
X-65601Y24991D01*
X-65601Y25703D02*
X-63351Y25703D01*
X-63351Y26415D02*
X-65601Y26415D01*
X-65601Y27127D02*
X-63351Y27127D01*
X-63351Y27839D02*
X-65601Y27839D01*
X-65601Y28551D02*
X-63351Y28551D01*
X-63351Y29263D02*
X-65601Y29263D01*
X-60601Y18583D02*
X-58351Y18583D01*
X-60601Y18583D02*
X-60601Y29333D01*
X-58351Y29333D01*
X-58351Y18583D01*
X-58351Y19295D02*
X-60601Y19295D01*
X-60601Y20007D02*
X-58351Y20007D01*
X-58351Y20719D02*
X-60601Y20719D01*
X-60601Y21431D02*
X-58351Y21431D01*
X-58351Y22143D02*
X-60601Y22143D01*
X-60601Y22855D02*
X-58351Y22855D01*
X-58351Y23567D02*
X-60601Y23567D01*
X-60601Y24279D02*
X-58351Y24279D01*
X-58351Y24991D02*
X-60601Y24991D01*
X-60601Y25703D02*
X-58351Y25703D01*
X-58351Y26415D02*
X-60601Y26415D01*
X-60601Y27127D02*
X-58351Y27127D01*
X-58351Y27839D02*
X-60601Y27839D01*
X-60601Y28551D02*
X-58351Y28551D01*
X-58351Y29263D02*
X-60601Y29263D01*
D16*
X-113076Y18208D03*
X-10876Y18208D03*
X-113076Y-21092D03*
X-10876Y-21092D03*
D17*
X53716Y1908D02*
X53716Y6708D01*
X54916Y6708D01*
X54916Y1908D01*
X53716Y1908D01*
X53716Y3048D02*
X54916Y3048D01*
X54916Y4188D02*
X53716Y4188D01*
X53716Y5328D02*
X54916Y5328D01*
X54916Y6468D02*
X53716Y6468D01*
X58716Y6708D02*
X58716Y1908D01*
X58716Y6708D02*
X59916Y6708D01*
X59916Y1908D01*
X58716Y1908D01*
X58716Y3048D02*
X59916Y3048D01*
X59916Y4188D02*
X58716Y4188D01*
X58716Y5328D02*
X59916Y5328D01*
X59916Y6468D02*
X58716Y6468D01*
X63716Y6708D02*
X63716Y1908D01*
X63716Y6708D02*
X64916Y6708D01*
X64916Y1908D01*
X63716Y1908D01*
X63716Y3048D02*
X64916Y3048D01*
X64916Y4188D02*
X63716Y4188D01*
X63716Y5328D02*
X64916Y5328D01*
X64916Y6468D02*
X63716Y6468D01*
X68716Y6708D02*
X68716Y1908D01*
X68716Y6708D02*
X69916Y6708D01*
X69916Y1908D01*
X68716Y1908D01*
X68716Y3048D02*
X69916Y3048D01*
X69916Y4188D02*
X68716Y4188D01*
X68716Y5328D02*
X69916Y5328D01*
X69916Y6468D02*
X68716Y6468D01*
X48716Y6708D02*
X48716Y1908D01*
X48716Y6708D02*
X49916Y6708D01*
X49916Y1908D01*
X48716Y1908D01*
X48716Y3048D02*
X49916Y3048D01*
X49916Y4188D02*
X48716Y4188D01*
X48716Y5328D02*
X49916Y5328D01*
X49916Y6468D02*
X48716Y6468D01*
X43716Y6708D02*
X43716Y1908D01*
X43716Y6708D02*
X44916Y6708D01*
X44916Y1908D01*
X43716Y1908D01*
X43716Y3048D02*
X44916Y3048D01*
X44916Y4188D02*
X43716Y4188D01*
X43716Y5328D02*
X44916Y5328D01*
X44916Y6468D02*
X43716Y6468D01*
X38716Y6708D02*
X38716Y1908D01*
X38716Y6708D02*
X39916Y6708D01*
X39916Y1908D01*
X38716Y1908D01*
X38716Y3048D02*
X39916Y3048D01*
X39916Y4188D02*
X38716Y4188D01*
X38716Y5328D02*
X39916Y5328D01*
X39916Y6468D02*
X38716Y6468D01*
X33716Y6708D02*
X33716Y1908D01*
X33716Y6708D02*
X34916Y6708D01*
X34916Y1908D01*
X33716Y1908D01*
X33716Y3048D02*
X34916Y3048D01*
X34916Y4188D02*
X33716Y4188D01*
X33716Y5328D02*
X34916Y5328D01*
X34916Y6468D02*
X33716Y6468D01*
X70916Y-20542D02*
X75716Y-20542D01*
X70916Y-20542D02*
X70916Y-19342D01*
X75716Y-19342D01*
X75716Y-20542D01*
X75716Y-19402D02*
X70916Y-19402D01*
X70916Y-5042D02*
X75716Y-5042D01*
X70916Y-5042D02*
X70916Y-3842D01*
X75716Y-3842D01*
X75716Y-5042D01*
X75716Y-3902D02*
X70916Y-3902D01*
X32716Y-5042D02*
X27916Y-5042D01*
X27916Y-3842D01*
X32716Y-3842D01*
X32716Y-5042D01*
X32716Y-3902D02*
X27916Y-3902D01*
X27916Y-20542D02*
X32716Y-20542D01*
X27916Y-20542D02*
X27916Y-19342D01*
X32716Y-19342D01*
X32716Y-20542D01*
X32716Y-19402D02*
X27916Y-19402D01*
X53716Y-26292D02*
X53716Y-31092D01*
X53716Y-26292D02*
X54916Y-26292D01*
X54916Y-31092D01*
X53716Y-31092D01*
X53716Y-29952D02*
X54916Y-29952D01*
X54916Y-28812D02*
X53716Y-28812D01*
X53716Y-27672D02*
X54916Y-27672D01*
X54916Y-26532D02*
X53716Y-26532D01*
X58716Y-26292D02*
X58716Y-31092D01*
X58716Y-26292D02*
X59916Y-26292D01*
X59916Y-31092D01*
X58716Y-31092D01*
X58716Y-29952D02*
X59916Y-29952D01*
X59916Y-28812D02*
X58716Y-28812D01*
X58716Y-27672D02*
X59916Y-27672D01*
X59916Y-26532D02*
X58716Y-26532D01*
X63716Y-26292D02*
X63716Y-31092D01*
X63716Y-26292D02*
X64916Y-26292D01*
X64916Y-31092D01*
X63716Y-31092D01*
X63716Y-29952D02*
X64916Y-29952D01*
X64916Y-28812D02*
X63716Y-28812D01*
X63716Y-27672D02*
X64916Y-27672D01*
X64916Y-26532D02*
X63716Y-26532D01*
X68716Y-26292D02*
X68716Y-31092D01*
X68716Y-26292D02*
X69916Y-26292D01*
X69916Y-31092D01*
X68716Y-31092D01*
X68716Y-29952D02*
X69916Y-29952D01*
X69916Y-28812D02*
X68716Y-28812D01*
X68716Y-27672D02*
X69916Y-27672D01*
X69916Y-26532D02*
X68716Y-26532D01*
X48716Y-26292D02*
X48716Y-31092D01*
X48716Y-26292D02*
X49916Y-26292D01*
X49916Y-31092D01*
X48716Y-31092D01*
X48716Y-29952D02*
X49916Y-29952D01*
X49916Y-28812D02*
X48716Y-28812D01*
X48716Y-27672D02*
X49916Y-27672D01*
X49916Y-26532D02*
X48716Y-26532D01*
X43716Y-26292D02*
X43716Y-31092D01*
X43716Y-26292D02*
X44916Y-26292D01*
X44916Y-31092D01*
X43716Y-31092D01*
X43716Y-29952D02*
X44916Y-29952D01*
X44916Y-28812D02*
X43716Y-28812D01*
X43716Y-27672D02*
X44916Y-27672D01*
X44916Y-26532D02*
X43716Y-26532D01*
X38716Y-26292D02*
X38716Y-31092D01*
X38716Y-26292D02*
X39916Y-26292D01*
X39916Y-31092D01*
X38716Y-31092D01*
X38716Y-29952D02*
X39916Y-29952D01*
X39916Y-28812D02*
X38716Y-28812D01*
X38716Y-27672D02*
X39916Y-27672D01*
X39916Y-26532D02*
X38716Y-26532D01*
X33716Y-26292D02*
X33716Y-31092D01*
X33716Y-26292D02*
X34916Y-26292D01*
X34916Y-31092D01*
X33716Y-31092D01*
X33716Y-29952D02*
X34916Y-29952D01*
X34916Y-28812D02*
X33716Y-28812D01*
X33716Y-27672D02*
X34916Y-27672D01*
X34916Y-26532D02*
X33716Y-26532D01*
X61216Y-9092D02*
X61216Y-4292D01*
X62416Y-4292D01*
X62416Y-9092D01*
X61216Y-9092D01*
X61216Y-7952D02*
X62416Y-7952D01*
X62416Y-6812D02*
X61216Y-6812D01*
X61216Y-5672D02*
X62416Y-5672D01*
X62416Y-4532D02*
X61216Y-4532D01*
D10*
X37846Y14719D03*
X37846Y23381D03*
X86106Y1765D03*
X86106Y10427D03*
X85344Y-27165D03*
X85344Y-35827D03*
D18*
X11684Y17780D03*
X11684Y12780D03*
X11684Y22780D03*
X16684Y22780D03*
X16684Y17780D03*
X16684Y12780D03*
X6684Y12780D03*
X6684Y17780D03*
X6684Y22780D03*
D10*
X98298Y1765D03*
X98298Y10427D03*
X110490Y1765D03*
X110490Y10427D03*
X97536Y-27165D03*
X97536Y-35827D03*
X109728Y-27165D03*
X109728Y-35827D03*
X84328Y-58687D03*
X84328Y-50025D03*
X96520Y-50025D03*
X96520Y-58687D03*
X153416Y-50025D03*
X153416Y-58687D03*
X141224Y-58687D03*
X141224Y-50025D03*
X116840Y-58687D03*
X116840Y-50025D03*
X129032Y-50025D03*
X129032Y-58687D03*
D19*
X26162Y-57300D03*
X26162Y-44300D03*
X10668Y-57300D03*
X10668Y-44300D03*
D10*
X39624Y-49517D03*
X39624Y-58179D03*
D20*
X127358Y23368D03*
X140358Y23368D03*
D11*
X109588Y25540D03*
X100927Y25540D03*
X5771Y-21395D03*
X14432Y-21395D03*
X14491Y-32512D03*
X5829Y-32512D03*
X14432Y-10101D03*
X5771Y-10101D03*
X5829Y1105D03*
X14491Y1105D03*
D10*
X314960Y264909D03*
X314960Y273571D03*
X-179324Y90157D03*
X-179324Y98819D03*
D11*
X-210045Y82296D03*
X-218707Y82296D03*
D21*
X327060Y202438D03*
D22*
X254560Y202438D03*
D11*
X251224Y39116D03*
X259886Y39116D03*
D23*
X-5236Y62992D03*
X-5236Y67992D03*
X-5236Y57992D03*
X13364Y57992D03*
X13364Y62992D03*
X13364Y67992D03*
D24*
X9064Y72292D03*
X-936Y72292D03*
X4064Y72292D03*
X4064Y53692D03*
X-936Y53692D03*
X9064Y53692D03*
D23*
X4064Y62992D03*
D25*
X4364Y59992D03*
D26*
X7164Y63192D03*
D27*
X4064Y65992D03*
D28*
X964Y63692D03*
D29*
X-124968Y110854D03*
X-124968Y117774D03*
X-128968Y117774D03*
X-132968Y117774D03*
X-136968Y117774D03*
X-120968Y117774D03*
X-116968Y117774D03*
X-112968Y117774D03*
X-126968Y114314D03*
X-130968Y114314D03*
X-134968Y114314D03*
X-138968Y114314D03*
X-122968Y114314D03*
X-118968Y114314D03*
X-114968Y114314D03*
X-110968Y114314D03*
X-128968Y110854D03*
X-132968Y110854D03*
X-136968Y110854D03*
X-120968Y110854D03*
X-116968Y110854D03*
X-112968Y110854D03*
X-138968Y107394D03*
X-134968Y107394D03*
X-130968Y107394D03*
X-126968Y107394D03*
X-122968Y107394D03*
X-118968Y107394D03*
X-114968Y107394D03*
X-110968Y107394D03*
X-136968Y103934D03*
X-132968Y103934D03*
X-128968Y103934D03*
X-120968Y103934D03*
X-116968Y103934D03*
X-112968Y103934D03*
X-138968Y100474D03*
X-126968Y100474D03*
X-122968Y100474D03*
X-110968Y100474D03*
X-136968Y97014D03*
X-128968Y97014D03*
X-120968Y97014D03*
X-112968Y97014D03*
X-138968Y93554D03*
X-134968Y93554D03*
X-130968Y93554D03*
X-126968Y93554D03*
X-122968Y93554D03*
X-118968Y93554D03*
X-114968Y93554D03*
X-110968Y93554D03*
D30*
X-118872Y81448D03*
X-118872Y77048D03*
D31*
X-131064Y81798D03*
X-131064Y76698D03*
D32*
X-67100Y111506D03*
X-72600Y111506D03*
D33*
X-126624Y238220D03*
X-126624Y233220D03*
X-126624Y228220D03*
X-126624Y223220D03*
X-110624Y223220D03*
X-110624Y228220D03*
X-110624Y233220D03*
X-110624Y238220D03*
X-118624Y230720D03*
D34*
X-118624Y235620D03*
D35*
X-118524Y225620D03*
D36*
X-610Y251440D03*
X-610Y280440D03*
G36*
X201379Y11493D02*
X209228Y25089D01*
X211827Y23589D01*
X203978Y9993D01*
X201379Y11493D01*
G37*
G36*
X226494Y-3007D02*
X234343Y10589D01*
X236942Y9089D01*
X229093Y-4507D01*
X226494Y-3007D01*
G37*
G36*
X-209698Y26027D02*
X-201849Y12431D01*
X-204448Y10931D01*
X-212297Y24527D01*
X-209698Y26027D01*
G37*
G36*
X-234813Y11527D02*
X-226964Y-2069D01*
X-229563Y-3569D01*
X-237412Y10027D01*
X-234813Y11527D01*
G37*
D37*
X-195330Y249112D02*
X-195330Y255004D01*
X-199830Y255004D02*
X-199830Y249112D01*
X-204330Y249112D02*
X-204330Y255004D01*
X-208830Y255004D02*
X-208830Y249112D01*
X-213330Y249112D02*
X-213330Y255004D01*
X-217830Y255004D02*
X-217830Y249112D01*
X-217830Y226096D02*
X-217830Y220204D01*
X-213330Y220204D02*
X-213330Y226096D01*
X-208830Y226096D02*
X-208830Y220204D01*
X-204330Y220204D02*
X-204330Y226096D01*
X-199830Y226096D02*
X-199830Y220204D01*
X-195330Y220204D02*
X-195330Y226096D01*
D38*
X-206580Y237604D03*
D31*
X-187452Y211846D03*
X-187452Y206746D03*
D39*
X-229118Y263652D03*
X-224018Y263652D03*
D31*
X-198628Y206746D03*
X-198628Y211846D03*
X-214884Y275854D03*
X-214884Y270754D03*
D40*
X-198452Y279400D03*
X-176452Y279400D03*
X-237060Y194056D03*
X-215060Y194056D03*
D41*
X-177800Y206546D03*
X-177800Y212046D03*
D32*
X-223818Y273304D03*
X-229318Y273304D03*
D42*
X326136Y65244D03*
D43*
X326136Y54644D03*
D32*
X323386Y77216D03*
X328886Y77216D03*
X328886Y42672D03*
X323386Y42672D03*
D44*
X329636Y290458D03*
D45*
X322636Y292608D03*
D44*
X329636Y294758D03*
D11*
X232397Y276352D03*
X241059Y276352D03*
D10*
X-138176Y139459D03*
X-138176Y130797D03*
X17272Y95771D03*
X17272Y87109D03*
D11*
X-78981Y237744D03*
X-87643Y237744D03*
D10*
X-94488Y213093D03*
X-94488Y221755D03*
D11*
X301485Y84328D03*
X310147Y84328D03*
X280149Y84328D03*
X288811Y84328D03*
X130002Y111420D03*
X121341Y111420D03*
D10*
X-166116Y216141D03*
X-166116Y224803D03*
D11*
X-224803Y289560D03*
X-216141Y289560D03*
D10*
X15240Y126251D03*
X15240Y117589D03*
D11*
X256781Y276352D03*
X265443Y276352D03*
X256781Y265176D03*
X265443Y265176D03*
X256781Y298704D03*
X265443Y298704D03*
X256781Y287528D03*
X265443Y287528D03*
D46*
X285874Y274240D03*
X285874Y264240D03*
X301374Y274240D03*
X301374Y264240D03*
X285874Y298624D03*
X285874Y288624D03*
X301374Y298624D03*
X301374Y288624D03*
D47*
X-138128Y42926D03*
X-157528Y42926D03*
D19*
X-65024Y231036D03*
X-65024Y218036D03*
D20*
X-80668Y203200D03*
X-67668Y203200D03*
D10*
X255016Y73419D03*
X255016Y64757D03*
X329184Y273571D03*
X329184Y264909D03*
D20*
X-130452Y254000D03*
X-117452Y254000D03*
D19*
X-140208Y221892D03*
X-140208Y208892D03*
X-258064Y186540D03*
X-258064Y199540D03*
D20*
X-151996Y255016D03*
X-164996Y255016D03*
D19*
X-153416Y275948D03*
X-153416Y288948D03*
D20*
X-235308Y227584D03*
X-248308Y227584D03*
D32*
X209594Y182880D03*
X215094Y182880D03*
D41*
X143256Y232962D03*
X143256Y238462D03*
X151384Y232962D03*
X151384Y238462D03*
D32*
X185630Y162560D03*
X180130Y162560D03*
X202482Y220472D03*
X207982Y220472D03*
X142538Y151384D03*
X148038Y151384D03*
D41*
X164084Y236010D03*
X164084Y241510D03*
X171704Y236010D03*
X171704Y241510D03*
X125984Y201886D03*
X125984Y196386D03*
D32*
X146006Y160528D03*
X140506Y160528D03*
X202482Y202184D03*
X207982Y202184D03*
X185630Y170688D03*
X180130Y170688D03*
X202482Y173736D03*
X207982Y173736D03*
X209594Y192024D03*
X215094Y192024D03*
X202482Y211328D03*
X207982Y211328D03*
D41*
X136144Y196386D03*
X136144Y201886D03*
X200660Y188170D03*
X200660Y182670D03*
D10*
X117856Y230899D03*
X117856Y222237D03*
D48*
X122936Y144100D03*
X122936Y128188D03*
D49*
X216248Y159512D03*
X196248Y159512D03*
D19*
X131572Y225448D03*
X131572Y212448D03*
D50*
X187906Y182934D03*
X184406Y182934D03*
X180906Y182934D03*
X177406Y182934D03*
X173906Y182934D03*
X170406Y182934D03*
X166906Y182934D03*
X163406Y182934D03*
X159906Y182934D03*
X156406Y182934D03*
X152906Y182934D03*
X149406Y182934D03*
X187906Y186434D03*
X184406Y186434D03*
X180906Y186434D03*
X177406Y186434D03*
X173906Y186434D03*
X170406Y186434D03*
X166906Y186434D03*
X163406Y186434D03*
X159906Y186434D03*
X156406Y186434D03*
X152906Y186434D03*
X149406Y186434D03*
X187906Y189934D03*
X184406Y189934D03*
X180906Y189934D03*
X177406Y189934D03*
X173906Y189934D03*
X170406Y189934D03*
X166906Y189934D03*
X163406Y189934D03*
X159906Y189934D03*
X156406Y189934D03*
X152906Y189934D03*
X149406Y189934D03*
X187906Y193434D03*
X184406Y193434D03*
X180906Y193434D03*
X177406Y193434D03*
X173906Y193434D03*
X170406Y193434D03*
X166906Y193434D03*
X163406Y193434D03*
X159906Y193434D03*
X156406Y193434D03*
X152906Y193434D03*
X149406Y193434D03*
X187906Y196934D03*
X184406Y196934D03*
X180906Y196934D03*
X177406Y196934D03*
X173906Y196934D03*
X170406Y196934D03*
X166906Y196934D03*
X163406Y196934D03*
X159906Y196934D03*
X156406Y196934D03*
X152906Y196934D03*
X149406Y196934D03*
X187906Y200434D03*
X184406Y200434D03*
X180906Y200434D03*
X177406Y200434D03*
X159906Y200434D03*
X156406Y200434D03*
X152906Y200434D03*
X149406Y200434D03*
X187906Y203934D03*
X184406Y203934D03*
X180906Y203934D03*
X177406Y203934D03*
X159906Y203934D03*
X156406Y203934D03*
X152906Y203934D03*
X149406Y203934D03*
X187906Y207434D03*
X184406Y207434D03*
X180906Y207434D03*
X177406Y207434D03*
X159906Y207434D03*
X156406Y207434D03*
X152906Y207434D03*
X149406Y207434D03*
X187906Y210934D03*
X184406Y210934D03*
X180906Y210934D03*
X177406Y210934D03*
X173906Y210934D03*
X170406Y210934D03*
X166906Y210934D03*
X163406Y210934D03*
X159906Y210934D03*
X156406Y210934D03*
X152906Y210934D03*
X149406Y210934D03*
X187906Y214434D03*
X184406Y214434D03*
X180906Y214434D03*
X177406Y214434D03*
X173906Y214434D03*
X170406Y214434D03*
X166906Y214434D03*
X163406Y214434D03*
X159906Y214434D03*
X156406Y214434D03*
X152906Y214434D03*
X149406Y214434D03*
X187906Y217934D03*
X184406Y217934D03*
X177406Y217934D03*
X173906Y217934D03*
X170406Y217934D03*
X166906Y217934D03*
X163406Y217934D03*
X159906Y217934D03*
X156406Y217934D03*
X152906Y217934D03*
X149406Y217934D03*
X187906Y221434D03*
X184406Y221434D03*
X180906Y221434D03*
X177406Y221434D03*
X173906Y221434D03*
X170406Y221434D03*
X166906Y221434D03*
X163406Y221434D03*
X159906Y221434D03*
X156406Y221434D03*
X152906Y221434D03*
X149406Y221434D03*
D51*
G36*
X107633Y175768D02*
X110744Y178879D01*
X113855Y175768D01*
X110744Y172657D01*
X107633Y175768D01*
G37*
D52*
X169892Y166116D03*
D53*
X159292Y166116D03*
D54*
X133040Y173816D03*
X126040Y173816D03*
X133040Y183816D03*
X126040Y183816D03*
D55*
X137148Y140938D03*
X137148Y131246D03*
D56*
X187960Y247376D03*
X187960Y257068D03*
D57*
X177018Y281940D03*
X186710Y281940D03*
D41*
X104648Y163278D03*
X104648Y157778D03*
X113792Y163278D03*
X113792Y157778D03*
D32*
X142538Y169672D03*
X148038Y169672D03*
D58*
X114574Y200152D03*
X104882Y200152D03*
X133370Y158496D03*
X123678Y158496D03*
D55*
X160528Y150642D03*
X160528Y140950D03*
D58*
X173462Y150876D03*
X183154Y150876D03*
X186162Y235204D03*
X195854Y235204D03*
X178034Y268732D03*
X187726Y268732D03*
D10*
X106680Y242557D03*
X106680Y251219D03*
X119888Y242557D03*
X119888Y251219D03*
X102616Y222237D03*
X102616Y230899D03*
X132080Y251219D03*
X132080Y242557D03*
D11*
X106413Y188976D03*
X115075Y188976D03*
X109995Y148336D03*
X101333Y148336D03*
D59*
X308233Y71268D03*
D60*
X295108Y71393D03*
X290108Y71393D03*
X285108Y71393D03*
X300108Y71393D03*
D59*
X308233Y66268D03*
X308233Y61268D03*
X308233Y56268D03*
X308233Y51268D03*
X308233Y46268D03*
X308233Y41268D03*
X308233Y36268D03*
X308233Y31268D03*
X308233Y26268D03*
X276983Y26268D03*
X276983Y31268D03*
X276983Y36268D03*
X276983Y41268D03*
X276983Y46268D03*
X276983Y51268D03*
X276983Y56268D03*
X276983Y61268D03*
X276983Y66268D03*
X276983Y71268D03*
D60*
X300108Y26143D03*
X295108Y26143D03*
X290108Y26143D03*
X285108Y26143D03*
D11*
X251701Y50800D03*
X260363Y50800D03*
D10*
X239776Y69355D03*
X239776Y60693D03*
D61*
X-762Y207264D03*
X-762Y202764D03*
X-762Y211764D03*
X2888Y207264D03*
X2888Y202764D03*
X2888Y211764D03*
X-4412Y207264D03*
X-4412Y202764D03*
X-4412Y211764D03*
D11*
X-79997Y149352D03*
X-88659Y149352D03*
D62*
G36*
X-87157Y87684D02*
X-92813Y82028D01*
X-97763Y86978D01*
X-92107Y92634D01*
X-87157Y87684D01*
G37*
G36*
X-77964Y96877D02*
X-83620Y91221D01*
X-88570Y96171D01*
X-82914Y101827D01*
X-77964Y96877D01*
G37*
G36*
X-70893Y89806D02*
X-76549Y84150D01*
X-81499Y89100D01*
X-75843Y94756D01*
X-70893Y89806D01*
G37*
G36*
X-80086Y80613D02*
X-85742Y74957D01*
X-90692Y79907D01*
X-85036Y85563D01*
X-80086Y80613D01*
G37*
D51*
G36*
X-100584Y273367D02*
X-97473Y270256D01*
X-100584Y267145D01*
X-103695Y270256D01*
X-100584Y273367D01*
G37*
D41*
X-114808Y275038D03*
X-114808Y269538D03*
D32*
X-103334Y254000D03*
X-97834Y254000D03*
D10*
X59944Y194323D03*
X59944Y185661D03*
D63*
X39624Y203726D03*
X39624Y174226D03*
D64*
X19304Y212264D03*
X19304Y202264D03*
D65*
X-52422Y81280D03*
X-32922Y81280D03*
X-52422Y102616D03*
X-32922Y102616D03*
D20*
X-96154Y112776D03*
X-82154Y112776D03*
X-113904Y137160D03*
X-127904Y137160D03*
D19*
X-86360Y137048D03*
X-86360Y123048D03*
D20*
X-113904Y162560D03*
X-127904Y162560D03*
X-113904Y149860D03*
X-127904Y149860D03*
D19*
X-73660Y137048D03*
X-73660Y123048D03*
X-60960Y137048D03*
X-60960Y123048D03*
X-100076Y144160D03*
X-100076Y130160D03*
D46*
X33120Y114504D03*
X33120Y76504D03*
X109120Y114504D03*
X109120Y76504D03*
X33120Y101804D03*
X33120Y89104D03*
X109320Y101804D03*
X109320Y89104D03*
M02*
