<?xml version="1.0" encoding="UTF-8"?>
<svg viewBox="0 0 289.37933 453.02405" xmlns="http://www.w3.org/2000/svg">
 <g transform="translate(19.431 19.648)">
  <path d="m96.824 400.99c-0.25827-8.5167-0.9808-17.06-3.1366-25.326-0.48127-2.5754-1.2965-8.1532-0.27077-9.0957 2.1304 7.6109 4.1515 15.343 4.8825 23.228-1.116 4.1975 3.5389 1.3874 2.5671-1.3659 0.4784-1.3969-0.36805-6.6441 0.49608-5.8734 1.2572 4.1882 1.4407 8.8452 3.7097 12.642 1.8737-2.195 0.80133-6.6821 0.99477-9.7399-0.02692-4.8149-2.1516-9.1619-3.8835-13.529-1.2382-4.3889-2.4231-8.8195-4.5528-12.89-1.5271-1.2674-0.8512-6.298 0.94347-3.2282 2.2643 6.0066 3.5152 12.374 6.3004 18.196 1.7976 4.0792 2.9817 8.3869 4.1663 12.654 2.4354 0.67976 2.7518-5.2948 2.2494-7.3868-2.7256-2.8633-1.9054-7.2478-3.625-10.636-2.9457-6.0612-6.1459-12.057-10.142-17.501-2.0728-2.9115 1.5777-2.7019 2.1069-0.19989 2.7019 5.4722 7.2722 9.9393 9.2036 15.802 0.83605 3.9878 2.2397 7.9313 4.1923 11.508 2.3853-2.488 2.9056-6.6233 3.3884-10.033 0.69195-7.3804 0.35587-14.802 0.43668-22.204-3.8983-3.673-7.2064-8.373-12.374-10.312-2.3918-0.11124-2.3774 4.2178-5.5881 3.5587-2.4279-0.16548-1.8553-1.9009 0.19724-1.8174 3.0956-1.9441 2.8936-7.7753 6.4455-8.446 0.37891 3.7442 3.4302 6.4197 5.8818 9.0292l4.9372 4.8952c0.18883-3.671 0.95596-7.3599 0.546-11.025-2.4275-3.1378-7.5785-4.0427-9.046-8.1915 2.3013 0.24469 4.3299 2.3072 6.342 3.5969l3.4796 2.4998c2.224-8.7308 2.6491-17.758 3.3031-26.705 0.09661-3.744 1.5593-7.1475 3.5571-10.235 0.70202-3.8168 3.8009-6.5749 4.8028-10.312 2.9654-7.5547 4.5883-15.586 7.7749-23.046 1.4042-3.2296 2.0966 0.51863 2.1301 1.9666 3.4207 0.82289 7.0515-0.86535 10.497 0.07483-2.0662 2.1532-6.7165 2.7925-9.8935 2.6927-3.3971 0.52885-3.648 5.8515-5.0804 8.5417-2.1612 6.1366-3.3396 12.765-7.345 18.076-1.9842 2.6637-2.8663 5.8395-3.5428 8.9869-0.92682 10.301-0.57999 20.794-3.2054 30.88-1.3997 11.962-0.33012 24.11-2.4734 36.009-0.82354 5.5356-2.2403 11.015-4.8646 15.984-0.65671 3.2914-1.5593 7.3575-5.0876 8.598-0.73435 2.9427-2.1061 5.7072-3.2792 8.3308-2.9136 0.67945-2.7955-7.4368-5.0756-2.7779-0.13959 0.85279-1.9704 7.3039-3.0656 4.127zm0.79827-27.751c-1.5666-4.3262-3.3564-8.7233-3.593-13.367 1.2683-3.1157 2.3209 3.2528 2.4858 4.6226 0.59466 4.4015 3.2893 8.11 4.1105 12.424 0.1525 4.9342-2.7074-3.0198-3.0034-3.6795zm13.137-10.249c-2.6634-5.5684-6.4986-10.428-10.481-15.095-1.9306-1.4534-1.5088-4.6697 0.72543-2.0003 5.487 6.1417 10.192 13.054 13.845 20.438 1.1007 1.552 1.1202 5.3847-0.89738 2.1786-1.2532-1.7221-2.2585-3.6114-3.1917-5.5211zm-19.378-2.897c-0.38476-4.7471-3.1274-8.7725-4.041-13.389-3.3689-15.14-4.3212-30.828-3.1004-46.284 0.12302-5.7721 2.39-11.133 5.0554-16.15 3.4144-7.7688 6.6405-15.877 7.3764-24.399-0.46991-3.6514-6.1721-3.0455-8.7404-5.2712-5.6542-2.3506-11.907-0.11629-17.688-1.5645 1.8306-2.0828 6.9685-1.6434 10.115-1.9093 4.8005 0.10639 9.8385 1.0462 13.705 4.0728 4.5218-1.5617 5.3892 4.0198 4.515 7.4088-1.9754 8.554-4.708 16.979-8.3659 24.964-5.138 8.1357-5.4997 18.021-5.1514 27.338 0.16669 9.7794 1.0508 19.59 3.727 29.031 1.4036 2.5546 0.51092 7.7021 3.2623 8.7165 2.1782-2.078 0.6859-7.9336 3.7223-8.292 0.90768 3.3784 0.19324 8.6871-2.912 10.639-1.3121 2.7316 0.93809 7.5457-0.51759 9.3659-0.53953-1.3652-0.72239-2.8389-0.96228-4.2777zm20.421-7.4359c-2.4149-4.2423-6.295-7.317-9.2084-11.152-2.3273-2.4222 1.468-3.9321 1.92-0.89629 3.9467 4.6621 8.5146 8.971 11.135 14.59 0.71585 4.3816-3.4774-1.6573-3.8467-2.5416zm-8.951-28.417c1.2786-4.0666 4.1859 1.481 0.54627 1.3816-0.41422-0.3241-0.53763-0.88536-0.54627-1.3816zm8.75-6.072c-2.1694-0.58547-4.4385-4.8253-0.54746-2.9122 1.494 0.66375 8.1115 3.31 4.3798 4.3802-1.3678-0.19639-2.6236-0.83275-3.8324-1.4681zm-6.0398-7.428c1.2483-5.2978 4.1903 2.5843 0.31193 1.8703-0.64067-0.39056-0.4424-1.2951-0.31193-1.8703zm8.5398-2.6623c-4.283-2.5325 4.9205-1.8242 2.1138 0.54509-0.74469 0.00597-1.4345-0.28538-2.1138-0.54509zm-5.25-6.6562c0.20458-4.3788 4.7361-0.83124 0.74558 0.87912-0.59031 0.61545-0.911-0.57208-0.74558-0.87912zm6.75-3.3708c-3.4041-0.6507-0.62239-3.8259 1.2545-1.3752 3.0495 2.3011 0.82198 1.9758-1.2545 1.3752zm0.70888-8.3772c-1.7939-4.0912 4.7352 2.1122 0.77791 0.75322l-0.43806-0.33912-0.33985-0.41411v1e-5zm4.0411-6.9335c0.85366-2.9578 5.2188 0.95614 1.1088 0.92108-0.45521-0.17874-0.84582-0.51009-1.1088-0.92108zm93.849-10.144c-10.522-1.6023-21.104-2.9891-31.396-5.7902-8.7656-2.1352-17.809-1.1644-26.661-0.26276-4.2132 0.00592-4.5165-5.9376-7.0077-8.4764 3.913-1.7182 5.3496 4.1692 8.8078 4.7996 2.0104 0.99454 5.4893 0.15905 1.7296-0.9793-1.7392-0.03519-5.1887-2.9008-1.4609-2.6891 11.086 0.98075 21.264 6.3692 32.393 7.1896 2.5848-0.3776 7.6536 2.3173 8.8359 0.49806-3.6107-1.998-9.0665-0.47186-11.214-5.1636-1.9042-2.611-7.162-7.3598-1.424-8.8629 3.2268-1.7296 6.6847-3.0405 10.319-3.5094 1.6696-0.20812 5.9018-2.2232 1.7528-2.0872-9.5116-0.45485-19.086 0.48275-28.559-0.64708-4.6322-1.1458-8.8343-3.6584-13.565-4.5606-6.059-1.023-11.285-4.339-16.367-7.5821-3.5834-2.2178-7.5359-3.7183-11.347-5.448-3.279-3.2617 3.2633-1.394 4.7405-0.30843 3.7764 1.5452 7.3576 3.4762 10.744 5.7233 8.6268 4.3871 18.138 6.5258 27.238 9.6616 7.8192 1.2217 15.78 0.25638 23.65 0.14144 9.067-0.28527 18.12-0.83226 27.117-2.0113 5.3442-0.47962 10.693-1.2682 16.046-1.4292-1.5673 2.7632-6.7021 2.3479-9.8107 3.3028-12.883 2.2206-25.992 4.6975-37.831 10.465-5.7442 1.3317-0.43017 6.8093 2.6208 7.9144 8.549 3.3096 17.672 4.7776 26.582 6.8078 6.2673 1.336 12.631 2.252 19.035 2.492 4.1653 1.9484-4.0075 1.6896-5.8786 1.7602-6.3671 0.01376-12.775-0.06698-19.09-0.9484zm-162.35-7.8361c2.6586-5.6404 8.0991-10.031 8.8444-16.533 0.81846-5.9433 3.3758-11.815 8.3518-15.428 3.3424-2.4824 6.5776-5.3941 10.52-6.8431 3.958-0.49101 7.347 3.1806 11.401 1.9748 4.4709 0.08614 6.4574-3.1172 8.0928-6.6734 2.3654-3.2016 4.2551-7.1262 3.2316-11.193-1.2074-7.2693-4.6345-14.776-1.8741-22.12 1.3523-4.1168 4.7313-6.9486 7.6217-9.9827-11.231-0.87595-22.659-2.3124-32.885-7.352-5.1439-2.2238-9.1908-6.12-13.062-10.049-6.167 0.01086-12.356-0.48675-18.506 0.04004-5.3847 0.90248-9.3311 5.5674-14.617 6.5915 1.8633-3.3054 5.1669-5.6908 7.8729-8.3495 2.9116-2.2756 5.8912-6.3319 10.07-5.0914 2.169 0.33941 2.629 2.234 0.23165 2.2826 0.16707 3.0324 6.127 1.0692 8.575 2.2255 3.0096 1.1323 6.0184 1.1561 8.6538-0.40946 1.4504 3.2947 3.6911 6.6052 6.6056 8.9329 5.084 3.1107 11.148 3.9958 16.774 5.7331 7.2806 1.9171 14.717 3.1204 22.121 4.4459 5.3962-4.6828 11.473-8.5249 18.013-11.412 2.8448-1.1168 9.1295-3.975 3.877-6.7951-3.8209-3.0506-8.2471-5.7379-13.18-6.2883-3.067-0.90385-1.1324-3.7358 1.2968-2.0196 5.4541 1.797 10.585 4.6266 14.857 8.4778 3.3438 3.0801 7.7153 0.61507 11.432 0.03218 0.77226 2.7125 1.3745 6.2285 5.0987 6.8494 6.1034 2.7113 12.851 3.2563 19.108 5.4936 12.204 2.6131 24.706 3.488 37.158 3.8308 1.3437-0.12792 7.5535 0.68496 3.1313 1.5415-12.875 0.90742-25.794-0.84598-38.657-0.33612 2.5305 2.0366 5.1486 4.3616 8.4978 5.4548 7.8791 3.3989 16.707 2.3686 25.044 3.3084 2.5796 0.62437 8.644-0.2026 8.635 2.6482-7.5769 0.45417-15.214-0.22394-22.741-1.1342-6.6134-1.6851-13.537-1.8681-20.114-3.8103-6.7111-1.3865-12.991-4.5502-19.828-5.3073-3.5698-0.02953-7.0497 0.90719-10.563 1.4276-1.5162 5.1333-3.2981 10.409-2.1676 15.829 1.3284 10.098 1.9907 20.324 1.6172 30.506 0.19735 2.0164-1.7987 5.1144-1.7381 1.255-0.95164-12.718 0.18527-25.714-3.0264-38.181 0.17515-2.1713-1.563-0.95568-2.8197-0.59246-2.5413 0.70334-5.0516 2.1823-7.7102 1.9357 0.48739-3.1316 5.942-3.2614 8.5619-4.6703 3.9127-0.81094 2.7672-5.9088 5.9678-8.0894 2.1186-1.8624 3.2625-5.7116 2.4685-8.0766-4.2193-5.9e-4 -7.86 2.805-11.092 5.2337-1.1252 1.1105-7.161 3.4737-3.9356 0.22535 1.3165-1.6098 7.1957-4.1178 5.9342-4.9877-2.6421 0.7067-5.5855 4.0083-7.9596 3.2922 2.2745-3.444 7.2554-3.8124 9.5111-7.2826-3.7601 0.09193-8.059 3.4588-11.822 5.1178-3.905 1.6602-6.9216 4.9772-10.865 6.4324-3.5033 3.305-6.8017 6.9179-9.7038 10.772-2.5789 4.4007-0.81511 9.758 0.28904 14.341 1.462 4.7187 3.3619 9.953 1.658 14.845-3.3061 3.3305-2.0333 9.0644-6.0569 11.986-2.3834 2.2631-6.0788 1.4162-7.3009 4.7828-3.726 2.3068-7.9478 3.8852-11.249 6.8829-3.3511 2.2412-5.1416 7.043-9.6157 7.2607-2.6654-0.32784-6.2519 2.3938-2.8238 3.893-2.3002 3.9997-6.2396 6.7596-9.4858 9.9759-1.3398 0.70207-4.9197 5.7349-5.7239 3.1513zm117.37-86.461c-3.1316-0.67351-5.1276-3.7188-1.7298-5.3467-4.0664-1.2812-8.2591-2.3411-12.362-3.5869-2.6678-0.32663-4.6408-0.85725-6.4006-2.226-4.0588-0.61671-3.1254 5.0712-5.5696 7.2198-0.72681 1.1521-2.0756 2.6494 0.23955 2.1137 7.9483 0.12142 16.161-0.5114 23.713 2.4568 1.6009 0.84397 6.1042 0.91024 2.1101-0.6308zm-27.62-10.925c3.4462 0.35107 2.7872-6.6517-0.50001-3.2364-1.6964 1.054-5.9823 3.2831-5.6357 4.4225 2.0116-0.54835 4.0495-1.0373 6.1357-1.1861zm-12.75 43.792c0.48401-3.6309 6.4434 1.3379 2.0833 1.5733-0.91918 0.044-2.1031-0.50144-2.0833-1.5733zm-0.5-5.4267c0.70451-2.3874 9.5071-0.41035 3.9736 0.92109-1.3367 0.16936-2.9694 0.09238-3.9736-0.92109zm-1.5-6c1.1427-1.5004 5.7543-2.002 6.7869-1.549-1.0837 2.0576-5.3413 3.7416-6.7869 1.549zm-1.45-5.8787c2.7341-1.486 5.9428-1.5172 8.95-2.0536-2.9171 1.2733-6.0196 3.3557-9.2476 2.6486l-0.01668-0.15713 0.31429-0.4379zm-0.75063-12.528c-0.01678-5.3371 6.7878-3.69 9.9084-6.124 1.3073-1.5936 7.7386-1.903 3.8678 0.52741-4.4074 1.2097-8.7532 3.1331-12.247 6.1192 1.5545 1.9791 6.9987-2.7964 8.6718-0.21319-2.3292 2.104-7.8042 4.5042-10.287 2.062-0.11248-0.78929 0.00613-1.5856 0.08625-2.3714zm-2.7413-6.3447c-2.809-1.3926-0.91777-4.2099 1.4317-1.8413 2.7193 2.0379 1.0388 4.5375-1.4317 1.8413zm-78.023-23.498c1.0208-4.6966 5.1838-7.96 8.8649-10.688 4.9839-3.5549 11.341-3.0006 17.151-3.0625-1.4419-3.4198-3.8968-6.2571-6.9371-8.385-4.8583-3.1524-10.315-7.5008-10.14-13.906 0.17896-5.1409 3.0159-9.7444 6.1417-13.648 2.3592-0.16458-1.4978 5.6033-2.3 7.389-2.3669 4.1965-2.5915 10.065 1.3742 13.404 2.6429 2.8299 5.6986 5.2886 9.1207 7.0805 2.3403 2.67 2.4159 6.7295 4.9467 9.3841 2.4221 2.7512 7.7512 6.7156 10.545 2.3271 4.5144-5.906 5.699-13.608 5.9264-20.848 0.42735-3.004-4.5611-0.57939-4.1922-4.2683-1.4825-9.1564-0.67108-18.502-1.1289-27.738-0.34695-5.498-0.15238-11.224-2.0866-16.458-3.004-3.0117-4.9717 4.3438-6.6566 6.2824-1.7544 2.8244-3.5615 6.5151-6.1052 8.1998 0.32317 0.75701 0.1006 5.0519 1.2111 3.3998 3.8124-4.2526 6.369-9.4298 9.956-13.839 3.3684 0.02972-2.2764 5.1425-2.7266 7.0392-1.8961 3.8546-5.2879 7.0074-6.3672 11.219-2.641-0.62599-6.0577-2.3906-7.3995 1.4976-0.44169 2.0886-4.5711 4.6676-2.5092 1.0009 2.1739-3.105 2.4564-7.1851 4.3291-10.507 2.7084-5.7597 4.8242-11.859 8.821-16.909 1.8151-2.5459 5.199-8.6398 7.2593-2.8111 4.0725 6.1089 3.2254 13.704 3.5685 20.669 0.29375 8.7485-0.0825 17.557 1.0288 26.255-0.1533 2.8022 4.6377 5.6289 3.4327 0.98269-0.29115-8.8158-2.4252-18.434 2.2739-26.525 2.3924-3.3573 1.3564-8.3288 5.9654-9.7012 3.0446-2.224 4.6043-5.888 7.616-8.267 4.7421-4.5015 9.336-9.1796 14.081-13.661 3.9059-0.56749 5.5176-6.1164 9.3249-5.9519 1.1111-2.6242 4.0076-5.2884 6.518-7.2573 1.4328-1.7893 4.6178-2.5172 5.8099-3.0429 0.24717-4.224 5.3321-6.2468 7.9866-9.0958 6.6536-5.4289 13.815-10.217 21.114-14.718 5.3355-2.8383 4.3263 4.7167 2.7682 7.5685-6.1584 16.487-16.801 30.704-26.853 44.96-3.2715 4.6007-4.8251 10.312-9.0044 14.271-1.4462 3.8488-4.3353 7.2954-6.6301 10.795-2.3647 2.7468-4.2882 5.7769-5.5489 9.2037-2.6249 5.2141-3.1714 11.096-2.8673 16.847-0.07157 9.3216-0.15169 18.688-1.3238 27.946-0.94533 1.6263-0.6081-4.2469-0.80052-5.5098-0.11268-10.162-0.34058-20.355 0.38424-30.498 0.88723-6.5806 4.5478-12.385 7.7866-18.042 4.9692-7.409 10.324-14.66 14.127-22.762 0.31727-1.4591-2.2415-3.4401 1.1107-3.5685 2.3671-1.3164 6.2726-4.8217 2.3931-6.5407 3.0432-1.059 6.8008-3.114 6.0232-6.9005 2.1326 0.20276 6.8518-3.4884 4.6863-4.9111-3.2822 1.3088-1.644-2.2624 0.76638-1.4857 3.2968-0.39154 2.9726-3.6044 1.3956-5.3772 1.111-2.2643 8.0632-1.8416 6.1464-5.2835-1.9521 1.015-4.9937-0.10803-1.9807-1.8085 1.9941-0.14092 6.7384-4.4445 2.0963-3.0008-1.2178 0.68457-6.1065 2.1662-3.7525-0.40978 3.5612-0.89125 7.0376-3.2482 9.2244-6.1656-3.1092-0.10404-5.8001 2.9741-8.8614 3.8381-2.1636-0.70121 5.142-4.6555 4.017-5.1955-3.8416 1.3725-6.5076 4.5208-9.5849 6.9909-5.0144 1.704-7.3707 7.5634-12.624 8.8317-5.2406 3.3765-9.3345 8.2114-14.341 11.914-9.4274 7.2326-18.43 15.089-26.504 23.817-1.1181 1.6218-1.8275 3.412-3.5716 4.3439 2.748 2.426 1.924 6.9363-1.8458 7.3188 0.10471-1.4855 0.52712-5.5327-1.7455-2.584-2.1274 2.2138-1.2683 4.489-0.17693 6.6392-0.5633 3.7117-1.49 0.71842-2.5651-0.23034-3.1628 6.7215-0.93829 14.222-1.044 21.3 0.00723 9.1651-0.39161 18.909-5.2939 26.959-0.48427 4.0991-4.8996 6.5541-8.7414 6.1602-3.2081-2.3568-7.7052-0.95594-11.382-0.61462-5.6369 0.60709-10.348 4.4473-16.041 4.7083-2.0387-0.45567-4.8685 5.2308-5.6595 1.6316zm32.311-79.173c0.94336-1.3678 3.353-6.5068 0.71526-5.8922-0.76468 4.9073-4.3159 8.8121-6.6022 13.094-1.2049 1.5555-2.0746 4.417 0.17162 1.4122 2.1295-2.711 4.029-5.6078 5.7154-8.6135zm94.154-49.577c0.87427-2.844-6.3634 2.0128-1.6037 0.91173 0.59791-0.14142 1.2376-0.38329 1.6037-0.91173zm-68.826 122.3c-1.5902-0.40347-3.7113-2.7432-0.64735-1.5799 1.4657 0.67695 5.9656 1.7933 5.4731 3.1001-1.6927-0.13307-3.3152-0.77701-4.8258-1.5202zm-10.174-1.303c1.334-1.5526 6.8292-0.57647 3.0638 0.79755-0.55914 0.12812-6.4284 0.44848-3.0638-0.79755zm-14.5-29.5c1.2786-4.0665 4.1859 1.481 0.54628 1.3816-0.41422-0.3241-0.53763-0.88534-0.54628-1.3816zm-1-5.0657c-0.34049-2.4311 4.4063-5.9553 5.4235-3.7617-1.2662 0.80922-4.1666 5.24-5.4235 3.7617zm-1.3616-5.9343c2.663-2.052 2.9287-6.1473 6.8082-7.2786 2.4349 0.26218-2.2753 3.6959-3.0342 5.1227-0.65949 1.1239-3.3601 6.5646-3.774 2.1559zm-3.6384-5.3129c2.4322-3.2231 5.314-6.3691 7.5-9.5487 1.6514-0.42793 1.8588-5.821 3.5221-2.5146-0.52414 3.7556-5.1019 5.0233-5.702 8.7982-0.86769 0.93893-4.364 5.6455-5.3201 3.2651zm38-3.1281c-0.41052-4.982 3.3013 2.0168 0.28092 1.2806l-0.20546-0.52772-0.07546-0.75284zm8 0.586c0.35857-2.1263 5.0967-5.8136 5.7633-4.649-1.1389 1.0386-4.374 6.1747-5.7633 4.649zm-12-4.645c1.6133-3.3066 2.8534 2.8084 0.07891 0.38828l-0.07891-0.38828zm21.079-12.5c1.6099-3.0793 3.9262-6.1462 6.8326-8.0526-1.1515 3.1852-3.9052 5.963-6.5581 8.1318l-0.20306 0.0417-0.07141-0.12094zm7.057-11.628c-1.0951-2.2103 4.6053-6.9551 1.7252-3.0928-0.9856 1.414-1.286 4.5914-1.6004 5.5003l-0.12478-2.4076zm-0.13617-8.8134c-0.41053-4.982 3.3013 2.0168 0.28091 1.2806l-0.20546-0.52772-0.07546-0.75284h1e-5zm0-6.059c1.369-3.0656 4.9837 1.5818 0.91757 0.92109-0.42089-0.11668-0.90786-0.42551-0.91757-0.92109z"/>
 </g>
</svg>
